<?xml version="1.0" encoding="utf-8"?>
<!-- Generator: Adobe Illustrator 19.0.0, SVG Export Plug-In . SVG Version: 6.00 Build 0)  -->
<svg version="1.1" id="Layer_1" xmlns="http://www.w3.org/2000/svg" xmlns:xlink="http://www.w3.org/1999/xlink" x="0px" y="0px"
	 viewBox="-183.6 549 130.3 45.9" style="enable-background:new -183.6 549 130.3 45.9;" xml:space="preserve">
<style type="text/css">
	.st0{fill:#FFFFFF;}
</style>
<g>
	<g>
		<g>
			<g>
				<g>
					<path class="st0" d="M-134.9,594.9c0-29.9-7.2-41.5-9.9-44.8c-2.8,3.3-5.4,6.8-7.7,10.2c8.8,11,6.6,34.6,6.6,34.6H-134.9z"/>
				</g>
				<g>
					<path class="st0" d="M-97.1,594.9c0-30-7.2-41.5-9.9-44.8c-2.8,3.3-5.4,6.8-7.7,10.2c8.8,11,6.6,34.6,6.6,34.6
						S-97.1,594.9-97.1,594.9z"/>
				</g>
				<g>
					<path class="st0" d="M-133.2,594.9c0,0,7.6-25.2,25.2-45.9h-11.5c0,0-16.5,10.6-26.3,45.9H-133.2z"/>
				</g>
				<g>
					<path class="st0" d="M-59.3,594.9c0-29.9-7.2-41.5-9.9-44.8c-2.8,3.3-5.4,6.8-7.7,10.2c8.8,11,6.6,34.6,6.6,34.6H-59.3z"/>
				</g>
				<g>
					<path class="st0" d="M-95.4,594.9H-108c9.8-35.3,26.3-45.9,26.3-45.9h11.5c-9.1,10.7-15.6,22.6-19.6,31.6h15.5l-0.2,2.7
						C-74.6,583.4-90.3,581.9-95.4,594.9z"/>
				</g>
				<g>
					<path class="st0" d="M-171,594.9h-12.6c9.8-35.3,26.3-45.9,26.3-45.9h11.5c-9.1,10.7-15.5,22.6-19.6,31.6h15.5l-0.2,2.7
						C-150.2,583.4-165.9,581.9-171,594.9z"/>
				</g>
			</g>
		</g>
		<g>
			<g>
				<g>
					<g>
						<path class="st0" d="M-57.7,550.1c0.6,0,1.2,0.1,1.7,0.3c0.5,0.2,1,0.6,1.4,1c0.4,0.4,0.7,0.9,1,1.4c0.2,0.5,0.3,1.1,0.3,1.7
							c0,0.6-0.1,1.2-0.3,1.7c-0.2,0.5-0.5,1-1,1.4c-0.4,0.4-0.9,0.8-1.5,1c-0.5,0.2-1.1,0.3-1.7,0.3c-0.6,0-1.2-0.1-1.7-0.3
							c-0.5-0.2-1-0.6-1.4-1c-0.4-0.4-0.7-0.9-1-1.4c-0.2-0.5-0.3-1.1-0.3-1.7c0-0.6,0.1-1.2,0.3-1.7c0.2-0.5,0.6-1,1-1.5
							c0.4-0.4,0.9-0.7,1.4-0.9C-58.9,550.2-58.3,550.1-57.7,550.1z M-53.8,554.6c0-0.5-0.1-1-0.3-1.5c-0.2-0.5-0.5-0.9-0.8-1.2
							c-0.4-0.4-0.8-0.7-1.3-0.9c-0.5-0.2-1-0.3-1.5-0.3c-0.5,0-1,0.1-1.5,0.3c-0.5,0.2-0.9,0.5-1.2,0.8c-0.4,0.4-0.7,0.8-0.9,1.3
							c-0.2,0.5-0.3,1-0.3,1.5c0,0.5,0.1,1,0.3,1.4s0.5,0.9,0.8,1.2c0.4,0.4,0.8,0.7,1.2,0.9c0.5,0.2,1,0.3,1.5,0.3
							c0.5,0,1-0.1,1.5-0.3c0.5-0.2,0.9-0.5,1.3-0.8c0.4-0.4,0.6-0.8,0.8-1.2C-53.9,555.6-53.8,555.1-53.8,554.6z M-57.6,551.9
							c0.7,0,1.2,0.1,1.6,0.3c0.4,0.2,0.5,0.6,0.5,1c0,0.4-0.1,0.7-0.3,0.9s-0.5,0.4-0.8,0.5l1.1,2.3h-1.1l-1-2.1h-0.9v2.1h-1v-5
							H-57.6z M-57.8,552.5h-0.8v1.7h0.8c0.5,0,0.8-0.1,1-0.2c0.2-0.1,0.3-0.3,0.3-0.6c0-0.3-0.1-0.5-0.3-0.7
							C-57,552.6-57.3,552.5-57.8,552.5z"/>
					</g>
				</g>
			</g>
		</g>
	</g>
</g>
</svg>
