<?xml version="1.0" encoding="utf-8"?>
<!-- Generator: Adobe Illustrator 19.0.0, SVG Export Plug-In . SVG Version: 6.00 Build 0)  -->
<svg version="1.1" id="Calque_1" xmlns="http://www.w3.org/2000/svg" xmlns:xlink="http://www.w3.org/1999/xlink" x="0px" y="0px"
	 viewBox="-245.3 532.3 174.4 56.6" style="enable-background:new -245.3 532.3 174.4 56.6;" xml:space="preserve">
<style type="text/css">
	.st0{fill:#FFFFFF;}
</style>
<g>
	<path class="st0" d="M-245.3,535.8L-245.3,535.8l0.1,40.2l23,12.9l23-12.9v-40.2C-223.2,527.9-245.3,535.8-245.3,535.8z
		 M-232.4,568.3h-4.3v-25.6h4.3V568.3z M-207.8,568.3h-4l-11.9-17.1v17.1h-4.3v-25.6h4l11.9,17.1v-17.1h4.3V568.3z"/>
	<g>
		<path class="st0" d="M-182.4,548.7v-5.8h4.2v5.8h7.3v3.8h-7.3v8.3c0,2.6,1.4,3.6,3,3.6c1.3,0,2.7-0.6,3.8-1.3l1.7,3.3
			c-1.5,1-3.5,1.9-5.9,1.9c-4.3,0-6.9-2.3-6.9-7.4v-8.4"/>
		<path class="st0" d="M-149.7,559.7c0,6.1-4.4,8.6-8.9,8.6s-8.9-2.5-8.9-8.6v-11h4.2v10.6c0,3.7,2.1,5,4.7,5c2.6,0,4.7-1.4,4.7-5
			v-10.6h4.2L-149.7,559.7L-149.7,559.7z"/>
		<path class="st0" d="M-140.4,542.1c0,1.7-1.3,2.9-3,2.9s-2.9-1.3-2.9-2.9c0-1.6,1.3-3,2.9-3C-141.7,539.2-140.4,540.5-140.4,542.1
			z M-141.2,567.8h-4.2v-19.1h4.2V567.8z"/>
		<path class="st0" d="M-136.6,548.7v-5.8h4.2v5.8h7.3v3.8h-7.3v8.3c0,2.6,1.4,3.6,3,3.6c1.3,0,2.7-0.6,3.8-1.3l1.7,3.3
			c-1.5,1-3.5,1.9-5.9,1.9c-4.3,0-6.9-2.3-6.9-7.4v-8.4v-3.8H-136.6z"/>
		<path class="st0" d="M-115,542.1c0,1.7-1.3,2.9-3,2.9s-2.9-1.3-2.9-2.9c0-1.6,1.3-3,2.9-3C-116.3,539.2-115,540.5-115,542.1z
			 M-115.8,567.8h-4.2v-19.1h4.2V567.8z"/>
		<path class="st0" d="M-92.1,558.3c0,5.7-4.4,10-10.3,10c-5.9,0-10.3-4.3-10.3-10s4.4-10,10.3-10
			C-96.5,548.2-92.1,552.6-92.1,558.3z M-108.4,558.3c0,3.6,2.6,6.1,6,6.1s6-2.5,6-6.1s-2.6-6.1-6-6.1S-108.4,554.7-108.4,558.3z"/>
		<path class="st0" d="M-70.9,555.8v12h-4.2v-10.6c0-3.2-1.7-5-4.4-5s-4.9,1.8-4.9,5v10.6h-4.2v-19.1h4.1v2.3
			c1.5-2.3,3.9-2.8,5.9-2.8C-74.1,548.2-70.9,551.4-70.9,555.8z"/>
		<rect x="-194" y="553.7" class="st0" width="7.3" height="3.8"/>
	</g>
	<g>
		<path class="st0" d="M-175.7,581.3h-5.6v-8h1v7h4.6V581.3z"/>
		<path class="st0" d="M-169.4,581.3h-0.9v-0.7c-0.4,0.5-1.1,0.8-1.9,0.8c-1.5,0-2.7-1.2-2.7-2.8c0-1.6,1.2-2.8,2.7-2.8
			c0.8,0,1.5,0.3,1.9,0.8v-0.7h0.9V581.3z M-174,578.6c0,1.1,0.8,1.9,1.9,1.9c1.1,0,1.9-0.8,1.9-1.9c0-1.1-0.8-1.9-1.9-1.9
			C-173.2,576.7-174,577.5-174,578.6z"/>
		<path class="st0" d="M-162.5,578v3.4h-0.9v-3.1c0-1-0.5-1.6-1.5-1.6c-0.9,0-1.6,0.6-1.6,1.6v3h-0.9v-5.4h0.9v0.7
			c0.4-0.6,1.1-0.8,1.8-0.8C-163.4,575.8-162.5,576.7-162.5,578z"/>
		<path class="st0" d="M-156.4,576.7V576h0.9v5c0,1.7-1.2,2.7-2.9,2.7c-0.8,0-1.7-0.3-2.3-0.7l0.4-0.8c0.5,0.4,1.2,0.6,1.9,0.6
			c1.2,0,1.9-0.7,1.9-1.9v-0.5c-0.4,0.5-1,0.8-1.9,0.8c-1.5,0-2.7-1.1-2.7-2.8c0-1.6,1.2-2.8,2.7-2.8
			C-157.5,575.8-156.9,576.1-156.4,576.7z M-160,578.6c0,1.1,0.7,1.9,1.8,1.9c1.1,0,1.8-0.8,1.8-1.9c0-1.1-0.8-1.9-1.8-1.9
			C-159.3,576.7-160,577.5-160,578.6z"/>
		<path class="st0" d="M-148.7,579.1c0,1.6-1.2,2.4-2.5,2.4s-2.5-0.7-2.5-2.4V576h0.9v3.1c0,1.1,0.7,1.6,1.5,1.6
			c0.9,0,1.5-0.5,1.5-1.6V576h0.9v3.1H-148.7z"/>
		<path class="st0" d="M-141.6,581.3h-0.9v-0.7c-0.4,0.5-1.1,0.8-1.9,0.8c-1.5,0-2.7-1.2-2.7-2.8c0-1.6,1.2-2.8,2.7-2.8
			c0.8,0,1.5,0.3,1.9,0.8v-0.7h0.9V581.3z M-146.2,578.6c0,1.1,0.8,1.9,1.9,1.9c1.1,0,1.9-0.8,1.9-1.9c0-1.1-0.8-1.9-1.9-1.9
			C-145.5,576.7-146.2,577.5-146.2,578.6z"/>
		<path class="st0" d="M-135.5,576.7V576h0.9v5c0,1.7-1.2,2.7-2.9,2.7c-0.8,0-1.7-0.3-2.3-0.7l0.4-0.8c0.5,0.4,1.2,0.6,1.9,0.6
			c1.2,0,1.9-0.7,1.9-1.9v-0.5c-0.4,0.5-1,0.8-1.9,0.8c-1.5,0-2.7-1.1-2.7-2.8c0-1.6,1.2-2.8,2.7-2.8
			C-136.6,575.8-136,576.1-135.5,576.7z M-139.1,578.6c0,1.1,0.7,1.9,1.8,1.9s1.8-0.8,1.8-1.9c0-1.1-0.8-1.9-1.8-1.9
			C-138.4,576.7-139.1,577.5-139.1,578.6z"/>
		<path class="st0" d="M-127.8,578.6c0,0.1,0,0.2,0,0.3h-4.3c0.1,1.1,0.9,1.7,1.8,1.7c0.6,0,1.2-0.2,1.7-0.6l0.5,0.6
			c-0.7,0.6-1.4,0.8-2.2,0.8c-1.6,0-2.7-1.1-2.7-2.8s1.1-2.8,2.7-2.8C-128.9,575.8-127.8,577-127.8,578.6z M-132.1,578.2h3.3
			c-0.1-1-0.7-1.6-1.6-1.6C-131.3,576.6-131.9,577.3-132.1,578.2z"/>
		<path class="st0" d="M-122.6,577.1c-0.3-0.2-1-0.5-1.7-0.5s-1.2,0.3-1.2,0.8c0,0.4,0.4,0.6,1,0.7l0.6,0.1c1.1,0.2,1.8,0.6,1.8,1.5
			c0,1-0.9,1.7-2.4,1.7c-0.7,0-1.6-0.2-2.3-0.7l0.4-0.7c0.4,0.3,0.9,0.6,1.8,0.6c0.9,0,1.4-0.3,1.4-0.8c0-0.4-0.4-0.6-1.1-0.7
			l-0.6-0.1c-1.2-0.1-1.8-0.7-1.8-1.5c0-1,0.9-1.7,2.2-1.7c0.9,0,1.6,0.2,2.2,0.6L-122.6,577.1z"/>
		<path class="st0" d="M-112,581.3l-1.2-1.1c-0.6,0.7-1.3,1.2-2.4,1.2c-1.4,0-2.3-0.8-2.3-2c0-1,0.7-1.7,1.5-2.3
			c-0.8-0.8-1.1-1.3-1.1-2c0-1,0.8-1.8,2-1.8s2,0.7,2,1.8c0,0.9-0.7,1.5-1.5,2.1l1.7,1.7l1.2-1.8l0.8,0.5l-1.3,2l1.9,1.9h-1.3V581.3
			z M-113.8,579.6l-1.9-1.9c-0.6,0.5-1.2,1-1.2,1.7c0,0.7,0.6,1.2,1.4,1.2C-114.8,580.6-114.3,580.2-113.8,579.6z M-115.6,576.5
			c0.6-0.5,1.2-0.9,1.2-1.5c0-0.6-0.4-0.9-1.1-0.9c-0.6,0-1,0.4-1,1C-116.6,575.6-116.3,575.9-115.6,576.5z"/>
		<path class="st0" d="M-100.7,581.3h-5.7v-8h5.6v0.9h-4.6v2.5h4.4v0.9h-4.4v2.6h4.7V581.3z"/>
		<path class="st0" d="M-96.2,578.6l2.1,2.8h-1.1l-1.6-2.1l-1.6,2.1h-1.1l2.1-2.8l-2.1-2.6h1.1l1.6,2l1.6-2h1.1L-96.2,578.6z"/>
		<path class="st0" d="M-88,581.3h-0.9v-0.7c-0.4,0.5-1.1,0.8-1.9,0.8c-1.5,0-2.7-1.2-2.7-2.8c0-1.6,1.2-2.8,2.7-2.8
			c0.8,0,1.5,0.3,1.9,0.8v-0.7h0.9V581.3z M-92.6,578.6c0,1.1,0.8,1.9,1.9,1.9c1.1,0,1.9-0.8,1.9-1.9c0-1.1-0.8-1.9-1.9-1.9
			C-91.9,576.7-92.6,577.5-92.6,578.6z"/>
		<path class="st0" d="M-77.1,578v3.4H-78v-3.1c0-1-0.5-1.6-1.5-1.6c-0.9,0-1.6,0.6-1.6,1.6v3H-82v-3.1c0-1-0.5-1.6-1.5-1.6
			c-0.9,0-1.6,0.6-1.6,1.6v3H-86v-5.4h0.9v0.8c0.4-0.6,1.1-0.8,1.8-0.8c0.9,0,1.6,0.4,2,1.1c0.4-0.8,1.3-1.1,2-1.1
			C-78,575.8-77.1,576.7-77.1,578z"/>
		<path class="st0" d="M-71.5,577.1c-0.3-0.2-1-0.5-1.7-0.5s-1.2,0.3-1.2,0.8c0,0.4,0.4,0.6,1,0.7l0.6,0.1c1.1,0.2,1.8,0.6,1.8,1.5
			c0,1-0.9,1.7-2.4,1.7c-0.7,0-1.6-0.2-2.3-0.7l0.4-0.7c0.4,0.3,0.9,0.6,1.8,0.6c0.9,0,1.4-0.3,1.4-0.8c0-0.4-0.4-0.6-1.1-0.7
			l-0.6-0.1c-1.2-0.1-1.8-0.7-1.8-1.5c0-1,0.9-1.7,2.2-1.7c0.9,0,1.6,0.2,2.2,0.6L-71.5,577.1z"/>
	</g>
</g>
</svg>
