<?xml version="1.0" encoding="utf-8"?>
<!-- Generator: Adobe Illustrator 19.0.0, SVG Export Plug-In . SVG Version: 6.00 Build 0)  -->
<svg version="1.1" id="Calque_1" xmlns="http://www.w3.org/2000/svg" xmlns:xlink="http://www.w3.org/1999/xlink" x="0px" y="0px"
	 viewBox="-137 301 320.7 240.9" style="enable-background:new -137 301 320.7 240.9;" xml:space="preserve">
<style type="text/css">
	.st0{fill:#FFFFFF;}
</style>
<g id="XMLID_170_">
	<g id="XMLID_67_">
		<g id="XMLID_101_">
			<g id="XMLID_134_">
				<path id="XMLID_165_" class="st0" d="M-58.1,483.4h-69.5c-0.9,4.7-4,7.2-9.3,7.5v-3.1c4.3,0,6.4-2.3,6.4-7.8v-17.6h3.2v17.7
					h69.1v3.3H-58.1z"/>
				<path id="XMLID_162_" class="st0" d="M-48,456.9l-2.2,0.3c-0.3-1.3-1-2-2.2-2c-1.5,0-2.3,1.1-2.3,3.1c0,0.8,0.2,1.5,0.6,2h6.1
					v2.3h-10.9v-2.3h2.3c-0.2-0.6-0.4-1.3-0.4-2c0-1.4,0.4-2.6,1.1-3.4c0.8-1,2-1.5,3.5-1.5C-50,453.3-48.5,454.5-48,456.9z
					 M-48,464.9v10.4c0,5.4-2.3,8.1-6.8,8.1h-4.1v-3.2h3c1.9,0,3.2-0.6,3.9-1.9c0.4-0.8,0.6-2.3,0.6-4.4v-9H-48L-48,464.9z"/>
				<path id="XMLID_160_" class="st0" d="M-38.6,483.4h-3.2v-29.8h3.2V483.4z"/>
				<path id="XMLID_157_" class="st0" d="M-17.4,483.4H-25c-1.2,4.7-4.4,7.2-9.7,7.5v-3.1c4.3,0,6.4-2.3,6.4-7.8v-17.6h3.2v17.7h7.6
					L-17.4,483.4L-17.4,483.4z M-25,459.2h-3.3v-3.9h3.3V459.2z"/>
				<path id="XMLID_154_" class="st0" d="M18.2,483.4h-36.9v-3.2h28c0-0.6,0.1-1.2,0.1-1.7c0-7.8-4.1-12.2-11.3-12.2
					c-3.9,0-6.8,1.5-8.6,4.6c-0.5-0.5-1.4-1.4-2.8-2.9c2.6-3.3,6.4-4.9,11.4-4.9c9.2,0,15.2,6.1,15.2,15.6v1.4h5.1v3.3H18.2z
					 M0.5,490.4h-3.3v-3.9h3.3V490.4z"/>
				<path id="XMLID_152_" class="st0" d="M27.9,453.6v21.7c0,5.4-2.3,8.1-6.8,8.1h-4v-3.2H20c2,0,3.3-0.6,3.9-1.9
					c0.5-0.8,0.7-2.3,0.7-4.4v-20.2h3.3V453.6z"/>
				<path id="XMLID_150_" class="st0" d="M37.3,483.4h-3.2v-29.8h3.2V483.4z"/>
				<path id="XMLID_146_" class="st0" d="M57.6,483.4h-5.1v-29.7h5.1V483.4z"/>
				<path id="XMLID_144_" class="st0" d="M80.4,483.4h-8.2c-0.8,4.9-5,7.6-11.2,7.6v-4.4c4.3,0,6.4-2.1,6.4-6.5v-17.6h5.2v15.6h7.9
					L80.4,483.4L80.4,483.4z"/>
				<path id="XMLID_141_" class="st0" d="M148.3,475.1c0,5.6-2.6,8.3-7.7,8.3H79v-5.2h60.5c1.7,0,2.8-0.5,3.3-1.5
					c0.2-0.6,0.4-1.7,0.4-3.3v-10.8h5.1L148.3,475.1L148.3,475.1z M148.3,493.5h-5v-5.1h5V493.5z"/>
				<path id="XMLID_138_" class="st0" d="M172.5,482.7c0,5.5-3.3,8.2-10,8.2v-4.1c3.2-0.1,4.8-2.3,4.9-5.8c-0.9,1.6-2.5,2.3-4.9,2.3
					c-5.9,0-9.9-4.4-9.9-10.5c0-6.2,4.1-10.4,9.9-10.4c6.1,0,9.9,4.5,9.9,10.6v9.7H172.5z M167.3,473.1c0-3.6-1.9-6-4.9-6
					c-2.7,0-4.5,2.6-4.5,5.7c0,3.2,1.9,5.8,4.7,5.8C165.4,478.7,167.3,476.2,167.3,473.1z"/>
				<path id="XMLID_135_" class="st0" d="M183.7,451.3h-8v-2.1h1.8c-0.3-0.9-0.4-1.4-0.4-1.6c0-2.2,1.6-3.7,3.6-3.7
					c1.3,0,2.3,0.7,2.9,2l-1.7,0.9c-0.1-0.7-0.6-1-1.3-1c-1,0-1.6,0.9-1.6,1.7c0,0.8,0.3,1.4,0.8,1.7h3.7v2.1H183.7z M182.4,483.4
					h-5.1v-29.7h5.1V483.4z"/>
			</g>
			<g id="XMLID_102_">
				<path id="XMLID_131_" class="st0" d="M-137,525.3c0-2.2,0.4-4.4,1.3-6.4c0.9-2,2.1-3.8,3.6-5.3s3.3-2.7,5.3-3.6s4.2-1.3,6.5-1.3
					c2.3,0,4.4,0.4,6.4,1.3c2,0.9,3.8,2.1,5.3,3.6s2.7,3.3,3.6,5.3c0.9,2,1.3,4.2,1.3,6.4c0,2.3-0.4,4.5-1.3,6.5
					c-0.9,2-2.1,3.8-3.6,5.3s-3.3,2.7-5.3,3.6c-2,0.9-4.2,1.3-6.4,1.3c-2.3,0-4.5-0.4-6.5-1.3c-2-0.9-3.8-2.1-5.3-3.6
					s-2.7-3.3-3.6-5.3C-136.6,529.8-137,527.6-137,525.3z M-132.1,525.4c0,1.6,0.3,3.2,0.9,4.6c0.6,1.5,1.5,2.7,2.5,3.8
					c1.1,1.1,2.3,1.9,3.8,2.6c1.4,0.6,3,0.9,4.6,0.9c1.6,0,3.1-0.3,4.6-0.9c1.4-0.6,2.7-1.5,3.7-2.6c1.1-1.1,1.9-2.3,2.5-3.8
					c0.6-1.5,0.9-3,0.9-4.7c0-1.6-0.3-3.2-0.9-4.6c-0.6-1.5-1.5-2.7-2.5-3.8c-1.1-1.1-2.3-1.9-3.7-2.6c-1.4-0.6-2.9-0.9-4.6-0.9
					c-1.7,0-3.1,0.3-4.6,0.9c-1.4,0.6-2.7,1.5-3.7,2.6c-1.1,1.1-1.9,2.3-2.5,3.8C-131.8,522.2-132.1,523.7-132.1,525.4z"/>
				<path id="XMLID_128_" class="st0" d="M-98,541.6V509h8.9c1.7,0,3.3,0.2,4.7,0.7c1.4,0.4,2.6,1.1,3.7,2c1,0.9,1.8,2,2.4,3.2
					c0.6,1.3,0.9,2.7,0.9,4.4c0,1.3-0.2,2.6-0.6,3.8c-0.4,1.3-1,2.4-1.9,3.4s-2,1.8-3.4,2.4c-1.4,0.6-3.1,0.9-5.1,0.9H-93v11.6h-5
					V541.6z M-93.1,525.3h4.4c1.2,0,2.2-0.2,3-0.6c0.8-0.4,1.4-0.9,1.9-1.5c0.5-0.6,0.8-1.2,1-1.9c0.2-0.7,0.3-1.3,0.3-1.8
					c0-0.6-0.1-1.2-0.3-1.9s-0.5-1.3-1-1.9c-0.5-0.6-1.1-1.1-1.9-1.5c-0.8-0.4-1.8-0.6-2.9-0.6h-4.5V525.3z"/>
				<path id="XMLID_126_" class="st0" d="M-72.1,541.6V509h21.4v4.4h-16.5v9.5h14.6v4.5h-14.6v9.5h17.1v4.5h-22V541.6z"/>
				<path id="XMLID_123_" class="st0" d="M-44.4,541.6V509h8.9c1.7,0,3.3,0.2,4.7,0.7c1.4,0.4,2.6,1.1,3.7,2c1,0.9,1.8,2,2.4,3.2
					c0.6,1.3,0.9,2.7,0.9,4.4c0,0.9-0.1,1.8-0.3,2.7c-0.2,0.9-0.5,1.7-0.9,2.6c-0.4,0.8-0.9,1.6-1.6,2.3c-0.6,0.7-1.4,1.3-2.3,1.8
					c1.2,1.9,2.5,4,3.9,6.3c1.4,2.3,2.8,4.5,4.3,6.7h-5.9c-0.6-0.9-1.2-1.9-1.9-2.9c-0.6-1-1.3-2-1.9-3s-1.3-2-1.9-3
					s-1.2-1.9-1.7-2.7h-0.9h-4.6v11.6L-44.4,541.6L-44.4,541.6z M-39.5,525.3h4.4c1.2,0,2.2-0.2,3-0.6c0.8-0.4,1.4-0.9,1.9-1.5
					c0.5-0.6,0.8-1.2,1-1.9c0.2-0.7,0.3-1.3,0.3-1.9s-0.1-1.2-0.3-1.9c-0.2-0.7-0.5-1.3-1-1.9s-1.1-1.1-1.9-1.5
					c-0.8-0.4-1.8-0.6-2.9-0.6h-4.5V525.3z"/>
				<path id="XMLID_120_" class="st0" d="M3.9,541.6c-0.1-0.3-0.4-0.8-0.6-1.4c-0.3-0.6-0.6-1.4-0.9-2.2c-0.3-0.8-0.7-1.7-1.1-2.7
					c-0.4-1-0.8-2-1.2-3h-11.5l-3.9,9.3h-4.8l14.5-34.1c0.2,0.4,0.5,1.2,1,2.3s1,2.4,1.7,4c0.6,1.5,1.4,3.2,2.2,5.1
					c0.8,1.9,1.6,3.8,2.4,5.7c0.8,1.9,1.6,3.8,2.4,5.7c0.8,1.9,1.5,3.6,2.2,5.1c0.7,1.6,1.2,2.9,1.7,4c0.5,1.1,0.8,1.8,1,2.3H3.9
					V541.6z M-9.8,528.1h8.1c-0.4-1-0.8-1.9-1.2-2.8c-0.4-0.9-0.7-1.8-1-2.5c-0.3-0.8-0.6-1.4-0.8-2c-0.2-0.6-0.4-1-0.5-1.3
					c0-0.1-0.1-0.3-0.2-0.6s-0.2-0.7-0.2-1c-0.1,0.3-0.2,0.6-0.3,1c-0.1,0.4-0.2,0.6-0.2,0.6L-9.8,528.1z"/>
				<path id="XMLID_117_" class="st0" d="M13.4,509.5h7.5c3.2,0,6,0.5,8.2,1.5s4.1,2.3,5.5,3.8c1.4,1.6,2.4,3.3,3.1,5.2
					c0.6,1.9,0.9,3.8,0.9,5.7c0,2.4-0.4,4.6-1.3,6.6c-0.9,1.9-2,3.6-3.5,5c-1.5,1.4-3.2,2.4-5.1,3.2c-1.9,0.7-4,1.1-6.2,1.1h-9
					L13.4,509.5L13.4,509.5z M22.1,538.7c1.9,0,3.6-0.3,5.2-0.9c1.6-0.6,3.1-1.5,4.3-2.6c1.2-1.1,2.2-2.5,2.8-4.1
					c0.7-1.6,1-3.4,1-5.5c0-1.9-0.3-3.6-1-5.2s-1.6-3-2.8-4.2s-2.6-2.1-4.3-2.8s-3.6-1-5.7-1h-5.3v26.2L22.1,538.7L22.1,538.7z"/>
				<path id="XMLID_115_" class="st0" d="M44.5,515.9l-1.3-1c0.7-0.6,1.1-1.3,1.4-2.2c0.3-0.9,0.3-1.9,0.1-2.9l1.8-0.3
					c0.2,1.3,0.2,2.4-0.2,3.6C46,514.1,45.4,515.1,44.5,515.9z"/>
				<path id="XMLID_112_" class="st0" d="M71.2,541.6c-0.6-1.4-1.3-3.1-2.1-5.1s-1.6-4.1-2.5-6.4H54.3c-0.9,2.2-1.7,4.4-2.5,6.4
					s-1.5,3.7-2.1,5.1h-3.1c0.4-1.1,1-2.5,1.8-4.3c0.7-1.8,1.6-3.7,2.4-5.9c0.9-2.1,1.8-4.3,2.7-6.6c0.9-2.3,1.8-4.5,2.7-6.6
					c0.9-2.1,1.7-4.1,2.4-5.8c0.7-1.8,1.3-3.2,1.8-4.3c0.4,1.1,1,2.5,1.8,4.3c0.7,1.8,1.6,3.7,2.4,5.8c0.9,2.1,1.8,4.3,2.7,6.6
					c0.9,2.3,1.8,4.5,2.7,6.6c0.9,2.1,1.7,4.1,2.4,5.9s1.3,3.2,1.8,4.3H71.2z M60,515.9c-0.6,1.4-1.3,3.1-2.1,5.2
					c-0.8,2-1.7,4.2-2.5,6.4h10.2c-0.9-2.2-1.7-4.4-2.6-6.4c-0.8-2-1.5-3.8-2.1-5.2c-0.1-0.1-0.1-0.3-0.2-0.6
					c-0.1-0.3-0.2-0.5-0.2-0.8c-0.1,0.2-0.1,0.5-0.2,0.8C60.1,515.6,60.1,515.8,60,515.9z"/>
				<path id="XMLID_110_" class="st0" d="M79.5,541.6v-32h3.1v29.1h17.1v2.9H79.5z"/>
				<path id="XMLID_108_" class="st0" d="M126.3,526.9v12.7c-1.2,0.7-2.6,1.3-4.2,1.7c-1.6,0.4-3.2,0.6-4.9,0.6
					c-2.5,0-4.8-0.4-6.8-1.2s-3.7-2-5.2-3.4c-1.4-1.4-2.5-3.1-3.3-5.1c-0.8-1.9-1.2-4-1.2-6.3c0-2.4,0.4-4.7,1.3-6.7
					c0.9-2.1,2.1-3.8,3.6-5.3s3.3-2.7,5.3-3.5c2-0.8,4.2-1.3,6.4-1.3c1.5,0,3.1,0.2,4.6,0.6c1.6,0.4,3,1,4.2,1.7l-1.5,2.5
					c-1-0.6-2.1-1.1-3.5-1.4c-1.3-0.3-2.6-0.5-3.9-0.5c-1.8,0-3.6,0.4-5.2,1.1c-1.6,0.7-3.1,1.7-4.3,2.9c-1.2,1.2-2.2,2.7-2.9,4.4
					s-1.1,3.5-1.1,5.3s0.3,3.5,1,5.1c0.6,1.6,1.5,3,2.7,4.2c1.2,1.2,2.6,2.2,4.2,2.9c1.6,0.7,3.5,1.1,5.5,1.1c1,0,2-0.1,3.1-0.3
					s2.1-0.6,3.1-1v-8.1h-6.9v-2.7H126.3z"/>
				<path id="XMLID_106_" class="st0" d="M133.9,541.6v-32h20.2v2.8H137V524h15.4v2.9H137v11.8h17.8v2.9H133.9L133.9,541.6z"/>
				<path id="XMLID_103_" class="st0" d="M161.3,541.6v-32h7.8c1.3,0,2.6,0.2,3.9,0.6c1.3,0.4,2.4,1,3.3,1.7c1,0.8,1.7,1.8,2.3,2.9
					c0.6,1.2,0.9,2.6,0.9,4.2c0,1.8-0.4,3.5-1.2,5.1c-0.8,1.6-2.1,2.9-4,3.7c0.3,0.4,0.6,1,1.1,1.8c0.4,0.7,0.9,1.6,1.5,2.4
					c0.5,0.9,1.1,1.8,1.7,2.8s1.1,1.9,1.7,2.7c0.5,0.9,1,1.7,1.5,2.4s0.8,1.3,1.1,1.7h-3.7c-0.2-0.4-0.6-0.9-0.9-1.5
					c-0.4-0.6-0.8-1.3-1.3-2.1s-1-1.6-1.5-2.5c-0.5-0.9-1.1-1.7-1.6-2.6c-0.5-0.8-1-1.6-1.5-2.4s-0.9-1.4-1.2-1.9
					c-0.3,0.1-0.6,0.1-0.9,0.1s-0.7,0-1,0h-4.8v12.8h-3.2V541.6z M164.3,525.8h4.8c1.4,0,2.6-0.2,3.6-0.7s1.7-1.1,2.3-1.8
					c0.6-0.7,0.9-1.5,1.2-2.2c0.2-0.8,0.3-1.5,0.3-2.2c0-0.8-0.2-1.6-0.5-2.4c-0.3-0.8-0.8-1.5-1.4-2.1c-0.6-0.6-1.4-1.1-2.3-1.5
					c-0.9-0.4-2-0.6-3.2-0.6h-4.8V525.8z"/>
			</g>
		</g>
		<g id="XMLID_68_">
			<path id="XMLID_100_" class="st0" d="M-131.2,428.7v-58.1c-1.1-0.1-2.3-0.1-3.4-0.2v58.3H-131.2z"/>
			<path id="XMLID_99_" class="st0" d="M-117.7,428.7v-58.1c-1.1,0.1-2.2,0.1-3.4,0.2v57.9H-117.7z"/>
			<path id="XMLID_98_" class="st0" d="M-104.2,428.7v-61.4c-0.9,0.7-1.8,1.2-2.8,1.5c-0.2,0.1-0.4,0.1-0.6,0.2v59.7H-104.2z"/>
			<path id="XMLID_97_" class="st0" d="M-90.8,428.7v-90.5c-1.1,3.6-2.2,7.1-3.4,10.4v80.1H-90.8z"/>
			<path id="XMLID_96_" class="st0" d="M-77,428.7V305.9c-1.2,1.4-2.3,3-3.4,4.9v117.9C-80.4,428.7-77,428.7-77,428.7z"/>
			<path id="XMLID_95_" class="st0" d="M-66.9,428.7h3.4V301.8c-0.4-0.2-0.9-0.3-1.3-0.5c-0.6-0.2-1.2-0.2-1.8-0.3h-0.2L-66.9,428.7
				L-66.9,428.7z"/>
			<path id="XMLID_94_" class="st0" d="M-50.1,428.7V314c-1.1-1.6-2.2-3.1-3.4-4.5v119.2H-50.1z"/>
			<path id="XMLID_93_" class="st0" d="M-36.6,428.7v-89.4c-1.1-2.3-2.2-4.6-3.4-6.9v96.3C-40,428.7-36.6,428.7-36.6,428.7z"/>
			<path id="XMLID_92_" class="st0" d="M-22.7,428.7v-66.8c-1.2-1.3-2.3-2.6-3.4-4.1v70.9C-26.1,428.7-22.7,428.7-22.7,428.7z"/>
			<path id="XMLID_91_" class="st0" d="M-9.3,428.7v-59.9c-0.1,0-0.2,0-0.4,0c-1,0-2-0.2-3-0.4v60.3H-9.3z"/>
			<path id="XMLID_83_" class="st0" d="M4.2,428.7v-61.1c-1.1,0.2-2.2,0.4-3.4,0.5v60.6H4.2z"/>
			<path id="XMLID_81_" class="st0" d="M17.7,428.7v-64.4c-1.1,0.3-2.2,0.6-3.4,0.9v63.4h3.4V428.7z"/>
			<path id="XMLID_80_" class="st0" d="M31.4,428.7v-68.6c-1.1,0.3-2.2,0.7-3.4,1v67.5h3.4V428.7z"/>
			<path id="XMLID_79_" class="st0" d="M44.9,428.7v-71.9c-1.1,0.2-2.2,0.4-3.4,0.6v71.3H44.9z"/>
			<path id="XMLID_78_" class="st0" d="M58.4,428.7v-71c-1.3-0.4-2.4-0.6-3.4-0.8v71.9h3.4V428.7z"/>
			<path id="XMLID_77_" class="st0" d="M71.9,428.7V362c-1.1-0.4-2.3-0.8-3.4-1.2v67.8L71.9,428.7L71.9,428.7z"/>
			<path id="XMLID_76_" class="st0" d="M85.3,428.7v-62c-1.1-0.4-2.3-0.8-3.4-1.2v63.1h3.4V428.7z"/>
			<path id="XMLID_75_" class="st0" d="M98.8,428.7v-57.3c-1.1-0.4-2.2-0.8-3.4-1.1v58.4C95.4,428.7,98.8,428.7,98.8,428.7z"/>
			<path id="XMLID_74_" class="st0" d="M112.3,428.7v-53.2c-0.7-0.2-1.4-0.3-2-0.5c-0.4-0.1-0.9-0.3-1.3-0.4v54h3.3V428.7z"/>
			<path id="XMLID_73_" class="st0" d="M125.7,428.7v-52.3c-1.1,0.1-2.3,0.1-3.4,0.1v52.1h3.4V428.7z"/>
			<path id="XMLID_72_" class="st0" d="M139.5,428.7v-54.4c-1.1,0.3-2.2,0.5-3.4,0.7v53.7H139.5z"/>
			<path id="XMLID_71_" class="st0" d="M153,428.7v-58c-1.1,0.3-2.2,0.7-3.4,1v57H153z"/>
			<path id="XMLID_70_" class="st0" d="M166.5,428.7v-61.8c-1.1,0.3-2.2,0.6-3.4,0.9v60.9C163.1,428.7,166.5,428.7,166.5,428.7z"/>
			<path id="XMLID_69_" class="st0" d="M179.9,428.7v-63.9c-0.5,0-0.9,0-1.4,0c-0.7,0-1.3,0.1-2,0.2v63.6h3.4V428.7z"/>
		</g>
	</g>
	<path id="XMLID_1551_" class="st0" d="M-63.8,507.2c0.7-1,1.4-2,2.1-3s1.4-2,2.1-3h4.1l-5.3,6H-63.8z"/>
</g>
</svg>
