<?xml version="1.0" encoding="utf-8"?>
<!-- Generator: Adobe Illustrator 19.0.0, SVG Export Plug-In . SVG Version: 6.00 Build 0)  -->
<svg version="1.1" id="Calque_1" xmlns="http://www.w3.org/2000/svg" xmlns:xlink="http://www.w3.org/1999/xlink" x="0px" y="0px"
	 viewBox="0 0 105 168.6" style="enable-background:new 0 0 105 168.6;" xml:space="preserve">
<style type="text/css">
	.st0{fill:#FFFFFF;}
</style>
<g id="XMLID_62_">
	<polygon id="XMLID_589_" class="st0" points="0,138.6 4,138.6 4,154.9 8.4,154.9 8.4,138.6 12.5,138.6 12.5,134.8 0,134.8 	"/>
	<path id="XMLID_540_" class="st0" d="M20.9,134.5c-4.9,0-7.3,3.4-7.3,10.3c0,3.4,0.6,5.9,1.8,7.7c1.2,1.8,3,2.6,5.5,2.6
		c4.9,0,7.3-3.4,7.3-10.3c0-3.4-0.6-6-1.9-7.7C25.1,135.3,23.3,134.5,20.9,134.5z M22.9,150.2c-0.4,0.9-1.1,1.3-2,1.3
		c-0.9,0-1.6-0.5-2-1.4c-0.4-0.9-0.6-2.7-0.6-5.4c0-2.7,0.2-4.5,0.6-5.4c0.4-0.9,1.1-1.4,2-1.4c0.9,0,1.6,0.4,2,1.3
		c0.4,0.9,0.6,2.7,0.6,5.4C23.5,147.5,23.3,149.3,22.9,150.2z"/>
	<path id="XMLID_539_" class="st0" d="M43.8,151.6c-1,0-1.7-0.5-2.2-1.4c-0.5-0.9-0.7-2.6-0.7-5.1c0-2.8,0.3-4.6,0.8-5.6
		c0.5-1,1.3-1.4,2.2-1.4c1.8,0,2.7,1.5,2.8,4.5l4-0.3c-0.4-5.2-2.6-7.8-6.8-7.8c-2.5,0-4.4,0.9-5.7,2.7c-1.3,1.8-1.9,4.4-1.9,7.6
		c0,3.2,0.6,5.7,1.9,7.6s3.2,2.7,5.6,2.7c2,0,3.7-0.7,4.9-2.1c1.2-1.4,1.9-3.1,2.1-5.3l-4.1-0.3C46.3,150.2,45.4,151.6,43.8,151.6z"
		/>
	<path id="XMLID_534_" class="st0" d="M59.8,134.5c-4.9,0-7.3,3.4-7.3,10.3c0,3.4,0.6,5.9,1.8,7.7c1.2,1.8,3,2.6,5.5,2.6
		c4.9,0,7.3-3.4,7.3-10.3c0-3.4-0.6-6-1.9-7.7C64,135.3,62.2,134.5,59.8,134.5z M61.8,150.2c-0.4,0.9-1.1,1.3-2,1.3
		c-0.9,0-1.6-0.5-2-1.4c-0.4-0.9-0.6-2.7-0.6-5.4c0-2.7,0.2-4.5,0.6-5.4c0.4-0.9,1.1-1.4,2-1.4c0.9,0,1.6,0.4,2,1.3
		c0.4,0.9,0.6,2.7,0.6,5.4C62.5,147.5,62.3,149.3,61.8,150.2z"/>
	<polygon id="XMLID_531_" class="st0" points="79.5,147.2 76.7,134.8 70.2,134.8 70.2,154.9 73.8,154.9 73.8,138.1 77.5,154.9 
		80.7,154.9 84.8,138.1 84.8,154.9 89,154.9 89,134.8 82.7,134.8 	"/>
	<polygon id="XMLID_509_" class="st0" points="92.8,154.9 105,154.9 105,151.3 97.2,151.3 97.2,146.3 103.2,146.3 103.2,142.9 
		97.2,142.9 97.2,138.2 105,138.2 105,134.8 92.8,134.8 	"/>
	<path id="XMLID_277_" class="st0" d="M43.7,6c0,10.5,0,61.4,0,61.4c0,27.1,0,33.9,0,61.5H105c0-0.4,0-0.8,0-1.2
		c0-12.3,0-4.7,0-17.1c0-1.5-0.1-3-0.4-4.4c-0.9-4.6-3.3-8-8-9.2c-1.4-0.4-2.9-0.4-4.3-0.6c-0.9-0.1-1.7,0-2.6,0
		c-0.1-0.1-0.1-0.2-0.2-0.3c0.3-0.2,0.6-0.4,0.9-0.7c4.5-4.3,7.8-9.3,10.1-15c2.4-6.1,3-16,3.5-20.6l-5.1-5c0,0.1,0,0.3,0,0.4
		c-0.7,5.1-0.9,15.9-5.6,26.8c-3,5.5-7.1,10-12.1,13.8c-0.3,0.2-0.8,0.6-0.8,0.9c0,1.9,0.1,3.8,0.1,5.7c3.4,0,6.7-0.1,10,0
		c1.6,0.1,3.4,0.4,4.8,1.1c2.9,1.3,3.8,3.9,3.8,6.9c0,10.6,0,1.2,0,11.7c0,0.3,0,0.6,0,0.9H75.8h-2.5V88.2c-3,0-5.8,0.3-8.6,1.1
		c-6,1.8-8.9,5.6-8.9,11.9c0,9.9,0,2.3,0,12.1c0,0.4,0,0.7,0,1.2h11.6h0v8.5H49.6c0-0.5,0-0.9,0-1.3c0-24.4,0.2-95,0.2-121.7
		 M61.7,103.9c0,0.2,0-0.1,0-3.7c0-0.8,0.1-1.6,0.3-2.3c0.6-2.5,2.6-3.9,5.4-3.8v14.4h0h-5.7c0-0.4,0-0.7,0-1
		C61.7,105.2,61.7,104.3,61.7,103.9z"/>
	<path id="XMLID_145_" class="st0" d="M0,129.2c5.9,0,11.7,0,17.5,0c0-0.4,0-0.8,0-1.2c0-10.9,0-9.2,0-20.1c0-5.1,0.1-5.2,0-10.3
		c-0.2-4.9-2.3-8.6-7.8-9.1C5,88,1.4,89.8,0.4,94.9C0.2,96.2,0,97.6,0,99c0,15.5,0,13.5,0,29C0,128.4,0,128.7,0,129.2z M5.9,99.6
		c0-1.2,0.1-2.3,0.4-3.5c0.3-1.3,1.2-1.9,2.4-1.9c1.2,0,2.1,0.6,2.5,1.9c0.2,0.7,0.4,1.4,0.4,2c0,14,0,10.6,0,24.7
		c0,0.1,0,0.2-0.1,0.4c-1.9,0-3.8,0-5.7,0c0-0.4,0-0.7,0-1C5.9,108.9,5.9,113,5.9,99.6z"/>
	<path id="XMLID_80_" class="st0" d="M40.4,129.2c0-2,0-3.9,0-5.9c-1.9,0-3.7,0-5.6,0c-0.3,0-0.7,0-0.9-0.2
		c-1.9-1.8-3.4-3.8-3.3-6.6c0-3.5,0-4.9,0-5.4c0-0.6,0-2.1,0-5.3c0-0.3,0-0.7,0-1.1c0.7,0,1.3,0,1.8,0.1c1.3,0.3,2.1,1.5,2.1,3.2
		c0.1,3.2,0.1,6.3,0.1,9.5c0,0.4,0,0.7,0,1.4c1.3-0.3,2.4-0.5,3.5-0.9c1.3-0.5,2.2-1.7,2.2-3.1c0.1-3.2,0.1-6.3-0.2-9.5
		c-0.4-3.7-2.9-6-6.6-6.5c-2-0.2-4-0.1-6-0.2c-0.9,0-1.9,0-2.9,0c0,0.5,0,0.9,0,1.2c0,14.2,0,0.5,0,14.7c0,3,0.5,5.8,2.2,8.3
		c0,0,0,0.1,0,0.2c-2,0-4,0-6.1,0c-0.2,3.1,1.1,6.1,5.5,5.9c4.4-0.2,8.8,0,13.2,0C39.8,129.2,40.1,129.2,40.4,129.2z"/>
	<path id="XMLID_78_" class="st0" d="M7,76.9c-2,0-3.9,0-5.7,0c0,2,0,3.9,0,5.8c1.9,0,3.8,0,5.7,0C7,80.7,7,78.8,7,76.9z"/>
	<path id="XMLID_61_" class="st0" d="M16.3,76.9c-2,0-3.9,0-5.8,0c0,2,0,3.8,0,5.7c1.9,0,3.8,0,5.8,0C16.3,80.7,16.3,78.8,16.3,76.9
		z"/>
	<path id="XMLID_60_" class="st0" d="M62.3,82.6c1.9,0,3.8,0,5.7,0c0-2,0-3.9,0-5.8c-2,0-3.8,0-5.7,0C62.3,78.8,62.3,80.7,62.3,82.6
		z"/>
	<path id="XMLID_57_" class="st0" d="M77.5,161.3c-0.3,0-0.6,0.1-0.8,0.2c-0.2,0.1-0.4,0.4-0.7,0.8v-2.5h-1.2v7h0.5l0.3-0.9
		c0.4,0.6,0.9,1,1.6,1c0.7,0,1.2-0.3,1.6-0.8c0.4-0.5,0.6-1.2,0.6-2c0-0.9-0.2-1.5-0.6-2C78.6,161.5,78.1,161.3,77.5,161.3z
		 M77.9,165.5c-0.2,0.3-0.5,0.4-0.8,0.4c-0.3,0-0.6-0.1-0.8-0.3c-0.2-0.2-0.3-0.6-0.3-1v-0.8c0-0.5,0.1-0.8,0.3-1.1
		c0.2-0.3,0.5-0.4,0.8-0.4c0.3,0,0.6,0.1,0.8,0.4c0.2,0.3,0.3,0.7,0.3,1.3C78.3,164.7,78.2,165.2,77.9,165.5z"/>
	<path id="XMLID_56_" class="st0" d="M82.7,165l-1.3-3.4h-1.2l1.8,4.9c0.1,0.2,0.1,0.3,0.1,0.3c0,0,0,0.2-0.1,0.4
		c-0.1,0.2-0.2,0.3-0.3,0.4c-0.1,0.1-0.3,0.1-0.5,0.1l-0.6,0v0.9c0.3,0,0.5,0,0.7,0c0.4,0,0.7-0.1,0.9-0.3s0.4-0.5,0.5-0.8l2-5.9
		h-0.9L82.7,165z"/>
	<rect id="XMLID_55_" x="89.1" y="159.7" class="st0" width="1.3" height="7"/>
	<polygon id="XMLID_54_" class="st0" points="91.5,160.8 93.4,160.8 93.4,166.7 94.8,166.7 94.8,160.8 96.6,160.8 96.6,159.7 
		91.5,159.7 	"/>
	<path id="XMLID_53_" class="st0" d="M102.1,164.6c-0.3-0.5-0.4-0.7-0.4-0.8l-2.5-4.1h-1.4v7h1v-5.1c0.1,0.1,0.1,0.3,0.2,0.3
		c0.1,0.2,0.2,0.3,0.2,0.3l2.7,4.5h1.2v-7h-1V164.6z"/>
</g>
</svg>
