<?xml version="1.0" encoding="utf-8"?>
<!-- Generator: Adobe Illustrator 19.0.0, SVG Export Plug-In . SVG Version: 6.00 Build 0)  -->
<svg version="1.1" id="Calque_1" xmlns="http://www.w3.org/2000/svg" xmlns:xlink="http://www.w3.org/1999/xlink" x="0px" y="0px"
	 viewBox="-32.9 325.8 270.2 209.1" style="enable-background:new -32.9 325.8 270.2 209.1;" xml:space="preserve">
<style type="text/css">
	.st0{fill:#CC9252;}
	.st1{fill:#FFFFFF;}
	.st2{fill:#8B5B31;}
	.st3{fill:none;enable-background:new    ;}
</style>
<g>
	<g>
		<g>
			<g>
				<g>
					<path class="st0" d="M-15.6,458.8l45.1-0.2l0.4,0.5l3.5,57c0,0.2-0.1,0.3-0.5,0.4c-0.8,0-5.8-0.1-14.9-0.4l0,0.2l1.1,7
						l-0.3,0.2l-11.4,0.7c-0.2,0-0.3-0.1-0.5-0.5l-0.5-7.4c-12-0.2-18.3-0.4-18.8-0.7l-3.4-56.2L-15.6,458.8z M-0.5,473.6
						c0.2,16.1,0.4,25.5,0.5,28.2c1.7,0.3,3.9,0.6,6.5,0.8c0.1-4.1,0.3-6.1,0.5-6.1c5.1,0.7,7.7,1.2,7.7,1.6c0.6,4.1,1,6.2,1.4,6.2
						c1.1,0.2,2,0.2,2.7,0.2l0-0.2c-1.4-17.4-2.2-28-2.4-31.8l-3.9,0.2C9.3,472.8,5,473.2-0.5,473.6z"/>
					<path class="st1" d="M21.9,534l-14,0.9c-4.3,0.3-8.2-1.9-10.5-5.8l-1.3-2.2c-10.9-0.3-11.6-0.7-13.7-1.8l-5.3-2.8l-4-65.5
						l5.1-8.6l56.6-0.3l5.6,7.4l3.7,60.3c0.4,6.2-4.3,11.4-10.6,11.8c-0.4,0-0.8,0-2.9,0l0.3,1.7L21.9,534z"/>
				</g>
				<g>
					<path class="st0" d="M78.9,459l0.2,0.3l3.6,59.7l-0.3,0.5c-29.6,0-44.7-0.1-45.3-0.3l-0.2-0.3l-3.2-51.8c0-0.4,2.1-0.9,6.3-1.4
						c0-0.1,2.8-0.7,8.5-1.5l0.2,0.3c0.4,6.9,1.1,19.8,2,38.7c1.2-0.1,5.8-1,13.7-2.7l-2.8-38.2c0-0.6,2.2-1.1,6.7-1.6
						C68.4,460.7,71.9,460.1,78.9,459z"/>
					<path class="st1" d="M88.6,530.3l-6.2,0c-46.2,0-46.4-0.1-48.7-0.8l-3.9-1.3l-3.5-6.1L23,467.8c-0.6-10.5,10.1-12.1,15.3-12.7
						c0.6-0.2,1.3-0.3,2-0.5c1.5-0.3,3.7-0.6,6.7-1.1l7.3-1.1l0.8,1.4c3.6-2.7,8.6-3.3,11.5-3.7c1-0.3,1.9-0.4,2.6-0.5
						c1.8-0.3,4.5-0.7,8.1-1.3l7.2-1.1l5.2,8.9l4,65.5L88.6,530.3z"/>
				</g>
				<g>
					<path class="st0" d="M83,461.1c1.4-0.1,16.4-0.4,44.9-1l0.4,0.5l0.7,11.9l-0.3,0.5c-13.3-0.4-21.8-0.5-25.7-0.3l-0.9,10.9
						l16.8-1c0.5,0,1.1,2.9,1.7,8.8c0.1,0,0.3,1.1,0.5,3.2c0,0.6-2.5,1.1-7.5,1.6c-0.3,0.1-3.9,0.7-10.9,1.8l1.5,8
						c9.8-1.3,18.5-2.5,26.1-3.6l0.4,0.5l0.7,11.3c0,0.6-3.3,1-10,1.5c-0.1,0.1-11.6,1.3-34.6,3.5c-0.2,0.1-0.4,0.2-0.5,0.2
						l-0.4-0.5l-3.5-57.2C82.5,461.5,82.6,461.3,83,461.1z"/>
					<path class="st1" d="M87,530.1l-5.7,0.3l-5.8-7.6l-3.7-60.5c-0.3-4.3,2-8.3,5.9-10.5l2.2-1.3l2.5-0.2c0.7,0,2.3-0.1,45.3-1.1
						l5.5-0.1l5.7,7.4l1.1,18.5l-5.2,8.9l-4.2-0.1c0.2,1.4,0.5,3.2,0.7,5.3c0.1,0.4,0.2,0.8,0.3,1.3c0,0.3,0.1,0.6,0.1,1l3.5-0.5
						l6.2,8.2l0.9,14.5c0.1,1.7,0,10.4-11.7,12.1c-1.9,0.3-4.5,0.5-8,0.7c-0.8,0.1-1.5,0.2-2.1,0.3c-1.5,0.2-3.7,0.4-6.6,0.7
						c-5.6,0.6-13.8,1.3-24.6,2.4C88.5,529.9,87.7,530,87,530.1z"/>
				</g>
				<g>
					<path class="st0" d="M176.3,453.4l0.4,0.5l0.9,15.3c0,0.6-3.6,1.1-11.1,1.5l-15.4,1.6c0.1,1.5,0.2,4.6,0.2,9.4l0.2,0
						c2.1-0.1,10.9-1.2,26.3-3.3l0.4,0.5l2,32.1c0,0.2-0.1,0.3-0.5,0.5l-44.6,4.7l-0.4-0.5l-0.6-9.1c0-0.5,3.5-1.2,10.5-2.2
						l18.5-3.3l0-0.2c-1.8-6-2.9-8.9-3.1-8.9c-0.7,0-9.4,1.5-26.2,4.3l-0.4-0.5l-2.2-35.8c0-0.3,0.2-0.5,0.6-0.5
						C132.5,459.6,147.3,457.5,176.3,453.4z"/>
					<path class="st1" d="M130.2,527.7l-6-7.9l-0.8-12.3c-0.1-1.3,0-3.4,1.1-5.5l-1.5-2l-2.4-39.1c-0.3-5.7,3.6-10.7,9.4-11.8l1-0.1
						c1.6-0.2,10.8-1.5,43.8-6.2l6.3-0.9l6.2,8.1l1.1,18.6c0.1,1,0,2.9-0.8,4.9l1.2,1.6l2.2,35.4c0.3,4.3-1.9,8.2-5.8,10.5l-2,1.1
						L130.2,527.7z"/>
				</g>
				<g>
					<path class="st0" d="M180.2,453c28.6,1.1,43.8,1.7,45.4,1.8l0.2,0.3l0.8,13.3c0,0.2-0.1,0.3-0.5,0.5c-0.9,0.1-5.8,0.6-14.6,1.6
						c0.2,3,1.5,16.3,4,39.9l-0.5,0.4l-15.6,1.5c-0.2,0.1-0.4,0.2-0.5,0.2l-0.4-0.5l-2.5-41.4l-14.7,0.6l-0.4-0.5l-1-17.2L180.2,453
						z"/>
					<path class="st1" d="M199.5,523.2l-5.7,0.3l-5.8-7.6l-2.1-34.2l-9.7,0.4l-5.7-7.5l-1.4-23.7l5.2-8.9l6.5,0.2
						c43.2,1.6,45,1.8,45.8,1.8l5.6,0.4l4.3,7.4l1,15.8c0.3,4.2-2,8.3-5.8,10.5l-2.2,1.3l-2.5,0.2c-0.2,0-1,0.1-3.6,0.4
						c0.6,6,1.5,15.2,3,29.3l0.6,6l-7.8,5.9l-17.3,1.6C201,523,200.3,523.1,199.5,523.2z"/>
				</g>
			</g>
			<g>
				<g>
					<path class="st2" d="M-21.3,351.1l74.9-4.6c0.3,0,0.6,0.2,0.9,0.8l1.3,21.2c0,0.3-0.2,0.6-0.8,0.9c-3.8,0.2-9.4,0.5-17,0.8
						c4.2,40.6,6.6,66.6,7.3,77.8c-41.1-0.5-61.6-1.1-61.6-1.6l-2.6-42.7l0.5-0.9c6-0.2,10.4-0.4,13.3-0.5l5.1-0.3
						c0.6,0,0.9,0.3,0.9,1.1c0.2,3.3,0.5,10,0.9,20.1c8.1,1.2,12.6,1.8,13.4,1.7l0-0.3L10,371.9c-20.6,0.8-30.9,0.8-30.9,0.2
						l-1.2-20.1C-22.2,351.7-21.9,351.4-21.3,351.1z"/>
					<path class="st1" d="M56.7,458.9l-11.6-0.1c-20.5-0.3-36.1-0.5-46.4-0.8c-5.3-0.1-9.2-0.3-11.9-0.4c-3.7-0.2-13.4-0.7-14-10.5
						l-2.8-45.9l5.2-8.9l6-0.2c5.9-0.2,10.2-0.3,13-0.5l5.1-0.3c0.6,0,1.2,0,1.8,0L0.3,383c-5.5,0.2-10,0.3-13.4,0.3
						c-2.8,0-5,0-6.5-0.1c-10.9-0.6-12-8.8-12.1-10.4l-1.2-20.1c-0.3-4.4,2-8.5,6.1-10.9l2.2-1.3l77.4-4.7c4.4-0.3,8.5,2,10.9,6.1
						l1.3,2.2l1.4,23.7c0.3,4.4-2,8.5-6.1,10.9l-2.2,1.3l-2.5,0.2c-1.6,0.1-3.5,0.2-5.8,0.3c3.5,34.5,5.5,56.5,6.2,66.9L56.7,458.9z
						 M-6.2,436.3c6.7,0.2,18.6,0.5,39.9,0.8c-1.2-13.9-3.3-35.9-6.4-65.8l-1.2-11.4l11.5-0.4c2.5-0.1,4.7-0.2,6.8-0.3l-0.1-1.3
						l-55.1,3.4l0,0.5c4.2-0.1,10.6-0.2,20.3-0.6l10.1-0.4l6.2,63.5l0.7,10.7l-10.7,0.7c-1.3,0.1-2.4,0.1-15.7-1.8l-6.6-1
						L-6.2,436.3z"/>
				</g>
				<g>
					<path class="st2" d="M136,338.4l0.6,0.8l6.2,102c0,0.3-0.2,0.6-0.8,0.9c-12.3,0.1-18.4-0.1-18.5-0.6c-0.1-2-1.1-8.3-2.9-19.1
						c-14.2,0.5-26.1,1-35.6,1.6l0,0.3l1.6,16.9l-0.8,0.6c-11.1-0.1-17.5-0.1-19.3,0l-0.6-0.8l-5.6-92.7c-0.1-1,7.1-2.1,21.4-3.3
						C83.3,344.8,101.4,342.6,136,338.4z M86.6,364.6l2.5,40.7l28-1.7c-3.2-25-4.9-38.4-5-40.3l-0.6-0.2L86.6,364.6z"/>
					<path class="st1" d="M145,452.8l-2.8,0c-6.3,0.1-11,0.1-14.3,0c-3.9-0.1-14.4-0.5-15-10.6c0-0.4-0.2-2.1-1.2-8.7
						c-5.3,0.2-10.3,0.4-14.8,0.6l1.1,12l-8.5,6.4l-3.7,0c-14.7-0.1-17.9,0-18.6,0l-5.8,0.4l-6.1-8L49.6,349
						c-0.6-10.5,10.7-12.3,14.4-12.8c3.8-0.6,9.1-1.2,16.4-1.8c1.8-0.3,9.7-1.3,54.3-6.7l6.1-0.7l6.3,8.3l6.4,105.3
						c0.3,4.4-2,8.5-6.1,10.9L145,452.8z M128.8,411.4l0.9,0l0.8,4.5l-4-65.5c-6.9,0.8-12.8,1.6-17.7,2.2l4.4-0.3l9,3.8l0.4,6.6
						c0.1,1.1,0.8,7.7,4.9,39.5L128.8,411.4z M75.1,413.8l3.7-0.2l-3.5-57.1c-1.4,0.1-2.6,0.3-3.7,0.4L75.1,413.8z M99.1,393.9
						l5.8-0.4c-1.1-8.8-1.9-14.9-2.4-19.1l-4.5,0.3L99.1,393.9z"/>
				</g>
				<g>
					<path class="st1" d="M230.6,357.8c0.3,4.4-2,8.5-6.1,10.9l-2.2,1.3l-2.5,0.2c-1.6,0.1-3.5,0.2-5.8,0.3
						c3.5,34.5,5.5,56.5,6.2,66.9l0.7,11.6l-11.6-0.1c-20.5-0.3-36.1-0.5-46.4-0.8c-5.3-0.1-9.2-0.3-11.9-0.4
						c-3.7-0.2-13.4-0.7-14-10.5l-2.8-45.9l5.2-8.9l6-0.2c5.9-0.2,10.2-0.3,13-0.5l5.1-0.3c0.6,0,1.2,0,1.8,0l-0.8-8.3
						c-5.5,0.2-10,0.3-13.4,0.3c-2.8,0-5,0-6.5-0.1c-10.9-0.6-12-8.8-12.1-10.4l-1.2-20.1c-0.3-4.4,2-8.5,6.1-10.9l2.2-1.3l77.4-4.7
						c4.4-0.3,8.5,2,10.9,6.1l1.3,2.2"/>
				</g>
			</g>
		</g>
		<g>
			<g>
				<path class="st0" d="M-15.6,458.8l45.1-0.2l0.4,0.5l3.5,57c0,0.2-0.1,0.3-0.5,0.4c-0.8,0-5.8-0.1-14.9-0.4l0,0.2l1.1,7l-0.3,0.2
					l-11.4,0.7c-0.2,0-0.3-0.1-0.5-0.5l-0.5-7.4c-12-0.2-18.3-0.4-18.8-0.7l-3.4-56.2L-15.6,458.8z M-0.5,473.6
					c0.2,16.1,0.4,25.5,0.5,28.2c1.7,0.3,3.9,0.6,6.5,0.8c0.1-4.1,0.3-6.1,0.5-6.1c5.1,0.7,7.7,1.2,7.7,1.6c0.6,4.1,1,6.2,1.4,6.2
					c1.1,0.2,2,0.2,2.7,0.2l0-0.2c-1.4-17.4-2.2-28-2.4-31.8l-3.9,0.2C9.3,472.8,5,473.2-0.5,473.6z"/>
				<path class="st0" d="M78.9,459l0.2,0.3l3.6,59.7l-0.3,0.5c-29.6,0-44.7-0.1-45.3-0.3l-0.2-0.3l-3.2-51.8c0-0.4,2.1-0.9,6.3-1.4
					c0-0.1,2.8-0.7,8.5-1.5l0.2,0.3c0.4,6.9,1.1,19.8,2,38.7c1.2-0.1,5.8-1,13.7-2.7l-2.8-38.2c0-0.6,2.2-1.1,6.7-1.6
					C68.4,460.7,71.9,460.1,78.9,459z"/>
				<path class="st0" d="M83,461.1c1.4-0.1,16.4-0.4,44.9-1l0.4,0.5l0.7,11.9l-0.3,0.5c-13.3-0.4-21.8-0.5-25.7-0.3l-0.9,10.9
					l16.8-1c0.5,0,1.1,2.9,1.7,8.8c0.1,0,0.3,1.1,0.5,3.2c0,0.6-2.5,1.1-7.5,1.6c-0.3,0.1-3.9,0.7-10.9,1.8l1.5,8
					c9.8-1.3,18.5-2.5,26.1-3.6l0.4,0.5l0.7,11.3c0,0.6-3.3,1-10,1.5c-0.1,0.1-11.6,1.3-34.6,3.5c-0.2,0.1-0.4,0.2-0.5,0.2l-0.4-0.5
					l-3.5-57.2C82.5,461.5,82.6,461.3,83,461.1z"/>
				<path class="st0" d="M176.3,453.4l0.4,0.5l0.9,15.3c0,0.6-3.6,1.1-11.1,1.5l-15.4,1.6c0.1,1.5,0.2,4.6,0.2,9.4l0.2,0
					c2.1-0.1,10.9-1.2,26.3-3.3l0.4,0.5l2,32.1c0,0.2-0.1,0.3-0.5,0.5l-44.6,4.7l-0.4-0.5l-0.6-9.1c0-0.5,3.5-1.2,10.5-2.2l18.5-3.3
					l0-0.2c-1.8-6-2.9-8.9-3.1-8.9c-0.7,0-9.4,1.5-26.2,4.3l-0.4-0.5l-2.2-35.8c0-0.3,0.2-0.5,0.6-0.5
					C132.5,459.6,147.3,457.5,176.3,453.4z"/>
				<path class="st0" d="M180.2,453c28.6,1.1,43.8,1.7,45.4,1.8l0.2,0.3l0.8,13.3c0,0.2-0.1,0.3-0.5,0.5c-0.9,0.1-5.8,0.6-14.6,1.6
					c0.2,3,1.5,16.3,4,39.9l-0.5,0.4l-15.6,1.5c-0.2,0.1-0.4,0.2-0.5,0.2l-0.4-0.5l-2.5-41.4l-14.7,0.6l-0.4-0.5l-1-17.2L180.2,453z
					"/>
			</g>
			<g>
				<path class="st2" d="M-21.3,351.1l74.9-4.6c0.3,0,0.6,0.2,0.9,0.8l1.3,21.2c0,0.3-0.2,0.6-0.8,0.9c-3.8,0.2-9.4,0.5-17,0.8
					c4.2,40.6,6.6,66.6,7.3,77.8c-41.1-0.5-61.6-1.1-61.6-1.6l-2.6-42.7l0.5-0.9c6-0.2,10.4-0.4,13.3-0.5l5.1-0.3
					c0.6,0,0.9,0.3,0.9,1.1c0.2,3.3,0.5,10,0.9,20.1c8.1,1.2,12.6,1.8,13.4,1.7l0-0.3L10,371.9c-20.6,0.8-30.9,0.8-30.9,0.2
					l-1.2-20.1C-22.2,351.7-21.9,351.4-21.3,351.1z"/>
				<path class="st2" d="M136,338.4l0.6,0.8l6.2,102c0,0.3-0.2,0.6-0.8,0.9c-12.3,0.1-18.4-0.1-18.5-0.6c-0.1-2-1.1-8.3-2.9-19.1
					c-14.2,0.5-26.1,1-35.6,1.6l0,0.3l1.6,16.9l-0.8,0.6c-11.1-0.1-17.5-0.1-19.3,0l-0.6-0.8l-5.6-92.7c-0.1-1,7.1-2.1,21.4-3.3
					C83.3,344.8,101.4,342.6,136,338.4z M86.6,364.6l2.5,40.7l28-1.7c-3.2-25-4.9-38.4-5-40.3l-0.6-0.2L86.6,364.6z"/>
				<path class="st2" d="M142.8,341.1l74.9-4.6c0.3,0,0.6,0.2,0.9,0.8l1.3,21.2c0,0.3-0.2,0.6-0.8,0.9c-3.8,0.2-9.4,0.5-17,0.8
					c4.2,40.6,6.6,66.6,7.3,77.8c-41.1-0.5-61.6-1.1-61.6-1.6l-2.6-42.7l0.5-0.9c6-0.2,10.4-0.4,13.3-0.5l5.1-0.3
					c0.6,0,0.9,0.3,0.9,1.1c0.2,3.3,0.5,10,0.9,20.1c8.1,1.2,12.6,1.8,13.4,1.7l0-0.3l-5.2-52.7c-20.6,0.8-30.9,0.8-30.9,0.2
					L142,342C142,341.7,142.3,341.4,142.8,341.1z"/>
			</g>
		</g>
	</g>
</g>
<path class="st3" d="z"/>
</svg>
