<?xml version="1.0" encoding="utf-8"?>
<!-- Generator: Adobe Illustrator 19.0.0, SVG Export Plug-In . SVG Version: 6.00 Build 0)  -->
<svg version="1.1" id="Calque_1" xmlns="http://www.w3.org/2000/svg" xmlns:xlink="http://www.w3.org/1999/xlink" x="0px" y="0px"
	 viewBox="0 0 560.8 115" style="enable-background:new 0 0 560.8 115;" xml:space="preserve">
<style type="text/css">
	.st0{fill:#FFFFFF;}
	.st1{fill-rule:evenodd;clip-rule:evenodd;fill:#FFFFFF;}
</style>
<g>
	<g>
		<path class="st0" d="M134.2,90.3c1-0.2,2.2-0.3,3.6-0.3c2.4,0,4.1,0.6,5.2,1.6c1.2,1.1,1.8,2.5,1.8,4.6c0,2.1-0.7,3.8-1.9,5
			c-1.2,1.2-3.2,1.9-5.7,1.9c-1.2,0-2.2,0-3-0.2V90.3z M135.9,101.8c0.4,0.1,1,0.1,1.7,0.1c3.6,0,5.5-2,5.5-5.5c0-3-1.7-5-5.2-5
			c-0.9,0-1.5,0.1-1.9,0.2V101.8z"/>
		<path class="st0" d="M148.6,90.2v12.9H147V90.2H148.6z"/>
		<path class="st0" d="M151.4,101.1c0.7,0.5,1.8,0.8,3,0.8c1.7,0,2.7-0.9,2.7-2.2c0-1.2-0.7-1.9-2.4-2.6c-2.1-0.7-3.4-1.8-3.4-3.6
			c0-2,1.7-3.5,4.2-3.5c1.3,0,2.3,0.3,2.8,0.6l-0.5,1.4c-0.4-0.2-1.3-0.6-2.4-0.6c-1.8,0-2.4,1.1-2.4,1.9c0,1.2,0.8,1.8,2.6,2.5
			c2.2,0.9,3.3,1.9,3.3,3.8c0,2-1.5,3.7-4.5,3.7c-1.2,0-2.6-0.4-3.3-0.8L151.4,101.1z"/>
		<path class="st0" d="M163.5,91.6h-3.9v-1.4h9.5v1.4h-3.9v11.5h-1.7V91.6z"/>
		<path class="st0" d="M170.7,90.4c0.8-0.2,2.1-0.3,3.2-0.3c1.8,0,2.9,0.3,3.7,1.1c0.6,0.6,1,1.4,1,2.5c0,1.7-1.1,2.8-2.4,3.3v0.1
			c1,0.3,1.6,1.3,1.9,2.6c0.4,1.8,0.7,3,1,3.5h-1.7c-0.2-0.4-0.5-1.5-0.8-3.1c-0.4-1.8-1.1-2.5-2.6-2.5h-1.6v5.6h-1.7V90.4z
			 M172.3,96.2h1.7c1.8,0,2.9-1,2.9-2.5c0-1.7-1.2-2.4-3-2.4c-0.8,0-1.4,0.1-1.6,0.2V96.2z"/>
		<path class="st0" d="M182.7,90.2v12.9H181V90.2H182.7z"/>
		<path class="st0" d="M185.6,90.4c0.7-0.2,1.9-0.3,3-0.3c1.7,0,2.7,0.3,3.5,0.9c0.7,0.5,1.1,1.3,1.1,2.3c0,1.3-0.8,2.4-2.2,2.8v0.1
			c1.2,0.3,2.7,1.3,2.7,3.2c0,1.1-0.4,2-1.1,2.6c-0.9,0.8-2.3,1.2-4.4,1.2c-1.1,0-2-0.1-2.6-0.2V90.4z M187.3,95.7h1.5
			c1.7,0,2.8-0.9,2.8-2.2c0-1.5-1.1-2.1-2.8-2.1c-0.8,0-1.2,0.1-1.5,0.1V95.7z M187.3,101.8c0.3,0.1,0.8,0.1,1.4,0.1
			c1.7,0,3.3-0.6,3.3-2.5c0-1.7-1.5-2.5-3.3-2.5h-1.4V101.8z"/>
		<path class="st0" d="M197.7,90.2v7.7c0,2.9,1.3,4.1,3,4.1c1.9,0,3.1-1.3,3.1-4.1v-7.7h1.7v7.6c0,4-2.1,5.6-4.9,5.6
			c-2.6,0-4.6-1.5-4.6-5.5v-7.6H197.7z"/>
		<path class="st0" d="M210.9,91.6H207v-1.4h9.5v1.4h-3.9v11.5h-1.7V91.6z"/>
		<path class="st0" d="M219.7,90.2v12.9H218V90.2H219.7z"/>
		<path class="st0" d="M227.7,103.3c-3.4,0-5.8-2.6-5.8-6.6c0-4.1,2.5-6.8,6-6.8c3.5,0,5.8,2.7,5.8,6.5
			C233.7,100.9,231,103.3,227.7,103.3L227.7,103.3z M227.8,101.9c2.6,0,4.1-2.4,4.1-5.4c0-2.6-1.3-5.3-4.1-5.3
			c-2.8,0-4.1,2.6-4.1,5.4C223.6,99.4,225.1,101.9,227.8,101.9L227.8,101.9z"/>
		<path class="st0" d="M235.9,103.1V90.2h1.8l4.1,6.5c0.9,1.5,1.7,2.9,2.3,4.2l0.1,0c-0.2-1.7-0.2-3.3-0.2-5.3v-5.4h1.6v12.9h-1.7
			l-4.1-6.6c-0.9-1.4-1.8-2.9-2.4-4.3l-0.1,0c0.1,1.6,0.1,3.2,0.1,5.3v5.5H235.9z"/>
		<path class="st0" d="M256.5,90.3c1-0.2,2.2-0.3,3.6-0.3c2.4,0,4.1,0.6,5.2,1.6c1.2,1.1,1.8,2.5,1.8,4.6c0,2.1-0.7,3.8-1.9,5
			c-1.2,1.2-3.2,1.9-5.7,1.9c-1.2,0-2.2,0-3-0.2V90.3z M258.2,101.8c0.4,0.1,1,0.1,1.7,0.1c3.6,0,5.5-2,5.5-5.5c0-3-1.7-5-5.2-5
			c-0.9,0-1.5,0.1-1.9,0.2V101.8z"/>
		<path class="st0" d="M276,97h-5v4.7h5.6v1.4h-7.3V90.2h7v1.4H271v4.1h5V97z"/>
		<path class="st0" d="M297.6,97.4c-0.1-1.8-0.2-4-0.2-5.6h0c-0.5,1.5-1,3.1-1.6,4.9l-2.3,6.3h-1.3l-2.1-6.2c-0.6-1.8-1.1-3.5-1.5-5
			h0c0,1.6-0.1,3.8-0.2,5.7l-0.3,5.5h-1.6l0.9-12.9h2.1l2.2,6.2c0.5,1.6,1,3,1.3,4.4h0c0.3-1.3,0.8-2.7,1.4-4.4l2.3-6.2h2.1
			l0.8,12.9h-1.6L297.6,97.4z"/>
		<path class="st0" d="M304.1,99l-1.3,4.1H301l4.4-12.9h2l4.4,12.9H310l-1.4-4.1H304.1z M308.3,97.7L307,94
			c-0.3-0.8-0.5-1.6-0.6-2.4h-0.1c-0.2,0.7-0.4,1.6-0.6,2.3l-1.3,3.7H308.3z"/>
		<path class="st0" d="M314.7,91.6h-3.9v-1.4h9.5v1.4h-3.9v11.5h-1.7V91.6z"/>
		<path class="st0" d="M328.5,97h-5v4.7h5.6v1.4h-7.3V90.2h7v1.4h-5.3v4.1h5V97z M328.2,87.2l-2.4,2.2h-1.4l1.8-2.2H328.2z"/>
		<path class="st0" d="M331.3,90.4c0.8-0.2,2.1-0.3,3.2-0.3c1.8,0,2.9,0.3,3.7,1.1c0.6,0.6,1,1.4,1,2.5c0,1.7-1.1,2.8-2.4,3.3v0.1
			c1,0.3,1.6,1.3,1.9,2.6c0.4,1.8,0.7,3,1,3.5H338c-0.2-0.4-0.5-1.5-0.8-3.1c-0.4-1.8-1.1-2.5-2.6-2.5H333v5.6h-1.7V90.4z M333,96.2
			h1.7c1.8,0,2.9-1,2.9-2.5c0-1.7-1.2-2.4-3-2.4c-0.8,0-1.4,0.1-1.6,0.2V96.2z"/>
		<path class="st0" d="M343.3,90.2v12.9h-1.7V90.2H343.3z"/>
		<path class="st0" d="M352.9,97h-5v4.7h5.6v1.4h-7.3V90.2h7v1.4H348v4.1h5V97z"/>
		<path class="st0" d="M355.7,90.2h1.7v11.5h5.5v1.4h-7.2V90.2z"/>
		<path class="st0" d="M364.6,101.1c0.7,0.5,1.8,0.8,3,0.8c1.7,0,2.7-0.9,2.7-2.2c0-1.2-0.7-1.9-2.4-2.6c-2.1-0.7-3.4-1.8-3.4-3.6
			c0-2,1.7-3.5,4.2-3.5c1.3,0,2.3,0.3,2.8,0.6L371,92c-0.4-0.2-1.3-0.6-2.4-0.6c-1.8,0-2.4,1.1-2.4,1.9c0,1.2,0.8,1.8,2.6,2.5
			c2.2,0.9,3.3,1.9,3.3,3.8c0,2-1.5,3.7-4.5,3.7c-1.2,0-2.6-0.4-3.3-0.8L364.6,101.1z"/>
		<path class="st0" d="M382.3,90.4c0.7-0.2,1.9-0.3,3-0.3c1.7,0,2.7,0.3,3.5,0.9c0.7,0.5,1.1,1.3,1.1,2.3c0,1.3-0.8,2.4-2.2,2.8v0.1
			c1.2,0.3,2.7,1.3,2.7,3.2c0,1.1-0.4,2-1.1,2.6c-0.9,0.8-2.3,1.2-4.4,1.2c-1.1,0-2-0.1-2.6-0.2V90.4z M384,95.7h1.5
			c1.7,0,2.8-0.9,2.8-2.2c0-1.5-1.1-2.1-2.8-2.1c-0.8,0-1.2,0.1-1.5,0.1V95.7z M384,101.8c0.3,0.1,0.8,0.1,1.4,0.1
			c1.7,0,3.3-0.6,3.3-2.5c0-1.7-1.5-2.5-3.3-2.5H384V101.8z"/>
		<path class="st0" d="M395,91.6h-3.9v-1.4h9.5v1.4h-3.9v11.5H395V91.6z"/>
		<path class="st0" d="M402.1,90.3c0.8-0.2,1.9-0.3,3.2-0.3c1.6,0,2.8,0.4,3.6,1.1c0.7,0.6,1.1,1.6,1.1,2.7c0,1.2-0.3,2.1-1,2.8
			c-0.9,0.9-2.3,1.4-3.9,1.4c-0.5,0-1,0-1.3-0.1v5.2h-1.7V90.3z M403.8,96.5c0.4,0.1,0.8,0.1,1.4,0.1c2,0,3.2-1,3.2-2.7
			c0-1.7-1.2-2.5-3-2.5c-0.7,0-1.3,0.1-1.6,0.1V96.5z"/>
		<path class="st0" d="M428.4,103.1c-0.4-0.4-0.7-0.7-1.2-1.2c-1.1,1-2.3,1.5-3.8,1.5c-2.5,0-4-1.7-4-3.6c0-1.8,1.1-3,2.5-3.8v-0.1
			c-0.6-0.8-1.1-1.8-1.1-2.7c0-1.6,1.1-3.2,3.3-3.2c1.6,0,2.8,1.1,2.8,2.7c0,1.4-0.8,2.4-2.8,3.5v0.1c1.1,1.3,2.3,2.7,3.1,3.6
			c0.6-0.9,1-2.1,1.2-3.8h1.5c-0.3,2-0.9,3.6-1.9,4.8c0.7,0.7,1.4,1.5,2.1,2.3H428.4z M423.8,102c1.1,0,2-0.5,2.6-1.2
			c-0.8-0.8-2.2-2.4-3.6-4.1c-0.7,0.4-1.7,1.3-1.7,2.6C421.2,100.9,422.2,102,423.8,102L423.8,102z M424.1,91.1
			c-1.1,0-1.6,0.9-1.6,1.9c0,0.9,0.4,1.6,1,2.3c1.3-0.7,2.1-1.4,2.1-2.5C425.6,92,425.2,91.1,424.1,91.1L424.1,91.1z"/>
		<path class="st0" d="M450.9,97.4c-0.1-1.8-0.2-4-0.2-5.6h0c-0.5,1.5-1,3.1-1.6,4.9l-2.3,6.3h-1.3l-2.1-6.2c-0.6-1.8-1.1-3.5-1.5-5
			h0c0,1.6-0.1,3.8-0.2,5.7l-0.3,5.5h-1.6l0.9-12.9h2.1l2.2,6.2c0.5,1.6,1,3,1.3,4.4h0c0.3-1.3,0.8-2.7,1.4-4.4l2.3-6.2h2.1
			l0.8,12.9h-1.6L450.9,97.4z"/>
		<path class="st0" d="M457.3,99l-1.3,4.1h-1.7l4.4-12.9h2l4.4,12.9h-1.8l-1.4-4.1H457.3z M461.6,97.7l-1.3-3.7
			c-0.3-0.8-0.5-1.6-0.6-2.4h-0.1c-0.2,0.7-0.4,1.6-0.6,2.3l-1.3,3.7H461.6z"/>
		<path class="st0" d="M467,103.1V90.2h1.8l4.1,6.5c0.9,1.5,1.7,2.9,2.3,4.2l0.1,0c-0.2-1.7-0.2-3.3-0.2-5.3v-5.4h1.6v12.9H475
			l-4.1-6.6c-0.9-1.4-1.8-2.9-2.4-4.3l-0.1,0c0.1,1.6,0.1,3.2,0.1,5.3v5.5H467z"/>
		<path class="st0" d="M481.3,90.2v7.7c0,2.9,1.3,4.1,3,4.1c1.9,0,3.1-1.3,3.1-4.1v-7.7h1.7v7.6c0,4-2.1,5.6-4.9,5.6
			c-2.6,0-4.6-1.5-4.6-5.5v-7.6H481.3z"/>
		<path class="st0" d="M494.5,91.6h-3.9v-1.4h9.5v1.4h-3.9v11.5h-1.7V91.6z"/>
		<path class="st0" d="M508.3,97h-5v4.7h5.6v1.4h-7.3V90.2h7v1.4h-5.3v4.1h5V97z"/>
		<path class="st0" d="M511.1,103.1V90.2h1.8l4.1,6.5c0.9,1.5,1.7,2.9,2.3,4.2l0.1,0c-0.2-1.7-0.2-3.3-0.2-5.3v-5.4h1.6v12.9h-1.7
			l-4.1-6.6c-0.9-1.4-1.8-2.9-2.4-4.3l-0.1,0c0.1,1.6,0.1,3.2,0.1,5.3v5.5H511.1z"/>
		<path class="st0" d="M526.2,91.6h-3.9v-1.4h9.5v1.4h-3.9v11.5h-1.7V91.6z"/>
		<path class="st0" d="M534.9,90.2v12.9h-1.7V90.2H534.9z"/>
		<path class="st0" d="M542.9,103.3c-3.4,0-5.8-2.6-5.8-6.6c0-4.1,2.5-6.8,6-6.8c3.5,0,5.8,2.7,5.8,6.5
			C548.9,100.9,546.2,103.3,542.9,103.3L542.9,103.3z M543,101.9c2.6,0,4.1-2.4,4.1-5.4c0-2.6-1.3-5.3-4.1-5.3
			c-2.8,0-4.1,2.6-4.1,5.4C538.9,99.4,540.4,101.9,543,101.9L543,101.9z"/>
		<path class="st0" d="M551.1,103.1V90.2h1.8l4.1,6.5c0.9,1.5,1.7,2.9,2.3,4.2l0.1,0c-0.2-1.7-0.2-3.3-0.2-5.3v-5.4h1.6v12.9h-1.7
			l-4.1-6.6c-0.9-1.4-1.8-2.9-2.4-4.3l-0.1,0c0.1,1.6,0.1,3.2,0.1,5.3v5.5H551.1z"/>
	</g>
	<g>
		<path class="st0" d="M148.3,32.7v10h17.1v13.2h-17.1v22.4H134V19.5H166v13.2H148.3z"/>
		<path class="st0" d="M200.5,78.3c-16,0-29.7-12.4-29.7-28.7c0-4.2,0.7-8.2,2.2-12.1c0.8-2.2,2.2-4.4,3.7-6.3
			c5.8-7.6,14.3-11.6,23.9-11.6c16.5,0,29.9,12.7,29.9,29.4C230.5,65.6,217.1,78.3,200.5,78.3z M200.8,32.3
			c-9.3,0-15.5,7.7-15.5,16.6c0,9.1,6.2,16.9,15.7,16.9c9.1,0,15.3-8,15.3-16.7C216.2,40.3,210.1,32.3,200.8,32.3z"/>
		<path class="st0" d="M283.4,78.3l0.5-44l-0.2-0.2l-12.5,44.1h-9.9l-12.5-44.1l-0.2,0.2l0.5,44h-13.8V19.5h19.3l11.7,38.7h0.2
			l11.5-38.7h19.4v58.7H283.4z"/>
		<path class="st0" d="M344.4,78.3l-2.9-8.5h-20.4l-3.1,8.5h-16.1l23.6-58.7h11.8l23.3,58.7H344.4z M331.5,37.8L331.5,37.8h-0.2
			l-6,20.1h12.3L331.5,37.8z"/>
		<path class="st0" d="M386.5,32.7v45.6h-15V32.7h-11.6V19.5H398v13.2H386.5z"/>
		<path class="st0" d="M430.9,78.3l-13.6-19h-0.2v19h-14.4V19.5h18.6c6.2,0,13,0.2,18.1,4.2c4.8,3.9,7.2,9.9,7.2,16
			c0,9-5.3,17-14.6,18.5l16,20H430.9z M422.6,32.7h-5.5v16.4h5.3c5.6,0,9.8-2.4,9.8-8.4C432.3,34.9,427.8,32.7,422.6,32.7z"/>
		<path class="st0" d="M495.2,78.3l-2.9-8.5H472l-3.1,8.5h-16.1l23.6-58.7h11.8l23.3,58.7H495.2z M482.4,37.8L482.4,37.8h-0.2
			l-6,20.1h12.3L482.4,37.8z"/>
		<path class="st0" d="M554.4,54.8c-5.1,4.4-10.6,5.1-17.1,5.1h-6.5v18.4h-14.4V19.5h19.2c6,0,13.3,0.2,18.1,4.3
			c4.6,3.9,6.9,9.5,6.9,15.6C560.6,44.8,558.5,51.1,554.4,54.8z M536.3,32.7h-5.6v14h6.1c4.9,0,9.4-1.1,9.4-7.1
			C546.2,33.5,541.2,32.7,536.3,32.7z"/>
	</g>
	<g>
		<path class="st1" d="M0,76.1c25,51,94.4,8.3,95.7-40.8C96,21.6,90.1,7.3,76.3,0c18.2,3.5,32.1,16.2,35.2,33.8
			c8.2,46-53.4,104.5-96.5,71.4C5.6,98,1.2,87.5,0,76.1z"/>
		<path class="st1" d="M10,83.1c58.9,22.8,91.6-75.7,42.1-80.4c17.2-4,33.4,7.1,36.3,24.1C95.8,69.4,39.8,115.4,10,83.1z"/>
		<path class="st1" d="M14.2,24.4C21.7,14.3,32.5,7.7,45.4,7.4c35.5-0.7,30.1,47.7,1.7,69c28.7-41.6,3.3-77.7-29.9-54.1
			C16.2,23,15.3,23.8,14.2,24.4z"/>
	</g>
</g>
</svg>
