<?xml version="1.0" encoding="utf-8"?>
<!-- Generator: Adobe Illustrator 19.0.0, SVG Export Plug-In . SVG Version: 6.00 Build 0)  -->
<svg version="1.1" id="Layer_1" xmlns="http://www.w3.org/2000/svg" xmlns:xlink="http://www.w3.org/1999/xlink" x="0px" y="0px"
	 viewBox="0 0 292.3 71.5" style="enable-background:new 0 0 292.3 71.5;" xml:space="preserve">
<style type="text/css">
	.st0{fill:#FFFFFF;}
</style>
<g>
	<g>
		<path class="st0" d="M63.6,0c3.6,0,6.5,2.8,6.5,6.2c0,3.4-2.9,6.2-6.5,6.2c-3.6,0-6.5-2.8-6.5-6.2C57.1,2.8,60,0,63.6,0z
			 M63.6,11.5c3,0,5.5-2.3,5.5-5.3c0-2.9-2.4-5.3-5.5-5.3c-3,0-5.5,2.4-5.5,5.3C58.1,9.1,60.6,11.5,63.6,11.5z M64.3,8.7
			c-0.3-0.4-0.5-0.8-0.7-1.3c-0.3,0-0.5-0.1-0.7-0.1v2.1h-1.4c-0.3,0-0.4-0.1-0.4-0.3V2.9h2.6c1.7,0,2.7,0.9,2.7,2.3
			c0,0.9-0.5,1.6-1.2,1.9c0.2,0.3,0.4,0.6,0.6,0.8c0.2,0.2,0.4,0.3,0.7,0.3h0.2c0.1,0.1,0.1,0.4,0.1,0.6c0,0.4-0.4,0.6-1,0.6
			C65.1,9.5,64.6,9.2,64.3,8.7z M62.8,6c0.2,0.1,0.4,0.1,0.6,0.1c0.5,0,1.1-0.3,1.1-1c0-0.7-0.5-1-1.3-1h-0.4V6z"/>
	</g>
	<g>
		<path class="st0" d="M24.1,2.4v11.5c13.3,0,24.1,10.3,24.1,23.1C48.3,49.7,37.5,60,24.1,60v11.5c20,0,36.2-15.5,36.2-34.6
			S44.1,2.4,24.1,2.4z"/>
		<path class="st0" d="M0,37C0,49.7,10.8,60,24.1,60V48.5c-6.7,0-12.1-5.2-12.1-11.5c0-6.4,5.4-11.5,12.1-11.5V13.9
			C10.8,13.9,0,24.2,0,37z"/>
		<path class="st0" d="M36.2,37c0-6.4-5.4-11.5-12.1-11.5v23.1C30.8,48.5,36.2,43.3,36.2,37z"/>
	</g>
	<g>
		<g>
			<path class="st0" d="M101.3,10.3c-3.8,0-7.2,3-7.2,8.4c0,6.4,4.3,10.2,10.4,10.2c2.2,0,4.6-0.5,6.4-1.4c0.4,0.6,0.8,1.6,0.8,2.4
				c0,1.4-3.7,3.4-8.3,3.4c-8.5,0-14.9-5.7-14.9-14.5c0-8.1,5.8-13,13-13c5.1,0,9,2.2,10.7,5.5c0.2,0.4,0.3,0.8,0.3,1.2
				c0,0.4-0.3,0.9-1,1.3c-1,0.6-2.5,1-3.8,1C106.7,11.9,104.5,10.3,101.3,10.3z"/>
			<path class="st0" d="M124,32.9c-5.8,0-7.4-3.1-7.4-8.2V6.3H133c0.8,0,1.2,0.4,1.2,1.4c0,0.9-0.2,2.1-0.4,3h-11.5v6.8h8.7
				c0.7,0,1.1,0.4,1.1,1.3v3.1h-9.8v3.1c0,2.9,0.8,3.6,2.7,3.6h8.5c0.7,0,1.1,0.4,1.1,1.3v3.1H124z"/>
			<path class="st0" d="M144.6,15.4v17.5h-4.2c-1,0-1.4-0.3-1.4-1V7.6c1.2-0.9,3-1.6,3.9-1.6c0.8,0,1.2,0.3,1.5,0.8l11,17V6.3h4.2
				c1,0,1.4,0.3,1.4,1v24.3c-1.2,0.9-3,1.6-3.9,1.6c-0.8,0-1.2-0.3-1.5-0.8L144.6,15.4z"/>
			<path class="st0" d="M174.5,32.9c-1,0-1.4-0.3-1.4-1V10.7h-7c-0.8,0-1.2-0.4-1.2-1.3c0-0.9,0.2-2.1,0.4-3.1h20.4
				c0.7,0,1.1,0.4,1.1,1.3v3.1h-8.1v22.2H174.5z"/>
			<path class="st0" d="M203.3,30.6c-1.5-1.7-2.6-3.6-3.5-5.7c-1.1,0-2.4-0.2-3.3-0.5v8.4h-4.2c-1,0-1.4-0.3-1.4-1V6.3h8.8
				c6.9,0,11.2,3.5,11.2,9.3c0,4.1-2.3,7-5.7,8.4c1,1.6,1.9,2.7,2.9,3.7c1,1,1.9,1.4,3,1.4h0.8c0.2,0.6,0.3,1.2,0.3,1.9
				c0,1.1-1.1,2.3-3.6,2.3C206.5,33.4,205.1,32.7,203.3,30.6z M196.4,20.3c0.8,0.2,1.8,0.3,2.8,0.3c3.5,0,5.8-1.6,5.8-4.9
				c0-3.2-2.2-4.9-5.8-4.9h-2.8V20.3z"/>
			<path class="st0" d="M215.1,32.9c-1,0-1.5-0.5-1.2-1.3l9.4-24.7c1.2-0.5,2.9-0.9,4.4-0.9c1.4,0,2,0.4,2.5,1.6l9.6,25.3h-4.5
				c-0.9,0-1.5-0.2-1.8-0.9l-1.7-4.9h-10.4l-2,5.8H215.1z M226.6,12l-3.7,10.8h7.5L226.6,12z"/>
			<path class="st0" d="M249.8,32.9c-5.6,0-7.6-2.6-7.6-8.2V6.5c1.1-0.3,2.4-0.5,4-0.5c1.1,0,1.6,0.3,1.6,1.1v17.6
				c0,2.9,0.6,3.8,2.7,3.8h8.6c0.7,0,1.1,0.4,1.1,1.3v3.1H249.8z"/>
			<path class="st0" d="M270.9,32.9c-5.8,0-7.4-3.1-7.4-8.2V6.3h16.3c0.8,0,1.2,0.4,1.2,1.4c0,0.9-0.2,2.1-0.4,3h-11.5v6.8h8.7
				c0.7,0,1.1,0.4,1.1,1.3v3.1h-9.8v3.1c0,2.9,0.8,3.6,2.7,3.6h8.5c0.7,0,1.1,0.4,1.1,1.3v3.1H270.9z"/>
			<path class="st0" d="M292.3,30.5c0,1.8-1.3,2.9-3,2.9c-1.6,0-3.2-1.2-3.2-3.2c0-1.8,1.3-2.9,3-2.9
				C290.8,27.4,292.3,28.6,292.3,30.5z"/>
			<path class="st0" d="M97.1,68.5c-5,0-7.4-2.3-7.4-7.9V41.9h10.4c7.5,0,13.2,5.1,13.2,13.3s-5.7,13.3-13.4,13.3H97.1z M99.6,46.3
				h-4.3v13.9c0,2.9,0.7,3.8,2.8,3.8h1.5c4.5,0,8.1-3,8.1-8.9C107.7,49.3,104.1,46.3,99.6,46.3z"/>
			<path class="st0" d="M119.4,68.5c-1,0-1.4-0.3-1.4-1V42.1c1.2-0.3,2.4-0.5,4-0.5c1.1,0,1.6,0.3,1.6,1.1v25.7H119.4z"/>
			<path class="st0" d="M141.9,45.9c-4.4,0-7.8,3-7.8,8.4c0,6.3,4.3,10.1,9.4,10.1c3.2,0,4.5-0.9,4.5-2.9v-3h-4.5
				c-0.8,0-1.2-0.5-1.2-1.4s0.2-1.9,0.4-2.8h9.4c1,0,1.6,0.5,1.6,1.6v5.3c0,5.4-5.1,7.6-10.4,7.6c-8.3,0-14.8-5.7-14.8-14.5
				c0-8,5.8-13,13.4-13c5,0,9,2.1,10.9,5.2c0.3,0.4,0.4,0.7,0.4,1.2c0,1.3-2.6,2.2-4.7,2.3C147.4,47.6,145,45.9,141.9,45.9z"/>
			<path class="st0" d="M160.5,68.5c-1,0-1.4-0.3-1.4-1V42.1c1.2-0.3,2.4-0.5,4-0.5c1.1,0,1.6,0.3,1.6,1.1v25.7H160.5z"/>
			<path class="st0" d="M178.4,68.5c-1,0-1.4-0.3-1.4-1V46.3h-7c-0.8,0-1.2-0.4-1.2-1.3c0-0.9,0.2-2.1,0.4-3.1h20.4
				c0.7,0,1.1,0.4,1.1,1.3v3.1h-8.1v22.2H178.4z"/>
			<path class="st0" d="M190.9,68.5c-1,0-1.5-0.5-1.2-1.3l9.4-24.7c1.2-0.5,2.9-0.9,4.4-0.9c1.4,0,2,0.4,2.5,1.6l9.6,25.3H211
				c-0.9,0-1.5-0.2-1.8-0.9l-1.7-4.9h-10.4l-2,5.8H190.9z M202.4,47.6l-3.7,10.8h7.5L202.4,47.6z"/>
			<path class="st0" d="M225.6,68.5c-5.6,0-7.6-2.6-7.6-8.2V42c1.1-0.3,2.4-0.5,4-0.5c1.1,0,1.6,0.3,1.6,1.1v17.6
				c0,2.9,0.6,3.8,2.7,3.8h8.6c0.7,0,1.1,0.4,1.1,1.3v3.1H225.6z"/>
			<path class="st0" d="M246.7,68.5c-5.8,0-7.4-3.1-7.4-8.2V41.9h16.3c0.8,0,1.2,0.4,1.2,1.4c0,0.9-0.2,2.1-0.4,3h-11.5v6.8h8.7
				c0.7,0,1.1,0.4,1.1,1.3v3.1h-9.8v3.1c0,2.9,0.8,3.6,2.7,3.6h8.5c0.7,0,1.1,0.4,1.1,1.3v3.1H246.7z"/>
		</g>
	</g>
</g>
</svg>
