<?xml version="1.0" encoding="utf-8"?>
<!-- Generator: Adobe Illustrator 19.0.0, SVG Export Plug-In . SVG Version: 6.00 Build 0)  -->
<svg version="1.1" id="Calque_1" xmlns="http://www.w3.org/2000/svg" xmlns:xlink="http://www.w3.org/1999/xlink" x="0px" y="0px"
	 viewBox="0 0 104.2 58.9" style="enable-background:new 0 0 104.2 58.9;" xml:space="preserve">
<style type="text/css">
	.st0{fill:#FFFFFF;}
</style>
<g id="XMLID_213_">
	<g id="XMLID_219_">
		<g id="XMLID_221_">
			<g id="XMLID_222_">
				<g id="XMLID_234_">
					<path id="XMLID_249_" class="st0" d="M99.8,45c-0.3-0.7-0.7-1.3-1.2-1.8c-0.5-0.5-1.1-0.9-1.9-1.2c-0.7-0.3-1.6-0.4-2.5-0.4
						c-1,0-1.8,0.2-2.6,0.5c-0.8,0.3-1.4,0.8-1.9,1.3c-0.5,0.5-0.9,1.2-1.2,1.9c-0.3,0.7-0.4,1.5-0.4,2.4c0,0.8,0.1,1.6,0.4,2.4
						c0.3,0.7,0.7,1.4,1.2,1.9c0.5,0.5,1.2,1,1.9,1.3c0.8,0.3,1.7,0.5,2.7,0.5c0.8,0,1.6-0.1,2.3-0.3c0.7-0.2,1.2-0.5,1.7-0.8
						c0.5-0.4,0.9-0.8,1.2-1.2c0.3-0.5,0.5-1,0.6-1.5h-3.6c-0.1,0.3-0.4,0.6-0.7,0.9c-0.3,0.2-0.8,0.4-1.5,0.4
						c-0.5,0-0.9-0.1-1.2-0.2c-0.3-0.1-0.6-0.3-0.8-0.5c-0.2-0.2-0.3-0.5-0.4-0.8c-0.1-0.3-0.1-0.6-0.1-1h8.3c0-0.3,0.1-0.6,0.1-0.7
						c0-0.2,0-0.4,0-0.6C100.2,46.5,100.1,45.7,99.8,45z M91.7,46.5c0-0.7,0.2-1.2,0.7-1.6c0.5-0.4,1-0.6,1.7-0.6
						c0.7,0,1.3,0.2,1.7,0.6c0.4,0.4,0.7,0.9,0.7,1.6H91.7z"/>
					<path id="XMLID_246_" class="st0" d="M27.3,43.6c-0.3-0.6-0.8-1-1.4-1.4c-0.6-0.4-1.4-0.5-2.2-0.5c-0.8,0-1.5,0.2-2.2,0.5
						c-0.7,0.3-1.2,0.7-1.7,1.3c-0.5,0.5-0.9,1.2-1.2,1.9c-0.3,0.7-0.4,1.5-0.4,2.4c0,0.9,0.1,1.7,0.4,2.4c0.3,0.7,0.7,1.4,1.2,1.9
						c0.5,0.5,1.1,1,1.8,1.3c0.7,0.3,1.4,0.5,2.2,0.5c0.9,0,1.7-0.2,2.3-0.6c0.6-0.4,1.1-0.8,1.4-1.3v1.6H31V41.9h-3.7V43.6z
						 M27.1,48.8c-0.1,0.4-0.3,0.7-0.6,0.9c-0.2,0.3-0.5,0.5-0.9,0.6c-0.3,0.2-0.7,0.2-1.1,0.2c-0.4,0-0.8-0.1-1.1-0.2
						c-0.3-0.2-0.6-0.4-0.9-0.6c-0.2-0.3-0.4-0.6-0.6-0.9c-0.1-0.4-0.2-0.7-0.2-1.1c0-0.4,0.1-0.8,0.2-1.1c0.1-0.3,0.3-0.7,0.6-0.9
						c0.2-0.3,0.5-0.5,0.9-0.6c0.3-0.2,0.7-0.2,1.1-0.2c0.4,0,0.8,0.1,1.1,0.2c0.3,0.2,0.6,0.4,0.9,0.6c0.2,0.3,0.4,0.6,0.6,0.9
						c0.1,0.3,0.2,0.7,0.2,1.1C27.3,48.1,27.3,48.5,27.1,48.8z"/>
					<path id="XMLID_243_" class="st0" d="M77.6,43.6c-0.4-0.6-0.9-1.1-1.5-1.4c-0.6-0.3-1.4-0.5-2.2-0.5c-0.8,0-1.5,0.2-2.2,0.5
						c-0.7,0.3-1.3,0.7-1.7,1.3c-0.5,0.5-0.9,1.2-1.1,1.9c-0.3,0.7-0.4,1.5-0.4,2.4c0,0.9,0.1,1.7,0.4,2.4c0.3,0.7,0.7,1.3,1.2,1.9
						c0.5,0.5,1.1,0.9,1.8,1.2c0.7,0.3,1.4,0.4,2.2,0.4c0.9,0,1.7-0.2,2.3-0.5c0.6-0.3,1.1-0.8,1.4-1.3v1.8c0,0.9-0.3,1.6-0.8,2
						c-0.5,0.4-1.2,0.6-2,0.6c-0.9,0-1.5-0.2-1.9-0.6c-0.4-0.4-0.6-0.8-0.7-1.3h-3.7c0,0.6,0.2,1.2,0.4,1.8c0.2,0.6,0.6,1.1,1.1,1.5
						c0.5,0.4,1.1,0.7,2,1c0.8,0.2,1.8,0.4,3,0.4c2.1,0,3.7-0.4,4.7-1.3c1-0.9,1.6-2.3,1.6-4.3V41.9h-3.7V43.6z M77.4,48.8
						c-0.1,0.3-0.3,0.7-0.6,0.9c-0.2,0.3-0.5,0.5-0.9,0.6c-0.3,0.2-0.7,0.2-1.1,0.2c-0.4,0-0.8-0.1-1.1-0.2
						c-0.3-0.2-0.6-0.4-0.9-0.6c-0.2-0.3-0.4-0.6-0.6-0.9c-0.1-0.4-0.2-0.7-0.2-1.1c0-0.4,0.1-0.7,0.2-1.1c0.1-0.4,0.3-0.7,0.5-0.9
						c0.2-0.3,0.5-0.5,0.9-0.6c0.3-0.2,0.7-0.2,1.1-0.2c0.4,0,0.8,0.1,1.1,0.2c0.3,0.2,0.6,0.4,0.9,0.6c0.2,0.3,0.4,0.6,0.6,0.9
						c0.1,0.3,0.2,0.7,0.2,1.1C77.6,48.1,77.5,48.5,77.4,48.8z"/>
					<path id="XMLID_242_" class="st0" d="M11.8,49.5c-0.7,0.6-1.6,0.8-2.8,0.8c-0.8,0-1.5-0.1-2.1-0.4c-0.6-0.3-1.2-0.7-1.6-1.1
						c-0.4-0.5-0.8-1-1-1.7c-0.2-0.6-0.4-1.3-0.4-2.1c0-0.7,0.1-1.3,0.3-2c0.2-0.6,0.6-1.2,1-1.7c0.4-0.5,1-0.9,1.6-1.2
						c0.6-0.3,1.3-0.4,2.1-0.4c0.6,0,1.2,0.1,1.7,0.3c0.5,0.2,0.9,0.4,1.3,0.7c0.4,0.3,0.7,0.7,0.9,1.1c0.2,0.4,0.4,0.9,0.5,1.4h4.1
						c-0.1-0.9-0.4-1.8-0.8-2.7c-0.4-0.8-1-1.6-1.7-2.2c-0.7-0.6-1.6-1.1-2.6-1.5c-1-0.4-2.1-0.5-3.3-0.5c-1.4,0-2.7,0.2-3.8,0.7
						c-1.1,0.5-2,1.1-2.8,1.9c-0.8,0.8-1.3,1.7-1.7,2.8C0.2,42.8,0,43.9,0,45.1c0,1.2,0.2,2.3,0.6,3.3c0.4,1.1,1,2,1.8,2.8
						c0.8,0.8,1.7,1.4,2.8,1.9c1.1,0.5,2.4,0.7,3.8,0.7c1.2,0,2.2-0.2,3.2-0.5c1-0.3,1.8-0.8,2.5-1.4c0.7-0.6,1.3-1.3,1.7-2
						c0.5-0.8,0.8-1.6,0.9-2.5h-4.1C13,48.2,12.5,48.9,11.8,49.5z"/>
					<path id="XMLID_239_" class="st0" d="M65.7,43.2c-0.5-0.5-1.2-0.9-1.9-1.2c-0.7-0.3-1.6-0.4-2.5-0.4c-1,0-1.8,0.2-2.6,0.5
						c-0.8,0.3-1.4,0.8-1.9,1.3c-0.5,0.5-0.9,1.2-1.2,1.9c-0.3,0.7-0.4,1.5-0.4,2.4c0,0.8,0.1,1.6,0.4,2.4c0.3,0.7,0.7,1.4,1.2,1.9
						c0.5,0.5,1.2,1,1.9,1.3c0.8,0.3,1.7,0.5,2.7,0.5c0.8,0,1.6-0.1,2.2-0.3c0.7-0.2,1.2-0.5,1.7-0.8c0.5-0.4,0.9-0.8,1.2-1.2
						c0.3-0.5,0.5-1,0.6-1.5h-3.6c-0.1,0.3-0.4,0.6-0.7,0.9c-0.3,0.2-0.8,0.4-1.5,0.4c-0.5,0-0.9-0.1-1.2-0.2
						c-0.3-0.1-0.6-0.3-0.8-0.5c-0.2-0.2-0.3-0.5-0.4-0.8c-0.1-0.3-0.1-0.6-0.1-1h8.3c0-0.3,0.1-0.6,0.1-0.7c0-0.2,0-0.4,0-0.6
						c0-0.8-0.1-1.5-0.4-2.2C66.6,44.3,66.2,43.7,65.7,43.2z M58.9,46.5c0-0.7,0.2-1.2,0.7-1.6c0.5-0.4,1-0.6,1.7-0.6
						c0.7,0,1.3,0.2,1.7,0.6c0.4,0.4,0.7,0.9,0.7,1.6H58.9z"/>
					<rect id="XMLID_238_" x="83.1" y="41.9" class="st0" width="3.7" height="11.5"/>
					<path id="XMLID_237_" class="st0" d="M37.8,42.4c-0.6,0.4-1.1,0.9-1.4,1.4v-1.9h-3.7v11.5h3.7v-4.5c0-1.4,0.3-2.4,0.9-3
						c0.6-0.6,1.4-0.9,2.5-0.9c0.2,0,0.4,0,0.6,0c0.2,0,0.4,0.1,0.6,0.1v-3.3c-0.3-0.1-0.7-0.2-1.1-0.2C39.2,41.7,38.4,42,37.8,42.4
						z"/>
					<path id="XMLID_236_" class="st0" d="M86.6,36.5c-0.2-0.2-0.5-0.4-0.8-0.5c-0.3-0.1-0.6-0.2-0.9-0.2c-0.7,0-1.2,0.2-1.7,0.7
						c-0.4,0.4-0.7,1-0.7,1.6c0,0.3,0.1,0.6,0.2,0.9c0.1,0.3,0.3,0.5,0.5,0.7c0.2,0.2,0.5,0.4,0.7,0.5c0.3,0.1,0.6,0.2,0.9,0.2
						c0.3,0,0.6-0.1,0.9-0.2c0.3-0.1,0.5-0.3,0.8-0.5c0.2-0.2,0.4-0.5,0.5-0.7c0.1-0.3,0.2-0.6,0.2-0.9c0-0.3-0.1-0.6-0.2-0.9
						C87,36.9,86.8,36.7,86.6,36.5z"/>
					<path id="XMLID_235_" class="st0" d="M53,43c-0.3-0.4-0.7-0.7-1.3-0.9c-0.5-0.2-1.2-0.4-2-0.4c-0.9,0-1.7,0.2-2.4,0.5
						c-0.7,0.3-1.1,0.8-1.5,1.4v-1.7h-3.7v11.5H46v-5.8c0-0.9,0.2-1.6,0.6-2.1c0.4-0.5,0.9-0.8,1.7-0.8c0.7,0,1.3,0.3,1.6,0.8
						c0.3,0.5,0.4,1.2,0.4,2v5.9h3.7v-6.8c0-0.8-0.1-1.5-0.2-2.1C53.6,43.9,53.4,43.4,53,43z"/>
				</g>
				<g id="XMLID_223_">
					<path id="XMLID_231_" class="st0" d="M36.9,37.6c0.5,0.5,1.1,1,1.8,1.3c0.7,0.3,1.4,0.5,2.2,0.5c0.9,0,1.7-0.2,2.3-0.6
						c0.6-0.4,1.1-0.8,1.4-1.3v1.6h3.7V27.6h-3.7v1.6c-0.3-0.6-0.8-1-1.4-1.4c-0.6-0.4-1.4-0.5-2.2-0.5c-0.8,0-1.5,0.2-2.2,0.5
						c-0.7,0.3-1.2,0.7-1.7,1.3c-0.5,0.5-0.9,1.2-1.2,1.9c-0.3,0.7-0.4,1.5-0.4,2.4c0,0.9,0.1,1.7,0.4,2.4
						C36,36.5,36.4,37.1,36.9,37.6z M39.2,32.2c0.1-0.3,0.3-0.7,0.6-0.9c0.2-0.3,0.5-0.5,0.9-0.6c0.3-0.2,0.7-0.2,1.1-0.2
						c0.4,0,0.8,0.1,1.1,0.2c0.3,0.2,0.6,0.4,0.9,0.6c0.2,0.3,0.4,0.6,0.6,0.9c0.1,0.3,0.2,0.7,0.2,1.1c0,0.4-0.1,0.8-0.2,1.1
						c-0.1,0.4-0.3,0.7-0.6,0.9c-0.2,0.3-0.5,0.5-0.9,0.6c-0.3,0.2-0.7,0.2-1.1,0.2c-0.4,0-0.8-0.1-1.1-0.2
						c-0.3-0.2-0.6-0.4-0.9-0.6c-0.2-0.3-0.4-0.6-0.6-0.9c-0.1-0.4-0.2-0.7-0.2-1.1C39,32.9,39.1,32.6,39.2,32.2z"/>
					<rect id="XMLID_230_" x="49.9" y="22.4" class="st0" width="3.7" height="16.7"/>
					<path id="XMLID_227_" class="st0" d="M34.6,30.7c0-1.1-0.2-2.1-0.6-3.1c-0.4-1-1-1.9-1.7-2.7c-0.7-0.8-1.7-1.4-2.7-1.9
						c-1.1-0.5-2.3-0.7-3.7-0.7h-6.2v16.7h6.2c1.4,0,2.6-0.2,3.7-0.7c1.1-0.5,2-1.1,2.7-1.9c0.7-0.8,1.3-1.7,1.7-2.7
						C34.4,32.8,34.6,31.8,34.6,30.7z M30.3,32.6c-0.2,0.6-0.5,1.1-1,1.6c-0.4,0.5-0.9,0.8-1.6,1.1c-0.6,0.3-1.3,0.4-2.1,0.4h-2.1
						v-10h2.1c0.8,0,1.5,0.1,2.1,0.4c0.6,0.3,1.1,0.7,1.6,1.1c0.4,0.5,0.7,1,1,1.6c0.2,0.6,0.3,1.2,0.3,1.9
						C30.6,31.4,30.5,32,30.3,32.6z"/>
					<path id="XMLID_224_" class="st0" d="M56.5,37.6c0.5,0.6,1.2,1,1.9,1.3c0.8,0.3,1.7,0.5,2.7,0.5c0.8,0,1.6-0.1,2.3-0.3
						c0.7-0.2,1.2-0.5,1.7-0.8c0.5-0.4,0.9-0.8,1.2-1.2c0.3-0.5,0.5-1,0.6-1.5h-3.6c-0.1,0.3-0.4,0.6-0.7,0.9
						c-0.3,0.2-0.8,0.4-1.5,0.4c-0.5,0-0.9-0.1-1.2-0.2c-0.3-0.1-0.6-0.3-0.8-0.5c-0.2-0.2-0.3-0.5-0.4-0.8c-0.1-0.3-0.1-0.6-0.1-1
						h8.3c0-0.3,0.1-0.6,0.1-0.7c0-0.2,0-0.4,0-0.6c0-0.8-0.1-1.5-0.4-2.2c-0.3-0.7-0.7-1.3-1.2-1.8c-0.5-0.5-1.2-0.9-1.9-1.2
						c-0.7-0.3-1.6-0.4-2.5-0.4c-1,0-1.8,0.2-2.6,0.5c-0.8,0.3-1.4,0.8-1.9,1.3c-0.5,0.5-0.9,1.2-1.2,1.9c-0.3,0.7-0.4,1.5-0.4,2.4
						c0,0.8,0.1,1.6,0.4,2.4C55.6,36.4,56,37.1,56.5,37.6z M59.3,30.5c0.5-0.4,1-0.6,1.7-0.6c0.7,0,1.3,0.2,1.7,0.6
						c0.4,0.4,0.7,0.9,0.7,1.6h-4.8C58.6,31.4,58.8,30.9,59.3,30.5z"/>
				</g>
			</g>
		</g>
		<path id="XMLID_220_" class="st0" d="M17.3,9.8c0-1.4,1.1-2.5,2.5-2.5v0V0h-0.1c-4.9,0-8.9,3.6-9.7,8.2C9.2,3.6,5.1,0,0.2,0H0.1
			v7.4c1.4,0,2.5,1.1,2.5,2.5c0,1.4-1.1,2.5-2.5,2.5v7.4h0.1c4.9,0,8.9-3.6,9.7-8.2c0.8,4.7,4.8,8.2,9.7,8.2h0.1v-7.4
			C18.4,12.3,17.3,11.2,17.3,9.8z"/>
	</g>
	<g id="XMLID_214_">
		<path id="XMLID_217_" class="st0" d="M101.4,51.7h-0.6v-0.2h1.4v0.2h-0.6v1.7h-0.2V51.7z"/>
		<path id="XMLID_215_" class="st0" d="M102.4,51.6h0.2l0.6,1.6h0l0.6-1.6h0.2v1.8H104v-1.6h0c0,0,0,0.1-0.1,0.2l-0.5,1.4h-0.2
			l-0.5-1.4c0-0.1-0.1-0.2-0.1-0.2h0v1.6h-0.2V51.6z"/>
	</g>
</g>
</svg>
