<?xml version="1.0" encoding="utf-8"?>
<!-- Generator: Adobe Illustrator 19.0.0, SVG Export Plug-In . SVG Version: 6.00 Build 0)  -->
<svg version="1.1" id="Calque_1" xmlns="http://www.w3.org/2000/svg" xmlns:xlink="http://www.w3.org/1999/xlink" x="0px" y="0px"
	 viewBox="-311.7 592.6 425.2 70.9" style="enable-background:new -311.7 592.6 425.2 70.9;" xml:space="preserve">
<style type="text/css">
	.st0{fill:#C1C1C1;}
</style>
<g>
	<path id="XMLID_89_" class="st0" d="M-273.1,618v-4.1c0-1.9,1.3-2.4,2.2-2.4s5.7,0,5.7,0v-8.7h-7.8c-8.7,0-10.6,6.4-10.6,10.6v4.6
		h-5v6.1v4h5.1c0,11.5,0,25.3,0,25.3h10.1c0,0,0-14,0-25.3h7.5l0.3-4l0.6-6.1C-265,618-273.1,618-273.1,618z"/>
	<path id="XMLID_85_" class="st0" d="M-228.3,628.5v21.9h10.4v-23.7v-6.1h-10.4V628.5z M-183.9,629.7c-0.7-5.6-3.3-9.2-10.9-9.2
		c-4.5,0-7.5,1.6-8.7,4h-0.1v-4h-8.3v5.7v24.1h8.7v-14.7c0-3.9,0.8-7.6,5.5-7.6c4.8,0,5.2,4.4,5.2,7.9v14.5h8.9V634
		C-183.7,632.5-183.7,631-183.9,629.7L-183.9,629.7z M-223.1,605.7c-2.9,0-5.2,2.3-5.2,5.2s2.3,5.2,5.2,5.2s5.2-2.3,5.2-5.2
		S-220.3,605.7-223.1,605.7L-223.1,605.7z"/>
	<path id="XMLID_84_" class="st0" d="M-109.9,612.7c-1.8,0.8-3.8,1.3-5.9,1.6c2.2-1.3,3.8-3.3,4.6-5.7c-2,1.2-4.3,2-6.6,2.5
		c-1.9-2-4.6-3.2-7.6-3.2c-5.7,0-10.4,4.6-10.4,10.2c0,0.8,0.1,1.6,0.3,2.3c-8.6-0.4-16.3-4.5-21.4-10.7c-0.9,1.5-1.4,3.3-1.4,5.1
		c0,3.6,1.9,6.7,4.6,8.5c-1.7,0-3.3-0.5-4.7-1.3c0,0.1,0,0.1,0,0.1c0,1.3,0.2,2.5,0.7,3.7c1.3,3.2,4.1,5.6,7.6,6.3
		c-0.9,0.2-1.8,0.4-2.7,0.4c-0.7,0-1.3-0.1-1.9-0.2c1.3,4.1,5.2,7,9.7,7.1c-3.6,2.7-8,4.4-12.9,4.4c-0.9,0-1.6-0.1-2.5-0.1
		c4.6,2.9,10.1,4.6,15.9,4.6c16.2,0,26.2-11.2,28.8-22.9c0.5-2.1,0.7-4.1,0.7-6.2c0-0.4,0-0.9,0-1.3
		C-113,616.5-111.2,614.7-109.9,612.7L-109.9,612.7z"/>
	<g id="XMLID_76_">
		<path id="XMLID_81_" class="st0" d="M-64.2,607.3c6.7,0,7.5,0,10.2,0.1c2.5,0.1,3.8,0.5,4.7,0.9c1.2,0.5,2,1,2.9,1.9
			c0.9,0.9,1.4,1.7,1.9,2.9c0.3,0.9,0.8,2.2,0.9,4.7c0.1,2.7,0.1,3.5,0.1,10.2s0,7.5-0.1,10.2c-0.1,2.5-0.5,3.8-0.9,4.7
			c-0.5,1.2-1,2-1.9,2.9c-0.9,0.9-1.7,1.4-2.9,1.9c-0.9,0.3-2.2,0.8-4.7,0.9c-2.7,0.1-3.5,0.1-10.2,0.1c-6.7,0-7.5,0-10.2-0.1
			c-2.5-0.1-3.8-0.5-4.7-0.9c-1.2-0.5-2-1-2.9-1.9c-0.9-0.9-1.4-1.7-1.9-2.9c-0.3-0.9-0.8-2.2-0.9-4.7c-0.1-2.7-0.1-3.5-0.1-10.2
			s0-7.5,0.1-10.2c0.1-2.5,0.5-3.8,0.9-4.7c0.5-1.2,1-2,1.9-2.9c0.9-0.9,1.7-1.4,2.9-1.9c0.9-0.3,2.2-0.8,4.7-0.9
			C-71.7,607.3-70.9,607.3-64.2,607.3 M-64.2,602.8c-6.9,0-7.7,0-10.4,0.2c-2.7,0.1-4.5,0.5-6.1,1.2c-1.7,0.6-3.1,1.5-4.5,2.9
			c-1.4,1.4-2.3,2.8-2.9,4.5c-0.6,1.6-1.1,3.4-1.2,6.1c-0.1,2.7-0.2,3.6-0.2,10.4c0,6.9,0,7.7,0.2,10.4c0.1,2.7,0.5,4.5,1.2,6.1
			c0.6,1.7,1.5,3.1,2.9,4.5c1.4,1.4,2.8,2.3,4.5,2.9c1.6,0.6,3.4,1.1,6.1,1.2c2.7,0.1,3.6,0.2,10.4,0.2s7.7,0,10.4-0.2
			c2.7-0.1,4.5-0.5,6.1-1.2c1.7-0.6,3.1-1.5,4.5-2.9c1.4-1.4,2.3-2.8,2.9-4.5c0.6-1.6,1.1-3.4,1.2-6.1c0.1-2.7,0.2-3.6,0.2-10.4
			s0-7.7-0.2-10.4c-0.1-2.7-0.5-4.5-1.2-6.1c-0.6-1.7-1.5-3.1-2.9-4.5c-1.4-1.4-2.8-2.3-4.5-2.9c-1.6-0.6-3.4-1.1-6.1-1.2
			C-56.4,602.8-57.3,602.8-64.2,602.8L-64.2,602.8z"/>
		<path id="XMLID_78_" class="st0" d="M-64.2,615.1c-7.2,0-13,5.8-13,13s5.8,13,13,13c7.2,0,13-5.8,13-13S-57,615.1-64.2,615.1z
			 M-64.2,636.5c-4.7,0-8.4-3.8-8.4-8.4c0-4.7,3.8-8.4,8.4-8.4c4.7,0,8.4,3.8,8.4,8.4C-55.7,632.7-59.5,636.5-64.2,636.5z"/>
		<circle id="XMLID_77_" class="st0" cx="-50.7" cy="614.5" r="3"/>
	</g>
	<path id="XMLID_73_" class="st0" d="M32.8,614.8c-0.6-2.4-2.5-4.2-4.8-4.9c-4.3-1.2-21.4-1.2-21.4-1.2s-17.1,0-21.4,1.2
		c-2.4,0.6-4.2,2.5-4.8,4.9c-1.1,4.3-1.1,13.3-1.1,13.3s0,9,1.1,13.3c0.6,2.4,2.5,4.2,4.8,4.9c4.3,1.2,21.4,1.2,21.4,1.2
		s17.1,0,21.4-1.2c2.4-0.6,4.2-2.5,4.8-4.9c1.1-4.3,1.1-13.3,1.1-13.3S34,619.1,32.8,614.8z M1,636.2v-16.3l14.3,8.1L1,636.2z"/>
	<path class="st0" d="M77.5,602.7c-14,0-25.3,10.5-25.3,23.5c0,7.4,3.7,14,9.4,18.3v9l8.6-4.8c2.3,0.6,4.7,1,7.2,1
		c14,0,25.3-10.5,25.3-23.5S91.4,602.7,77.5,602.7z M80,634.4l-6.4-6.9L61,634.4l13.8-14.8l6.6,6.9l12.4-6.9L80,634.4z"/>
</g>
</svg>
