<?xml version="1.0" encoding="utf-8"?>
<!-- Generator: Adobe Illustrator 19.0.0, SVG Export Plug-In . SVG Version: 6.00 Build 0)  -->
<svg version="1.1" id="Calque_1" xmlns="http://www.w3.org/2000/svg" xmlns:xlink="http://www.w3.org/1999/xlink" x="0px" y="0px"
	 viewBox="-450.7 235.2 53.7 53.8" style="enable-background:new -450.7 235.2 53.7 53.8;" xml:space="preserve">
<style type="text/css">
	.st0{enable-background:new    ;}
	.st1{fill:#707070;}
</style>
<g>
	<g class="st0">
		<path class="st1" d="M-437.4,286.6c-0.2,0.2-0.4,0.4-0.6,0.5s-0.5,0.2-0.6,0.2c-0.1,0-0.2,0-0.4,0s-0.3,0-0.5,0s-0.3,0-0.5,0
			s-0.3,0-0.4,0c-0.5,0-1,0-1.6,0.1s-1.1,0.2-1.6,0.3s-1.1,0.3-1.6,0.4s-1,0.3-1.5,0.4s-0.9,0.2-1.3,0.3s-0.7,0.1-1,0.1
			c-0.5,0-0.8-0.1-1.1-0.3s-0.4-0.5-0.4-0.8c0-0.2,0-0.4,0-0.7s0-0.5,0.1-0.8s0.1-0.6,0.2-1s0.1-0.7,0.2-1c0-0.2,0.1-0.5,0.2-0.9
			s0.1-0.8,0.2-1.2s0.1-0.8,0.2-1.2s0.1-0.7,0.2-1c0.1-0.6,0.2-1.1,0.2-1.5s0.1-0.9,0.2-1.3s0.1-0.8,0.2-1.3s0.1-0.9,0.2-1.5
			c0-0.6,0.1-1.1,0.1-1.6s0.1-0.8,0.2-1.2s0.2-0.6,0.4-0.7s0.5-0.3,0.8-0.3c0.2,0,0.4,0,0.5,0.1s0.3,0.2,0.4,0.3s0.2,0.3,0.2,0.5
			s0.1,0.4,0.1,0.5c0,0.1,0,0.2-0.1,0.5s-0.1,0.7-0.2,1.1s-0.2,0.9-0.3,1.5s-0.2,1.1-0.3,1.6s-0.2,1.1-0.3,1.6s-0.2,1-0.2,1.4
			c0,0.3-0.1,0.7-0.2,1.1s-0.1,0.8-0.2,1.2s-0.1,0.8-0.2,1.2s-0.1,0.8-0.2,1.1s-0.1,0.7-0.1,0.9s0,0.5,0,0.7c0,0.1,0.1,0.3,0.2,0.4
			s0.2,0.2,0.4,0.2c0.2,0,0.4,0,0.7-0.1s0.6-0.1,0.9-0.2s0.7-0.2,1-0.3s0.7-0.2,1-0.3c0.1,0,0.2-0.1,0.4-0.1s0.4-0.1,0.7-0.1
			s0.5-0.1,0.8-0.2s0.6-0.1,0.8-0.2s0.5-0.1,0.7-0.1s0.3,0,0.4,0c0.1,0,0.2,0,0.4,0s0.4,0,0.6-0.1s0.5,0,0.8,0s0.5,0,0.8,0.1
			c0.1,0,0.2,0.1,0.3,0.2s0.1,0.2,0.1,0.4s0,0.3,0,0.4S-437.4,286.5-437.4,286.6z"/>
		<path class="st1" d="M-422.1,280.4c0,0.2-0.1,0.4-0.2,0.7s-0.4,0.6-0.6,1s-0.6,0.7-0.9,1.1s-0.7,0.8-1.1,1.2
			c-0.4,0.5-0.9,0.9-1.4,1.4s-1,0.9-1.6,1.3c-1.1,0.8-2.1,1.2-2.9,1.2c-0.9,0-1.7-0.3-2.2-0.9c-0.5-0.6-0.9-1.4-1.1-2.3
			c-0.2-0.9-0.3-1.8-0.3-2.8c0-0.4,0-1,0.1-1.9c0-0.4,0.1-0.8,0.1-1.1s0.1-0.6,0.2-0.7c0.1-0.4,0.3-0.7,0.7-1
			c0.4-0.3,0.7-0.4,1.1-0.4c0.2,0,0.3,0.2,0.3,0.6c0,0.3,0,0.6-0.1,0.9s-0.1,0.7-0.2,1c-0.1,0.6-0.2,1.2-0.2,1.7s-0.1,0.9-0.1,1.3
			c0,0.8,0.1,1.6,0.3,2.4c0.2,0.8,0.6,1.2,1.2,1.2c0.6,0,1.3-0.2,2-0.6c0.4-0.2,0.8-0.5,1.1-0.7s0.8-0.6,1.1-0.9
			c0.4-0.3,0.8-0.7,1.1-1s0.7-0.7,1.1-1s0.7-0.7,0.9-1s0.5-0.6,0.7-0.8c0,0,0,0,0-0.1s0-0.1,0.1-0.1s0-0.1,0.1-0.1s0,0,0.1,0
			c0.1,0,0.2,0.1,0.2,0.3C-422.1,280.1-422.1,280.3-422.1,280.4z M-429.7,270.8c0,0.5-0.1,0.9-0.4,1.3c-0.3,0.4-0.6,0.5-1.1,0.5
			c-0.3,0-0.7,0-1-0.1c-0.4-0.1-0.6-0.2-0.6-0.5c0-0.4,0.1-0.7,0.4-1.1s0.5-0.6,0.9-0.8c0.3-0.2,0.4-0.2,0.5-0.2
			c0.4,0,0.8,0.1,1,0.2S-429.7,270.5-429.7,270.8z"/>
		<path class="st1" d="M-412.4,278.5c0,0,0,0.1,0,0.2s0,0.2-0.1,0.3s-0.1,0.2-0.1,0.2s-0.1,0.1-0.2,0.1c0,0-0.1,0-0.2,0
			s-0.2,0-0.3,0s-0.2,0-0.3,0s-0.2,0-0.2,0c-1.5,0.1-2.7,0.6-3.7,1.6c-1,1-1.8,2.3-2.5,3.9c-0.1,0.3-0.3,0.7-0.4,1s-0.3,0.7-0.4,1.1
			c-0.1,0.2-0.1,0.4-0.1,0.6s-0.1,0.3-0.1,0.5c0,0.1-0.1,0.1-0.2,0.2s-0.2,0.1-0.4,0.2s-0.3,0.1-0.4,0.1s-0.2,0-0.3,0
			c-0.5,0-0.8-0.5-0.9-1.7c0-0.3,0-0.6,0-0.8s0-0.5,0-0.7s0-0.5,0.1-0.8s0.1-0.6,0.1-0.9c0-0.4,0.1-0.9,0.1-1.4s0.1-1.1,0.2-1.6
			s0.1-1.1,0.2-1.5s0.2-0.9,0.2-1.2c0.1-0.4,0.2-0.6,0.4-0.8s0.4-0.3,0.7-0.3c0.1,0,0.2,0,0.3,0.1s0.2,0.1,0.2,0.2s0.1,0.1,0.2,0.2
			s0.1,0.1,0.1,0.2c0,0.2,0,0.4,0,0.6s0,0.5-0.1,0.7s-0.1,0.5-0.1,0.7s-0.1,0.5-0.2,0.7c-0.1,0.4-0.2,0.8-0.3,1.1s-0.1,0.6-0.1,0.9
			s-0.1,0.6-0.1,1s-0.1,0.8-0.2,1.3c0.1-0.3,0.2-0.6,0.3-0.8s0.2-0.4,0.3-0.6s0.2-0.3,0.2-0.4s0.1-0.3,0.2-0.4s0.2-0.3,0.3-0.5
			s0.2-0.4,0.4-0.6c0.5-0.9,1.1-1.6,1.8-2.2s1.2-1,1.8-1.2c0.7-0.3,1.2-0.5,1.6-0.5c0.2,0,0.4,0,0.7,0s0.6,0.1,0.8,0.2
			s0.5,0.2,0.7,0.3S-412.4,278.3-412.4,278.5z"/>
		<path class="st1" d="M-396.9,279.9c0,0.1-0.1,0.3-0.3,0.6c-0.4,0.6-0.9,1.2-1.4,1.8s-1,1.1-1.6,1.7s-1.2,1-1.8,1.5
			s-1.2,0.9-1.9,1.2s-1.2,0.6-1.9,0.8s-1.2,0.3-1.8,0.3c-1.3,0-2.2-0.4-2.9-1.1s-1-1.8-1-3.3c0-1.2,0.2-2.4,0.6-3.6s1-2.3,1.9-3.3
			c0.2-0.2,0.4-0.4,0.6-0.5s0.4-0.3,0.7-0.5s0.5-0.2,0.7-0.3s0.5-0.1,0.8-0.1c0.1,0,0.1,0,0.3,0s0.2,0,0.4,0.1s0.2,0.1,0.4,0.1
			s0.2,0.1,0.3,0.2c0.2,0.3,0.4,0.5,0.5,0.8s0.2,0.6,0.2,0.9c0,0.4,0,0.7-0.1,1.1s-0.3,0.7-0.5,1.1s-0.5,0.7-0.9,1.1
			s-0.8,0.8-1.4,1.2c-0.3,0.3-0.7,0.6-1.1,0.9s-0.9,0.7-1.5,1.1c0,0.8,0.2,1.3,0.7,1.7s1.1,0.6,1.9,0.6c0.4,0,0.9-0.1,1.3-0.2
			s0.9-0.3,1.3-0.5s0.9-0.4,1.3-0.7s0.8-0.5,1.2-0.8c0.7-0.5,1.3-1,1.8-1.4s1.1-1,1.6-1.5l0.6-0.6c0.4-0.3,0.7-0.5,0.8-0.5
			C-397,279.7-396.9,279.8-396.9,279.9z M-405.9,277.6c0-0.1,0-0.2-0.1-0.3s-0.1-0.2-0.1-0.3s-0.1-0.2-0.2-0.2s-0.2-0.1-0.2-0.1
			c-0.4,0-0.8,0.3-1.2,0.8s-0.8,1.1-1.2,1.9c-0.1,0.2-0.2,0.4-0.2,0.6s-0.1,0.4-0.2,0.7s-0.1,0.4-0.2,0.7s-0.1,0.4-0.1,0.6
			c0.4-0.3,0.8-0.6,1.1-0.8s0.7-0.5,1-0.8c0.2-0.2,0.4-0.4,0.6-0.6s0.4-0.4,0.5-0.6s0.3-0.4,0.4-0.7S-405.9,277.8-405.9,277.6z"/>
	</g>
	<path id="Tracé_7" class="st1" d="M-413.7,261.9l0.1-0.1c0.4-0.2,0.5-0.6,0.4-1c-3.6-11.2-11.9-18.3-22.5-19.2l7.3-5l0.1-0.1
		c0.3-0.3,0.3-0.7,0.2-1v-0.1c-0.2-0.1-0.5-0.2-0.8-0.3c-0.1,0-0.3,0-0.4,0.1h-0.1l-9.4,6.5l-0.3,0.3v0.4l0.1,0.1v0.1l0.2,0.2
		l6.6,9.3v0.1c0.2,0.2,0.4,0.3,0.6,0.3l0,0c0.2,0,0.4-0.1,0.5-0.2c0.1-0.1,0.2-0.3,0.3-0.5c0.1-0.2,0-0.5-0.2-0.7l-5.5-7.9
		c10.2,0.7,18.3,7.4,21.7,18.1v0.1c0.2,0.3,0.4,0.5,0.8,0.5L-413.7,261.9L-413.7,261.9z"/>
</g>
</svg>
