<?xml version="1.0" encoding="utf-8"?>
<!-- Generator: Adobe Illustrator 19.0.0, SVG Export Plug-In . SVG Version: 6.00 Build 0)  -->
<svg version="1.1" id="Calque_1" xmlns="http://www.w3.org/2000/svg" xmlns:xlink="http://www.w3.org/1999/xlink" x="0px" y="0px"
	 viewBox="0 0 793.2 522.3" style="enable-background:new 0 0 793.2 522.3;" xml:space="preserve">
<style type="text/css">
	.st0{fill:#FFFFFF;}
	.st1{fill:url(#XMLID_115_);}
	.st2{fill:url(#XMLID_116_);}
</style>
<g id="XMLID_33_">
	<g>
		<g>
			<path class="st0" d="M7.4,406.8v-58.3h20.4c14.8,0,27.7,10.1,27.7,29.3c0,19.1-13.1,29-27.9,29H7.4z M27.4,399.7
				c10.8,0,19.8-7.2,19.8-21.9c0-14.7-8.9-22.1-19.7-22.1H15.5v44H27.4z"/>
			<path class="st0" d="M71.2,346.7c3.1,0,5.6,2.5,5.6,5.6c0,3-2.5,5.5-5.6,5.5c-3,0-5.5-2.5-5.5-5.5
				C65.7,349.2,68.2,346.7,71.2,346.7z M67.4,406.8v-39.6h7.6v39.6H67.4z"/>
			<path class="st0" d="M94.5,407.2c0.6,5.5,4.8,9.7,10.8,9.7c8.3,0,12.1-4.3,12.1-12.8v-5.7c-1.9,3.6-6.2,6.5-12.1,6.5
				c-10.5,0-18.2-8-18.2-19.2c0-10.7,7.3-19.2,18.2-19.2c6.1,0,10.2,2.3,12.2,6.2v-5.5h7.6v36.6c0,10-4.9,19.8-19.8,19.8
				c-9.9,0-17.3-6.2-18.3-14.7L94.5,407.2z M117.7,385.8c0-7.6-4.6-12.7-11.3-12.7c-6.8,0-11.4,5-11.4,12.7
				c0,7.7,4.4,12.7,11.4,12.7C113,398.4,117.7,393.4,117.7,385.8z"/>
			<path class="st0" d="M142.8,346.7c3.1,0,5.6,2.5,5.6,5.6c0,3-2.5,5.5-5.6,5.5c-3,0-5.5-2.5-5.5-5.5
				C137.3,349.2,139.8,346.7,142.8,346.7z M139,406.8v-39.6h7.6v39.6H139z"/>
			<path class="st0" d="M171.8,367.3h8.6v7h-8.6v20.6c0,3.6,1.5,5.4,5.5,5.4c1,0,2.4-0.2,3-0.3v6.6c-0.7,0.2-2.6,0.7-5.3,0.7
				c-6.7,0-11-4.1-11-11.3v-21.7h-7.6v-7h2.1c4.3,0,6.1-2.6,6.1-6.1v-6.4h7.1V367.3z"/>
			<path class="st0" d="M201.8,384.2l10.7-1.6c2.4-0.3,3-1.6,3-3c0-3.9-2.6-7.1-8.6-7.1c-5.4,0-8.5,3.4-9,8l-7.4-1.7
				c0.8-7.6,7.6-12.8,16.2-12.8c11.8,0,16.4,6.7,16.4,14.5v19.8c0,3.5,0.3,5.5,0.5,6.5h-7.6c-0.2-1-0.4-2.5-0.4-5.3
				c-1.7,2.8-5.7,6.6-12.7,6.6c-8.1,0-13.2-5.6-13.2-11.8C189.8,389.1,195,385.2,201.8,384.2z M215.6,389.9v-1.8l-12.1,1.8
				c-3.3,0.5-5.8,2.4-5.8,5.9c0,3,2.5,5.8,6.4,5.8C210.5,401.5,215.6,398.5,215.6,389.9z"/>
			<path class="st0" d="M236.9,406.8v-59.5h7.7v59.5H236.9z"/>
			<path class="st0" d="M41.4,489.2H15.6l-6.2,16.3H0.8L24,447.2h9.3l23.2,58.3h-8.7L41.4,489.2z M18.5,481.7h20.1l-10.1-26.1
				L18.5,481.7z"/>
			<path class="st0" d="M69.3,505.9c0.6,5.5,4.8,9.7,10.8,9.7c8.3,0,12.1-4.3,12.1-12.8v-5.7c-1.9,3.6-6.2,6.5-12.1,6.5
				c-10.5,0-18.2-8-18.2-19.2c0-10.7,7.3-19.2,18.2-19.2c6.1,0,10.2,2.3,12.2,6.2v-5.5h7.6v36.6c0,10-4.9,19.8-19.8,19.8
				c-9.9,0-17.3-6.2-18.3-14.7L69.3,505.9z M92.5,484.4c0-7.6-4.6-12.7-11.3-12.7c-6.8,0-11.4,5-11.4,12.7c0,7.7,4.4,12.7,11.4,12.7
				C87.9,497.1,92.5,492.1,92.5,484.4z"/>
			<path class="st0" d="M148.3,494.2c-2.2,7-8.6,12.5-17.8,12.5c-10.6,0-19.9-7.7-19.9-21.1c0-12.4,9-20.9,18.9-20.9
				c12.2,0,19,8.4,19,20.7c0,1-0.1,2-0.2,2.5h-29.8c0.2,7.1,5.3,12,11.9,12c6.4,0,9.6-3.5,11.1-8L148.3,494.2z M140.5,481.6
				c-0.2-5.7-3.9-10.1-10.9-10.1c-6.5,0-10.4,5-10.8,10.1H140.5z"/>
			<path class="st0" d="M167.8,505.5h-7.7v-39.6h7.6v5.7c2.9-4.9,7.6-6.8,12.2-6.8c9.5,0,14.1,6.8,14.1,15.6v25.1h-7.7v-23.8
				c0-5.5-2.3-9.9-9.2-9.9c-6.1,0-9.2,4.9-9.2,10.9V505.5z"/>
			<path class="st0" d="M212.5,485.6c0,9,5.7,13.9,12.1,13.9c7.4,0,10.1-5,11-8.1l6.8,3c-1.9,5.7-7.6,12.3-17.8,12.3
				c-11.5,0-20-9-20-21.1c0-12.3,8.6-21,19.9-21c10.5,0,16,6.6,17.6,12.6l-7,3c-1-3.9-3.9-8.4-10.6-8.4
				C218.3,471.8,212.5,476.4,212.5,485.6z"/>
			<path class="st0" d="M254.1,522l9.9-20.9l-17-35.2h8.9l12.3,27.3l11.8-27.3h8.3L262.6,522H254.1z"/>
		</g>
	</g>
	<g id="XMLID_34_">
		<linearGradient id="XMLID_115_" gradientUnits="userSpaceOnUse" x1="370.9511" y1="384.2299" x2="814.9888" y2="-143.0649">
			<stop  offset="0" style="stop-color:#925BA4"/>
			<stop  offset="1" style="stop-color:#00BCE4"/>
		</linearGradient>
		<polygon id="XMLID_32_" class="st1" points="793.1,0 538.8,0 538.8,67.8 558.2,67.8 558.2,19.4 773.8,19.4 773.8,67.8 793.1,67.8 
					"/>
		<linearGradient id="XMLID_116_" gradientUnits="userSpaceOnUse" x1="508.6602" y1="500.1955" x2="952.698" y2="-27.0994">
			<stop  offset="0" style="stop-color:#925BA4"/>
			<stop  offset="1" style="stop-color:#00BCE4"/>
		</linearGradient>
		<polygon id="XMLID_31_" class="st2" points="538.8,347.3 793.1,347.3 793.1,279.5 773.8,279.5 773.8,327.9 558.2,327.9 
			558.2,279.5 538.8,279.5 		"/>
		<g id="XMLID_35_">
			<path id="XMLID_69_" class="st0" d="M64.5,149.3c0-4.6-1.8-8.6-5.4-12.1c-3.6-3.4-8.6-5.1-15.1-5.1c-5.5,0-9.9,1.1-13.1,3.4
				c-3.2,2.3-4.8,5.3-4.8,9.2c0,2,0.4,3.8,1.2,5.4c0.8,1.6,2.1,3,4.1,4.3c1.9,1.3,4.5,2.4,7.6,3.4c3.1,1,7.1,1.9,12,2.8
				c12.1,2.2,21.4,5.9,27.8,11.1c6.4,5.2,9.6,12.8,9.6,23v2c0,5.4-1,10.3-2.9,14.6c-1.9,4.4-4.7,8.1-8.3,11.2
				c-3.6,3.1-8,5.5-13.2,7.1c-5.2,1.7-11,2.5-17.5,2.5c-7.6,0-14.3-1.1-20.1-3.2c-5.8-2.1-10.6-5.1-14.5-8.9
				C7.9,216,5,211.6,3,206.4c-2-5.1-3-10.7-3-16.8v-5h21.8v4c0,6.9,2,12.5,6,16.6c4,4.1,10.3,6.2,18.8,6.2c6.6,0,11.5-1.4,14.7-4.3
				c3.2-2.9,4.8-6.3,4.8-10.2c0-1.9-0.3-3.7-1-5.4c-0.7-1.7-1.8-3.2-3.5-4.6c-1.7-1.4-3.9-2.6-6.8-3.7c-2.9-1.1-6.5-2-10.9-2.8
				c-5.8-1-11.2-2.3-16-3.9c-4.9-1.6-9.1-3.7-12.6-6.4c-3.6-2.6-6.4-6-8.3-9.9c-2-4-3-8.8-3-14.5v-1c0-4.7,1-9.1,2.9-13.1
				c1.9-4,4.6-7.5,8.1-10.5c3.5-3,7.7-5.3,12.6-6.9c4.9-1.7,10.4-2.5,16.4-2.5c6.8,0,12.9,1,18.2,2.9c5.3,1.9,9.7,4.5,13.3,7.9
				c3.6,3.3,6.3,7.1,8.1,11.4c1.8,4.3,2.7,8.8,2.7,13.6v6H64.5V149.3z"/>
			<path id="XMLID_67_" class="st0" d="M129.2,229.6h-20.8V114h20.8v46.9h3c2.1-5,5.2-8.8,9.3-11.5s9.1-4.1,15-4.1
				c4.1,0,7.8,0.7,11.2,2c3.4,1.3,6.4,3.3,8.9,6c2.5,2.6,4.5,6,5.9,10.2c1.4,4.1,2.2,9,2.2,14.6v51.6H164V183
				c0-5.8-1.4-10.4-4.2-13.8c-2.8-3.4-6.9-5-12.1-5c-6.2,0-10.8,2.1-13.8,6.2c-3,4.1-4.5,9.7-4.5,16.6V229.6z"/>
			<path id="XMLID_64_" class="st0" d="M210.7,209.8h27.8v-42.3h-25.8v-19.8h46.6v62.1h23.8v19.8h-72.4V209.8z M264.4,123.4
				c0,2.2-0.4,4.3-1.2,6.2c-0.8,1.9-2,3.6-3.4,5c-1.4,1.4-3.1,2.5-5,3.3c-1.9,0.8-3.9,1.2-6,1.2c-2.2,0-4.2-0.4-6.1-1.2
				c-1.9-0.8-3.5-1.9-5-3.3c-1.4-1.4-2.6-3-3.4-5c-0.8-1.9-1.2-4-1.2-6.2c0-2.2,0.4-4.3,1.2-6.2c0.8-1.9,2-3.6,3.4-5
				c1.4-1.4,3.1-2.5,5-3.3c1.9-0.8,3.9-1.2,6.1-1.2c2.1,0,4.1,0.4,6,1.2c1.9,0.8,3.6,1.9,5,3.3c1.4,1.4,2.6,3,3.4,5
				C264,119.1,264.4,121.2,264.4,123.4z"/>
			<path id="XMLID_62_" class="st0" d="M309.7,147.7H333v-16.9c0-4.7,1.6-8.7,4.8-12c3.2-3.2,7.2-4.9,11.9-4.9h33.4v19.8h-24.8
				c-3,0-4.5,1.7-4.5,5v8.9h32.2v19.8h-32.2v62.1H333v-62.1h-23.3V147.7z"/>
			<path id="XMLID_60_" class="st0" d="M409.2,147.7h24.3V114h20.8v33.7h29.6v19.8h-29.6v37.4c0,3.3,1.5,5,4.5,5H481v19.8h-34.7
				c-3.7,0-6.8-1.2-9.2-3.6c-2.4-2.4-3.6-5.5-3.6-9.3v-49.3h-24.3V147.7z"/>
			<path id="XMLID_58_" class="st0" d="M534.7,127.2c0-2.1,0.4-4.1,1.2-6c0.8-1.9,2-3.6,3.4-5c1.4-1.4,3.1-2.5,5-3.3
				c1.9-0.8,3.9-1.2,6.1-1.2c2.1,0,4.1,0.4,6,1.2c1.9,0.8,3.6,1.9,5,3.3c1.4,1.4,2.6,3,3.4,5c0.8,1.9,1.2,3.9,1.2,6v20.2
				c0,4.2-1.4,7.7-4.2,10.6c-2.8,2.9-6.3,4.3-10.5,4.3h-10.6v-12.9h7.9c3,0,4.5-1.7,4.5-5v-2c-0.9,0.3-1.8,0.5-2.8,0.5
				c-2.2,0-4.2-0.4-6.1-1.2c-1.9-0.8-3.5-2-5-3.4c-1.4-1.4-2.6-3.1-3.4-5C535.1,131.4,534.7,129.4,534.7,127.2z"/>
			<path id="XMLID_56_" class="st0" d="M612.8,114h77.3v20.8h-27.8v74h27.8v20.8h-77.3v-20.8h27.8v-74h-27.8V114z"/>
			<path id="XMLID_36_" class="st0" d="M768.4,218.7h3V114h21.8v115.7h-42.6L737,124.9h-3v104.8h-21.8V114h42.6L768.4,218.7z"/>
		</g>
	</g>
</g>
</svg>
