<?xml version="1.0" encoding="utf-8"?>
<!-- Generator: Adobe Illustrator 19.0.0, SVG Export Plug-In . SVG Version: 6.00 Build 0)  -->
<svg version="1.1" id="Calque_1" xmlns="http://www.w3.org/2000/svg" xmlns:xlink="http://www.w3.org/1999/xlink" x="0px" y="0px"
	 viewBox="-198 159.6 793.2 522.3" style="enable-background:new -198 159.6 793.2 522.3;" xml:space="preserve">
<style type="text/css">
	.st0{fill:url(#XMLID_2_);}
	.st1{fill:url(#XMLID_3_);}
</style>
<g id="XMLID_33_">
	<g>
		<g>
			<path d="M-190.6,566.4v-58.3h20.4c14.8,0,27.7,10.1,27.7,29.3c0,19.1-13.1,29-27.9,29H-190.6z M-170.6,559.3
				c10.8,0,19.8-7.2,19.8-21.9s-8.9-22.1-19.7-22.1h-12v44H-170.6z"/>
			<path d="M-126.8,506.3c3.1,0,5.6,2.5,5.6,5.6c0,3-2.5,5.5-5.6,5.5c-3,0-5.5-2.5-5.5-5.5C-132.3,508.8-129.8,506.3-126.8,506.3z
				 M-130.6,566.4v-39.6h7.6v39.6H-130.6z"/>
			<path d="M-103.5,566.8c0.6,5.5,4.8,9.7,10.8,9.7c8.3,0,12.1-4.3,12.1-12.8V558c-1.9,3.6-6.2,6.5-12.1,6.5
				c-10.5,0-18.2-8-18.2-19.2c0-10.7,7.3-19.2,18.2-19.2c6.1,0,10.2,2.3,12.2,6.2v-5.5h7.6v36.6c0,10-4.9,19.8-19.8,19.8
				c-9.9,0-17.3-6.2-18.3-14.7L-103.5,566.8z M-80.3,545.4c0-7.6-4.6-12.7-11.3-12.7c-6.8,0-11.4,5-11.4,12.7s4.4,12.7,11.4,12.7
				C-85,558-80.3,553-80.3,545.4z"/>
			<path d="M-55.2,506.3c3.1,0,5.6,2.5,5.6,5.6c0,3-2.5,5.5-5.6,5.5c-3,0-5.5-2.5-5.5-5.5C-60.7,508.8-58.2,506.3-55.2,506.3z
				 M-59,566.4v-39.6h7.6v39.6H-59z"/>
			<path d="M-26.2,526.9h8.6v7h-8.6v20.6c0,3.6,1.5,5.4,5.5,5.4c1,0,2.4-0.2,3-0.3v6.6c-0.7,0.2-2.6,0.7-5.3,0.7
				c-6.7,0-11-4.1-11-11.3v-21.7h-7.6v-7h2.1c4.3,0,6.1-2.6,6.1-6.1v-6.4h7.1L-26.2,526.9L-26.2,526.9z"/>
			<path d="M3.8,543.8l10.7-1.6c2.4-0.3,3-1.6,3-3c0-3.9-2.6-7.1-8.6-7.1c-5.4,0-8.5,3.4-9,8l-7.4-1.7c0.8-7.6,7.6-12.8,16.2-12.8
				c11.8,0,16.4,6.7,16.4,14.5v19.8c0,3.5,0.3,5.5,0.5,6.5H18c-0.2-1-0.4-2.5-0.4-5.3c-1.7,2.8-5.7,6.6-12.7,6.6
				c-8.1,0-13.2-5.6-13.2-11.8C-8.2,548.7-3,544.8,3.8,543.8z M17.6,549.5v-1.8l-12.1,1.8c-3.3,0.5-5.8,2.4-5.8,5.9
				c0,3,2.5,5.8,6.4,5.8C12.5,561.1,17.6,558.1,17.6,549.5z"/>
			<path d="M38.9,566.4v-59.5h7.7v59.5H38.9z"/>
			<path d="M-156.6,648.8h-25.8l-6.2,16.3h-8.6l23.2-58.3h9.3l23.2,58.3h-8.7L-156.6,648.8z M-179.5,641.3h20.1l-10.1-26.1
				L-179.5,641.3z"/>
			<path d="M-128.7,665.5c0.6,5.5,4.8,9.7,10.8,9.7c8.3,0,12.1-4.3,12.1-12.8v-5.7c-1.9,3.6-6.2,6.5-12.1,6.5
				c-10.5,0-18.2-8-18.2-19.2c0-10.7,7.3-19.2,18.2-19.2c6.1,0,10.2,2.3,12.2,6.2v-5.5h7.6v36.6c0,10-4.9,19.8-19.8,19.8
				c-9.9,0-17.3-6.2-18.3-14.7L-128.7,665.5z M-105.5,644c0-7.6-4.6-12.7-11.3-12.7c-6.8,0-11.4,5-11.4,12.7s4.4,12.7,11.4,12.7
				C-110.1,656.7-105.5,651.7-105.5,644z"/>
			<path d="M-49.7,653.8c-2.2,7-8.6,12.5-17.8,12.5c-10.6,0-19.9-7.7-19.9-21.1c0-12.4,9-20.9,18.9-20.9c12.2,0,19,8.4,19,20.7
				c0,1-0.1,2-0.2,2.5h-29.8c0.2,7.1,5.3,12,11.9,12c6.4,0,9.6-3.5,11.1-8L-49.7,653.8z M-57.5,641.2c-0.2-5.7-3.9-10.1-10.9-10.1
				c-6.5,0-10.4,5-10.8,10.1H-57.5z"/>
			<path d="M-30.2,665.1h-7.7v-39.6h7.6v5.7c2.9-4.9,7.6-6.8,12.2-6.8c9.5,0,14.1,6.8,14.1,15.6v25.1h-7.7v-23.8
				c0-5.5-2.3-9.9-9.2-9.9c-6.1,0-9.2,4.9-9.2,10.9v22.8H-30.2z"/>
			<path d="M14.5,645.2c0,9,5.7,13.9,12.1,13.9c7.4,0,10.1-5,11-8.1l6.8,3c-1.9,5.7-7.6,12.3-17.8,12.3c-11.5,0-20-9-20-21.1
				c0-12.3,8.6-21,19.9-21c10.5,0,16,6.6,17.6,12.6l-7,3c-1-3.9-3.9-8.4-10.6-8.4C20.3,631.4,14.5,636,14.5,645.2z"/>
			<path d="M56.1,681.6l9.9-20.9l-17-35.2h8.9l12.3,27.3L82,625.5h8.3l-25.7,56.1H56.1z"/>
		</g>
	</g>
	<g id="XMLID_34_">
		
			<linearGradient id="XMLID_2_" gradientUnits="userSpaceOnUse" x1="172.9419" y1="297.2579" x2="616.9796" y2="824.5527" gradientTransform="matrix(1 0 0 -1 0 841.0701)">
			<stop  offset="0" style="stop-color:#925BA4"/>
			<stop  offset="1" style="stop-color:#00BCE4"/>
		</linearGradient>
		<polygon id="XMLID_32_" class="st0" points="595.1,159.6 340.8,159.6 340.8,227.4 360.2,227.4 360.2,179 575.8,179 575.8,227.4 
			595.1,227.4 		"/>
		
			<linearGradient id="XMLID_3_" gradientUnits="userSpaceOnUse" x1="310.6534" y1="181.2903" x2="754.6912" y2="708.5852" gradientTransform="matrix(1 0 0 -1 0 841.0701)">
			<stop  offset="0" style="stop-color:#925BA4"/>
			<stop  offset="1" style="stop-color:#00BCE4"/>
		</linearGradient>
		<polygon id="XMLID_31_" class="st1" points="340.8,506.9 595.1,506.9 595.1,439.1 575.8,439.1 575.8,487.5 360.2,487.5 
			360.2,439.1 340.8,439.1 		"/>
		<g id="XMLID_35_">
			<path id="XMLID_69_" d="M-133.5,308.9c0-4.6-1.8-8.6-5.4-12.1c-3.6-3.4-8.6-5.1-15.1-5.1c-5.5,0-9.9,1.1-13.1,3.4
				c-3.2,2.3-4.8,5.3-4.8,9.2c0,2,0.4,3.8,1.2,5.4s2.1,3,4.1,4.3c1.9,1.3,4.5,2.4,7.6,3.4s7.1,1.9,12,2.8
				c12.1,2.2,21.4,5.9,27.8,11.1c6.4,5.2,9.6,12.8,9.6,23v2c0,5.4-1,10.3-2.9,14.6c-1.9,4.4-4.7,8.1-8.3,11.2
				c-3.6,3.1-8,5.5-13.2,7.1c-5.2,1.7-11,2.5-17.5,2.5c-7.6,0-14.3-1.1-20.1-3.2c-5.8-2.1-10.6-5.1-14.5-8.9c-4-4-6.9-8.4-8.9-13.6
				c-2-5.1-3-10.7-3-16.8v-5h21.8v4c0,6.9,2,12.5,6,16.6s10.3,6.2,18.8,6.2c6.6,0,11.5-1.4,14.7-4.3c3.2-2.9,4.8-6.3,4.8-10.2
				c0-1.9-0.3-3.7-1-5.4c-0.7-1.7-1.8-3.2-3.5-4.6c-1.7-1.4-3.9-2.6-6.8-3.7c-2.9-1.1-6.5-2-10.9-2.8c-5.8-1-11.2-2.3-16-3.9
				c-4.9-1.6-9.1-3.7-12.6-6.4c-3.6-2.6-6.4-6-8.3-9.9c-2-4-3-8.8-3-14.5v-1c0-4.7,1-9.1,2.9-13.1c1.9-4,4.6-7.5,8.1-10.5
				s7.7-5.3,12.6-6.9c4.9-1.7,10.4-2.5,16.4-2.5c6.8,0,12.9,1,18.2,2.9c5.3,1.9,9.7,4.5,13.3,7.9c3.6,3.3,6.3,7.1,8.1,11.4
				c1.8,4.3,2.7,8.8,2.7,13.6v6h-21.8V308.9z"/>
			<path id="XMLID_67_" d="M-68.8,389.2h-20.8V273.6h20.8v46.9h3c2.1-5,5.2-8.8,9.3-11.5c4.1-2.7,9.1-4.1,15-4.1
				c4.1,0,7.8,0.7,11.2,2c3.4,1.3,6.4,3.3,8.9,6c2.5,2.6,4.5,6,5.9,10.2c1.4,4.1,2.2,9,2.2,14.6v51.6H-34v-46.7
				c0-5.8-1.4-10.4-4.2-13.8c-2.8-3.4-6.9-5-12.1-5c-6.2,0-10.8,2.1-13.8,6.2s-4.5,9.7-4.5,16.6v42.6H-68.8z"/>
			<path id="XMLID_64_" d="M12.7,369.4h27.8v-42.3H14.7v-19.8h46.6v62.1h23.8v19.8H12.7L12.7,369.4L12.7,369.4z M66.4,283
				c0,2.2-0.4,4.3-1.2,6.2c-0.8,1.9-2,3.6-3.4,5s-3.1,2.5-5,3.3c-1.9,0.8-3.9,1.2-6,1.2c-2.2,0-4.2-0.4-6.1-1.2
				c-1.9-0.8-3.5-1.9-5-3.3c-1.4-1.4-2.6-3-3.4-5c-0.8-1.9-1.2-4-1.2-6.2c0-2.2,0.4-4.3,1.2-6.2c0.8-1.9,2-3.6,3.4-5
				c1.4-1.4,3.1-2.5,5-3.3c1.9-0.8,3.9-1.2,6.1-1.2c2.1,0,4.1,0.4,6,1.2c1.9,0.8,3.6,1.9,5,3.3c1.4,1.4,2.6,3,3.4,5
				C66,278.7,66.4,280.8,66.4,283z"/>
			<path id="XMLID_62_" d="M111.7,307.3H135v-16.9c0-4.7,1.6-8.7,4.8-12c3.2-3.2,7.2-4.9,11.9-4.9h33.4v19.8h-24.8
				c-3,0-4.5,1.7-4.5,5v8.9H188V327h-32.2v62.1H135V327h-23.3V307.3z"/>
			<path id="XMLID_60_" d="M211.2,307.3h24.3v-33.7h20.8v33.7h29.6v19.8h-29.6v37.4c0,3.3,1.5,5,4.5,5H283v19.8h-34.7
				c-3.7,0-6.8-1.2-9.2-3.6c-2.4-2.4-3.6-5.5-3.6-9.3v-49.3h-24.3L211.2,307.3L211.2,307.3z"/>
			<path id="XMLID_58_" d="M336.7,286.8c0-2.1,0.4-4.1,1.2-6s2-3.6,3.4-5s3.1-2.5,5-3.3c1.9-0.8,3.9-1.2,6.1-1.2
				c2.1,0,4.1,0.4,6,1.2c1.9,0.8,3.6,1.9,5,3.3s2.6,3,3.4,5c0.8,1.9,1.2,3.9,1.2,6V307c0,4.2-1.4,7.7-4.2,10.6
				c-2.8,2.9-6.3,4.3-10.5,4.3h-10.6V309h7.9c3,0,4.5-1.7,4.5-5v-2c-0.9,0.3-1.8,0.5-2.8,0.5c-2.2,0-4.2-0.4-6.1-1.2
				c-1.9-0.8-3.5-2-5-3.4c-1.4-1.4-2.6-3.1-3.4-5C337.1,291,336.7,289,336.7,286.8z"/>
			<path id="XMLID_56_" d="M414.8,273.6h77.3v20.8h-27.8v74h27.8v20.8h-77.3v-20.8h27.8v-74h-27.8V273.6z"/>
			<path id="XMLID_36_" d="M570.4,378.3h3V273.6h21.8v115.7h-42.6L539,284.5h-3v104.8h-21.8V273.6h42.6L570.4,378.3z"/>
		</g>
	</g>
</g>
</svg>
