<?xml version="1.0" encoding="utf-8"?>
<!-- Generator: Adobe Illustrator 19.0.0, SVG Export Plug-In . SVG Version: 6.00 Build 0)  -->
<svg version="1.1" id="Calque_1" xmlns="http://www.w3.org/2000/svg" xmlns:xlink="http://www.w3.org/1999/xlink" x="0px" y="0px"
	 viewBox="-464.8 235.2 105.9 58.6" style="enable-background:new -464.8 235.2 105.9 58.6;" xml:space="preserve">
<style type="text/css">
	.st0{enable-background:new    ;}
	.st1{fill:#707070;}
</style>
<g>
	<g class="st0">
		<path class="st1" d="M-448.8,273.5c0,0.3-0.1,0.7-0.3,1.2c-0.1,0.3-0.2,0.5-0.3,0.7s-0.2,0.4-0.3,0.5c-0.6,0.8-1.5,1.6-2.7,2.5
			c-1.3,0.9-2.5,1.6-3.8,2.2c-0.8,0.4-1.7,0.8-2.5,1.2s-1.7,0.6-2.5,0.9c0,0.1-0.1,0.2-0.1,0.5v0.4c0,0.2,0,0.5,0,0.9
			s0.1,0.9,0.1,1.4s0.1,1.1,0.1,1.5s0,0.8,0,1.1c0,0.3-0.1,0.5-0.3,0.7s-0.4,0.3-0.7,0.3c-0.9,0-1.3-1.9-1.3-5.6v-0.3
			c0-0.4,0-0.9,0.1-1.4s0.1-1.1,0.2-1.8c0-0.2,0.1-0.5,0.1-0.7s0.1-0.5,0.1-0.8c0.1-0.5,0.2-1,0.2-1.4s0.2-0.8,0.3-1.1
			c0-0.1,0.1-0.2,0.1-0.4s0.1-0.3,0.1-0.5c0.1-0.4,0.2-0.7,0.2-0.9c0.1-0.3,0.2-0.5,0.3-0.8s0.3-0.5,0.5-0.7c0.1,0,0.3-0.1,0.4-0.1
			c0.3,0,0.5,0.1,0.7,0.3s0.2,0.4,0.2,0.7c0,0,0,0.2-0.1,0.4s-0.1,0.4-0.2,0.6s-0.1,0.4-0.2,0.6s-0.1,0.3-0.1,0.4
			c-0.1,0.2-0.1,0.4-0.2,0.7c0,0.2-0.1,0.5-0.1,0.7s-0.1,0.5-0.1,0.8c0,0.3-0.1,0.5-0.1,0.8s-0.1,0.5-0.1,0.8s0,0.5-0.1,0.7
			s0,0.4,0,0.5c0.3-0.1,0.6-0.2,0.9-0.4s0.8-0.3,1.2-0.5c0.9-0.4,1.7-0.7,2.5-1.1c0.7-0.3,1.4-0.7,2.1-1.1c0.5-0.3,0.9-0.6,1.3-0.9
			s0.8-0.7,1.2-1.1c0.8-0.8,1.2-1.6,1.2-2.3c0-0.3-0.3-0.6-1-0.8c-0.3-0.1-0.6-0.2-1-0.2s-0.7-0.1-1-0.1s-0.6,0-0.9-0.1
			s-0.6,0-0.8,0c-1.5,0-3.2,0.2-4.9,0.5c-0.8,0.2-2,0.5-3.6,1.1c-0.2,0.1-0.3,0.1-0.4,0.1c-0.2,0-0.3-0.1-0.4-0.2s-0.2-0.2-0.2-0.4
			c0-0.4,0.1-0.7,0.3-0.9s0.5-0.4,1-0.6c0.5-0.2,1.2-0.4,2.1-0.6c0.5-0.1,1-0.2,1.4-0.3s1-0.1,1.5-0.2c1-0.1,1.7-0.2,2.2-0.2
			c0.4,0,0.8,0,1.2,0s0.8,0,1.2,0.1s0.8,0.1,1.1,0.1s0.8,0.1,1.2,0.2c0.8,0.2,1.4,0.5,2,0.9C-449.1,272.2-448.8,272.8-448.8,273.5z"
			/>
		<path class="st1" d="M-429.8,280c0,0.1,0,0.2,0,0.3s-0.1,0.3-0.1,0.4s-0.1,0.3-0.1,0.4s-0.1,0.2-0.2,0.3c0,0.1-0.1,0.1-0.2,0.3
			s-0.2,0.2-0.3,0.3s-0.2,0.3-0.4,0.4s-0.3,0.3-0.4,0.4c-0.5,0.4-1,0.9-1.4,1.3s-0.9,0.8-1.4,1.1s-1,0.6-1.5,0.8s-1.1,0.3-1.7,0.3
			c-0.3,0-0.6-0.1-0.9-0.2s-0.6-0.3-0.8-0.5s-0.5-0.4-0.7-0.7s-0.3-0.6-0.4-0.9c-0.2,0.2-0.5,0.5-0.7,0.7s-0.5,0.5-0.8,0.8
			s-0.5,0.5-0.8,0.8s-0.6,0.5-0.9,0.7c-0.2,0.1-0.4,0.2-0.6,0.4s-0.5,0.2-0.8,0.3s-0.5,0.2-0.8,0.3s-0.5,0.1-0.7,0.1
			c-0.3,0-0.6-0.1-0.8-0.3s-0.4-0.4-0.6-0.7s-0.3-0.6-0.3-0.9s-0.1-0.6-0.1-0.9c0-0.5,0.1-1,0.2-1.6s0.3-1.1,0.6-1.6s0.5-1,0.8-1.5
			s0.6-0.9,0.9-1.2c0.3-0.4,0.6-0.7,1.1-1.1s0.8-0.7,1.3-1s0.9-0.5,1.3-0.7s0.8-0.3,1.1-0.3c0.2,0,0.3,0,0.5,0s0.4,0,0.5,0
			s0.4,0.1,0.5,0.1s0.3,0.1,0.5,0.2c0.1,0,0.2,0.1,0.2,0.3s0.2,0.3,0.3,0.4s0.2,0.3,0.2,0.5s0.1,0.3,0.1,0.4c0,0.3-0.1,0.6-0.2,1
			c-0.1,0.5-0.2,1-0.3,1.5s-0.2,0.9-0.2,1.4c0,0.3,0,0.5,0.1,0.8s0.2,0.5,0.4,0.8s0.4,0.4,0.6,0.6s0.5,0.2,0.8,0.2
			c0.5,0,1-0.1,1.5-0.3s1-0.5,1.5-0.8s1-0.8,1.5-1.2s1-0.9,1.5-1.5c0,0,0.1-0.1,0.2-0.2s0.2-0.2,0.3-0.3s0.2-0.2,0.3-0.3
			s0.2-0.1,0.2-0.1C-429.9,279.5-429.8,279.7-429.8,280z M-440.2,279c0-0.1,0-0.3,0-0.5s-0.1-0.4-0.2-0.5s-0.2-0.2-0.3-0.2
			s-0.3,0-0.4,0c-0.3,0-0.5,0-0.8,0.1s-0.5,0.2-0.7,0.4s-0.5,0.3-0.7,0.5s-0.4,0.4-0.7,0.6c-0.2,0.2-0.4,0.4-0.6,0.7
			s-0.4,0.6-0.6,0.9s-0.4,0.6-0.6,1s-0.3,0.7-0.5,1s-0.2,0.7-0.3,1s-0.1,0.6-0.1,0.9c0,0.1,0,0.2,0,0.3s0.1,0.3,0.1,0.4
			s0.1,0.2,0.2,0.3s0.2,0.1,0.3,0.1c0.4,0,0.8-0.1,1.3-0.3c0.7-0.3,1.4-0.7,2-1.3s1.1-1.2,1.5-1.9
			C-440.5,281.5-440.2,280.3-440.2,279z"/>
		<path class="st1" d="M-429.5,277.5c0.1,0,0.2,0,0.2,0.1s0.2,0.1,0.2,0.1s0.1,0.1,0.2,0.2s0.1,0.1,0.1,0.2c0.1,0.2,0.2,0.4,0.1,0.8
			s-0.1,0.7-0.2,1.2c-0.1,0.5-0.2,0.9-0.2,1.3s-0.1,0.7-0.1,1s-0.1,0.7-0.1,1.1s0,0.8,0,1.3c0.2-0.4,0.4-0.9,0.6-1.4
			s0.4-1.1,0.6-1.6s0.5-1.1,0.8-1.7s0.7-1.1,1.1-1.6c0.4-0.4,0.8-0.8,1.2-1.1s1-0.5,1.5-0.6c0.2,0,0.4,0,0.6,0s0.4,0.1,0.6,0.2
			s0.4,0.2,0.5,0.4s0.2,0.3,0.2,0.5c0,0.1,0,0.1-0.1,0.2s-0.1,0.2-0.2,0.3s-0.2,0.2-0.3,0.3s-0.2,0.1-0.2,0.1c0,0-0.1,0-0.2,0
			s-0.2,0-0.3,0s-0.2,0-0.3,0s-0.2,0-0.3,0c-0.2,0-0.4,0-0.6,0.1s-0.3,0.1-0.5,0.3s-0.3,0.3-0.5,0.5s-0.4,0.4-0.6,0.7
			s-0.5,0.6-0.7,1s-0.5,0.9-0.7,1.3s-0.4,1-0.6,1.5s-0.4,0.9-0.5,1.3c-0.1,0.2-0.2,0.5-0.3,0.8s-0.2,0.6-0.2,0.8s-0.1,0.6-0.2,0.9
			s-0.1,0.6-0.2,0.8c0,0.1-0.1,0.1-0.2,0.2s-0.2,0.1-0.4,0.2s-0.3,0.1-0.4,0.1s-0.2,0.1-0.3,0.1c-0.2,0-0.4-0.1-0.5-0.2
			s-0.2-0.4-0.3-0.7s-0.1-0.6-0.2-0.9s0-0.6,0-0.8c0-0.3,0-0.6,0-1s0-0.8,0.1-1.3s0-0.9,0.1-1.4s0-0.8,0.1-1.2c0-0.4,0-0.7,0-0.9
			s0-0.5,0-0.7s0-0.4,0-0.6s0-0.4,0-0.7c0-0.2,0.1-0.4,0.2-0.5s0.2-0.3,0.3-0.4s0.3-0.2,0.4-0.3S-429.6,277.5-429.5,277.5z
			 M-406.9,277.7c0,0.3-0.1,0.5-0.2,0.7s-0.3,0.3-0.5,0.4c-0.3,0.1-0.5,0.2-0.9,0.3s-0.6,0.2-1,0.3s-0.7,0.1-1,0.2s-0.7,0.1-1,0.1
			c-0.3,0-0.7,0.1-1,0.1s-0.7,0.1-1.1,0.1s-0.7,0.1-1,0.1s-0.5,0.1-0.7,0.2c-0.2,0.7-0.3,1.4-0.5,2s-0.3,1.3-0.5,1.9
			c0,0.1-0.1,0.4-0.1,0.7s-0.1,0.6-0.1,0.9s-0.1,0.6-0.1,0.9s-0.1,0.5-0.1,0.6c0,0.3,0.1,0.6,0.2,0.7s0.2,0.3,0.3,0.4
			s0.2,0.2,0.3,0.3s0.2,0.2,0.2,0.4c0,0.1-0.1,0.2-0.2,0.3s-0.2,0.2-0.4,0.3s-0.3,0.1-0.5,0.2s-0.3,0.1-0.4,0.1
			c-0.2,0-0.4-0.1-0.6-0.2s-0.3-0.3-0.5-0.5s-0.2-0.4-0.3-0.7s-0.1-0.5-0.1-0.8c0-0.4,0-0.7,0.1-1.2s0.1-0.8,0.2-1.3
			s0.2-0.9,0.3-1.3s0.2-0.9,0.3-1.3c0-0.2,0.1-0.4,0.1-0.6s0.1-0.4,0.1-0.7s0.1-0.4,0.1-0.5s0-0.2,0-0.3c0-0.1,0-0.2-0.1-0.3
			s-0.2-0.1-0.3-0.1c-0.1,0-0.2,0-0.3,0s-0.2,0-0.3,0.1s-0.2,0.1-0.3,0.1s-0.2,0-0.3,0c-0.1,0-0.3,0-0.4-0.1s-0.2-0.1-0.3-0.2
			s-0.2-0.2-0.2-0.4s-0.1-0.3-0.1-0.4c0-0.1,0-0.2,0.1-0.3s0.2-0.2,0.3-0.2s0.3-0.1,0.4-0.2s0.3-0.1,0.4-0.1c0.1,0,0.2,0,0.3,0
			s0.2,0,0.3,0s0.2,0,0.3,0s0.2,0,0.3,0c0,0,0.1,0,0.2,0s0.1,0,0.2-0.1s0.1-0.1,0.2-0.2s0.1-0.2,0.1-0.3c0.1-0.2,0.1-0.5,0.2-0.8
			s0.2-0.6,0.2-0.9s0.2-0.6,0.2-0.9s0.1-0.5,0.2-0.8c0.1-0.2,0.1-0.5,0.2-0.7s0.1-0.5,0.1-0.8s0.1-0.5,0.1-0.7s0.1-0.4,0.2-0.6
			c0.2-0.4,0.4-0.6,0.8-0.6c0.6,0,0.9,0.3,0.9,1c0,0.4-0.1,0.9-0.3,1.4c-0.4,1.2-0.7,2.2-0.8,2.9s-0.3,1.3-0.3,1.6
			c0,0.3,0.1,0.4,0.4,0.4c0.4,0,0.7,0,1,0s0.6,0,0.9-0.1s0.7-0.1,1-0.1s0.7-0.1,1.2-0.1c0.3,0,0.6-0.1,0.9-0.1s0.5-0.1,0.8-0.2
			s0.5-0.1,0.6-0.1s0.3-0.1,0.5-0.1c0.1,0,0.2,0,0.3,0s0.2,0,0.2,0s0.1,0,0.1,0.1S-406.9,277.6-406.9,277.7z"/>
		<path class="st1" d="M-392.8,280c0,0.1,0,0.2,0,0.3s-0.1,0.3-0.1,0.4s-0.1,0.3-0.1,0.4s-0.1,0.2-0.2,0.3c0,0.1-0.1,0.1-0.2,0.3
			s-0.2,0.2-0.3,0.3s-0.2,0.3-0.4,0.4s-0.3,0.3-0.4,0.4c-0.5,0.4-1,0.9-1.4,1.3s-0.9,0.8-1.4,1.1s-1,0.6-1.5,0.8s-1.1,0.3-1.7,0.3
			c-0.3,0-0.6-0.1-0.9-0.2s-0.6-0.3-0.8-0.5s-0.5-0.4-0.7-0.7s-0.3-0.6-0.4-0.9c-0.2,0.2-0.5,0.5-0.7,0.7s-0.5,0.5-0.8,0.8
			s-0.5,0.5-0.8,0.8s-0.6,0.5-0.9,0.7c-0.2,0.1-0.4,0.2-0.6,0.4s-0.5,0.2-0.8,0.3s-0.5,0.2-0.8,0.3s-0.5,0.1-0.7,0.1
			c-0.3,0-0.6-0.1-0.8-0.3s-0.4-0.4-0.6-0.7s-0.3-0.6-0.3-0.9s-0.1-0.6-0.1-0.9c0-0.5,0.1-1,0.2-1.6s0.3-1.1,0.6-1.6s0.5-1,0.8-1.5
			s0.6-0.9,0.9-1.2c0.3-0.4,0.6-0.7,1.1-1.1s0.8-0.7,1.3-1s0.9-0.5,1.3-0.7s0.8-0.3,1.1-0.3c0.2,0,0.3,0,0.5,0s0.4,0,0.5,0
			s0.4,0.1,0.5,0.1s0.3,0.1,0.5,0.2c0.1,0,0.2,0.1,0.2,0.3s0.2,0.3,0.3,0.4s0.2,0.3,0.2,0.5s0.1,0.3,0.1,0.4c0,0.3-0.1,0.6-0.2,1
			c-0.1,0.5-0.2,1-0.3,1.5s-0.2,0.9-0.2,1.4c0,0.3,0,0.5,0.1,0.8s0.2,0.5,0.4,0.8s0.4,0.4,0.6,0.6s0.5,0.2,0.8,0.2
			c0.5,0,1-0.1,1.5-0.3s1-0.5,1.5-0.8s1-0.8,1.5-1.2s1-0.9,1.5-1.5c0,0,0.1-0.1,0.2-0.2s0.2-0.2,0.3-0.3s0.2-0.2,0.3-0.3
			s0.2-0.1,0.2-0.1C-392.9,279.5-392.8,279.7-392.8,280z M-403.2,279c0-0.1,0-0.3,0-0.5s-0.1-0.4-0.2-0.5s-0.2-0.2-0.3-0.2
			s-0.3,0-0.4,0c-0.3,0-0.5,0-0.8,0.1s-0.5,0.2-0.7,0.4s-0.5,0.3-0.7,0.5s-0.4,0.4-0.7,0.6c-0.2,0.2-0.4,0.4-0.6,0.7
			s-0.4,0.6-0.6,0.9s-0.4,0.6-0.6,1s-0.3,0.7-0.5,1s-0.2,0.7-0.3,1s-0.1,0.6-0.1,0.9c0,0.1,0,0.2,0,0.3s0.1,0.3,0.1,0.4
			s0.1,0.2,0.2,0.3s0.2,0.1,0.3,0.1c0.4,0,0.8-0.1,1.3-0.3c0.7-0.3,1.4-0.7,2-1.3s1.1-1.2,1.5-1.9
			C-403.5,281.5-403.2,280.3-403.2,279z"/>
		<path class="st1" d="M-385.8,279c-0.1,0.5-0.1,1.1-0.2,1.8s-0.1,1.4-0.2,2.2c0,0.3-0.1,0.6-0.1,1s-0.1,0.8-0.1,1.2
			s-0.1,0.8-0.1,1.2s-0.1,0.7-0.1,1c-0.1,0.5-0.2,0.9-0.3,1.4s-0.2,1-0.4,1.4s-0.4,0.9-0.6,1.4s-0.5,0.8-0.8,1.1s-0.7,0.6-1.1,0.8
			s-0.9,0.3-1.5,0.3c-0.4,0-0.7,0-1.1-0.1s-0.7-0.2-1.1-0.3s-0.7-0.3-1-0.5s-0.6-0.4-0.9-0.6c-0.3-0.3-0.6-0.5-0.8-0.8
			s-0.4-0.5-0.6-0.8c-0.2-0.3-0.2-0.5-0.2-0.8c0-0.2,0.1-0.4,0.2-0.4c0.1,0,0.1,0,0.2,0.1c0,0,0.1,0.1,0.1,0.1s0.1,0.1,0.1,0.1
			s0.1,0.1,0.1,0.1s0.1,0.1,0.1,0.1c1.5,1.4,3.1,2.1,4.8,2.1c0.6,0,1-0.1,1.4-0.4s0.7-0.6,0.9-1s0.4-0.9,0.5-1.4s0.2-1,0.3-1.5
			c0-0.3,0.1-0.6,0.1-0.9s0.1-0.6,0.1-1s0.1-0.7,0.1-1.1s0.1-0.8,0.1-1.2c-0.3,0.3-0.7,0.7-1.2,1.1s-1,0.7-1.6,1.1s-1.1,0.6-1.7,0.8
			s-1.1,0.3-1.6,0.3c-0.2,0-0.4,0-0.6-0.1s-0.3-0.2-0.4-0.4s-0.2-0.4-0.3-0.6s-0.1-0.5-0.1-0.8c0-0.5,0.1-0.9,0.2-1.5s0.4-1,0.6-1.5
			s0.5-1,0.8-1.5s0.6-0.9,0.9-1.3c0.3-0.4,0.6-0.8,1-1.2s0.8-0.8,1.3-1.1s0.9-0.6,1.4-0.8s1-0.3,1.4-0.3c0.4,0,0.8,0.1,1.2,0.3
			s0.6,0.5,0.8,0.8c0,0.1,0.1,0.2,0.1,0.4s0,0.4,0,0.6s0,0.4-0.1,0.7S-385.8,278.8-385.8,279z M-387.7,281.1c0-0.2,0.1-0.5,0.1-0.8
			s0.1-0.7,0.1-1.2c0-0.3,0-0.5,0.1-0.8s0-0.5,0-0.6c-0.1-0.2-0.2-0.4-0.4-0.4s-0.5-0.1-0.9-0.1c-0.4,0.2-0.7,0.5-1.1,0.9
			s-0.7,0.7-1.1,1.1s-0.7,0.8-0.9,1.2s-0.5,0.8-0.8,1.2c-0.2,0.4-0.4,0.9-0.6,1.3s-0.2,0.8-0.2,1.1c0,0.1,0,0.2,0.1,0.3
			s0.1,0.2,0.2,0.2s0.2,0.1,0.3,0.1s0.2,0,0.3,0c0.3,0,0.6-0.1,0.9-0.2s0.6-0.3,0.9-0.4s0.6-0.4,0.9-0.5s0.5-0.4,0.7-0.5
			c0.1-0.1,0.2-0.2,0.3-0.3s0.3-0.3,0.4-0.5s0.3-0.4,0.4-0.6S-387.8,281.3-387.7,281.1z"/>
		<path class="st1" d="M-368.4,279.9c0,0.1-0.1,0.3-0.3,0.6c-0.4,0.6-0.9,1.2-1.4,1.8s-1,1.1-1.6,1.7s-1.2,1-1.8,1.5
			s-1.2,0.9-1.9,1.2s-1.2,0.6-1.9,0.8s-1.2,0.3-1.8,0.3c-1.3,0-2.2-0.4-2.9-1.1s-1-1.8-1-3.3c0-1.2,0.2-2.4,0.6-3.6s1-2.3,1.9-3.3
			c0.2-0.2,0.4-0.4,0.6-0.5s0.4-0.3,0.7-0.5s0.5-0.2,0.7-0.3s0.5-0.1,0.8-0.1c0.1,0,0.1,0,0.3,0s0.2,0,0.4,0.1s0.2,0.1,0.4,0.1
			s0.2,0.1,0.3,0.2c0.2,0.3,0.4,0.5,0.5,0.8s0.2,0.6,0.2,0.9c0,0.4,0,0.7-0.1,1.1s-0.3,0.7-0.5,1.1s-0.5,0.7-0.9,1.1
			s-0.8,0.8-1.4,1.2c-0.3,0.3-0.7,0.6-1.1,0.9s-0.9,0.7-1.5,1.1c0,0.8,0.2,1.3,0.7,1.7s1.1,0.6,1.9,0.6c0.4,0,0.9-0.1,1.3-0.2
			s0.9-0.3,1.3-0.5s0.9-0.4,1.3-0.7s0.8-0.5,1.2-0.8c0.7-0.5,1.3-1,1.8-1.4s1.1-1,1.6-1.5l0.6-0.6c0.4-0.3,0.7-0.5,0.8-0.5
			C-368.4,279.7-368.4,279.8-368.4,279.9z M-377.3,277.6c0-0.1,0-0.2-0.1-0.3s-0.1-0.2-0.1-0.3s-0.1-0.2-0.2-0.2s-0.2-0.1-0.2-0.1
			c-0.4,0-0.8,0.3-1.2,0.8s-0.8,1.1-1.2,1.9c-0.1,0.2-0.2,0.4-0.2,0.6s-0.1,0.4-0.2,0.7s-0.1,0.4-0.2,0.7s-0.1,0.4-0.1,0.6
			c0.4-0.3,0.8-0.6,1.1-0.8s0.7-0.5,1-0.8c0.2-0.2,0.4-0.4,0.6-0.6s0.4-0.4,0.5-0.6s0.3-0.4,0.4-0.7S-377.3,277.8-377.3,277.6z"/>
		<path class="st1" d="M-358.8,278.5c0,0,0,0.1,0,0.2s0,0.2-0.1,0.3s-0.1,0.2-0.1,0.2s-0.1,0.1-0.2,0.1c0,0-0.1,0-0.2,0
			s-0.2,0-0.3,0s-0.2,0-0.3,0s-0.2,0-0.2,0c-1.5,0.1-2.7,0.6-3.7,1.6c-1,1-1.8,2.3-2.5,3.9c-0.1,0.3-0.3,0.7-0.4,1s-0.3,0.7-0.4,1.1
			c-0.1,0.2-0.1,0.4-0.1,0.6s-0.1,0.3-0.1,0.5c0,0.1-0.1,0.1-0.2,0.2s-0.2,0.1-0.4,0.2s-0.3,0.1-0.4,0.1s-0.2,0-0.3,0
			c-0.5,0-0.8-0.5-0.9-1.7c0-0.3,0-0.6,0-0.8s0-0.5,0-0.7s0-0.5,0.1-0.8s0.1-0.6,0.1-0.9c0-0.4,0.1-0.9,0.1-1.4s0.1-1.1,0.2-1.6
			s0.1-1.1,0.2-1.5s0.2-0.9,0.2-1.2c0.1-0.4,0.2-0.6,0.4-0.8s0.4-0.3,0.7-0.3c0.1,0,0.2,0,0.3,0.1s0.2,0.1,0.2,0.2s0.1,0.1,0.2,0.2
			s0.1,0.1,0.1,0.2c0,0.2,0,0.4,0,0.6s0,0.5-0.1,0.7s-0.1,0.5-0.1,0.7s-0.1,0.5-0.2,0.7c-0.1,0.4-0.2,0.8-0.3,1.1s-0.1,0.6-0.1,0.9
			s-0.1,0.6-0.1,1s-0.1,0.8-0.2,1.3c0.1-0.3,0.2-0.6,0.3-0.8s0.2-0.4,0.3-0.6s0.2-0.3,0.2-0.4s0.1-0.3,0.2-0.4s0.2-0.3,0.3-0.5
			s0.2-0.4,0.4-0.6c0.5-0.9,1.1-1.6,1.8-2.2s1.2-1,1.8-1.2c0.7-0.3,1.2-0.5,1.6-0.5c0.2,0,0.4,0,0.7,0s0.6,0.1,0.8,0.2
			s0.5,0.2,0.7,0.3S-358.8,278.3-358.8,278.5z"/>
	</g>
	<path id="Tracé_7" class="st1" d="M-424.2,262h0.3c0.3,0,0.6-0.2,0.8-0.5v-0.1c3.4-10.7,11.5-17.4,21.7-18.1l-5.5,7.9
		c-0.2,0.2-0.2,0.4-0.2,0.7c0.1,0.2,0.2,0.3,0.3,0.5c0.1,0.2,0.3,0.2,0.6,0.2l0,0c0.2,0,0.4-0.1,0.6-0.3v-0.1l6.6-9.3l0.2-0.2v-0.1
		l0.1-0.1v-0.4l-0.3-0.3l-9.4-6.5h-0.1c-0.1-0.1-0.3-0.1-0.4-0.1c-0.3,0-0.5,0.1-0.8,0.3v0.1c-0.2,0.3-0.1,0.8,0.2,1l0.1,0.1l7.3,5
		c-10.6,1-18.9,8.1-22.5,19.2c-0.1,0.4,0.1,0.8,0.4,1L-424.2,262L-424.2,262z"/>
</g>
</svg>
