<?xml version="1.0" encoding="utf-8"?>
<!-- Generator: Adobe Illustrator 19.0.0, SVG Export Plug-In . SVG Version: 6.00 Build 0)  -->
<svg version="1.1" id="Calque_1" xmlns="http://www.w3.org/2000/svg" xmlns:xlink="http://www.w3.org/1999/xlink" x="0px" y="0px"
	 viewBox="0 0 320 40" style="enable-background:new 0 0 320 40;" xml:space="preserve">
<style type="text/css">
	.st0{fill:#FFFFFF;}
	.st1{fill-rule:evenodd;clip-rule:evenodd;fill:#FFFFFF;}
	.st2{clip-path:url(#SVGID_2_);fill-rule:evenodd;clip-rule:evenodd;fill:#FFFFFF;}
	.st3{clip-path:url(#SVGID_2_);fill:#FFFFFF;}
	.st4{clip-path:url(#SVGID_4_);fill-rule:evenodd;clip-rule:evenodd;fill:#FFFFFF;}
	.st5{clip-path:url(#SVGID_4_);fill:#FFFFFF;}
</style>
<g>
	<g>
		<polygon class="st0" points="2121,513.3 2133.7,500.7 2146.4,513.3 2146.4,499.8 2133.7,487.2 2121,499.8 		"/>
		<polygon class="st0" points="2159.5,503.1 2146.8,515.7 2134.1,503.1 2134.1,516.7 2146.8,529.3 2159.5,516.7 		"/>
		<path class="st0" d="M2167.6,530c0.8-0.1,1.6-0.3,1.6-0.3c0,0,2.3-0.4,2.2-0.4l2.3-0.5c0.1,0,0.1,0,0.2,0l3.6-0.4
			c0.3-0.1,1.7-0.3,2.5-0.4c0.3,0,2.5-0.4,2.5-0.4c0.1,0,0.8-0.1,1.5-0.2l8.6-8.5l-42.1-41.7h-13.7l42.1,41.7L2167.6,530z"/>
		<polygon class="st0" points="2121,486 2121,497.7 2132.9,486 		"/>
		<path class="st0" d="M2154.5,539c-3,0.6-6.1,1.4-10.1,2.6c-1,0.3-1.9,0.6-2.8,1c-1,0.4-2,0.7-3,1.1c-0.8,0.2-1.6,0.5-2.4,0.8
			l-16.2,16.1h13.7l21.3-21.2L2154.5,539z"/>
		<path class="st0" d="M2133.1,523.9l0.6-0.1c0.5,0,1,0.1,1.3,0.5c0.2,0.2,0.3,0.4,0.4,0.6c0.1,0.2,0.2,0.5,0.3,0.8
			c0.1,0.6-0.1,1.1-1.7,3.7c-0.2,0.4-0.5,0.8-0.7,1.1c0.7-0.3,1.4-0.5,2-0.6c1.1-0.1,2,0.3,2.8,1c0.6,0.7,1,1.5,1.1,2.5
			c0.1,1-0.1,2-0.6,3c0,0.1-0.1,0.2-0.1,0.3c0.7-0.2,1.7-0.5,3.2-1c0,0,0.1,0,0.1,0c0,0,1.1-0.3,1-0.2c0.2-0.1,0.9-0.2,1.5-0.3
			c0.2-0.1,0.8-0.2,0.8-0.2l0.8-0.2c0,0,0,0,0.1,0l2.1-0.5l1.3-0.4l-15.8-15.6h-13.7l9.1,9C2131,524.6,2132.2,524,2133.1,523.9z"/>
		<path class="st0" d="M2169.2,536.6c-1.4,0.3-2.8,0.5-4.2,0.7c0,0,0,0-0.1,0l-2.9,0.4l-2.5,0.3l-22.7,22.5h13.7l25.2-24.9
			C2173.5,535.9,2171.3,536.2,2169.2,536.6z"/>
		<path class="st0" d="M2125.9,530.9C2125.9,530.9,2125.9,530.9,2125.9,530.9c0,0,1.4-1.7,2.1-2.5l-9.2-9.2V531L2125.9,530.9
			C2125.9,530.9,2125.9,530.9,2125.9,530.9z"/>
	</g>
	<path class="st0" d="M2211.2,528.4c-2.8-1.3-10.5-1.5-10.5-1.5l-5.5,0.4l-4.9,0.9c0,0-3.4,0.4-5.2,0.6c-0.8,0.1-2.4,0.4-2.4,0.4
		s-1.7,0.3-2.6,0.4c-0.8,0.1-2.4,0.4-2.4,0.4l-3.7,0.4l-2.3,0.5l-2.3,0.4l-3.5,0.6l-1.2,0.3l-1.7,0.5l-1.9,0.3l-0.8,0.2l-3.9,0.8
		l-0.1,0l-0.9,0.2l-4,0.8l-1.4,0.3l-1.5,0.4l-2.2,0.5l-0.8,0.2c0,0-0.6,0.2-0.9,0.2c-0.4,0-1.4,0.3-1.4,0.3l-1.1,0.3
		c0,0-4,1.2-4.1,1.3c-0.2,0.1-2.6,0.9-2.8,1c-0.1,0-0.5,0.2-1,0.3l0.3-0.4c1.4-1.7,2.2-3,2.6-3.8c0.3-0.8,0.5-1.5,0.4-2.2
		c-0.1-0.6-0.3-1.1-0.6-1.5c-0.4-0.4-0.9-0.5-1.4-0.5c-0.8,0.1-1.8,0.5-3,1.3c-1.2,0.7-2.5,1.9-4.2,3.4c0.7-1.4,1.3-2.6,1.9-3.7
		c0.6-1.1,1.4-2.4,2.3-4c1-1.6,1.4-2.5,1.4-2.7c0,0-0.1-0.1-0.1-0.2c0-0.1-0.1-0.1-0.1-0.2l-0.6,0c-0.7,0.1-1.9,1.2-3.7,3.4l-2.5,3
		c0,0-0.7,0.8-2.1,2.3c-1.3,1.5-2.6,2.8-3.7,4c-0.1,0.1-0.1,0.1-0.2,0.2c0,0-0.1,0.1-0.2,0.1c-0.2,0.2-0.4,0.4-0.7,0.8l-1.6,2
		c-0.8,0.9-1.6,1.8-2.5,2.5c-0.9,0.7-1.9,1.5-3.1,2.3c-1.2,0.8-2.3,1.3-3.4,1.4c-0.6,0.1-1.1-0.1-1.6-0.5c-0.4-0.4-0.7-0.8-0.7-1.4
		l0.1-1l0.2-1.1c3-1,5.4-2.4,7.3-4.2c1.9-1.9,2.7-3.6,2.6-5.1c-0.1-0.7-0.3-1.2-0.7-1.6c-0.4-0.3-1-0.4-1.9-0.3
		c-0.4,0-1,0.2-1.6,0.4c-0.6,0.2-1.3,0.5-2,0.9c-0.7,0.4-1.8,1.3-3.1,2.6c-1.3,1.3-2.3,2.7-2.9,4.1c-0.5,1.1-0.7,2.1-0.8,3.2
		l-0.6,0.7c-0.7,0.8-1.5,1.5-2.3,2.1c-0.8,0.7-1.7,1.4-2.8,2.1c-1.1,0.8-2.1,1.2-2.8,1.3l-0.7-0.1c-0.1-0.1-0.2-0.3-0.3-0.5
		c0-0.5,0.9-2,2.9-4.5l1.5-1.9c1.4-1.8,2.2-3,2.6-3.8c0.3-0.8,0.5-1.5,0.4-2.2c-0.1-0.6-0.3-1.1-0.6-1.5c-0.4-0.4-0.8-0.6-1.4-0.5
		c-0.7,0.1-1.6,0.5-2.7,1.2c-1.1,0.7-2.4,1.9-4,3.4l-0.1-0.9l0-0.5c-0.1-0.8-0.3-1.5-0.6-1.9c-0.4-0.4-0.9-0.6-1.4-0.5
		c-0.8,0.1-1.7,0.5-2.8,1.4c-1.1,0.9-2.3,2.1-3.7,3.7l-0.6,0.7c-0.5,0.7-1,1.2-1.2,1.6c-1.1,1.2-2.3,2.2-3.4,3.1
		c-1.3,1-2.9,2.2-4.7,3.5c-1.9,1.3-3.5,2-4.8,2.1l-0.9-0.1c-0.2-0.2-0.3-0.5-0.4-0.9c-0.1-1.1,0.9-3.3,3-6.6
		c2.1-3.3,4.9-7.1,8.4-11.5l1.6-1.9c1.3-1.6,1.9-2.5,1.9-2.9c0-0.5-0.3-0.8-0.8-0.9c-0.4-0.2-1.1-0.2-2.2-0.1l-1,0.2l-1,0.1
		l-1.7,1.6c-0.3,0.3-0.5,0.6-0.8,0.9c-0.2,0.3-0.4,0.6-0.6,0.9c-0.1-1.2-0.5-2-1.2-2.5c-0.7-0.5-1.7-0.7-2.9-0.6
		c-2.3,0.2-4.9,1.2-7.7,2.9c-2.8,1.8-5.3,3.9-7.4,6.4c-2.1,2.5-3.6,4.8-4.4,7c-0.8,2.2-1.1,4.3-0.9,6.4c0.2,1.8,0.6,3.2,1.4,4.3
		c0.8,1,1.9,1.4,3.1,1.3c1.2-0.1,2.5-0.7,4-1.9c0.8-0.5,1.5-1.2,2.2-2c0.7-0.8,1.5-1.7,2.4-2.8l0,0.4l0.1,0.7
		c0.1,1.5,0.7,2.6,1.6,3.3c0.8,0.8,1.9,1.2,3.4,1.1c2-0.2,4.4-1.2,7.3-3.2c2.9-1.9,5.9-4.6,9-7.9l0.3-0.2c2.6-2.8,4-4.7,4.4-5.5
		c0.1,0,0.2-0.1,0.3-0.1l0.2,0.1l0.1,0.4c0.1,0.6-1.6,3-4.9,7.4l-0.5,0.7l-2.4,3c-1.4,1.8-2.1,2.8-2.1,3.2c0,0,0.1,0.1,0.1,0.1
		c0,0,0.1,0.1,0.2,0.2l1.2,0l1.2-0.1l0.7-0.2c1.6-2.2,3.1-4.3,4.6-6.2c1.5-1.9,3.3-3.9,5.3-6c2-2.1,3.6-3.2,4.6-3.3l0.5,0.1l0.2,0.4
		c0,0.3-0.7,1.3-2.3,3l-1.5,1.7c-1.1,1.3-2,2.5-2.5,3.7c-0.6,1.2-0.8,2.3-0.7,3.3c0.1,0.8,0.4,1.4,0.9,1.9c0.6,0.5,1.2,0.7,2,0.6
		c1-0.1,2.4-0.8,4.1-2c1.6-1.2,3.2-2.6,4.8-4.2c0.2,1.2,0.7,2.2,1.4,2.9c0.9,0.8,1.9,1.2,3.2,1.1c1.4-0.1,2.9-0.7,4.6-1.8
		c1.7-1.1,3.4-2.6,5-4.5l2.3-2.8c0.1-0.1,0.1-0.1,0.1-0.2l3.3-3.4l-14.3,24.3c-2.3,4.1-3.4,6.3-3.4,6.7c0,0,0.1,0.1,0.2,0.2
		c0.1,0.1,0.2,0.1,0.3,0.2c0.1,0.1,0.5,0.1,1.1,0l0.9-0.1l0.7-0.3l8.6-15.5c2.5-4.6,4.6-8,6.3-10.3c1.7-2.3,3.6-4.2,5.5-5.8l2.1-1.7
		c0.5-0.3,0.9-0.5,1.1-0.5l0.4,0l0.2,0.4c0,0.3-0.5,1-1.4,2l-2.3,2.7c-1.1,1.4-2,2.8-2.5,4c-0.5,1.1-0.6,2.2-0.6,3.1
		c0,0.1,0.1,0.1,0.1,0.1l0,0.1c0,0,0.1,0,0.1,0c0.1,0,0.3-0.1,0.6-0.2c3.1-1.2,6.2-2.5,9.5-3.5c2-0.6,3.8-1.5,5.9-2.1
		c3.4-1,6.8-2,10.3-2.7c1.4-0.3,2.9-0.6,4.3-0.9c2-0.2,4.1-0.5,6.1-0.7c3.8-0.6,7.5-1.4,11.4-1.9c3-0.3,6-0.6,9-0.9c1-0.1,2,0.1,3,0
		c1-0.1,11.7-0.5,13-0.4c1.3,0,9.3,0.6,10,0.3c0.5-0.3,1-0.8,1.3-1.3C2213.3,530.2,2212.4,529,2211.2,528.4z M2064.1,546.5
		c-0.8,1.2-1.5,2-2,2.6c-0.5,0.6-1.2,1.2-2.2,2c-1,0.8-1.8,1.2-2.5,1.3c-0.4,0-0.8-0.1-1.1-0.4c-0.3-0.3-0.4-0.6-0.5-1
		c-0.1-1.4,0.6-3.6,2.2-6.5c1.6-3,3.5-5.7,5.6-8.1c2.1-2.4,4-4.1,5.6-5.1c1.5-1.1,2.7-1.7,3.9-1.8c0.4,0,0.7,0,0.9,0.2
		c0.2,0.2,0.4,0.5,0.4,0.8c0,0.5,0,0.9-0.3,1.3c-0.2,0.6-0.5,1.1-0.8,1.5L2064.1,546.5z M2112.3,535.7c1.2-1.4,2.3-2.1,3.2-2.2
		c0.3,0,0.5,0,0.6,0.2c0.2,0.1,0.3,0.4,0.3,0.8c0.1,1.1-0.6,2.4-2.2,3.8c-1.6,1.4-3.5,2.5-5.9,3.3
		C2109.8,539.1,2111.1,537.1,2112.3,535.7z"/>
</g>
<g>
	<rect x="1539.2" y="498.8" class="st1" width="6.5" height="44.4"/>
	<path class="st1" d="M1468.5,504.5c-8.8,0-15.8,7.4-15.8,16.7c0,9.1,7.1,16.4,16.1,16.4c8.9,0,16-7.3,16-16.4
		C1484.8,511.6,1477.8,504.5,1468.5,504.5z M1468.8,498.5c12.6,0,22.6,10,22.6,22.7c0,12.4-10.2,22.5-22.6,22.5
		c-12.5,0-22.6-10.1-22.6-22.5C1446.1,508.5,1456.1,498.5,1468.8,498.5z"/>
	<path class="st1" d="M1332.1,503.9c-4.1,0-7.6,2.8-7.1,7c0.2,1.8,1.1,2.9,2.8,4.1c0.5,0.3,1.5,0.7,2.8,1.2c1.3,0.5,2.8,1,4.4,1.5
		c3.2,1.1,6.4,2.4,7.8,3.7c2.4,2.2,3.8,5.1,3.8,8.5c0,8.4-6.7,14-14.7,14c-8,0-14.8-5.5-15-13.7h6.3c0.8,5.6,4.3,8,8.7,8
		c4.1,0,8.3-2.6,8.3-7.4c0-2.6-1.3-4.5-3.6-5.8c-0.6-0.3-1.5-0.7-2.6-1.1c-1.1-0.4-2.3-0.8-3.5-1.2c-2.5-0.8-5-1.7-6.7-2.7
		c-3.2-1.9-5.2-5.2-5.2-9c0-7.5,5.7-12.9,13.8-12.9c6.3,0,12.9,4.9,13.3,12.1h-6.4C1339,506.4,1335.7,503.9,1332.1,503.9z"/>
	<path class="st1" d="M1506.5,498.9l21,0v6h-18.8v14.4h18.8v5.9h-18.8v18.1h-6.5v-40.1C1502.2,500.8,1504.1,498.9,1506.5,498.9z"/>
	<path class="st1" d="M1407.5,509.2l0,34h-6.5l0-40.3c0-2.5,2-4.5,4.5-4.5c1.6,0,2.9,0.7,3.8,2.1c6.4,10.4,18.3,30.1,19.5,32.3l0-34
		h6.5l0,40.3c0,2.5-2,4.5-4.5,4.5c-1.6,0-2.9-0.7-3.8-2.1C1420.6,531.1,1408.8,511.4,1407.5,509.2z"/>
	<path class="st1" d="M1371.9,507l-6.5,17.9l13.1,0L1371.9,507z M1363.2,530.7l-4.6,12.5h-6.8l15.9-42c0.6-1.6,2.3-2.8,4.1-2.8
		c1.8,0,3.5,1.2,4.1,2.8l15.9,42h-6.8l-4.6-12.5L1363.2,530.7z"/>
	<path class="st0" d="M1634.9,510.7c-11-16.1-23.3-2-35.6-3.7c-12.3-1.7-12.7-18.5,2.4-20c0.4,0,0.7-0.1,1.1-0.1
		C1617.8,487.1,1630.5,497.1,1634.9,510.7z"/>
	<path class="st1" d="M1635.2,511.7c0.8,3,1.3,6.1,1.3,9.3c0,18.8-15.3,34.1-34.1,34.1c-8.3,0-15.8-3-21.7-7.8
		c2.3,0.9,5.1,1.3,7.4,1.3C1618.9,548.7,1605.8,507.7,1635.2,511.7z"/>
	<path class="st1" d="M1589.9,544.4c-4.3,2.6-11,1.8-15.8-4.6c-1-1.4-1.9-2.9-2.6-4.3c-2.1-4.4-3.2-9.3-3.2-14.5
		c0-1.4,0.1-2.7,0.2-4.1c7.4,10,16,9.7,21.4,13c2.4,1.5,4,4.2,4,7.3C1594,540.2,1592.4,543,1589.9,544.4z"/>
</g>
<g id="XMLID_45_">
	<path id="XMLID_299_" class="st0" d="M1059.5,559.6c0.3-0.5,0.7-1,1-1.5c0.3-0.5,0.7-1,1-1.5h2l-2.6,2.9H1059.5z"/>
	<g id="XMLID_46_">
		<g id="XMLID_180_">
			<g id="XMLID_261_">
				<path id="XMLID_297_" class="st0" d="M1061.9,548.3H1028c-0.4,2.3-2,3.5-4.6,3.7v-1.5c2.1,0,3.1-1.1,3.1-3.8v-8.6h1.6v8.6h33.7
					V548.3z"/>
				<path id="XMLID_294_" class="st0" d="M1066.8,535.4l-1.1,0.1c-0.1-0.7-0.5-1-1.1-1c-0.7,0-1.1,0.5-1.1,1.5c0,0.4,0.1,0.7,0.3,1
					h3v1.1h-5.3V537h1.1c-0.1-0.3-0.2-0.6-0.2-1c0-0.7,0.2-1.3,0.5-1.7c0.4-0.5,1-0.7,1.7-0.7
					C1065.8,533.6,1066.5,534.2,1066.8,535.4z M1066.8,539.3v5.1c0,2.6-1.1,3.9-3.3,3.9h-2v-1.5h1.5c0.9,0,1.6-0.3,1.9-0.9
					c0.2-0.4,0.3-1.1,0.3-2.2v-4.4H1066.8z"/>
				<path id="XMLID_292_" class="st0" d="M1071.4,548.3h-1.6v-14.5h1.6V548.3z"/>
				<path id="XMLID_289_" class="st0" d="M1081.7,548.3h-3.7c-0.6,2.3-2.1,3.5-4.7,3.7v-1.5c2.1,0,3.1-1.1,3.1-3.8v-8.6h1.6v8.6h3.7
					V548.3z M1078,536.5h-1.6v-1.9h1.6V536.5z"/>
				<path id="XMLID_286_" class="st0" d="M1099,548.3l-18,0v-1.6h13.6c0-0.3,0-0.6,0-0.8c0-3.8-2-6-5.5-6c-1.9,0-3.3,0.7-4.2,2.2
					c-0.2-0.2-0.7-0.7-1.4-1.4c1.3-1.6,3.1-2.4,5.6-2.4c4.5,0,7.4,3,7.4,7.6v0.7h2.5V548.3z M1090.4,551.7h-1.6v-1.9h1.6V551.7z"/>
				<path id="XMLID_284_" class="st0" d="M1103.8,533.8v10.6c0,2.6-1.1,3.9-3.3,3.9h-2v-1.5h1.4c1,0,1.6-0.3,1.9-0.9
					c0.2-0.4,0.3-1.1,0.3-2.2v-9.9H1103.8z"/>
				<path id="XMLID_282_" class="st0" d="M1108.4,548.3h-1.6v-14.5h1.6V548.3z"/>
				<path id="XMLID_280_" class="st0" d="M1118.3,548.3h-2.5v-14.5h2.5V548.3z"/>
				<path id="XMLID_278_" class="st0" d="M1129.4,548.3h-4c-0.4,2.4-2.4,3.7-5.5,3.7v-2.2c2.1,0,3.1-1,3.1-3.2v-8.6h2.5v7.6h3.9
					V548.3z"/>
				<path id="XMLID_275_" class="st0" d="M1162.5,544.2c0,2.7-1.3,4.1-3.7,4.1h-30v-2.6h29.5c0.8,0,1.3-0.2,1.6-0.7
					c0.1-0.3,0.2-0.8,0.2-1.6v-5.3h2.5V544.2z M1162.5,553.2h-2.4v-2.5h2.4V553.2z"/>
				<path id="XMLID_266_" class="st0" d="M1174.3,548c0,2.7-1.6,4-4.9,4v-2c1.6,0,2.4-1.1,2.4-2.8c-0.4,0.8-1.2,1.1-2.4,1.1
					c-2.9,0-4.8-2.1-4.8-5.1c0-3,2-5.1,4.8-5.1c3,0,4.8,2.2,4.8,5.2V548z M1171.7,543.3c0-1.7-0.9-2.9-2.4-2.9
					c-1.3,0-2.2,1.3-2.2,2.8c0,1.6,0.9,2.8,2.3,2.8C1170.8,546,1171.7,544.8,1171.7,543.3z"/>
				<path id="XMLID_262_" class="st0" d="M1179.7,532.7h-3.9v-1h0.9c-0.1-0.4-0.2-0.7-0.2-0.8c0-1.1,0.8-1.8,1.7-1.8
					c0.6,0,1.1,0.3,1.4,1l-0.8,0.4c-0.1-0.3-0.3-0.5-0.6-0.5c-0.5,0-0.8,0.4-0.8,0.9c0,0.4,0.1,0.7,0.4,0.8h1.8V532.7z
					 M1179.1,548.3h-2.5v-14.5h2.5V548.3z"/>
			</g>
			<g id="XMLID_181_">
				<path id="XMLID_258_" class="st0" d="M1023.4,568.7c0-1.1,0.2-2.1,0.6-3.1c0.4-1,1-1.8,1.7-2.6c0.7-0.7,1.6-1.3,2.6-1.8
					c1-0.4,2-0.6,3.2-0.6c1.1,0,2.2,0.2,3.1,0.6c1,0.4,1.8,1,2.6,1.8c0.7,0.7,1.3,1.6,1.8,2.6c0.4,1,0.6,2,0.6,3.1
					c0,1.1-0.2,2.2-0.6,3.2c-0.4,1-1,1.8-1.8,2.6c-0.7,0.7-1.6,1.3-2.6,1.7c-1,0.4-2,0.6-3.1,0.6c-1.1,0-2.2-0.2-3.2-0.6
					c-1-0.4-1.8-1-2.6-1.7c-0.7-0.7-1.3-1.6-1.7-2.6C1023.6,570.9,1023.4,569.9,1023.4,568.7z M1025.8,568.8c0,0.8,0.1,1.6,0.4,2.3
					c0.3,0.7,0.7,1.3,1.2,1.8s1.1,0.9,1.8,1.2c0.7,0.3,1.4,0.5,2.2,0.5c0.8,0,1.5-0.2,2.2-0.5c0.7-0.3,1.3-0.7,1.8-1.2
					c0.5-0.5,0.9-1.1,1.2-1.8c0.3-0.7,0.4-1.5,0.4-2.3c0-0.8-0.1-1.6-0.4-2.3c-0.3-0.7-0.7-1.3-1.2-1.8c-0.5-0.5-1.1-0.9-1.8-1.2
					c-0.7-0.3-1.4-0.5-2.2-0.5c-0.8,0-1.5,0.2-2.2,0.5c-0.7,0.3-1.3,0.7-1.8,1.2c-0.5,0.5-0.9,1.1-1.2,1.9
					C1025.9,567.2,1025.8,568,1025.8,568.8z"/>
				<path id="XMLID_255_" class="st0" d="M1042.4,576.7v-15.9h4.3c0.8,0,1.6,0.1,2.3,0.3c0.7,0.2,1.3,0.5,1.8,1
					c0.5,0.4,0.9,1,1.2,1.6c0.3,0.6,0.4,1.3,0.4,2.1c0,0.6-0.1,1.3-0.3,1.9c-0.2,0.6-0.5,1.2-0.9,1.7c-0.4,0.5-1,0.9-1.7,1.2
					c-0.7,0.3-1.5,0.5-2.5,0.5h-2.2v5.7H1042.4z M1044.8,568.7h2.2c0.6,0,1.1-0.1,1.5-0.3c0.4-0.2,0.7-0.5,0.9-0.7
					c0.2-0.3,0.4-0.6,0.5-0.9c0.1-0.3,0.1-0.6,0.1-0.9c0-0.3,0-0.6-0.1-0.9c-0.1-0.3-0.3-0.6-0.5-0.9c-0.2-0.3-0.5-0.5-0.9-0.7
					c-0.4-0.2-0.9-0.3-1.4-0.3h-2.2V568.7z"/>
				<path id="XMLID_253_" class="st0" d="M1055,576.7v-15.9h10.4v2.2h-8v4.6h7.1v2.2h-7.1v4.6h8.3v2.2H1055z"/>
				<path id="XMLID_232_" class="st0" d="M1068.5,576.7v-15.9h4.3c0.8,0,1.6,0.1,2.3,0.3c0.7,0.2,1.3,0.5,1.8,1
					c0.5,0.4,0.9,1,1.2,1.6c0.3,0.6,0.4,1.3,0.4,2.1c0,0.4,0,0.9-0.1,1.3c-0.1,0.4-0.2,0.8-0.4,1.2c-0.2,0.4-0.4,0.8-0.8,1.1
					c-0.3,0.3-0.7,0.6-1.1,0.9c0.6,0.9,1.2,1.9,1.9,3.1c0.7,1.1,1.4,2.2,2.1,3.3h-2.9c-0.3-0.5-0.6-0.9-0.9-1.4
					c-0.3-0.5-0.6-1-0.9-1.5c-0.3-0.5-0.6-1-0.9-1.4c-0.3-0.5-0.6-0.9-0.8-1.3h-0.4h-2.2v5.7H1068.5z M1070.9,568.7h2.2
					c0.6,0,1.1-0.1,1.5-0.3c0.4-0.2,0.7-0.4,0.9-0.7c0.2-0.3,0.4-0.6,0.5-0.9c0.1-0.3,0.1-0.6,0.1-0.9c0-0.3,0-0.6-0.1-0.9
					c-0.1-0.3-0.3-0.6-0.5-0.9c-0.2-0.3-0.5-0.5-0.9-0.7c-0.4-0.2-0.9-0.3-1.4-0.3h-2.2V568.7z"/>
				<path id="XMLID_229_" class="st0" d="M1092.1,576.7c-0.1-0.2-0.2-0.4-0.3-0.7c-0.1-0.3-0.3-0.7-0.4-1.1
					c-0.2-0.4-0.4-0.8-0.5-1.3c-0.2-0.5-0.4-1-0.6-1.5h-5.6l-1.9,4.6h-2.4l7.1-16.6c0.1,0.2,0.2,0.6,0.5,1.1
					c0.2,0.5,0.5,1.2,0.8,1.9c0.3,0.8,0.7,1.6,1.1,2.5c0.4,0.9,0.8,1.8,1.2,2.8c0.4,0.9,0.8,1.9,1.2,2.8c0.4,0.9,0.7,1.7,1.1,2.5
					c0.3,0.8,0.6,1.4,0.8,1.9c0.2,0.5,0.4,0.9,0.5,1.1H1092.1z M1085.4,570.1h4c-0.2-0.5-0.4-0.9-0.6-1.4c-0.2-0.4-0.4-0.9-0.5-1.2
					c-0.2-0.4-0.3-0.7-0.4-1c-0.1-0.3-0.2-0.5-0.3-0.7c0,0,0-0.1-0.1-0.3c-0.1-0.2-0.1-0.3-0.1-0.5c0,0.1-0.1,0.3-0.1,0.5
					c-0.1,0.2-0.1,0.3-0.1,0.3L1085.4,570.1z"/>
				<path id="XMLID_209_" class="st0" d="M1096.7,561h3.6c1.6,0,2.9,0.2,4,0.7c1.1,0.5,2,1.1,2.7,1.9c0.7,0.8,1.2,1.6,1.5,2.5
					s0.5,1.9,0.5,2.8c0,1.2-0.2,2.2-0.6,3.2c-0.4,0.9-1,1.8-1.7,2.4c-0.7,0.7-1.5,1.2-2.5,1.5c-0.9,0.4-2,0.5-3,0.5h-4.4V561z
					 M1101,575.2c0.9,0,1.8-0.1,2.5-0.4c0.8-0.3,1.5-0.7,2.1-1.3c0.6-0.5,1.1-1.2,1.4-2c0.3-0.8,0.5-1.7,0.5-2.7
					c0-0.9-0.2-1.7-0.5-2.5c-0.3-0.8-0.8-1.5-1.3-2c-0.6-0.6-1.3-1-2.1-1.3s-1.7-0.5-2.8-0.5h-2.6v12.8H1101z"/>
				<path id="XMLID_207_" class="st0" d="M1111.9,564.1l-0.6-0.5c0.3-0.3,0.6-0.7,0.7-1.1c0.1-0.4,0.2-0.9,0.1-1.4l0.9-0.2
					c0.1,0.6,0.1,1.2-0.1,1.7C1112.6,563.3,1112.3,563.7,1111.9,564.1z"/>
				<path id="XMLID_204_" class="st0" d="M1124.9,576.7c-0.3-0.7-0.6-1.5-1-2.5c-0.4-1-0.8-2-1.2-3.1h-6c-0.4,1.1-0.8,2.1-1.2,3.1
					c-0.4,1-0.7,1.8-1,2.5h-1.5c0.2-0.5,0.5-1.2,0.9-2.1c0.4-0.9,0.8-1.8,1.2-2.9c0.4-1,0.9-2.1,1.3-3.2c0.5-1.1,0.9-2.2,1.3-3.2
					c0.4-1,0.8-2,1.2-2.8c0.4-0.9,0.7-1.6,0.9-2.1c0.2,0.5,0.5,1.2,0.9,2.1c0.4,0.9,0.8,1.8,1.2,2.8c0.4,1,0.9,2.1,1.3,3.2
					c0.5,1.1,0.9,2.2,1.3,3.2c0.4,1,0.8,2,1.2,2.9c0.4,0.9,0.7,1.6,0.9,2.1H1124.9z M1119.5,564.1c-0.3,0.7-0.6,1.5-1,2.5
					c-0.4,1-0.8,2-1.2,3.1h5c-0.4-1.1-0.9-2.1-1.2-3.1c-0.4-1-0.7-1.8-1-2.5c0-0.1-0.1-0.2-0.1-0.3c0-0.1-0.1-0.3-0.1-0.4
					c0,0.1-0.1,0.2-0.1,0.4C1119.5,564,1119.5,564.1,1119.5,564.1z"/>
				<path id="XMLID_202_" class="st0" d="M1129,576.7V561h1.5v14.2h8.3v1.4H1129z"/>
				<path id="XMLID_200_" class="st0" d="M1151.8,569.5v6.2c-0.6,0.4-1.3,0.6-2,0.8c-0.8,0.2-1.6,0.3-2.4,0.3
					c-1.2,0-2.3-0.2-3.3-0.6c-1-0.4-1.8-1-2.5-1.7c-0.7-0.7-1.2-1.5-1.6-2.5c-0.4-0.9-0.6-2-0.6-3.1c0-1.2,0.2-2.3,0.6-3.3
					c0.4-1,1-1.9,1.8-2.6c0.7-0.7,1.6-1.3,2.6-1.7c1-0.4,2-0.6,3.1-0.6c0.7,0,1.5,0.1,2.3,0.3c0.8,0.2,1.4,0.5,2,0.8l-0.7,1.2
					c-0.5-0.3-1-0.5-1.7-0.7c-0.6-0.2-1.3-0.3-1.9-0.3c-0.9,0-1.7,0.2-2.5,0.5c-0.8,0.4-1.5,0.8-2.1,1.4c-0.6,0.6-1.1,1.3-1.4,2.1
					c-0.4,0.8-0.5,1.7-0.5,2.6c0,0.9,0.2,1.7,0.5,2.5c0.3,0.8,0.8,1.5,1.3,2.1c0.6,0.6,1.3,1.1,2.1,1.4c0.8,0.3,1.7,0.5,2.7,0.5
					c0.5,0,1-0.1,1.5-0.2c0.5-0.1,1-0.3,1.5-0.5v-3.9h-3.4v-1.3H1151.8z"/>
				<path id="XMLID_185_" class="st0" d="M1155.5,576.7V561h9.8v1.4h-8.4v5.7h7.5v1.4h-7.5v5.8h8.7v1.4H1155.5z"/>
				<path id="XMLID_182_" class="st0" d="M1168.8,576.7V561h3.8c0.7,0,1.3,0.1,1.9,0.3c0.6,0.2,1.2,0.5,1.6,0.8
					c0.5,0.4,0.9,0.9,1.1,1.4c0.3,0.6,0.4,1.2,0.4,2c0,0.9-0.2,1.7-0.6,2.5c-0.4,0.8-1,1.4-1.9,1.8c0.1,0.2,0.3,0.5,0.5,0.9
					c0.2,0.4,0.5,0.8,0.7,1.2c0.3,0.4,0.5,0.9,0.8,1.3c0.3,0.5,0.6,0.9,0.8,1.3c0.3,0.4,0.5,0.8,0.7,1.2c0.2,0.4,0.4,0.6,0.5,0.8
					h-1.8c-0.1-0.2-0.3-0.4-0.5-0.7c-0.2-0.3-0.4-0.6-0.6-1c-0.2-0.4-0.5-0.8-0.7-1.2c-0.3-0.4-0.5-0.8-0.8-1.2
					c-0.2-0.4-0.5-0.8-0.7-1.2c-0.2-0.4-0.4-0.7-0.6-0.9c-0.1,0-0.3,0-0.5,0s-0.3,0-0.5,0h-2.3v6.3H1168.8z M1170.3,569h2.3
					c0.7,0,1.3-0.1,1.8-0.4c0.5-0.2,0.8-0.5,1.1-0.9c0.3-0.3,0.5-0.7,0.6-1.1c0.1-0.4,0.2-0.7,0.2-1.1c0-0.4-0.1-0.8-0.2-1.2
					c-0.2-0.4-0.4-0.7-0.7-1c-0.3-0.3-0.7-0.5-1.1-0.7c-0.5-0.2-1-0.3-1.6-0.3h-2.3V569z"/>
			</g>
		</g>
		<g id="XMLID_47_">
			<path id="XMLID_179_" class="st0" d="M1177.3,489.9c-0.2,0-0.4,0-0.6,0V521h2.5v-31.1C1178.5,489.9,1177.9,489.8,1177.3,489.9z"
				/>
			<path id="XMLID_178_" class="st0" d="M1167.9,491.8V521h2.5v-29.9C1169.6,491.3,1168.8,491.6,1167.9,491.8z"/>
			<path id="XMLID_177_" class="st0" d="M1159.3,494.2V521h2.5v-27.5C1161,493.8,1160.1,494,1159.3,494.2z"/>
			<path id="XMLID_176_" class="st0" d="M1150.6,495.6V521h2.5v-25.6C1152.3,495.5,1151.4,495.6,1150.6,495.6z"/>
			<path id="XMLID_175_" class="st0" d="M1143.9,494.8c-0.7-0.2-1.5-0.4-2.2-0.7V521h2.5v-26.1
				C1144.1,494.9,1144,494.9,1143.9,494.8z"/>
			<path id="XMLID_174_" class="st0" d="M1133,491.2V521h2.5v-28.9C1134.7,491.8,1133.9,491.5,1133,491.2z"/>
			<path id="XMLID_173_" class="st0" d="M1124.4,488.2V521h2.5v-32C1126,488.8,1125.2,488.5,1124.4,488.2z"/>
			<path id="XMLID_172_" class="st0" d="M1115.7,485.7V521h2.5v-34.8C1117.2,486,1116.3,485.8,1115.7,485.7z"/>
			<path id="XMLID_171_" class="st0" d="M1106.8,487.2V521h2.5v-34.6C1108.5,486.7,1107.7,486.9,1106.8,487.2z"/>
			<path id="XMLID_169_" class="st0" d="M1098.1,489.8V521h2.5v-32C1099.8,489.3,1099,489.6,1098.1,489.8z"/>
			<path id="XMLID_168_" class="st0" d="M1089.5,491.6V521h2.5v-29.8C1091.2,491.4,1090.3,491.5,1089.5,491.6z"/>
			<path id="XMLID_167_" class="st0" d="M1080.8,490.1v31h2.5v-29.6C1082.4,491.1,1081.6,490.7,1080.8,490.1z"/>
			<path id="XMLID_65_" class="st0" d="M1072,476.8V521h2.5v-39.3C1073.7,480.1,1072.9,478.5,1072,476.8z"/>
			<path id="XMLID_56_" class="st0" d="M1063.4,462v59h2.5v-55.9C1065.1,464,1064.2,462.9,1063.4,462z"/>
			<path id="XMLID_55_" class="st0" d="M1054.7,459.4l0,61.7h2.5v-62.3C1056.3,458.7,1055.5,458.9,1054.7,459.4z"/>
			<path id="XMLID_51_" class="st0" d="M1046,476.6V521h2.5v-52C1047.6,471.4,1046.8,474,1046,476.6z"/>
			<path id="XMLID_50_" class="st0" d="M1038,491.8c-0.3,0.1-0.5,0.2-0.8,0.2v29h2.5v-30.3C1039.2,491.3,1038.6,491.6,1038,491.8z"
				/>
			<path id="XMLID_49_" class="st0" d="M1028.5,492.8V521h2.5v-28.3C1030.2,492.8,1029.4,492.8,1028.5,492.8z"/>
			<path id="XMLID_48_" class="st0" d="M1019.9,492.2V521h2.5v-28.6C1021.5,492.3,1020.7,492.2,1019.9,492.2z"/>
		</g>
	</g>
</g>
<g>
	<defs>
		<rect id="SVGID_1_" x="1704.6" y="458.7" width="293.9" height="124.6"/>
	</defs>
	<clipPath id="SVGID_2_">
		<use xlink:href="#SVGID_1_"  style="overflow:visible;"/>
	</clipPath>
	<path class="st2" d="M1819.9,507.9v8.9c0,2.3,0.2,2.6,2.1,2.6h0.6v2.1h-13.1v-2.1h0.6c1.9,0,2-0.3,2-2.6V500c0-2.3-0.2-2.6-2-2.6
		h-0.6v-2h16c2.2,0,3.5,0.1,4.3,0.6c1.7,0.9,2.4,2.6,2.4,5.7c0,4.2-1.5,6.5-4.2,6.5h-0.5l4.8,9.5c0.9,1.7,1.1,1.8,2.2,1.8h0.3v2.2
		h-8.8L1819.9,507.9 M1819.9,506.5h0.9c2.5,0,3.4-1.2,3.4-4.5c0-3.8-0.7-4.9-3-4.9c-0.3,0-0.8,0.1-1.3,0.1V506.5z"/>
	<path class="st2" d="M1853,511.7h-3.5v-0.9c0-1.6-0.5-2-1.9-2h-0.6c-0.9,0-1.2,0.3-1.2,0.9v7.5c0,2,0.2,2.1,2.7,2.1h1
		c2.1,0,2.6-0.2,3.1-1.1c0.5-0.7,0.5-1.1,0.5-3v-1.7h4.1v7.8h-22.1v-2.1h0.7c1.9,0,2.1-0.3,2.1-2.6V500c0-2.3-0.2-2.6-2.1-2.6h-0.7
		v-2h21.5v6.7h-4.1v-1.3c-0.1-2.9-0.6-3.4-3.6-3.4h-0.8c-2.1,0-2.3,0.2-2.3,2.3v5.3c0,1.4,0.1,1.5,1.5,1.5h0.6c1.3,0,1.6-0.3,1.6-2
		v-0.9h3.5V511.7"/>
	<path class="st2" d="M1872.8,521.5l-9-16.9v12.2c0,2.3,0.2,2.6,2.1,2.6h0.8v2.1h-8.5v-2.1h0.6c1.9,0,2.1-0.3,2.1-2.6V500
		c0-2.3-0.2-2.6-2.1-2.6h-0.6v-2h9.6l9.6,17.6v-13c0-2.3-0.2-2.6-2.1-2.6h-0.6v-2h8.4v2h-0.6c-2,0-2.2,0.3-2.2,2.6v21.5H1872.8"/>
	<path class="st2" d="M1906.4,517.7c0.4,1.4,0.8,1.8,2.1,1.8h0.7v2.1h-13.2v-2.1h0.8c0.9,0,1.4-0.4,1.4-1c0-0.2-0.1-0.4-0.3-1
		l-1.2-4.3c-0.4-1.2-0.3-1.2-1.5-1.2h-5c-0.5,0.1-0.7,0.2-0.8,0.9l-1.5,4.9c-0.1,0.5-0.1,0.6-0.1,0.8c0,0.6,0.3,0.9,1.1,0.9h1.1v2.1
		h-7.8v-2.1h0.7c1.4-0.1,1.7-0.5,2.2-2.4l5.1-17.3c0.2-0.6,0.3-0.8,0.3-1c0-1-0.4-1.3-1.9-1.3h-0.8v-2.1h11.6L1906.4,517.7
		 M1890.4,508.8c0,0.3-0.1,0.4-0.1,0.5c0,0.3,0.3,0.4,0.7,0.4h3.6c0.6,0,0.8-0.1,0.8-0.4c0-0.1,0-0.2-0.1-0.4l-2.4-9.2L1890.4,508.8
		z"/>
	<path class="st2" d="M1928.7,515.1c0,4.9-2.8,7-9.2,7c-6.9,0-10.3-2.3-10.3-7.2V500c0-2.3-0.3-2.6-2.1-2.6h-0.5v-2h13.1v2h-0.6
		c-1.9,0-2.1,0.3-2.1,2.6v15c0,2,0.1,2.4,0.9,3.1c0.8,0.8,1.9,1.2,3.4,1.2c2.9,0,4.4-1.5,4.4-4.3v-15c0-2.3-0.2-2.6-2.1-2.6h-0.6v-2
		h8.3v2h-0.7c-1.9,0-2,0.3-2,2.6V515.1"/>
	<path class="st2" d="M1953.1,521.5H1932v-2.1h0.6c2,0,2.1-0.3,2.1-2.6V500c0-2.3-0.2-2.6-2.1-2.6h-0.6v-2h13.3v2h-0.7
		c-1.9,0-2,0.3-2,2.6v16.5c0,2.7,0.2,3,2.2,2.9h1.1c2.3-0.1,3-1,3-3.8v-2h4.2V521.5"/>
	<path class="st2" d="M1972.4,495.4v7.7h-4.1v-1.1c0-2.2-0.1-2.9-0.7-3.8c-0.4-0.5-1-0.9-1.6-0.9c-0.7,0-0.9,0.3-0.9,1.4v18.1
		c0,2.3,0.2,2.6,2.1,2.6h0.6v2.1h-13.3v-2.1h0.7c1.9,0,2.1-0.3,2.1-2.6v-18c0-1.2-0.2-1.5-1-1.5c-1.6,0-2.2,1.4-2.2,4.5v1.3h-4v-7.7
		H1972.4"/>
	<path class="st2" d="M1840.5,525.6v7.8h-4v-1.1c0-2.2-0.2-3-0.7-3.8c-0.5-0.6-1.1-1-1.7-1c-0.7,0-0.9,0.3-0.9,1.4V547
		c0,2.3,0.2,2.6,2,2.6h0.6v2.1h-13.2v-2.1h0.6c1.9,0,2.1-0.3,2.1-2.6v-18c0-1.2-0.1-1.5-0.9-1.5c-1.6,0-2.2,1.4-2.2,4.5v1.4h-4v-7.8
		H1840.5"/>
	<path class="st2" d="M1889,545.3c0,4.9-2.8,7-9.2,7c-6.9,0-10.3-2.3-10.3-7.2v-14.8c0-2.4-0.3-2.7-2.1-2.7h-0.5v-2h13.1v2h-0.6
		c-1.9,0-2.1,0.3-2.1,2.7v14.9c0,2,0.1,2.5,0.9,3.1c0.8,0.8,1.9,1.2,3.4,1.2c2.9,0,4.4-1.5,4.4-4.3v-14.9c0-2.4-0.2-2.7-2.1-2.7
		h-0.6v-2h8.1v2h-0.6c-1.8,0-2,0.3-2,2.7V545.3"/>
	<path class="st2" d="M1913.6,532.9h-4.2v-1.4c0-3.1-1.4-4.7-4-4.7c-2.1,0-3.6,1.2-4.1,3.3c-0.3,1.5-0.5,4.2-0.5,8.6
		c0,2.6,0.1,5.5,0.3,7c0.3,3.3,1.7,4.9,4.3,4.9c2.9,0,4.2-1.7,4.2-5.6v-1.6h4v7.3c-2.5,1.1-5.5,1.6-8.9,1.6c-4.7,0-7.9-1.1-9.8-3.4
		c-1.6-2-2.1-5.1-2.1-10.7c0-10.1,2.9-13.3,12-13.3c3,0,4.4,0.2,8,1.1c0.2,0,0.5,0.1,0.8,0.2V532.9"/>
	<path class="st2" d="M1938.2,548.3c0.5,1.2,0.9,1.4,1.8,1.4h0.4v2.1h-9.5l-4.4-10.8l-1.4,1.9v4.3c0,2.3,0.3,2.6,2.1,2.6h0.5v2.1
		h-13.1v-2.1h0.6c1.9,0,2.1-0.3,2.1-2.6v-16.7c0-2.4-0.2-2.7-2.1-2.7h-0.6v-2h13.1v2h-0.5c-1.9,0-2.1,0.3-2.1,2.7v7.9l6.6-8.7
		l0.4-0.5c0.3-0.3,0.4-0.6,0.4-0.8c0-0.4-0.3-0.5-0.7-0.5h-1.2v-2.1h8v2.1h-0.5c-1.6,0.1-1.8,0.2-3.2,2.1l-3.2,4.3L1938.2,548.3"/>
	<path class="st2" d="M1959.9,532.8h-4.1v-0.9c0-3.4-1.3-5-3.9-5c-2.2,0-3.4,1.2-3.4,3.5c0,2,0.8,2.9,3.6,3.9l1.5,0.5
		c6.1,2.2,7.7,4,7.7,8.5c0,2.8-0.7,4.9-2.1,6.3c-2,1.9-4.8,2.8-8.2,2.8c-2.5,0-4.2-0.4-8.3-1.9l-0.9-0.3v-6.8h4.1v1.3
		c0,3.9,1.3,5.7,4.1,5.7c2.5,0,3.9-1.5,3.9-4c0-2.8-0.7-3.5-5.5-5.2c-5.5-2-6.8-3.4-6.8-8c0-5.9,2.8-8.2,9.7-8.2
		c2.6,0,5.8,0.5,8.7,1.3V532.8"/>
	<path class="st2" d="M1851.4,538.2v8.8c0,2.3,0.2,2.6,2,2.6h0.7v2.1h-13.1v-2.1h0.5c2,0,2-0.3,2-2.6v-16.7c0-2.4-0.2-2.6-2-2.6
		h-0.5v-2.1h16c2.2,0,3.4,0.2,4.3,0.6c1.7,0.9,2.3,2.7,2.3,5.7c0,4.3-1.4,6.5-4.2,6.5h-0.5l4.9,9.4c0.8,1.7,1,1.9,2.1,1.9h0.4v2.1
		h-8.9L1851.4,538.2 M1851.4,536.7h1c2.4,0,3.4-1.2,3.4-4.4c0-3.8-0.7-4.9-3.1-4.9h-1.3V536.7z"/>
	<path class="st3" d="M1775,497.9c-0.3-0.5-0.6-0.9-0.7-1.2c-0.4-0.8-0.7-0.9-0.8-0.9l-13.2,0c-0.4,0-0.4,0.1-0.6,0.4l0,0
		c0,0-3.5,5.6-7.6,13.2c-2.3,4.3-7.2,13.3-7.2,14.2l12.3,0c0,0.8,3,6.6,7.3,14.4c0.6,1,1.1,2,1.6,3c-2.4,4.7-4.3,8.1-5,9.4
		c-0.4,0.7,0.2,0.6,1,0.6c0,0,3.7-5.2,7.9-13c4.3-7.9,7.3-13.6,7.3-14.4l11.8,0c0-0.7-2.8-5.8-6.6-12.9
		C1778.4,503.4,1776.2,499.9,1775,497.9 M1774.4,523.6c0,0.1,0,0.1,0,0.2c0,0-1.2,3-3.2,7.4c-2.1,4.4-3.6,7.5-3.6,7.6
		c-0.1,0.1-0.2,0.2-0.3,0.2h0c-0.1,0-0.3-0.1-0.3-0.2l0,0c0,0-1.5-3.2-3.6-7.5c-2.1-4.4-3.2-7.4-3.2-7.4c0-0.1,0-0.1,0-0.2h-2.8
		c0-0.8,3-6.5,7.3-14.4c4.2-7.7,7.9-13,7.9-13c0.8,0,1.4-0.2,1,0.6c-0.7,1.3-2.7,4.7-5,9.4c0.5,1,1.1,1.9,1.6,3
		c4.3,7.9,7.3,13.5,7.3,14.4H1774.4z"/>
	<path class="st3" d="M1763.9,516.4c-1.8,3.9-2.9,6.6-3.2,7.3c0.2,0.6,1.4,3.4,3.2,7.3c1.5,3.2,2.7,5.7,3.3,6.9
		c0.6-1.2,1.8-3.7,3.3-6.9c1.8-3.9,2.9-6.6,3.2-7.3c-0.2-0.6-1.4-3.4-3.2-7.3c-1.5-3.2-2.7-5.7-3.3-6.9
		C1766.7,510.7,1765.4,513.2,1763.9,516.4"/>
	<path class="st3" d="M1730.7,563.4h72.3v-78.6h-72.3V563.4z M1782.4,538.2c-4.1,7.6-7.6,13.2-7.6,13.3l0,0
		c-0.2,0.4-0.5,0.7-1.2,0.7l-13.2,0c-0.2,0-0.8-0.1-1.4-1.2c-0.2-0.3-0.4-0.7-0.7-1.2c-1.2-1.9-3.4-5.5-7.4-12.9
		c-5-9.3-6.7-12.4-6.7-13.2c0-0.8,1.8-4.5,7.3-14.5c4.1-7.6,7.6-13.2,7.6-13.3l0,0c0.2-0.4,0.5-0.7,1.2-0.7l13.2,0
		c0.2,0,0.8,0.1,1.4,1.2c0.2,0.3,0.4,0.7,0.7,1.2c1.2,1.9,3.4,5.5,7.4,12.9c5.1,9.3,6.7,12.4,6.7,13.2
		C1789.7,524.5,1787.9,528.1,1782.4,538.2"/>
</g>
<image style="overflow:visible;" width="320" height="30" xlink:href="../../../wamp64/www/shiftin-enligne-misajour/images/ref.png"  transform="matrix(3.9375 0 0 3.9375 979.6926 318.7087)">
</image>
<g>
	<g>
		<g>
			<polygon class="st0" points="290.2,18.1 293.7,14.7 297.1,18.1 297.1,14.4 293.7,11 290.2,14.4 			"/>
			<polygon class="st0" points="300.6,15.3 297.2,18.7 293.8,15.3 293.8,19 297.2,22.4 300.6,19 			"/>
			<path class="st0" d="M302.8,22.6c0.2,0,0.4-0.1,0.4-0.1c0,0,0.6-0.1,0.6-0.1l0.6-0.1c0,0,0,0,0,0l1-0.1c0.1,0,0.5-0.1,0.7-0.1
				c0.1,0,0.7-0.1,0.7-0.1c0,0,0.2,0,0.4-0.1l2.3-2.3L298.2,8.3h-3.7l11.4,11.3L302.8,22.6z"/>
			<polygon class="st0" points="290.2,10.7 290.2,13.9 293.4,10.7 			"/>
			<path class="st0" d="M299.3,25c-0.8,0.2-1.7,0.4-2.7,0.7c-0.3,0.1-0.5,0.2-0.8,0.3c-0.3,0.1-0.5,0.2-0.8,0.3
				c-0.2,0.1-0.4,0.1-0.7,0.2l-4.4,4.4h3.7l5.8-5.7L299.3,25z"/>
			<path class="st0" d="M293.5,20.9l0.1,0c0.1,0,0.3,0,0.3,0.1c0,0,0.1,0.1,0.1,0.2c0,0.1,0.1,0.1,0.1,0.2c0,0.2,0,0.3-0.4,1
				c-0.1,0.1-0.1,0.2-0.2,0.3c0.2-0.1,0.4-0.1,0.6-0.2c0.3,0,0.6,0.1,0.7,0.3c0.2,0.2,0.3,0.4,0.3,0.7c0,0.3,0,0.5-0.1,0.8
				c0,0,0,0,0,0.1c0.2-0.1,0.4-0.1,0.9-0.3c0,0,0,0,0,0c0,0,0.3-0.1,0.3-0.1c0.1,0,0.3-0.1,0.4-0.1c0.1,0,0.2-0.1,0.2-0.1l0.2-0.1
				c0,0,0,0,0,0l0.6-0.1l0.3-0.1l-4.3-4.2h-3.7l2.5,2.4C293,21.1,293.3,21,293.5,20.9z"/>
			<path class="st0" d="M303.3,24.4c-0.4,0.1-0.8,0.1-1.1,0.2c0,0,0,0,0,0l-0.8,0.1l-0.7,0.1l-6.1,6.1h3.7l6.8-6.7
				C304.4,24.2,303.8,24.3,303.3,24.4z"/>
			<path class="st0" d="M291.6,22.8C291.6,22.8,291.6,22.8,291.6,22.8c0,0,0.4-0.5,0.6-0.7l-2.5-2.5v3.2L291.6,22.8
				C291.5,22.8,291.6,22.8,291.6,22.8z"/>
		</g>
		<path class="st0" d="M314.6,22.1c-0.7-0.3-2.9-0.4-2.9-0.4l-1.5,0.1l-1.3,0.2c0,0-0.9,0.1-1.4,0.2c-0.2,0-0.7,0.1-0.7,0.1
			s-0.5,0.1-0.7,0.1c-0.2,0-0.7,0.1-0.7,0.1l-1,0.1l-0.6,0.1l-0.6,0.1l-1,0.2l-0.3,0.1l-0.5,0.1l-0.5,0.1l-0.2,0.1l-1.1,0.2l0,0
			l-0.3,0.1l-1.1,0.2l-0.4,0.1l-0.4,0.1l-0.6,0.1l-0.2,0.1c0,0-0.2,0-0.3,0.1c-0.1,0-0.4,0.1-0.4,0.1l-0.3,0.1c0,0-1.1,0.3-1.1,0.4
			c0,0-0.7,0.3-0.8,0.3c0,0-0.1,0-0.3,0.1l0.1-0.1c0.4-0.5,0.6-0.8,0.7-1c0.1-0.2,0.1-0.4,0.1-0.6c0-0.2-0.1-0.3-0.2-0.4
			c-0.1-0.1-0.2-0.1-0.4-0.1c-0.2,0-0.5,0.1-0.8,0.4c-0.3,0.2-0.7,0.5-1.1,0.9c0.2-0.4,0.4-0.7,0.5-1c0.2-0.3,0.4-0.7,0.6-1.1
			c0.3-0.4,0.4-0.7,0.4-0.7c0,0,0,0,0,0c0,0,0,0,0,0l-0.2,0c-0.2,0-0.5,0.3-1,0.9l-0.7,0.8c0,0-0.2,0.2-0.6,0.6
			c-0.4,0.4-0.7,0.8-1,1.1c0,0,0,0,0,0c0,0,0,0,0,0c-0.1,0-0.1,0.1-0.2,0.2l-0.4,0.5c-0.2,0.3-0.4,0.5-0.7,0.7
			c-0.2,0.2-0.5,0.4-0.8,0.6c-0.3,0.2-0.6,0.3-0.9,0.4c-0.2,0-0.3,0-0.4-0.1c-0.1-0.1-0.2-0.2-0.2-0.4l0-0.3l0.1-0.3
			c0.8-0.3,1.5-0.6,2-1.1c0.5-0.5,0.7-1,0.7-1.4c0-0.2-0.1-0.3-0.2-0.4c-0.1-0.1-0.3-0.1-0.5-0.1c-0.1,0-0.3,0-0.4,0.1
			c-0.2,0.1-0.3,0.1-0.5,0.3c-0.2,0.1-0.5,0.3-0.8,0.7c-0.4,0.4-0.6,0.7-0.8,1.1c-0.1,0.3-0.2,0.6-0.2,0.9l-0.2,0.2
			c-0.2,0.2-0.4,0.4-0.6,0.6c-0.2,0.2-0.5,0.4-0.8,0.6c-0.3,0.2-0.6,0.3-0.8,0.3l-0.2,0c0,0,0-0.1-0.1-0.1c0-0.1,0.3-0.5,0.8-1.2
			l0.4-0.5c0.4-0.5,0.6-0.8,0.7-1c0.1-0.2,0.1-0.4,0.1-0.6c0-0.2-0.1-0.3-0.2-0.4c-0.1-0.1-0.2-0.2-0.4-0.1c-0.2,0-0.4,0.1-0.7,0.3
			c-0.3,0.2-0.7,0.5-1.1,0.9l0-0.3l0-0.1c0-0.2-0.1-0.4-0.2-0.5c-0.1-0.1-0.2-0.2-0.4-0.1c-0.2,0-0.5,0.1-0.8,0.4
			c-0.3,0.2-0.6,0.6-1,1l-0.2,0.2c-0.1,0.2-0.3,0.3-0.3,0.4c-0.3,0.3-0.6,0.6-0.9,0.8c-0.3,0.3-0.8,0.6-1.3,0.9
			c-0.5,0.3-0.9,0.5-1.3,0.6l-0.3,0c-0.1-0.1-0.1-0.1-0.1-0.2c0-0.3,0.2-0.9,0.8-1.8c0.6-0.9,1.3-1.9,2.3-3.1l0.4-0.5
			c0.3-0.4,0.5-0.7,0.5-0.8c0-0.1-0.1-0.2-0.2-0.2c-0.1,0-0.3-0.1-0.6,0l-0.3,0.1l-0.3,0l-0.5,0.4c-0.1,0.1-0.1,0.2-0.2,0.2
			c-0.1,0.1-0.1,0.2-0.2,0.2c0-0.3-0.1-0.5-0.3-0.7c-0.2-0.1-0.5-0.2-0.8-0.2c-0.6,0.1-1.3,0.3-2.1,0.8c-0.8,0.5-1.4,1.1-2,1.7
			c-0.6,0.7-1,1.3-1.2,1.9c-0.2,0.6-0.3,1.2-0.2,1.7c0,0.5,0.2,0.9,0.4,1.2c0.2,0.3,0.5,0.4,0.8,0.3c0.3,0,0.7-0.2,1.1-0.5
			c0.2-0.1,0.4-0.3,0.6-0.5c0.2-0.2,0.4-0.5,0.6-0.8l0,0.1l0,0.2c0,0.4,0.2,0.7,0.4,0.9c0.2,0.2,0.5,0.3,0.9,0.3
			c0.5,0,1.2-0.3,2-0.9c0.8-0.5,1.6-1.2,2.4-2.1l0.1-0.1c0.7-0.8,1.1-1.3,1.2-1.5c0,0,0.1,0,0.1,0l0.1,0l0,0.1c0,0.2-0.4,0.8-1.3,2
			l-0.1,0.2l-0.6,0.8c-0.4,0.5-0.6,0.8-0.6,0.9c0,0,0,0,0,0c0,0,0,0,0.1,0l0.3,0l0.3,0l0.2,0c0.4-0.6,0.8-1.2,1.2-1.7
			c0.4-0.5,0.9-1.1,1.4-1.6c0.6-0.6,1-0.9,1.2-0.9l0.1,0l0.1,0.1c0,0.1-0.2,0.4-0.6,0.8l-0.4,0.5c-0.3,0.3-0.5,0.7-0.7,1
			c-0.2,0.3-0.2,0.6-0.2,0.9c0,0.2,0.1,0.4,0.3,0.5c0.2,0.1,0.3,0.2,0.5,0.2c0.3,0,0.6-0.2,1.1-0.5c0.4-0.3,0.9-0.7,1.3-1.1
			c0.1,0.3,0.2,0.6,0.4,0.8c0.2,0.2,0.5,0.3,0.9,0.3c0.4,0,0.8-0.2,1.2-0.5c0.5-0.3,0.9-0.7,1.4-1.2l0.6-0.8c0,0,0,0,0-0.1l0.9-0.9
			l-3.9,6.6c-0.6,1.1-0.9,1.7-0.9,1.8c0,0,0,0,0,0c0,0,0,0,0.1,0.1c0,0,0.1,0,0.3,0l0.3,0l0.2-0.1l2.3-4.2c0.7-1.2,1.2-2.2,1.7-2.8
			c0.5-0.6,1-1.1,1.5-1.6l0.6-0.5c0.1-0.1,0.2-0.1,0.3-0.1l0.1,0l0.1,0.1c0,0.1-0.1,0.3-0.4,0.6l-0.6,0.7c-0.3,0.4-0.5,0.8-0.7,1.1
			c-0.1,0.3-0.2,0.6-0.2,0.8c0,0,0,0,0,0l0,0c0,0,0,0,0,0c0,0,0.1,0,0.2-0.1c0.8-0.3,1.7-0.7,2.6-0.9c0.5-0.2,1-0.4,1.6-0.6
			c0.9-0.3,1.8-0.5,2.8-0.7c0.4-0.1,0.8-0.2,1.2-0.2c0.6-0.1,1.1-0.1,1.7-0.2c1-0.2,2-0.4,3.1-0.5c0.8-0.1,1.6-0.2,2.4-0.2
			c0.3,0,0.5,0,0.8,0c0.3,0,3.2-0.1,3.5-0.1c0.3,0,2.5,0.2,2.7,0.1c0.1-0.1,0.3-0.2,0.4-0.3C315.2,22.6,315,22.3,314.6,22.1z
			 M274.8,27.1c-0.2,0.3-0.4,0.6-0.5,0.7c-0.1,0.2-0.3,0.3-0.6,0.6c-0.3,0.2-0.5,0.3-0.7,0.4c-0.1,0-0.2,0-0.3-0.1
			c-0.1-0.1-0.1-0.2-0.1-0.3c0-0.4,0.2-1,0.6-1.8c0.4-0.8,0.9-1.5,1.5-2.2c0.6-0.6,1.1-1.1,1.5-1.4c0.4-0.3,0.7-0.5,1-0.5
			c0.1,0,0.2,0,0.2,0.1c0.1,0,0.1,0.1,0.1,0.2c0,0.1,0,0.2-0.1,0.3c-0.1,0.2-0.1,0.3-0.2,0.4L274.8,27.1z M287.9,24.1
			c0.3-0.4,0.6-0.6,0.9-0.6c0.1,0,0.1,0,0.2,0c0,0,0.1,0.1,0.1,0.2c0,0.3-0.2,0.6-0.6,1c-0.4,0.4-1,0.7-1.6,0.9
			C287.2,25,287.6,24.5,287.9,24.1z"/>
	</g>
	<g>
		<rect x="132.8" y="14.2" class="st1" width="1.8" height="12"/>
		<path class="st1" d="M113.7,15.7c-2.4,0-4.3,2-4.3,4.5c0,2.5,1.9,4.4,4.4,4.4c2.4,0,4.3-2,4.3-4.4
			C118.1,17.6,116.2,15.7,113.7,15.7z M113.8,14.1c3.4,0,6.1,2.7,6.1,6.1c0,3.4-2.8,6.1-6.1,6.1c-3.4,0-6.1-2.7-6.1-6.1
			C107.7,16.8,110.4,14.1,113.8,14.1z"/>
		<path class="st1" d="M76.8,15.5c-1.1,0-2.1,0.8-1.9,1.9c0.1,0.5,0.3,0.8,0.8,1.1c0.1,0.1,0.4,0.2,0.7,0.3c0.3,0.1,0.8,0.3,1.2,0.4
			c0.9,0.3,1.7,0.7,2.1,1c0.6,0.6,1,1.4,1,2.3c0,2.3-1.8,3.8-4,3.8c-2.2,0-4-1.5-4.1-3.7h1.7c0.2,1.5,1.2,2.2,2.4,2.2
			c1.1,0,2.2-0.7,2.2-2c0-0.7-0.3-1.2-1-1.6c-0.2-0.1-0.4-0.2-0.7-0.3c-0.3-0.1-0.6-0.2-0.9-0.3c-0.7-0.2-1.4-0.5-1.8-0.7
			c-0.9-0.5-1.4-1.4-1.4-2.4c0-2,1.5-3.5,3.7-3.5c1.7,0,3.5,1.3,3.6,3.3h-1.7C78.7,16.2,77.8,15.5,76.8,15.5z"/>
		<path class="st1" d="M124,14.2l5.7,0v1.6h-5.1v3.9h5.1v1.6h-5.1v4.9h-1.8V15.3C122.8,14.7,123.3,14.2,124,14.2z"/>
		<path class="st1" d="M97.2,17l0,9.2h-1.8l0-10.9c0-0.7,0.5-1.2,1.2-1.2c0.4,0,0.8,0.2,1,0.6c1.7,2.8,4.9,8.2,5.3,8.7l0-9.2h1.8
			l0,10.9c0,0.7-0.5,1.2-1.2,1.2c-0.4,0-0.8-0.2-1-0.6C100.8,22.9,97.6,17.5,97.2,17z"/>
		<path class="st1" d="M87.6,16.4l-1.8,4.8l3.5,0L87.6,16.4z M85.2,22.8L84,26.2h-1.8l4.3-11.4c0.2-0.4,0.6-0.8,1.1-0.8
			c0.5,0,0.9,0.3,1.1,0.8L93,26.2h-1.8l-1.2-3.4L85.2,22.8z"/>
		<path class="st0" d="M158.7,17.4c-3-4.4-6.3-0.5-9.6-1c-3.3-0.5-3.4-5,0.7-5.4c0.1,0,0.2,0,0.3,0C154.1,11,157.5,13.7,158.7,17.4z
			"/>
		<path class="st1" d="M158.8,17.6c0.2,0.8,0.3,1.7,0.3,2.5c0,5.1-4.1,9.2-9.2,9.2c-2.2,0-4.3-0.8-5.9-2.1c0.6,0.3,1.4,0.4,2,0.4
			C154.4,27.7,150.8,16.6,158.8,17.6z"/>
		<path class="st1" d="M146.6,26.5c-1.2,0.7-3,0.5-4.3-1.2c-0.3-0.4-0.5-0.8-0.7-1.2c-0.6-1.2-0.9-2.5-0.9-3.9c0-0.4,0-0.7,0.1-1.1
			c2,2.7,4.3,2.6,5.8,3.5c0.7,0.4,1.1,1.1,1.1,2C147.7,25.4,147.2,26.1,146.6,26.5z"/>
	</g>
	<g id="XMLID_1_">
		<path id="XMLID_97_" class="st0" d="M16.6,30.6c0.1-0.1,0.2-0.3,0.3-0.4c0.1-0.1,0.2-0.3,0.3-0.4h0.5l-0.7,0.8H16.6z"/>
		<g id="XMLID_2_">
			<g id="XMLID_23_">
				<g id="XMLID_66_">
					<path id="XMLID_95_" class="st0" d="M17.2,27.5H8.1c-0.1,0.6-0.5,1-1.2,1v-0.4c0.6,0,0.8-0.3,0.8-1v-2.3h0.4v2.3h9.1V27.5z"/>
					<path id="XMLID_92_" class="st0" d="M18.5,24l-0.3,0c0-0.2-0.1-0.3-0.3-0.3c-0.2,0-0.3,0.1-0.3,0.4c0,0.1,0,0.2,0.1,0.3h0.8
						v0.3h-1.4v-0.3h0.3c0-0.1,0-0.2,0-0.3c0-0.2,0-0.3,0.1-0.5c0.1-0.1,0.3-0.2,0.5-0.2C18.3,23.6,18.5,23.7,18.5,24z M18.5,25.1
						v1.4c0,0.7-0.3,1.1-0.9,1.1h-0.5v-0.4h0.4c0.2,0,0.4-0.1,0.5-0.3c0.1-0.1,0.1-0.3,0.1-0.6v-1.2H18.5z"/>
					<path id="XMLID_90_" class="st0" d="M19.8,27.5h-0.4v-3.9h0.4V27.5z"/>
					<path id="XMLID_87_" class="st0" d="M22.6,27.5h-1c-0.2,0.6-0.6,1-1.3,1v-0.4c0.6,0,0.8-0.3,0.8-1v-2.3h0.4v2.3h1V27.5z
						 M21.6,24.3h-0.4v-0.5h0.4V24.3z"/>
					<path id="XMLID_84_" class="st0" d="M27.3,27.5h-4.9v-0.4h3.7c0-0.1,0-0.2,0-0.2c0-1-0.5-1.6-1.5-1.6c-0.5,0-0.9,0.2-1.1,0.6
						c-0.1-0.1-0.2-0.2-0.4-0.4c0.3-0.4,0.8-0.6,1.5-0.6c1.2,0,2,0.8,2,2.1v0.2h0.7V27.5z M24.9,28.5h-0.4v-0.5h0.4V28.5z"/>
					<path id="XMLID_82_" class="st0" d="M28.6,23.6v2.9c0,0.7-0.3,1.1-0.9,1.1h-0.5v-0.4h0.4c0.3,0,0.4-0.1,0.5-0.3
						c0.1-0.1,0.1-0.3,0.1-0.6v-2.7H28.6z"/>
					<path id="XMLID_80_" class="st0" d="M29.8,27.5h-0.4v-3.9h0.4V27.5z"/>
					<path id="XMLID_78_" class="st0" d="M32.5,27.5h-0.7v-3.9h0.7V27.5z"/>
					<path id="XMLID_76_" class="st0" d="M35.5,27.5h-1.1c-0.1,0.6-0.7,1-1.5,1V28c0.6,0,0.8-0.3,0.8-0.9v-2.3h0.7v2.1h1V27.5z"/>
					<path id="XMLID_73_" class="st0" d="M44.4,26.4c0,0.7-0.3,1.1-1,1.1h-8.1v-0.7h8c0.2,0,0.4-0.1,0.4-0.2c0-0.1,0-0.2,0-0.4v-1.4
						h0.7V26.4z M44.4,28.9h-0.7v-0.7h0.7V28.9z"/>
					<path id="XMLID_70_" class="st0" d="M47.6,27.5c0,0.7-0.4,1.1-1.3,1.1V28c0.4,0,0.6-0.3,0.6-0.8c-0.1,0.2-0.3,0.3-0.6,0.3
						c-0.8,0-1.3-0.6-1.3-1.4c0-0.8,0.5-1.4,1.3-1.4c0.8,0,1.3,0.6,1.3,1.4V27.5z M46.9,26.2c0-0.5-0.3-0.8-0.6-0.8
						c-0.4,0-0.6,0.3-0.6,0.8c0,0.4,0.3,0.8,0.6,0.8C46.7,26.9,46.9,26.6,46.9,26.2z"/>
					<path id="XMLID_67_" class="st0" d="M49.1,23.3h-1V23h0.2c0-0.1-0.1-0.2-0.1-0.2c0-0.3,0.2-0.5,0.5-0.5c0.2,0,0.3,0.1,0.4,0.3
						l-0.2,0.1c0-0.1-0.1-0.1-0.2-0.1c-0.1,0-0.2,0.1-0.2,0.2c0,0.1,0,0.2,0.1,0.2h0.5V23.3z M48.9,27.5l-0.7,0v-3.9h0.7V27.5z"/>
				</g>
				<g id="XMLID_24_">
					<path id="XMLID_62_" class="st0" d="M6.8,33.1c0-0.3,0.1-0.6,0.2-0.8c0.1-0.3,0.3-0.5,0.5-0.7c0.2-0.2,0.4-0.4,0.7-0.5
						c0.3-0.1,0.5-0.2,0.9-0.2c0.3,0,0.6,0.1,0.8,0.2c0.3,0.1,0.5,0.3,0.7,0.5c0.2,0.2,0.4,0.4,0.5,0.7c0.1,0.3,0.2,0.5,0.2,0.8
						c0,0.3-0.1,0.6-0.2,0.9c-0.1,0.3-0.3,0.5-0.5,0.7c-0.2,0.2-0.4,0.4-0.7,0.5c-0.3,0.1-0.5,0.2-0.8,0.2c-0.3,0-0.6-0.1-0.9-0.2
						c-0.3-0.1-0.5-0.3-0.7-0.5c-0.2-0.2-0.4-0.4-0.5-0.7C6.9,33.7,6.8,33.4,6.8,33.1z M7.5,33.1c0,0.2,0,0.4,0.1,0.6
						c0.1,0.2,0.2,0.4,0.3,0.5c0.1,0.1,0.3,0.3,0.5,0.3c0.2,0.1,0.4,0.1,0.6,0.1c0.2,0,0.4,0,0.6-0.1c0.2-0.1,0.4-0.2,0.5-0.3
						c0.1-0.1,0.3-0.3,0.3-0.5c0.1-0.2,0.1-0.4,0.1-0.6c0-0.2,0-0.4-0.1-0.6c-0.1-0.2-0.2-0.4-0.3-0.5s-0.3-0.3-0.5-0.3
						c-0.2-0.1-0.4-0.1-0.6-0.1c-0.2,0-0.4,0-0.6,0.1C8.2,31.7,8,31.8,7.9,32c-0.1,0.1-0.3,0.3-0.3,0.5C7.5,32.7,7.5,32.9,7.5,33.1z
						"/>
					<path id="XMLID_59_" class="st0" d="M11.9,35.2v-4.3h1.2c0.2,0,0.4,0,0.6,0.1c0.2,0.1,0.3,0.1,0.5,0.3c0.1,0.1,0.2,0.3,0.3,0.4
						c0.1,0.2,0.1,0.4,0.1,0.6c0,0.2,0,0.3-0.1,0.5c-0.1,0.2-0.1,0.3-0.2,0.4c-0.1,0.1-0.3,0.2-0.5,0.3c-0.2,0.1-0.4,0.1-0.7,0.1
						h-0.6v1.5H11.9z M12.6,33.1h0.6c0.2,0,0.3,0,0.4-0.1c0.1-0.1,0.2-0.1,0.3-0.2c0.1-0.1,0.1-0.2,0.1-0.3c0-0.1,0-0.2,0-0.2
						c0-0.1,0-0.2,0-0.2c0-0.1-0.1-0.2-0.1-0.2c-0.1-0.1-0.1-0.1-0.3-0.2c-0.1-0.1-0.2-0.1-0.4-0.1h-0.6V33.1z"/>
					<path id="XMLID_57_" class="st0" d="M15.4,35.2v-4.3h2.8v0.6H16v1.3h1.9v0.6H16v1.3h2.3v0.6H15.4z"/>
					<path id="XMLID_52_" class="st0" d="M19,35.2v-4.3h1.2c0.2,0,0.4,0,0.6,0.1c0.2,0.1,0.3,0.1,0.5,0.3c0.1,0.1,0.2,0.3,0.3,0.4
						c0.1,0.2,0.1,0.4,0.1,0.6c0,0.1,0,0.2,0,0.4c0,0.1-0.1,0.2-0.1,0.3c-0.1,0.1-0.1,0.2-0.2,0.3c-0.1,0.1-0.2,0.2-0.3,0.2
						c0.2,0.2,0.3,0.5,0.5,0.8c0.2,0.3,0.4,0.6,0.6,0.9h-0.8c-0.1-0.1-0.2-0.3-0.2-0.4c-0.1-0.1-0.2-0.3-0.3-0.4
						c-0.1-0.1-0.2-0.3-0.2-0.4c-0.1-0.1-0.2-0.2-0.2-0.4h-0.1h-0.6v1.5H19z M19.7,33.1h0.6c0.2,0,0.3,0,0.4-0.1
						c0.1-0.1,0.2-0.1,0.3-0.2c0.1-0.1,0.1-0.2,0.1-0.3c0-0.1,0-0.2,0-0.2c0-0.1,0-0.2,0-0.2c0-0.1-0.1-0.2-0.1-0.2
						c-0.1-0.1-0.1-0.1-0.3-0.2c-0.1-0.1-0.2-0.1-0.4-0.1h-0.6V33.1z"/>
					<path id="XMLID_42_" class="st0" d="M25.4,35.2c0,0,0-0.1-0.1-0.2c0-0.1-0.1-0.2-0.1-0.3c0-0.1-0.1-0.2-0.1-0.4
						c-0.1-0.1-0.1-0.3-0.2-0.4h-1.5l-0.5,1.2h-0.6l1.9-4.5c0,0.1,0.1,0.2,0.1,0.3c0.1,0.1,0.1,0.3,0.2,0.5c0.1,0.2,0.2,0.4,0.3,0.7
						c0.1,0.2,0.2,0.5,0.3,0.7c0.1,0.3,0.2,0.5,0.3,0.7c0.1,0.2,0.2,0.5,0.3,0.7c0.1,0.2,0.2,0.4,0.2,0.5c0.1,0.1,0.1,0.2,0.1,0.3
						H25.4z M23.6,33.4h1.1c-0.1-0.1-0.1-0.3-0.2-0.4c0-0.1-0.1-0.2-0.1-0.3c0-0.1-0.1-0.2-0.1-0.3c0-0.1-0.1-0.1-0.1-0.2
						c0,0,0,0,0-0.1c0,0,0-0.1,0-0.1c0,0,0,0.1,0,0.1c0,0,0,0.1,0,0.1L23.6,33.4z"/>
					<path id="XMLID_39_" class="st0" d="M26.6,31h1c0.4,0,0.8,0.1,1.1,0.2c0.3,0.1,0.5,0.3,0.7,0.5c0.2,0.2,0.3,0.4,0.4,0.7
						c0.1,0.3,0.1,0.5,0.1,0.8c0,0.3-0.1,0.6-0.2,0.9c-0.1,0.3-0.3,0.5-0.5,0.7c-0.2,0.2-0.4,0.3-0.7,0.4c-0.3,0.1-0.5,0.1-0.8,0.1
						h-1.2V31z M27.8,34.8c0.2,0,0.5,0,0.7-0.1c0.2-0.1,0.4-0.2,0.6-0.3c0.2-0.1,0.3-0.3,0.4-0.5c0.1-0.2,0.1-0.5,0.1-0.7
						c0-0.2,0-0.5-0.1-0.7c-0.1-0.2-0.2-0.4-0.4-0.5c-0.2-0.2-0.3-0.3-0.6-0.4c-0.2-0.1-0.5-0.1-0.7-0.1h-0.7v3.5H27.8z"/>
					<path id="XMLID_37_" class="st0" d="M30.8,31.8l-0.2-0.1c0.1-0.1,0.1-0.2,0.2-0.3c0-0.1,0-0.2,0-0.4l0.2,0c0,0.2,0,0.3,0,0.5
						C30.9,31.6,30.9,31.7,30.8,31.8z"/>
					<path id="XMLID_34_" class="st0" d="M34.3,35.2c-0.1-0.2-0.2-0.4-0.3-0.7c-0.1-0.3-0.2-0.5-0.3-0.8H32
						c-0.1,0.3-0.2,0.6-0.3,0.8c-0.1,0.3-0.2,0.5-0.3,0.7H31c0.1-0.1,0.1-0.3,0.2-0.6c0.1-0.2,0.2-0.5,0.3-0.8
						c0.1-0.3,0.2-0.6,0.4-0.9c0.1-0.3,0.2-0.6,0.4-0.9c0.1-0.3,0.2-0.5,0.3-0.8c0.1-0.2,0.2-0.4,0.2-0.6c0.1,0.1,0.1,0.3,0.2,0.6
						c0.1,0.2,0.2,0.5,0.3,0.8c0.1,0.3,0.2,0.6,0.4,0.9c0.1,0.3,0.2,0.6,0.4,0.9c0.1,0.3,0.2,0.5,0.3,0.8c0.1,0.2,0.2,0.4,0.2,0.6
						H34.3z M32.8,31.8c-0.1,0.2-0.2,0.4-0.3,0.7c-0.1,0.3-0.2,0.6-0.3,0.8h1.4c-0.1-0.3-0.2-0.6-0.3-0.8c-0.1-0.3-0.2-0.5-0.3-0.7
						C32.9,31.8,32.9,31.8,32.8,31.8c0.1-0.1,0.1-0.2,0.1-0.2C32.8,31.7,32.8,31.7,32.8,31.8C32.8,31.8,32.8,31.8,32.8,31.8z"/>
					<path id="XMLID_32_" class="st0" d="M35.4,35.2V31h0.4v3.8H38v0.4H35.4z"/>
					<path id="XMLID_30_" class="st0" d="M41.5,33.3V35c-0.2,0.1-0.3,0.2-0.6,0.2c-0.2,0.1-0.4,0.1-0.6,0.1c-0.3,0-0.6-0.1-0.9-0.2
						c-0.3-0.1-0.5-0.3-0.7-0.4c-0.2-0.2-0.3-0.4-0.4-0.7c-0.1-0.3-0.2-0.5-0.2-0.8c0-0.3,0.1-0.6,0.2-0.9c0.1-0.3,0.3-0.5,0.5-0.7
						c0.2-0.2,0.4-0.4,0.7-0.5c0.3-0.1,0.5-0.2,0.8-0.2c0.2,0,0.4,0,0.6,0.1c0.2,0.1,0.4,0.1,0.6,0.2l-0.2,0.3
						c-0.1-0.1-0.3-0.1-0.5-0.2c-0.2,0-0.3-0.1-0.5-0.1c-0.2,0-0.5,0-0.7,0.1c-0.2,0.1-0.4,0.2-0.6,0.4c-0.2,0.2-0.3,0.4-0.4,0.6
						c-0.1,0.2-0.1,0.5-0.1,0.7c0,0.2,0,0.5,0.1,0.7c0.1,0.2,0.2,0.4,0.4,0.6c0.2,0.2,0.3,0.3,0.6,0.4c0.2,0.1,0.5,0.1,0.7,0.1
						c0.1,0,0.3,0,0.4,0c0.1,0,0.3-0.1,0.4-0.1v-1.1h-0.9v-0.4H41.5z"/>
					<path id="XMLID_28_" class="st0" d="M42.5,35.2V31h2.7v0.4h-2.3v1.5h2v0.4h-2v1.6h2.3v0.4H42.5z"/>
					<path id="XMLID_25_" class="st0" d="M46.2,35.2V31h1c0.2,0,0.3,0,0.5,0.1c0.2,0,0.3,0.1,0.4,0.2c0.1,0.1,0.2,0.2,0.3,0.4
						c0.1,0.2,0.1,0.3,0.1,0.6c0,0.2-0.1,0.5-0.2,0.7c-0.1,0.2-0.3,0.4-0.5,0.5c0,0.1,0.1,0.1,0.1,0.2c0.1,0.1,0.1,0.2,0.2,0.3
						c0.1,0.1,0.1,0.2,0.2,0.4c0.1,0.1,0.2,0.2,0.2,0.4c0.1,0.1,0.1,0.2,0.2,0.3c0.1,0.1,0.1,0.2,0.1,0.2h-0.5c0,0-0.1-0.1-0.1-0.2
						c-0.1-0.1-0.1-0.2-0.2-0.3c-0.1-0.1-0.1-0.2-0.2-0.3c-0.1-0.1-0.1-0.2-0.2-0.3c-0.1-0.1-0.1-0.2-0.2-0.3
						c-0.1-0.1-0.1-0.2-0.2-0.3c0,0-0.1,0-0.1,0c0,0-0.1,0-0.1,0h-0.6v1.7H46.2z M46.6,33.1h0.6c0.2,0,0.3,0,0.5-0.1
						c0.1-0.1,0.2-0.1,0.3-0.2c0.1-0.1,0.1-0.2,0.2-0.3c0-0.1,0-0.2,0-0.3c0-0.1,0-0.2-0.1-0.3c0-0.1-0.1-0.2-0.2-0.3
						c-0.1-0.1-0.2-0.1-0.3-0.2c-0.1,0-0.3-0.1-0.4-0.1h-0.6V33.1z"/>
				</g>
			</g>
			<g id="XMLID_3_">
				<path id="XMLID_22_" class="st0" d="M48.4,11.7c-0.1,0-0.1,0-0.2,0v8.4h0.7v-8.4C48.8,11.7,48.6,11.7,48.4,11.7z"/>
				<path id="XMLID_21_" class="st0" d="M45.9,12.3v7.9h0.7v-8.1C46.4,12.1,46.1,12.2,45.9,12.3z"/>
				<path id="XMLID_20_" class="st0" d="M43.6,12.9v7.3h0.7v-7.4C44,12.8,43.8,12.9,43.6,12.9z"/>
				<path id="XMLID_19_" class="st0" d="M41.2,13.3v6.9h0.7v-6.9C41.7,13.3,41.4,13.3,41.2,13.3z"/>
				<path id="XMLID_18_" class="st0" d="M39.4,13.1C39.2,13,39,13,38.8,12.9v7.3h0.7L39.4,13.1C39.5,13.1,39.4,13.1,39.4,13.1z"/>
				<path id="XMLID_17_" class="st0" d="M36.5,12.1v8.1h0.7v-7.8C36.9,12.3,36.7,12.2,36.5,12.1z"/>
				<path id="XMLID_16_" class="st0" d="M34.1,11.3v8.9h0.7v-8.6C34.6,11.4,34.3,11.4,34.1,11.3z"/>
				<path id="XMLID_15_" class="st0" d="M31.8,10.6v9.5h0.7v-9.4C32.2,10.7,31.9,10.6,31.8,10.6z"/>
				<path id="XMLID_14_" class="st0" d="M29.4,11v9.2h0.7v-9.3C29.8,10.9,29.6,10.9,29.4,11z"/>
				<path id="XMLID_13_" class="st0" d="M27,11.7v8.4h0.7v-8.6C27.5,11.6,27.3,11.7,27,11.7z"/>
				<path id="XMLID_12_" class="st0" d="M24.7,12.2v8h0.7v-8.1C25.1,12.1,24.9,12.2,24.7,12.2z"/>
				<path id="XMLID_11_" class="st0" d="M22.3,11.8v8.4H23v-8C22.8,12.1,22.6,11.9,22.3,11.8z"/>
				<path id="XMLID_10_" class="st0" d="M20,8.2v12h0.7V9.5C20.4,9.1,20.2,8.7,20,8.2z"/>
				<path id="XMLID_9_" class="st0" d="M17.6,4.2v16h0.7V5.1C18.1,4.7,17.9,4.4,17.6,4.2z"/>
				<path id="XMLID_8_" class="st0" d="M15.3,3.5l0,16.7H16V3.3C15.7,3.3,15.5,3.4,15.3,3.5z"/>
				<path id="XMLID_7_" class="st0" d="M12.9,8.1v12h0.7V6.1C13.4,6.7,13.1,7.4,12.9,8.1z"/>
				<path id="XMLID_6_" class="st0" d="M10.8,12.3c-0.1,0-0.1,0-0.2,0.1v7.8h0.7V12C11.1,12.1,10.9,12.2,10.8,12.3z"/>
				<path id="XMLID_5_" class="st0" d="M8.2,12.5v7.6h0.7v-7.7C8.6,12.5,8.4,12.5,8.2,12.5z"/>
				<path id="XMLID_4_" class="st0" d="M5.9,12.3v7.8h0.7v-7.7C6.3,12.4,6.1,12.4,5.9,12.3z"/>
			</g>
		</g>
	</g>
	<g>
		<defs>
			<rect id="SVGID_3_" x="177.6" y="3.3" width="79.5" height="33.7"/>
		</defs>
		<clipPath id="SVGID_4_">
			<use xlink:href="#SVGID_3_"  style="overflow:visible;"/>
		</clipPath>
		<path class="st4" d="M208.8,16.6V19c0,0.6,0.1,0.7,0.6,0.7h0.2v0.6h-3.5v-0.6h0.2c0.5,0,0.6-0.1,0.6-0.7v-4.5
			c0-0.6-0.1-0.7-0.6-0.7h-0.2v-0.5h4.3c0.6,0,1,0,1.2,0.2c0.4,0.2,0.7,0.7,0.7,1.5c0,1.1-0.4,1.7-1.1,1.7h-0.1l1.3,2.6
			c0.2,0.4,0.3,0.5,0.6,0.5h0.1v0.6h-2.4L208.8,16.6 M208.8,16.2h0.2c0.7,0,0.9-0.3,0.9-1.2c0-1-0.2-1.3-0.8-1.3c-0.1,0-0.2,0-0.3,0
			V16.2z"/>
		<path class="st4" d="M217.7,17.6h-1v-0.2c0-0.4-0.1-0.5-0.5-0.5h-0.2c-0.2,0-0.3,0.1-0.3,0.2v2c0,0.6,0.1,0.6,0.7,0.6h0.3
			c0.6,0,0.7-0.1,0.8-0.3c0.1-0.2,0.1-0.3,0.1-0.8v-0.4h1.1v2.1h-6v-0.6h0.2c0.5,0,0.6-0.1,0.6-0.7v-4.5c0-0.6-0.1-0.7-0.6-0.7h-0.2
			v-0.5h5.8v1.8h-1.1v-0.3c0-0.8-0.2-0.9-1-0.9h-0.2c-0.6,0-0.6,0.1-0.6,0.6v1.4c0,0.4,0,0.4,0.4,0.4h0.2c0.3,0,0.4-0.1,0.4-0.5
			v-0.2h1V17.6"/>
		<path class="st4" d="M223.1,20.3l-2.4-4.6V19c0,0.6,0.1,0.7,0.6,0.7h0.2v0.6h-2.3v-0.6h0.2c0.5,0,0.6-0.1,0.6-0.7v-4.5
			c0-0.6-0.1-0.7-0.6-0.7h-0.2v-0.5h2.6l2.6,4.8v-3.5c0-0.6-0.1-0.7-0.6-0.7h-0.2v-0.5h2.3v0.5h-0.2c-0.5,0-0.6,0.1-0.6,0.7v5.8
			H223.1"/>
		<path class="st4" d="M232.2,19.3c0.1,0.4,0.2,0.5,0.6,0.5h0.2v0.6h-3.6v-0.6h0.2c0.2,0,0.4-0.1,0.4-0.3c0-0.1,0-0.1-0.1-0.3
			l-0.3-1.2c-0.1-0.3-0.1-0.3-0.4-0.3h-1.3c-0.1,0-0.2,0.1-0.2,0.2l-0.4,1.3c0,0.1,0,0.2,0,0.2c0,0.2,0.1,0.2,0.3,0.2h0.3v0.6h-2.1
			v-0.6h0.2c0.4,0,0.4-0.1,0.6-0.7l1.4-4.7c0.1-0.2,0.1-0.2,0.1-0.3c0-0.3-0.1-0.3-0.5-0.3h-0.2v-0.6h3.1L232.2,19.3 M227.9,16.9
			c0,0.1,0,0.1,0,0.1c0,0.1,0.1,0.1,0.2,0.1h1c0.2,0,0.2,0,0.2-0.1c0,0,0-0.1,0-0.1l-0.7-2.5L227.9,16.9z"/>
		<path class="st4" d="M238.2,18.5c0,1.3-0.8,1.9-2.5,1.9c-1.9,0-2.8-0.6-2.8-2v-4c0-0.6-0.1-0.7-0.6-0.7h-0.1v-0.5h3.5v0.5h-0.2
			c-0.5,0-0.6,0.1-0.6,0.7v4c0,0.5,0,0.7,0.2,0.8c0.2,0.2,0.5,0.3,0.9,0.3c0.8,0,1.2-0.4,1.2-1.2v-4c0-0.6-0.1-0.7-0.6-0.7h-0.2
			v-0.5h2.2v0.5h-0.2c-0.5,0-0.6,0.1-0.6,0.7V18.5"/>
		<path class="st4" d="M244.8,20.3h-5.7v-0.6h0.2c0.5,0,0.6-0.1,0.6-0.7v-4.5c0-0.6-0.1-0.7-0.6-0.7h-0.2v-0.5h3.6v0.5h-0.2
			c-0.5,0-0.6,0.1-0.6,0.7v4.5c0,0.7,0.1,0.8,0.6,0.8h0.3c0.6,0,0.8-0.3,0.8-1v-0.5h1.1V20.3"/>
		<path class="st4" d="M250,13.2v2.1h-1.1V15c0-0.6,0-0.8-0.2-1c-0.1-0.1-0.3-0.2-0.4-0.2c-0.2,0-0.2,0.1-0.2,0.4V19
			c0,0.6,0.1,0.7,0.6,0.7h0.2v0.6h-3.6v-0.6h0.2c0.5,0,0.6-0.1,0.6-0.7v-4.9c0-0.3-0.1-0.4-0.3-0.4c-0.4,0-0.6,0.4-0.6,1.2v0.3H244
			v-2.1H250"/>
		<path class="st4" d="M214.3,21.4v2.1h-1.1v-0.3c0-0.6-0.1-0.8-0.2-1c-0.1-0.2-0.3-0.3-0.4-0.3c-0.2,0-0.2,0.1-0.2,0.4v4.9
			c0,0.6,0.1,0.7,0.6,0.7h0.2v0.6h-3.6v-0.6h0.2c0.5,0,0.6-0.1,0.6-0.7v-4.9c0-0.3,0-0.4-0.2-0.4c-0.4,0-0.6,0.4-0.6,1.2v0.4h-1.1
			v-2.1H214.3"/>
		<path class="st4" d="M227.5,26.7c0,1.3-0.8,1.9-2.5,1.9c-1.9,0-2.8-0.6-2.8-2v-4c0-0.7-0.1-0.7-0.6-0.7h-0.1v-0.5h3.5v0.5h-0.2
			c-0.5,0-0.6,0.1-0.6,0.7v4c0,0.5,0,0.7,0.2,0.8c0.2,0.2,0.5,0.3,0.9,0.3c0.8,0,1.2-0.4,1.2-1.2v-4c0-0.7-0.1-0.7-0.6-0.7h-0.2
			v-0.5h2.2v0.5H228c-0.5,0-0.5,0.1-0.5,0.7V26.7"/>
		<path class="st4" d="M234.1,23.4H233V23c0-0.8-0.4-1.3-1.1-1.3c-0.6,0-1,0.3-1.1,0.9c-0.1,0.4-0.1,1.1-0.1,2.3
			c0,0.7,0,1.5,0.1,1.9c0.1,0.9,0.4,1.3,1.2,1.3c0.8,0,1.1-0.4,1.1-1.5v-0.4h1.1v2c-0.7,0.3-1.5,0.4-2.4,0.4c-1.3,0-2.1-0.3-2.6-0.9
			c-0.4-0.5-0.6-1.4-0.6-2.9c0-2.7,0.8-3.6,3.3-3.6c0.8,0,1.2,0.1,2.2,0.3c0.1,0,0.1,0,0.2,0.1V23.4"/>
		<path class="st4" d="M240.8,27.5c0.1,0.3,0.2,0.4,0.5,0.4h0.1v0.6h-2.6l-1.2-2.9l-0.4,0.5v1.2c0,0.6,0.1,0.7,0.6,0.7h0.1v0.6h-3.5
			v-0.6h0.2c0.5,0,0.6-0.1,0.6-0.7v-4.5c0-0.7-0.1-0.7-0.6-0.7h-0.2v-0.5h3.5v0.5h-0.1c-0.5,0-0.6,0.1-0.6,0.7v2.1l1.8-2.4l0.1-0.1
			c0.1-0.1,0.1-0.2,0.1-0.2c0-0.1-0.1-0.1-0.2-0.1h-0.3v-0.6h2.2V22h-0.1c-0.4,0-0.5,0.1-0.9,0.6l-0.9,1.2L240.8,27.5"/>
		<path class="st4" d="M246.6,23.3h-1.1v-0.2c0-0.9-0.3-1.3-1.1-1.3c-0.6,0-0.9,0.3-0.9,1c0,0.6,0.2,0.8,1,1.1l0.4,0.1
			c1.6,0.6,2.1,1.1,2.1,2.3c0,0.8-0.2,1.3-0.6,1.7c-0.5,0.5-1.3,0.8-2.2,0.8c-0.7,0-1.1-0.1-2.2-0.5l-0.2-0.1v-1.8h1.1v0.3
			c0,1.1,0.3,1.5,1.1,1.5c0.7,0,1.1-0.4,1.1-1.1c0-0.8-0.2-1-1.5-1.4c-1.5-0.5-1.9-0.9-1.9-2.2c0-1.6,0.8-2.2,2.6-2.2
			c0.7,0,1.6,0.1,2.4,0.3V23.3"/>
		<path class="st4" d="M217.3,24.8v2.4c0,0.6,0.1,0.7,0.6,0.7h0.2v0.6h-3.5v-0.6h0.1c0.5,0,0.6-0.1,0.6-0.7v-4.5
			c0-0.7-0.1-0.7-0.6-0.7h-0.1v-0.6h4.3c0.6,0,0.9,0.1,1.2,0.2c0.4,0.2,0.6,0.7,0.6,1.5c0,1.2-0.4,1.8-1.1,1.8h-0.1l1.3,2.5
			c0.2,0.4,0.3,0.5,0.6,0.5h0.1v0.6h-2.4L217.3,24.8 M217.3,24.4h0.3c0.7,0,0.9-0.3,0.9-1.2c0-1-0.2-1.3-0.8-1.3h-0.3V24.4z"/>
		<path class="st5" d="M196.6,13.9c-0.1-0.1-0.2-0.3-0.2-0.3c-0.1-0.2-0.2-0.2-0.2-0.2l-3.6,0c-0.1,0-0.1,0-0.2,0.1l0,0
			c0,0-0.9,1.5-2.1,3.6c-0.6,1.2-1.9,3.6-2,3.8l3.3,0c0,0.2,0.8,1.8,2,3.9c0.2,0.3,0.3,0.6,0.4,0.8c-0.6,1.3-1.2,2.2-1.4,2.5
			c-0.1,0.2,0.1,0.2,0.3,0.2c0,0,1-1.4,2.1-3.5c1.2-2.1,2-3.7,2-3.9l3.2,0c0-0.2-0.7-1.6-1.8-3.5C197.5,15.4,196.9,14.4,196.6,13.9
			 M196.5,20.9C196.5,20.9,196.5,20.9,196.5,20.9c0,0.1-0.3,0.9-0.9,2.1c-0.6,1.2-1,2-1,2c0,0-0.1,0.1-0.1,0.1h0c0,0-0.1,0-0.1-0.1
			l0,0c0,0-0.4-0.9-1-2c-0.6-1.2-0.9-2-0.9-2c0,0,0,0,0,0h-0.8c0-0.2,0.8-1.8,2-3.9c1.1-2.1,2.1-3.5,2.1-3.5c0.2,0,0.4-0.1,0.3,0.2
			c-0.2,0.4-0.7,1.3-1.4,2.5c0.1,0.3,0.3,0.5,0.4,0.8c1.2,2.1,2,3.7,2,3.9H196.5z"/>
		<path class="st5" d="M193.6,18.9c-0.5,1-0.8,1.8-0.9,2c0.1,0.2,0.4,0.9,0.9,2c0.4,0.9,0.7,1.6,0.9,1.9c0.2-0.3,0.5-1,0.9-1.9
			c0.5-1,0.8-1.8,0.9-2c-0.1-0.2-0.4-0.9-0.9-2c-0.4-0.9-0.7-1.6-0.9-1.9C194.4,17.4,194,18,193.6,18.9"/>
		<path class="st5" d="M184.6,31.6h19.6V10.4h-19.6V31.6z M198.6,24.8c-1.1,2.1-2.1,3.6-2.1,3.6l0,0c-0.1,0.1-0.1,0.2-0.3,0.2
			l-3.6,0c-0.1,0-0.2,0-0.4-0.3c0-0.1-0.1-0.2-0.2-0.3c-0.3-0.5-0.9-1.5-2-3.5c-1.4-2.5-1.8-3.3-1.8-3.6c0-0.2,0.5-1.2,2-3.9
			c1.1-2.1,2.1-3.6,2.1-3.6l0,0c0.1-0.1,0.1-0.2,0.3-0.2l3.6,0c0.1,0,0.2,0,0.4,0.3c0,0.1,0.1,0.2,0.2,0.3c0.3,0.5,0.9,1.5,2,3.5
			c1.4,2.5,1.8,3.3,1.8,3.6C200.6,21.1,200.1,22.1,198.6,24.8"/>
	</g>
</g>
</svg>
