<?xml version="1.0" encoding="utf-8"?>
<!-- Generator: Adobe Illustrator 19.0.0, SVG Export Plug-In . SVG Version: 6.00 Build 0)  -->
<svg version="1.1" id="Calque_1" xmlns="http://www.w3.org/2000/svg" xmlns:xlink="http://www.w3.org/1999/xlink" x="0px" y="0px"
	 viewBox="-242.9 262.4 425.2 70.9" style="enable-background:new -242.9 262.4 425.2 70.9;" xml:space="preserve">
<style type="text/css">
	.st0{fill:#FFFFFF;}
</style>
<path id="XMLID_89_" class="st0" d="M-203.7,287.7v-4.1c0-1.9,1.3-2.4,2.2-2.4c0.9,0,5.7,0,5.7,0v-8.7h-7.8
	c-8.7,0-10.6,6.4-10.6,10.6v4.6h-5v6.1v4h5.1c0,11.5,0,25.3,0,25.3h10.1c0,0,0-14,0-25.3h7.5l0.3-4l0.6-6.1
	C-195.6,287.7-203.7,287.7-203.7,287.7z"/>
<path id="XMLID_85_" class="st0" d="M-158.9,298.2v21.9h10.4v-23.7v-6.1h-10.4V298.2z M-114.5,299.4c-0.7-5.6-3.3-9.2-10.9-9.2
	c-4.5,0-7.5,1.6-8.7,4h-0.1v-4h-8.3v5.7V320h8.7v-14.7c0-3.9,0.8-7.6,5.5-7.6c4.8,0,5.2,4.4,5.2,7.9v14.5h8.9v-16.4
	C-114.3,302.2-114.3,300.7-114.5,299.4L-114.5,299.4z M-153.7,275.4c-2.9,0-5.2,2.3-5.2,5.2s2.3,5.2,5.2,5.2s5.2-2.3,5.2-5.2
	S-150.9,275.4-153.7,275.4L-153.7,275.4z"/>
<path id="XMLID_84_" class="st0" d="M-40.5,282.4c-1.8,0.8-3.8,1.3-5.9,1.6c2.2-1.3,3.8-3.3,4.6-5.7c-2,1.2-4.3,2-6.6,2.5
	c-1.9-2-4.6-3.2-7.6-3.2c-5.7,0-10.4,4.6-10.4,10.2c0,0.8,0.1,1.6,0.3,2.3c-8.6-0.4-16.3-4.5-21.4-10.7c-0.9,1.5-1.4,3.3-1.4,5.1
	c0,3.6,1.9,6.7,4.6,8.5c-1.7,0-3.3-0.5-4.7-1.3c0,0.1,0,0.1,0,0.1c0,1.3,0.2,2.5,0.7,3.7c1.3,3.2,4.1,5.6,7.6,6.3
	c-0.9,0.2-1.8,0.4-2.7,0.4c-0.7,0-1.3-0.1-1.9-0.2c1.3,4.1,5.2,7,9.7,7.1c-3.6,2.7-8,4.4-12.9,4.4c-0.9,0-1.6-0.1-2.5-0.1
	c4.6,2.9,10.1,4.6,15.9,4.6c16.2,0,26.2-11.2,28.8-22.9c0.5-2.1,0.7-4.1,0.7-6.2c0-0.4,0-0.9,0-1.3
	C-43.6,286.2-41.8,284.4-40.5,282.4L-40.5,282.4z"/>
<g id="XMLID_76_">
	<path id="XMLID_81_" class="st0" d="M5.2,277c6.7,0,7.5,0,10.2,0.1c2.5,0.1,3.8,0.5,4.7,0.9c1.2,0.5,2,1,2.9,1.9
		c0.9,0.9,1.4,1.7,1.9,2.9c0.3,0.9,0.8,2.2,0.9,4.7c0.1,2.7,0.1,3.5,0.1,10.2s0,7.5-0.1,10.2c-0.1,2.5-0.5,3.8-0.9,4.7
		c-0.5,1.2-1,2-1.9,2.9c-0.9,0.9-1.7,1.4-2.9,1.9c-0.9,0.3-2.2,0.8-4.7,0.9c-2.7,0.1-3.5,0.1-10.2,0.1s-7.5,0-10.2-0.1
		c-2.5-0.1-3.8-0.5-4.7-0.9c-1.2-0.5-2-1-2.9-1.9c-0.9-0.9-1.4-1.7-1.9-2.9c-0.3-0.9-0.8-2.2-0.9-4.7c-0.1-2.7-0.1-3.5-0.1-10.2
		s0-7.5,0.1-10.2c0.1-2.5,0.5-3.8,0.9-4.7c0.5-1.2,1-2,1.9-2.9c0.9-0.9,1.7-1.4,2.9-1.9c0.9-0.3,2.2-0.8,4.7-0.9
		C-2.3,277-1.5,277,5.2,277 M5.2,272.5c-6.9,0-7.7,0-10.4,0.2c-2.7,0.1-4.5,0.5-6.1,1.2c-1.7,0.6-3.1,1.5-4.5,2.9s-2.3,2.8-2.9,4.5
		c-0.6,1.6-1.1,3.4-1.2,6.1c-0.1,2.7-0.2,3.6-0.2,10.4c0,6.9,0,7.7,0.2,10.4c0.1,2.7,0.5,4.5,1.2,6.1c0.6,1.7,1.5,3.1,2.9,4.5
		s2.8,2.3,4.5,2.9c1.6,0.6,3.4,1.1,6.1,1.2s3.6,0.2,10.4,0.2s7.7,0,10.4-0.2c2.7-0.1,4.5-0.5,6.1-1.2c1.7-0.6,3.1-1.5,4.5-2.9
		s2.3-2.8,2.9-4.5c0.6-1.6,1.1-3.4,1.2-6.1s0.2-3.6,0.2-10.4c0-6.8,0-7.7-0.2-10.4c-0.1-2.7-0.5-4.5-1.2-6.1
		c-0.6-1.7-1.5-3.1-2.9-4.5s-2.8-2.3-4.5-2.9c-1.6-0.6-3.4-1.1-6.1-1.2C13,272.5,12.1,272.5,5.2,272.5L5.2,272.5z"/>
	<path id="XMLID_78_" class="st0" d="M5.2,284.8c-7.2,0-13,5.8-13,13c0,7.2,5.8,13,13,13s13-5.8,13-13
		C18.2,290.6,12.4,284.8,5.2,284.8z M5.2,306.2c-4.7,0-8.4-3.8-8.4-8.4c0-4.7,3.8-8.4,8.4-8.4c4.7,0,8.4,3.8,8.4,8.4
		C13.7,302.4,9.9,306.2,5.2,306.2z"/>
	<circle id="XMLID_77_" class="st0" cx="18.7" cy="284.2" r="3"/>
</g>
<path id="XMLID_73_" class="st0" d="M102.2,284.5c-0.6-2.4-2.5-4.2-4.8-4.9c-4.3-1.2-21.4-1.2-21.4-1.2s-17.1,0-21.4,1.2
	c-2.4,0.6-4.2,2.5-4.8,4.9c-1.1,4.3-1.1,13.3-1.1,13.3s0,9,1.1,13.3c0.6,2.4,2.5,4.2,4.8,4.9c4.3,1.2,21.4,1.2,21.4,1.2
	s17.1,0,21.4-1.2c2.4-0.6,4.2-2.5,4.8-4.9c1.1-4.3,1.1-13.3,1.1-13.3S103.4,288.8,102.2,284.5z M70.4,305.9v-16.3l14.3,8.1
	L70.4,305.9z"/>
<path class="st0" d="M146.9,272.4c-14,0-25.3,10.5-25.3,23.5c0,7.4,3.7,14,9.4,18.3v9l8.6-4.8c2.3,0.6,4.7,1,7.2,1
	c14,0,25.3-10.5,25.3-23.5S160.8,272.4,146.9,272.4z M149.4,304.1l-6.4-6.9l-12.6,6.9l13.8-14.8l6.6,6.9l12.4-6.9L149.4,304.1z"/>
</svg>
