<?xml version="1.0" encoding="utf-8"?>
<!-- Generator: Adobe Illustrator 19.0.0, SVG Export Plug-In . SVG Version: 6.00 Build 0)  -->
<svg version="1.1" id="Calque_1" xmlns="http://www.w3.org/2000/svg" xmlns:xlink="http://www.w3.org/1999/xlink" x="0px" y="0px"
	 viewBox="-84 386 425.2 70.9" style="enable-background:new -84 386 425.2 70.9;" xml:space="preserve">
<style type="text/css">
	.st0{fill:url(#XMLID_2_);}
	.st1{fill:url(#XMLID_3_);}
	.st2{fill:url(#XMLID_4_);}
	.st3{fill:url(#XMLID_5_);}
	.st4{fill:url(#XMLID_6_);}
	.st5{fill:url(#XMLID_7_);}
	.st6{fill:url(#XMLID_8_);}
	.st7{fill:url(#SVGID_1_);}
</style>
<g>
	<linearGradient id="XMLID_2_" gradientUnits="userSpaceOnUse" x1="-63.7941" y1="437.9958" x2="-29.3442" y2="403.5458">
		<stop  offset="0" style="stop-color:#8F72EB"/>
		<stop  offset="1" style="stop-color:#24A7BA"/>
	</linearGradient>
	<path id="XMLID_89_" class="st0" d="M-44.7,411.3v-4.1c0-1.9,1.3-2.4,2.2-2.4s5.7,0,5.7,0v-8.7h-7.8c-8.7,0-10.6,6.4-10.6,10.6v4.6
		h-5v6.1v4h5.1c0,11.5,0,25.3,0,25.3h10.1c0,0,0-14,0-25.3h7.5l0.3-4l0.6-6.1C-36.6,411.3-44.7,411.3-44.7,411.3z"/>
	<linearGradient id="XMLID_3_" gradientUnits="userSpaceOnUse" x1="0.9062" y1="444.4963" x2="35.3768" y2="410.0257">
		<stop  offset="0" style="stop-color:#8F72EB"/>
		<stop  offset="1" style="stop-color:#24A7BA"/>
	</linearGradient>
	<path id="XMLID_85_" class="st1" d="M0.1,421.8v21.9h10.4V420v-6.1H0.1V421.8z M44.5,423c-0.7-5.6-3.3-9.2-10.9-9.2
		c-4.5,0-7.5,1.6-8.7,4h-0.1v-4h-8.3v5.7v24.1h8.7v-14.7c0-3.9,0.8-7.6,5.5-7.6c4.8,0,5.2,4.4,5.2,7.9v14.5h8.9v-16.4
		C44.7,425.8,44.7,424.3,44.5,423L44.5,423z M5.3,399c-2.9,0-5.2,2.3-5.2,5.2s2.3,5.2,5.2,5.2s5.2-2.3,5.2-5.2S8.1,399,5.3,399
		L5.3,399z"/>
	<linearGradient id="XMLID_4_" gradientUnits="userSpaceOnUse" x1="68.6801" y1="437.67" x2="110.8301" y2="395.5201">
		<stop  offset="0" style="stop-color:#8F72EB"/>
		<stop  offset="1" style="stop-color:#24A7BA"/>
	</linearGradient>
	<path id="XMLID_84_" class="st2" d="M118.5,406c-1.8,0.8-3.8,1.3-5.9,1.6c2.2-1.3,3.8-3.3,4.6-5.7c-2,1.2-4.3,2-6.6,2.5
		c-1.9-2-4.6-3.2-7.6-3.2c-5.7,0-10.4,4.6-10.4,10.2c0,0.8,0.1,1.6,0.3,2.3c-8.6-0.4-16.3-4.5-21.4-10.7c-0.9,1.5-1.4,3.3-1.4,5.1
		c0,3.6,1.9,6.7,4.6,8.5c-1.7,0-3.3-0.5-4.7-1.3c0,0.1,0,0.1,0,0.1c0,1.3,0.2,2.5,0.7,3.7c1.3,3.2,4.1,5.6,7.6,6.3
		c-0.9,0.2-1.8,0.4-2.7,0.4c-0.7,0-1.3-0.1-1.9-0.2c1.3,4.1,5.2,7,9.7,7.1c-3.6,2.7-8,4.4-12.9,4.4c-0.9,0-1.6-0.1-2.5-0.1
		c4.6,2.9,10.1,4.6,15.9,4.6c16.2,0,26.2-11.2,28.8-22.9c0.5-2.1,0.7-4.1,0.7-6.2c0-0.4,0-0.9,0-1.3
		C115.4,409.8,117.2,408,118.5,406L118.5,406z"/>
	<g id="XMLID_76_">
		<linearGradient id="XMLID_5_" gradientUnits="userSpaceOnUse" x1="143.25" y1="442.4401" x2="185.25" y2="400.4401">
			<stop  offset="0" style="stop-color:#8F72EB"/>
			<stop  offset="1" style="stop-color:#24A7BA"/>
		</linearGradient>
		<path id="XMLID_81_" class="st3" d="M164.3,400.6c6.7,0,7.5,0,10.2,0.1c2.5,0.1,3.8,0.5,4.7,0.9c1.2,0.5,2,1,2.9,1.9
			c0.9,0.9,1.4,1.7,1.9,2.9c0.3,0.9,0.8,2.2,0.9,4.7c0.1,2.7,0.1,3.5,0.1,10.2s0,7.5-0.1,10.2c-0.1,2.5-0.5,3.8-0.9,4.7
			c-0.5,1.2-1,2-1.9,2.9c-0.9,0.9-1.7,1.4-2.9,1.9c-0.9,0.3-2.2,0.8-4.7,0.9c-2.7,0.1-3.5,0.1-10.2,0.1c-6.7,0-7.5,0-10.2-0.1
			c-2.5-0.1-3.8-0.5-4.7-0.9c-1.2-0.5-2-1-2.9-1.9s-1.4-1.7-1.9-2.9c-0.3-0.9-0.8-2.2-0.9-4.7c-0.1-2.7-0.1-3.5-0.1-10.2
			s0-7.5,0.1-10.2c0.1-2.5,0.5-3.8,0.9-4.7c0.5-1.2,1-2,1.9-2.9s1.7-1.4,2.9-1.9c0.9-0.3,2.2-0.8,4.7-0.9
			C156.8,400.6,157.5,400.6,164.3,400.6 M164.3,396.1c-6.9,0-7.7,0-10.4,0.2c-2.7,0.1-4.5,0.5-6.1,1.2c-1.7,0.6-3.1,1.5-4.5,2.9
			c-1.4,1.4-2.3,2.8-2.9,4.5c-0.6,1.6-1.1,3.4-1.2,6.1c-0.1,2.7-0.2,3.6-0.2,10.4c0,6.9,0,7.7,0.2,10.4c0.1,2.7,0.5,4.5,1.2,6.1
			c0.6,1.7,1.5,3.1,2.9,4.5c1.4,1.4,2.8,2.3,4.5,2.9c1.6,0.6,3.4,1.1,6.1,1.2c2.7,0.1,3.6,0.2,10.4,0.2c6.8,0,7.7,0,10.4-0.2
			c2.7-0.1,4.5-0.5,6.1-1.2c1.7-0.6,3.1-1.5,4.5-2.9c1.4-1.4,2.3-2.8,2.9-4.5c0.6-1.6,1.1-3.4,1.2-6.1c0.1-2.7,0.2-3.6,0.2-10.4
			s0-7.7-0.2-10.4c-0.1-2.7-0.5-4.5-1.2-6.1c-0.6-1.7-1.5-3.1-2.9-4.5c-1.4-1.4-2.8-2.3-4.5-2.9c-1.6-0.6-3.4-1.1-6.1-1.2
			C172,396.1,171.1,396.1,164.3,396.1L164.3,396.1z"/>
		<linearGradient id="XMLID_6_" gradientUnits="userSpaceOnUse" x1="155.05" y1="430.64" x2="173.45" y2="412.24">
			<stop  offset="0" style="stop-color:#8F72EB"/>
			<stop  offset="1" style="stop-color:#24A7BA"/>
		</linearGradient>
		<path id="XMLID_78_" class="st4" d="M164.3,408.4c-7.2,0-13,5.8-13,13s5.8,13,13,13c7.2,0,13-5.8,13-13S171.4,408.4,164.3,408.4z
			 M164.3,429.8c-4.7,0-8.4-3.8-8.4-8.4c0-4.7,3.8-8.4,8.4-8.4c4.7,0,8.4,3.8,8.4,8.4C172.7,426,168.9,429.8,164.3,429.8z"/>
		<linearGradient id="XMLID_7_" gradientUnits="userSpaceOnUse" x1="175.6287" y1="409.9614" x2="179.8713" y2="405.7187">
			<stop  offset="0" style="stop-color:#8F72EB"/>
			<stop  offset="1" style="stop-color:#24A7BA"/>
		</linearGradient>
		<circle id="XMLID_77_" class="st5" cx="177.7" cy="407.8" r="3"/>
	</g>
	<linearGradient id="XMLID_8_" gradientUnits="userSpaceOnUse" x1="214.6375" y1="441.8525" x2="255.4625" y2="401.0275">
		<stop  offset="0" style="stop-color:#8F72EB"/>
		<stop  offset="1" style="stop-color:#24A7BA"/>
	</linearGradient>
	<path id="XMLID_73_" class="st6" d="M261.3,408.1c-0.6-2.4-2.5-4.2-4.8-4.9C252.1,402,235,402,235,402s-17.1,0-21.4,1.2
		c-2.4,0.6-4.2,2.5-4.8,4.9c-1.1,4.3-1.1,13.3-1.1,13.3s0,9,1.1,13.3c0.6,2.4,2.5,4.2,4.8,4.9c4.3,1.2,21.4,1.2,21.4,1.2
		s17.1,0,21.4-1.2c2.4-0.6,4.2-2.5,4.8-4.9c1.1-4.3,1.1-13.3,1.1-13.3S262.4,412.4,261.3,408.1z M229.4,429.5v-16.3l14.3,8.1
		L229.4,429.5z"/>
	<linearGradient id="SVGID_1_" gradientUnits="userSpaceOnUse" x1="284.325" y1="441.1151" x2="323.1546" y2="402.2854">
		<stop  offset="0" style="stop-color:#8F72EB"/>
		<stop  offset="1" style="stop-color:#24A7BA"/>
	</linearGradient>
	<path class="st7" d="M305.9,396c-14,0-25.3,10.5-25.3,23.5c0,7.4,3.7,14,9.4,18.3v9l8.6-4.8c2.3,0.6,4.7,1,7.2,1
		c14,0,25.3-10.5,25.3-23.5S319.8,396,305.9,396z M308.4,427.7l-6.4-6.9l-12.6,6.9l13.8-14.8l6.6,6.9l12.4-6.9L308.4,427.7z"/>
</g>
</svg>
