<?xml version="1.0" encoding="utf-8"?>
<!-- Generator: Adobe Illustrator 23.0.3, SVG Export Plug-In . SVG Version: 6.00 Build 0)  -->
<svg version="1.1" id="Calque_1" xmlns="http://www.w3.org/2000/svg" xmlns:xlink="http://www.w3.org/1999/xlink" x="0px" y="0px"
	 viewBox="0 0 20 19.9" style="enable-background:new 0 0 20 19.9;" xml:space="preserve">
<style type="text/css">
	.st0{fill:#707070;}
</style>
<title>SEARCH</title>
<g>
	<path class="st0" d="M19.7,18.3L16,14.6c3.1-3.9,2.5-9.5-1.4-12.7S5.1-0.5,2,3.4S-0.5,12.9,3.4,16c3.3,2.6,8,2.6,11.3,0l3.7,3.7
		c0.4,0.4,1.1,0.3,1.4-0.1C20,19.2,20,18.7,19.7,18.3L19.7,18.3z M2,9c0-3.9,3.1-7,7-7c3.9,0,7,3.1,7,7c0,1.9-0.7,3.6-2.1,4.9l0,0
		c-2.7,2.7-7.2,2.7-9.9,0C2.8,12.7,2,10.9,2,9z"/>
</g>
</svg>
