<?xml version="1.0" encoding="utf-8"?>
<!-- Generator: Adobe Illustrator 19.0.0, SVG Export Plug-In . SVG Version: 6.00 Build 0)  -->
<svg version="1.1" id="Capa_1" xmlns="http://www.w3.org/2000/svg" xmlns:xlink="http://www.w3.org/1999/xlink" x="0px" y="0px"
	 viewBox="-41 164.9 512 512" style="enable-background:new -41 164.9 512 512;" xml:space="preserve">
<style type="text/css">
	.st0{fill:#19AAD6;}
</style>
<g>
	<g>
		<path class="st0" d="M396.2,364.5h-83.5c-10.9,0-19.7,8.9-19.7,19.7s8.9,19.7,19.7,19.7h63.5v233.5H53.9V403.9h70
			c10.9,0,19.7-8.9,19.7-19.7s-8.9-19.7-19.7-19.7H33.8c-10.9,0-19.4,9.9-19.4,20.7v273.6c0,10.9,8.6,18.1,19.4,18.1h362.4
			c10.9,0,19.4-7.2,19.4-18.1V385.2C415.6,374.3,407.1,364.5,396.2,364.5z"/>
		<path class="st0" d="M211.7,512.5c10.9,0,19.7-8.9,19.7-19.7V225.4l84.2,75c3.6,3.3,8.6,4.9,13.2,4.9c5.6,0,10.9-2.3,14.8-6.6
			c7.2-8.2,6.6-20.7-1.6-28l-113.5-101c-7.2-6.2-17.8-6.6-25.3-0.7c-3.6,1.6-6.6,4.6-8.6,7.9l-98.3,94.4c-7.9,7.6-8.2,20.1-0.7,28
			c7.6,7.9,20.1,8.2,28,0.7l68.4-65.8v258.5C192,503.6,200.9,512.5,211.7,512.5z"/>
	</g>
</g>
</svg>
