<?xml version="1.0" encoding="utf-8"?>
<!-- Generator: Adobe Illustrator 19.0.0, SVG Export Plug-In . SVG Version: 6.00 Build 0)  -->
<svg version="1.1" id="Calque_1" xmlns="http://www.w3.org/2000/svg" xmlns:xlink="http://www.w3.org/1999/xlink" x="0px" y="0px"
	 viewBox="0 0 260.8 260.8" style="enable-background:new 0 0 260.8 260.8;" xml:space="preserve">
<style type="text/css">
	.st0{fill:#1B1D76;}
	.st1{clip-path:url(#SVGID_2_);fill-rule:evenodd;clip-rule:evenodd;fill:#4B9FA2;}
	.st2{clip-path:url(#SVGID_2_);fill-rule:evenodd;clip-rule:evenodd;fill:#FAD442;}
	.st3{clip-path:url(#SVGID_2_);fill-rule:evenodd;clip-rule:evenodd;fill:#306DB2;}
	.st4{clip-path:url(#SVGID_2_);fill-rule:evenodd;clip-rule:evenodd;fill:#35368B;}
	.st5{clip-path:url(#SVGID_2_);fill-rule:evenodd;clip-rule:evenodd;fill:#F3A932;}
	.st6{clip-path:url(#SVGID_2_);fill-rule:evenodd;clip-rule:evenodd;fill:#EB7525;}
	.st7{clip-path:url(#SVGID_2_);fill-rule:evenodd;clip-rule:evenodd;fill:#E42E18;}
	.st8{clip-path:url(#SVGID_2_);fill-rule:evenodd;clip-rule:evenodd;fill:#76B733;}
	.st9{clip-path:url(#SVGID_2_);fill:#FFFFFF;}
</style>
<circle class="st0" cx="130.4" cy="130.4" r="130.4"/>
<g>
	<defs>
		<rect id="SVGID_1_" x="16.2" y="15.5" width="223.1" height="229.7"/>
	</defs>
	<clipPath id="SVGID_2_">
		<use xlink:href="#SVGID_1_"  style="overflow:visible;"/>
	</clipPath>
	<path class="st1" d="M65.8,99.8c-1.1,2.3-2.1,4.7-2.9,7.1c2.5,0.9,5,1.7,7.5,2.6c0.7-2.2,1.6-4.3,2.6-6.3
		C70.6,102.1,68.2,101,65.8,99.8"/>
	<path class="st2" d="M221.9,114.4c-0.2-1.3-0.4-2.6-0.7-3.9c-1.3,0.3-2.7,0.7-4,1c0.3,1.2,0.5,2.3,0.7,3.5
		C219.2,114.8,220.5,114.6,221.9,114.4"/>
	<path class="st2" d="M236.7,132.8c-0.3-2-0.6-3.9-1.1-5.9c-2,0.5-4,1-6,1.5c0.4,1.7,0.7,3.5,1,5.2
		C232.7,133.3,234.7,133.1,236.7,132.8"/>
	<path class="st2" d="M206.9,126c-0.3-2-0.6-3.9-1.1-5.9c-2,0.5-4,1-6,1.5c0.4,1.7,0.7,3.5,1,5.2C202.9,126.5,204.9,126.3,206.9,126
		"/>
	<path class="st1" d="M32.7,84.3c-1.6,3.5-3.1,7.1-4.4,10.7c2.5,0.9,5,1.7,7.5,2.6c1.2-3.4,2.5-6.7,4-9.9
		C37.5,86.6,35.1,85.4,32.7,84.3"/>
	<path class="st3" d="M78.8,57.9c-2.6,1.9-5.1,3.9-7.5,6.1c1.8,2,3.6,3.9,5.4,5.9c2.2-2,4.5-3.8,6.8-5.6
		C82,62.2,80.4,60.1,78.8,57.9"/>
	<path class="st3" d="M86.1,67.9c-2.3,1.6-4.4,3.4-6.5,5.3c1.8,2,3.6,3.9,5.4,5.9c1.9-1.7,3.8-3.3,5.8-4.8
		C89.2,72.2,87.6,70,86.1,67.9"/>
	<path class="st3" d="M93.3,77.8c-1.9,1.4-3.7,2.9-5.5,4.5c1.8,2,3.6,3.9,5.4,5.9c1.5-1.4,3.1-2.7,4.8-3.9
		C96.5,82.1,94.9,79.9,93.3,77.8"/>
	<path class="st3" d="M71.6,48c-3,2.2-5.8,4.5-8.5,6.9c1.8,2,3.6,3.9,5.4,5.9c2.5-2.3,5.1-4.4,7.9-6.4C74.7,52.3,73.2,50.2,71.6,48"
		/>
	<path class="st3" d="M64.4,38.1c-3.3,2.4-6.5,5-9.5,7.8c1.8,2,3.6,3.9,5.4,5.9c2.8-2.6,5.8-5,8.9-7.2
		C67.5,42.4,65.9,40.2,64.4,38.1"/>
	<path class="st3" d="M105.2,44.6c-3.1,1-6.1,2.1-9,3.4c1.1,2.4,2.1,4.9,3.2,7.3c2.7-1.2,5.4-2.2,8.2-3.1
		C106.8,49.7,106,47.2,105.2,44.6"/>
	<path class="st3" d="M108.9,56.4c0.8,2.5,1.6,5.1,2.4,7.6c-2.4,0.7-4.7,1.6-7,2.6c-1.1-2.4-2.1-4.9-3.2-7.3
		C103.6,58.2,106.2,57.2,108.9,56.4"/>
	<path class="st3" d="M112.5,68.1c-2.2,0.7-4.4,1.5-6.6,2.5c1.1,2.4,2.1,4.9,3.2,7.3c1.9-0.8,3.8-1.5,5.8-2.2
		C114.1,73.2,113.3,70.6,112.5,68.1"/>
	<path class="st3" d="M101.5,32.9c0.8,2.5,1.6,5.1,2.4,7.6c-3.2,1-6.4,2.2-9.4,3.5c-1.1-2.4-2.1-4.9-3.2-7.3
		C94.6,35.3,98,34,101.5,32.9"/>
	<path class="st3" d="M97.8,21.2c-3.9,1.2-7.7,2.6-11.4,4.3c1.1,2.4,2.1,4.9,3.2,7.3c3.5-1.5,7-2.8,10.7-4
		C99.4,26.3,98.6,23.7,97.8,21.2"/>
	<path class="st3" d="M63,63.3c-0.1,0.1-0.6,0.6-0.7,0.7c-2.1,2.2-4.1,4.5-6,6.9c2.1,1.7,4.2,3.3,6.3,5c1.8-2.2,3.6-4.3,5.5-6.3
		c0.1-0.1,0.5-0.5,0.6-0.7C66.8,67,64.9,65.1,63,63.3"/>
	<path class="st3" d="M71.8,71.9c-0.1,0.1-0.5,0.5-0.6,0.6c-1.9,2-3.6,3.9-5.3,6c2.1,1.7,4.2,3.3,6.3,5c1.5-1.9,3.1-3.7,4.8-5.5
		c0.1-0.1,0.4-0.5,0.5-0.6C75.6,75.6,73.7,73.7,71.8,71.9"/>
	<path class="st3" d="M80.6,80.5c-0.1,0.1-0.4,0.5-0.5,0.5c-1.6,1.7-3,3.3-4.5,5.1c2.1,1.7,4.2,3.3,6.3,5c1.3-1.6,2.6-3.1,4-4.6
		c0-0.1,0.4-0.4,0.5-0.5C84.4,84.2,82.5,82.3,80.6,80.5"/>
	<path class="st3" d="M54.5,54.9c-0.2,0.2-0.6,0.7-0.8,0.8c-2.4,2.5-4.6,5-6.8,7.8c2.1,1.7,4.2,3.3,6.3,5c2-2.5,4-4.9,6.3-7.2
		c0.1-0.1,0.6-0.6,0.7-0.7C58.3,58.6,56.4,56.8,54.5,54.9"/>
	<path class="st3" d="M88.6,44.6c-3.1,1.5-6.1,3.3-8.9,5.1c1.4,2.2,2.9,4.5,4.3,6.7c2.6-1.7,5.4-3.3,8.2-4.7
		C91,49.3,89.8,47,88.6,44.6"/>
	<path class="st3" d="M94.2,55.6c-2.7,1.3-5.3,2.8-7.8,4.5c1.4,2.2,2.9,4.5,4.3,6.7c2.3-1.5,4.6-2.8,7.1-4.1
		C96.6,60.3,95.4,57.9,94.2,55.6"/>
	<path class="st3" d="M99.7,66.5c1.2,2.4,2.4,4.8,3.6,7.1c-2,1-4,2.2-5.9,3.4c-1.4-2.2-2.9-4.5-4.3-6.7C95.2,69,97.4,67.7,99.7,66.5
		"/>
	<path class="st3" d="M83.2,33.9c1.2,2.4,2.4,4.8,3.6,7.1c-3.2,1.6-6.3,3.4-9.3,5.3c-1.4-2.2-2.9-4.5-4.3-6.7
		C76.4,37.5,79.8,35.6,83.2,33.9"/>
	<path class="st4" d="M134.2,40.1c-3.2-0.1-6.4,0-9.6,0.2c0.2,2.7,0.4,5.3,0.6,8c2.9-0.2,5.9-0.3,8.8-0.2
		C134,45.5,134.1,42.8,134.2,40.1"/>
	<path class="st4" d="M133.8,52.4c-0.1,2.7-0.2,5.3-0.3,8c-2.5-0.1-5,0-7.5,0.2l-0.6-8C128.2,52.4,131,52.3,133.8,52.4"/>
	<path class="st4" d="M133.4,64.7c-2.3-0.1-4.7,0-7,0.1c0.2,2.7,0.4,5.3,0.6,8c2.1-0.2,4.1-0.2,6.2-0.1
		C133.2,70,133.3,67.3,133.4,64.7"/>
	<path class="st4" d="M134.6,27.9c-0.1,2.7-0.2,5.3-0.3,8c-3.4-0.1-6.7,0-10.1,0.2c-0.2-2.7-0.4-5.3-0.6-8
		C127.3,27.8,130.9,27.7,134.6,27.9"/>
	<path class="st4" d="M134.9,15.6c-4.1-0.1-8.2,0-12.2,0.3c0.2,2.7,0.4,5.3,0.6,8c3.8-0.3,7.6-0.4,11.4-0.2
		C134.8,20.9,134.9,18.2,134.9,15.6"/>
	<path class="st4" d="M118.6,34.6c-3.4,0.4-6.8,1.1-10.1,1.9c0.6,2.6,1.2,5.2,1.9,7.8c3.1-0.7,6.2-1.3,9.3-1.7
		C119.3,39.9,118.9,37.3,118.6,34.6"/>
	<path class="st4" d="M120.2,46.8c-3,0.4-5.9,0.9-8.8,1.6c0.6,2.6,1.3,5.2,1.9,7.8c2.6-0.6,5.3-1.1,8-1.5
		C120.9,52.1,120.5,49.4,120.2,46.8"/>
	<path class="st4" d="M121.8,59c0.3,2.6,0.7,5.3,1,7.9c-2.3,0.3-4.5,0.7-6.7,1.3c-0.6-2.6-1.2-5.2-1.9-7.8
		C116.7,59.8,119.2,59.3,121.8,59"/>
	<path class="st4" d="M117,22.8c0.3,2.6,0.7,5.3,1,7.9c-3.5,0.5-7.1,1.1-10.5,2c-0.6-2.6-1.3-5.2-1.9-7.8
		C109.4,24,113.2,23.3,117,22.8"/>
	<path class="st4" d="M163.2,47.3c-3-1.1-6.1-2-9.2-2.7c-0.6,2.6-1.2,5.2-1.8,7.8c2.9,0.7,5.7,1.5,8.4,2.5
		C161.4,52.4,162.3,49.9,163.2,47.3"/>
	<path class="st4" d="M159.1,58.9c-0.9,2.5-1.8,5-2.7,7.5c-2.4-0.8-4.8-1.5-7.2-2.1c0.6-2.6,1.2-5.2,1.8-7.8
		C153.8,57.2,156.5,58,159.1,58.9"/>
	<path class="st4" d="M155,70.5c-2.2-0.8-4.5-1.4-6.7-2c-0.6,2.6-1.2,5.2-1.8,7.8c2,0.5,4,1.1,5.9,1.7C153.2,75.5,154.1,73,155,70.5
		"/>
	<path class="st4" d="M167.3,35.8c-0.9,2.5-1.8,5-2.7,7.5c-3.2-1.1-6.4-2.1-9.7-2.8c0.6-2.6,1.2-5.2,1.8-7.8
		C160.3,33.5,163.8,34.5,167.3,35.8"/>
	<path class="st4" d="M171.3,24.2c-3.8-1.4-7.8-2.5-11.7-3.4c-0.6,2.6-1.2,5.2-1.8,7.8c3.7,0.9,7.3,2,10.9,3.2
		C169.6,29.2,170.5,26.7,171.3,24.2"/>
	<path class="st4" d="M150,37.4c-3.4-0.6-6.8-1-10.2-1.3c-0.2,2.7-0.4,5.3-0.6,8c3.1,0.2,6.3,0.6,9.4,1.2
		C149,42.6,149.5,40,150,37.4"/>
	<path class="st4" d="M147.8,49.5c-3-0.5-5.9-0.9-8.9-1.1c-0.2,2.7-0.4,5.3-0.6,8c2.7,0.2,5.4,0.5,8.1,1
		C146.9,54.7,147.4,52.1,147.8,49.5"/>
	<path class="st4" d="M145.7,61.6c-0.5,2.6-0.9,5.2-1.4,7.9c-2.3-0.4-4.5-0.7-6.8-0.8c0.2-2.7,0.4-5.3,0.6-8
		C140.6,60.8,143.1,61.1,145.7,61.6"/>
	<path class="st4" d="M152.1,25.6c-0.5,2.6-0.9,5.2-1.4,7.9c-3.5-0.6-7.1-1.1-10.6-1.3c0.2-2.7,0.4-5.3,0.6-8
		C144.4,24.4,148.3,24.9,152.1,25.6"/>
	<path class="st2" d="M221.2,142.7c0.1-1,0.2-2,0.4-3c0.2-2.2,0.4-4.3,0.4-6.5c-2.7-0.1-5.3-0.1-8-0.2c-0.1,2-0.2,3.9-0.4,5.9
		c-0.1,0.9-0.2,1.8-0.3,2.8C215.9,141.9,218.5,142.3,221.2,142.7"/>
	<path class="st2" d="M212.5,171c1.4-2.9,2.7-5.8,3.8-8.8c-2.5-0.9-5-1.9-7.5-2.8c-1,2.7-2.2,5.4-3.5,8.1
		C207.7,168.6,210.1,169.8,212.5,171"/>
	<path class="st2" d="M190.5,160c1-2.1,2-4.3,2.8-6.4c-2.5-0.9-5-1.9-7.5-2.8c-0.7,1.9-1.5,3.8-2.5,5.7
		C185.7,157.6,188.1,158.8,190.5,160"/>
	<path class="st2" d="M234.5,181.9c1.8-3.6,3.4-7.4,4.9-11.2c-2.5-0.9-5-1.9-7.5-2.8c-1.3,3.6-2.8,7-4.5,10.4
		C229.7,179.5,232.1,180.7,234.5,181.9"/>
	<path class="st5" d="M195.2,194.9c2.3-2.3,4.5-4.7,6.5-7.2c-2.1-1.7-4.1-3.4-6.2-5c-1.9,2.3-3.8,4.5-5.9,6.6
		C191.4,191.2,193.3,193,195.2,194.9"/>
	<path class="st5" d="M177.8,177.5c1.7-1.7,3.2-3.4,4.7-5.2c-2.1-1.7-4.1-3.4-6.2-5c-1.3,1.6-2.7,3.1-4.2,4.6
		C174.1,173.7,176,175.6,177.8,177.5"/>
	<path class="st5" d="M203.8,203.6c2.6-2.6,5.1-5.3,7.4-8.2c-2.1-1.7-4.1-3.4-6.2-5c-2.1,2.6-4.4,5.1-6.8,7.5
		C200.1,199.9,201.9,201.8,203.8,203.6"/>
	<path class="st5" d="M212.5,212.4c2.9-2.9,5.7-5.9,8.3-9.1c-2.1-1.7-4.1-3.4-6.2-5c-2.4,3-5,5.8-7.7,8.5
		C208.7,208.6,210.6,210.5,212.5,212.4"/>
	<path class="st6" d="M142.3,220.6c3.2-0.4,6.4-1,9.6-1.7c-0.6-2.6-1.2-5.2-1.8-7.8c-2.9,0.7-5.8,1.2-8.8,1.6
		C141.6,215.3,142,217.9,142.3,220.6"/>
	<path class="st6" d="M140.8,208.4c-0.3-2.6-0.6-5.3-1-7.9c2.5-0.3,5-0.8,7.5-1.3c0.6,2.6,1.2,5.2,1.8,7.8
		C146.4,207.5,143.6,208,140.8,208.4"/>
	<path class="st6" d="M139.3,196.2c2.4-0.3,4.7-0.7,7-1.2c-0.6-2.6-1.2-5.2-1.8-7.8c-2,0.5-4.1,0.8-6.2,1.1
		C138.6,190.9,139,193.5,139.3,196.2"/>
	<path class="st6" d="M143.8,232.8c-0.3-2.6-0.7-5.3-1-7.9c3.4-0.4,6.8-1,10.1-1.8c0.6,2.6,1.2,5.2,1.8,7.8
		C151.1,231.6,147.5,232.3,143.8,232.8"/>
	<path class="st6" d="M145.3,244.9c4.1-0.5,8.2-1.2,12.2-2.2c-0.6-2.6-1.2-5.2-1.8-7.8c-3.7,0.9-7.6,1.6-11.4,2
		C144.6,239.7,145,242.3,145.3,244.9"/>
	<path class="st7" d="M112.9,219.3c3.2,0.6,6.2,1.1,9.4,1.4c0,0,0.2,0,0.3,0c0.3-2.7,0.5-5.3,0.8-7.9c0,0-0.2,0-0.2,0
		c-2.9-0.3-5.7-0.7-8.5-1.3C114,214.1,113.4,216.7,112.9,219.3"/>
	<path class="st7" d="M115.4,207.3c0.5-2.6,1.1-5.2,1.6-7.8c2.4,0.5,4.8,0.9,7.3,1.1c0,0,0.2,0,0.2,0c-0.3,2.6-0.5,5.3-0.8,7.9
		c0,0-0.2,0-0.2,0C120.7,208.3,118.1,207.9,115.4,207.3"/>
	<path class="st7" d="M117.9,195.3c2.3,0.5,4.5,0.8,6.8,1.1c0,0,0.1,0,0.2,0c0.3-2.7,0.5-5.3,0.8-7.9c0,0-0.1,0-0.2,0
		c-2-0.2-4-0.5-6-0.9C119,190.1,118.4,192.7,117.9,195.3"/>
	<path class="st7" d="M110.4,231.4c0.5-2.6,1.1-5.2,1.6-7.8c3.3,0.7,6.4,1.2,9.8,1.5c0,0,0.2,0,0.3,0c-0.3,2.6-0.5,5.3-0.8,7.9
		c-0.1,0-0.2,0-0.3,0C117.4,232.6,114,232.1,110.4,231.4"/>
	<path class="st7" d="M107.9,243.4c4,0.8,7.8,1.4,11.9,1.8c0,0,0.3,0,0.3,0c0.3-2.6,0.5-5.3,0.8-7.9c-0.1,0-0.3,0-0.3,0
		c-3.8-0.4-7.3-0.9-11.1-1.7C109,238.2,108.4,240.8,107.9,243.4"/>
	<path class="st7" d="M85.5,208.4c1.2,0.7,2.3,1.3,3.5,2c1.6,0.8,3.1,1.6,4.7,2.3c1.1-2.3,2.1-4.7,3.2-7c-1.5-0.7-2.9-1.4-4.3-2.1
		c-1.1-0.6-2.1-1.2-3.2-1.8C88.1,204,86.8,206.2,85.5,208.4"/>
	<path class="st7" d="M91.6,198.1c1,0.6,2.1,1.2,3.2,1.8c1.4,0.7,2.8,1.4,4.2,2.1c1.1-2.4,2.2-4.8,3.3-7.3c-1.3-0.6-2.5-1.2-3.8-1.9
		c-1-0.5-1.9-1-2.8-1.6C94.3,193.5,92.9,195.8,91.6,198.1"/>
	<path class="st7" d="M97.8,187.5c0.9,0.5,1.8,1,2.7,1.5c1.2,0.6,2.3,1.2,3.6,1.7c1.1-2.4,2.2-4.8,3.3-7.3c-1.1-0.5-2.1-1-3.1-1.5
		c-0.8-0.4-1.6-0.9-2.3-1.3C100.5,182.9,99.1,185.2,97.8,187.5"/>
	<path class="st7" d="M79.1,219.3c1.4,0.8,2.7,1.6,4.1,2.3c1.8,1,3.7,1.9,5.5,2.7c1.1-2.4,2.2-4.8,3.3-7.3c-1.7-0.8-3.4-1.6-5.1-2.5
		c-1.3-0.7-2.6-1.4-3.8-2.1C81.8,214.7,80.5,217,79.1,219.3"/>
	<path class="st7" d="M72.9,229.9c1.5,0.9,3.1,1.8,4.6,2.6c2.1,1.1,4.1,2.1,6.2,3c1.1-2.4,2.2-4.8,3.3-7.3c-2-0.9-3.9-1.8-5.8-2.8
		c-1.5-0.8-2.9-1.6-4.3-2.4C75.6,225.3,74.2,227.6,72.9,229.9"/>
	<path class="st8" d="M62.6,189.7c2.1,2.5,4.4,4.8,6.7,7c1.8-1.9,3.6-3.9,5.5-5.8c-2.2-2-4.2-4.2-6.1-6.4
		C66.6,186.2,64.6,188,62.6,189.7"/>
	<path class="st8" d="M71.9,181.7c1.8,2.1,3.8,4.1,5.8,6.1c1.8-1.9,3.6-3.9,5.5-5.8c-1.8-1.7-3.6-3.5-5.2-5.4
		C75.9,178.2,73.9,179.9,71.9,181.7"/>
	<path class="st8" d="M81.2,173.7c1.5,1.8,3.2,3.5,4.9,5.1c1.8-1.9,3.6-3.9,5.5-5.8c-1.5-1.4-3-2.9-4.3-4.5
		C85.2,170.2,83.2,171.9,81.2,173.7"/>
	<path class="st8" d="M53.3,197.7c2.4,2.8,5,5.5,7.6,8c1.8-1.9,3.6-3.9,5.5-5.8c-2.5-2.3-4.8-4.8-7.1-7.3
		C57.3,194.2,55.3,196,53.3,197.7"/>
	<path class="st8" d="M44,205.7c2.7,3.1,5.5,6.1,8.6,8.9c1.8-1.9,3.6-3.9,5.5-5.8c-2.8-2.6-5.5-5.4-8-8.3C48,202.3,46,204,44,205.7"
		/>
	<path class="st8" d="M47.3,164.6c1.2,3,2.6,6,4.1,8.8c2.4-1.3,4.7-2.5,7-3.8c-1.4-2.6-2.7-5.3-3.8-8.1
		C52.2,162.6,49.7,163.6,47.3,164.6"/>
	<path class="st8" d="M58.7,160c1.1,2.6,2.2,5.2,3.6,7.6c2.4-1.3,4.7-2.5,7-3.8c-1.2-2.2-2.3-4.5-3.2-6.9
		C63.6,158,61.1,159,58.7,160"/>
	<path class="st8" d="M70.1,155.4c0.9,2.2,1.9,4.3,3,6.4c2.3-1.3,4.7-2.5,7-3.8c-1-1.8-1.9-3.7-2.6-5.7
		C75,153.4,72.5,154.4,70.1,155.4"/>
	<path class="st8" d="M35.9,169.1c2.5-1,4.9-2,7.4-3c1.3,3.2,2.7,6.2,4.3,9.2c-2.3,1.3-4.7,2.5-7,3.8
		C38.8,175.9,37.3,172.6,35.9,169.1"/>
	<path class="st8" d="M24.5,173.7c1.5,3.8,3.3,7.6,5.2,11.2c2.3-1.3,4.7-2.5,7-3.8c-1.8-3.4-3.4-6.9-4.9-10.4
		C29.4,171.7,27,172.7,24.5,173.7"/>
	<path class="st1" d="M40.8,135.2c0.2,3.2,0.5,6.4,1,9.6c2.6-0.4,5.3-0.8,7.9-1.3c-0.5-2.9-0.8-5.8-0.9-8.8
		C46.1,134.9,43.4,135.1,40.8,135.2"/>
	<path class="st1" d="M53,134.6c2.7-0.1,5.3-0.3,8-0.4c0.1,2.5,0.4,5,0.8,7.4c-2.6,0.4-5.3,0.8-7.9,1.3
		C53.5,140.1,53.2,137.3,53,134.6"/>
	<path class="st1" d="M65.3,133.9c0.1,2.3,0.4,4.7,0.7,7c2.6-0.4,5.3-0.8,7.9-1.3c-0.3-2-0.5-4.1-0.7-6.1
		C70.6,133.7,68,133.8,65.3,133.9"/>
	<path class="st1" d="M28.5,135.8c2.7-0.1,5.3-0.3,8-0.4c0.2,3.4,0.5,6.7,1.1,10.1c-2.6,0.4-5.3,0.8-7.9,1.3
		C29.1,143.1,28.7,139.5,28.5,135.8"/>
	<path class="st1" d="M16.2,136.5c0.2,4.1,0.6,8.2,1.3,12.2c2.6-0.4,5.3-0.8,7.9-1.3c-0.6-3.8-1-7.6-1.2-11.4
		C21.5,136.2,18.9,136.3,16.2,136.5"/>
	<path class="st1" d="M44.1,105.9c-0.9,3.1-1.6,6.3-2.1,9.4c2.6,0.4,5.2,0.9,7.9,1.3c0.5-2.9,1.1-5.8,2-8.6
		C49.2,107.4,46.6,106.7,44.1,105.9"/>
	<path class="st1" d="M55.9,109.3c-0.8,2.7-1.4,5.4-1.9,8.2c2.6,0.4,5.2,0.9,7.9,1.3c0.4-2.5,1-4.9,1.7-7.3
		C61,110.7,58.5,110,55.9,109.3"/>
	<path class="st1" d="M67.7,112.6c2.6,0.7,5.1,1.5,7.7,2.2c-0.6,2-1,4-1.4,6.1c-2.6-0.4-5.2-0.9-7.9-1.3
		C66.5,117.2,67.1,114.9,67.7,112.6"/>
	<path class="st1" d="M32.2,102.6c2.6,0.7,5.1,1.5,7.7,2.2c-0.9,3.3-1.7,6.6-2.2,9.9c-2.6-0.4-5.2-0.9-7.9-1.3
		C30.4,109.7,31.2,106.1,32.2,102.6"/>
	<path class="st1" d="M20.4,99.2c-1.1,4-2,8-2.7,12c2.6,0.4,5.2,0.9,7.9,1.3c0.6-3.8,1.5-7.5,2.5-11.2C25.5,100.7,23,100,20.4,99.2"
		/>
	<path class="st3" d="M56.6,79.2c-1.8,2.6-3.5,5.4-5,8.2c2.3,1.3,4.7,2.5,7,3.8c1.4-2.6,2.9-5.1,4.6-7.5
		C61,82.2,58.8,80.7,56.6,79.2"/>
	<path class="st3" d="M66.7,86.2c-1.6,2.3-3,4.7-4.3,7.1c2.3,1.3,4.7,2.5,7,3.8c1.2-2.2,2.5-4.3,3.9-6.4
		C71.1,89.2,68.9,87.7,66.7,86.2"/>
	<path class="st3" d="M76.9,93.1c-1.3,1.9-2.6,3.9-3.7,6c2.3,1.3,4.7,2.5,7,3.8c1-1.8,2.1-3.6,3.2-5.3
		C81.3,96.1,79.1,94.6,76.9,93.1"/>
	<path class="st3" d="M46.5,72.3c-2.1,3-4,6.1-5.7,9.3c2.3,1.3,4.7,2.5,7,3.8c1.6-3,3.4-5.8,5.3-8.6C50.9,75.3,48.7,73.8,46.5,72.3"
		/>
	<path class="st3" d="M36.3,65.3c-2.3,3.4-4.4,6.8-6.4,10.4c2.3,1.3,4.7,2.5,7,3.8c1.8-3.3,3.8-6.6,5.9-9.7
		C40.7,68.3,38.5,66.8,36.3,65.3"/>
	<path class="st2" d="M200.5,151.8c0.8-2.5,1.4-5,1.9-7.5c-2.6-0.5-5.2-1-7.8-1.5c-0.4,2.2-1,4.5-1.7,6.7
		C195.4,150.3,198,151,200.5,151.8"/>
	<path class="st2" d="M235.4,162.6c1.1-3.7,2.1-7.5,2.8-11.3c-2.6-0.5-5.2-1-7.8-1.5c-0.7,3.5-1.6,7-2.6,10.4
		C230.3,161,232.9,161.8,235.4,162.6"/>
	<path class="st2" d="M200.7,180.8c1.7-2.3,3.2-4.7,4.7-7.2c-2.2-1.3-4.4-2.5-6.6-3.8c-1.3,2.3-2.7,4.4-4.2,6.6
		C196.5,177.8,198.6,179.3,200.7,180.8"/>
	<path class="st2" d="M189.4,173.9c1.4-2,2.8-4.1,4-6.2c-2.2-1.3-4.4-2.5-6.6-3.8c-1.1,1.9-2.3,3.7-3.5,5.5
		C185.3,171,187.4,172.4,189.4,173.9"/>
	<path class="st2" d="M217.8,194.4c2.2-3,4.2-6.1,6-9.3c-2.2-1.3-4.4-2.5-6.6-3.8c-1.7,3-3.5,5.8-5.5,8.6
		C213.7,191.4,215.7,192.9,217.8,194.4"/>
	<path class="st6" d="M158.9,223.5c0.2-0.1,0.9-0.3,1.1-0.3c3.1-1,5.9-2,8.9-3.2c-1-2.5-2.1-4.9-3.1-7.4c-2.7,1.1-5.4,2.1-8.2,3
		c-0.1,0.1-0.8,0.2-1,0.3C157.3,218.4,158.1,221,158.9,223.5"/>
	<path class="st6" d="M155.4,211.7c-0.8-2.6-1.5-5.1-2.3-7.7c0.2,0,0.7-0.2,0.8-0.3c2.4-0.8,4.7-1.6,7.1-2.6c1,2.5,2.1,4.9,3.1,7.4
		c-2.6,1.1-5.1,2-7.8,2.8C156.2,211.5,155.5,211.7,155.4,211.7"/>
	<path class="st6" d="M151.9,200c0.2-0.1,0.7-0.2,0.8-0.2c2.3-0.7,4.5-1.5,6.7-2.4c-1-2.5-2.1-4.9-3.1-7.4c-2,0.8-3.9,1.5-6,2.2
		c-0.1,0.1-0.6,0.2-0.7,0.2C150.4,194.9,151.1,197.4,151.9,200"/>
	<path class="st6" d="M162.3,235c-0.8-2.6-1.5-5.1-2.3-7.7c0.2-0.1,1-0.3,1.1-0.3c3.2-1,6.2-2.1,9.3-3.4c1,2.5,2.1,4.9,3.1,7.4
		c-3.3,1.4-6.6,2.6-10,3.6C163.3,234.6,162.5,234.9,162.3,235"/>
	<path class="st6" d="M127.3,227.4c3.4,0.1,6.8,0.1,10.2-0.1c-0.2-2.7-0.3-5.3-0.5-8c-3.1,0.2-6.2,0.2-9.4,0.1
		C127.5,222.1,127.4,224.8,127.3,227.4"/>
	<path class="st6" d="M127.8,215.2c0.1-2.7,0.2-5.3,0.3-8c2.7,0.1,5.4,0.1,8.1-0.1c0.2,2.7,0.3,5.3,0.5,8
		C133.8,215.3,130.8,215.3,127.8,215.2"/>
	<path class="st6" d="M128.3,202.9c2.5,0.1,5.1,0.1,7.6-0.1c-0.2-2.7-0.3-5.3-0.5-8c-2.2,0.1-4.5,0.2-6.8,0.1
		C128.6,197.6,128.4,200.2,128.3,202.9"/>
	<path class="st6" d="M126.8,239.4c0.1-2.7,0.2-5.3,0.3-8c3.5,0.1,7.1,0.1,10.6-0.1c0.2,2.7,0.3,5.3,0.5,8
		C134.5,239.5,130.7,239.6,126.8,239.4"/>
	<path class="st7" d="M96.1,220.2c3.1,1.2,6.2,2.2,9.4,3.1c0.7-2.5,1.3-4.9,2-7.4c-2.9-0.8-5.8-1.7-8.6-2.8
		C98,215.4,97.1,217.8,96.1,220.2"/>
	<path class="st7" d="M100.8,209.5c2.8,1.1,5.7,2,8.6,2.8c0.7-2.6,1.4-5.1,2.1-7.7c-2.6-0.7-5.2-1.6-7.8-2.5
		C102.7,204.6,101.8,207.1,100.8,209.5"/>
	<path class="st7" d="M105.2,198.1c2.4,0.9,4.8,1.7,7.3,2.4c0.7-2.6,1.4-5.1,2.1-7.7c-2.2-0.6-4.4-1.3-6.5-2.1
		C107.2,193.1,106.2,195.6,105.2,198.1"/>
	<path class="st7" d="M92.1,232.2c1-2.5,1.9-5,2.9-7.4c3.3,1.3,6.7,2.4,10.2,3.3c-0.7,2.6-1.4,5.1-2.1,7.7
		C99.3,234.8,95.7,233.6,92.1,232.2"/>
	<path class="st8" d="M69.2,205c2.6,2.2,5.4,4.3,8.3,6.2c1.5-2.2,3-4.4,4.4-6.6c-2.6-1.8-5.2-3.6-7.6-5.7
		C72.6,200.9,70.9,203,69.2,205"/>
	<path class="st8" d="M77.1,195.6c2.3,1.9,4.7,3.7,7.2,5.4c1.5-2.2,3-4.4,4.4-6.6c-2.3-1.5-4.4-3.1-6.5-4.9
		C80.5,191.5,78.8,193.5,77.1,195.6"/>
	<path class="st8" d="M84.9,186.1c2,1.6,4,3.2,6.2,4.6c1.5-2.2,3-4.4,4.4-6.6c-1.9-1.3-3.7-2.6-5.5-4.1
		C88.3,182,86.6,184.1,84.9,186.1"/>
	<path class="st8" d="M61.5,214.2c3,2.5,6.1,4.8,9.3,6.9c1.5-2.2,3-4.4,4.4-6.6c-3-2-5.9-4.1-8.6-6.4
		C64.9,210.1,63.2,212.2,61.5,214.2"/>
	<path class="st8" d="M48.6,181.2c1.8,2.9,3.7,5.7,5.8,8.4c2.1-1.6,4.2-3.2,6.3-4.9c-1.9-2.5-3.7-5-5.3-7.7
		C53.1,178.4,50.9,179.8,48.6,181.2"/>
	<path class="st8" d="M59.1,174.8c1.5,2.5,3.2,5,5,7.3c2.1-1.6,4.2-3.2,6.3-4.9c-1.6-2.1-3.2-4.3-4.5-6.6
		C63.6,172,61.4,173.4,59.1,174.8"/>
	<path class="st8" d="M69.6,168.4c2.3-1.4,4.5-2.8,6.8-4.2c1.2,1.9,2.4,3.8,3.8,5.6c-2.1,1.6-4.2,3.2-6.3,4.9
		C72.3,172.6,70.9,170.5,69.6,168.4"/>
	<path class="st8" d="M38.4,187.4c2,3.3,4.2,6.4,6.5,9.4c2.1-1.6,4.2-3.2,6.3-4.9c-2.2-2.8-4.2-5.7-6-8.7
		C42.9,184.6,40.6,186,38.4,187.4"/>
	<path class="st1" d="M36.6,151.3c0.6,2.7,1.3,5.2,2.1,7.8c0.2,0.8,0.5,1.6,0.8,2.4c2.5-0.8,5-1.7,7.6-2.5c-0.2-0.7-0.5-1.5-0.7-2.2
		c-0.7-2.4-1.4-4.7-1.9-7.2C41.8,150.2,39.2,150.8,36.6,151.3"/>
	<path class="st1" d="M48.6,148.7c2.6-0.6,5.2-1.1,7.8-1.7c0.5,2.1,1,4.1,1.6,6.2c0.2,0.6,0.4,1.3,0.6,1.9c-2.5,0.9-5,1.7-7.6,2.6
		c-0.1-0.4-0.6-1.8-0.7-2.1C49.7,153.3,49.1,151,48.6,148.7"/>
	<path class="st1" d="M60.6,146c0.4,2,0.9,3.9,1.6,5.9c0,0.3,0.5,1.5,0.6,1.8c2.5-0.9,5-1.7,7.6-2.6c-0.2-0.5-0.3-1.1-0.5-1.6
		c-0.5-1.8-1-3.5-1.4-5.2C65.8,144.9,63.2,145.5,60.6,146"/>
	<path class="st1" d="M24.9,153.9c2.6-0.6,5.2-1.1,7.8-1.7c0.6,2.8,1.3,5.4,2.2,8.2c0.3,0.8,0.5,1.7,0.8,2.5c-2.5,0.8-5,1.7-7.6,2.6
		c-0.3-0.9-0.6-1.8-0.9-2.7C26.4,159.8,25.6,156.9,24.9,153.9"/>
	<path class="st1" d="M34.9,119.9c0,0.2-0.1,0.8-0.1,1c-0.3,3.1-0.5,6-0.5,9.2c2.7,0,5.3,0,8,0c0-2.8,0.2-5.6,0.4-8.4
		c0-0.1,0.1-0.7,0.1-0.9C40.2,120.5,37.6,120.2,34.9,119.9"/>
	<path class="st1" d="M47.2,121.2c2.6,0.3,5.3,0.6,7.9,0.9c0,0.1-0.1,0.7-0.1,0.8c-0.2,2.4-0.4,4.8-0.4,7.2c-2.7,0-5.3,0-8,0
		c0-2.7,0.2-5.3,0.4-8C47.1,122,47.1,121.4,47.2,121.2"/>
	<path class="st1" d="M59.4,122.6c0,0.2,0,0.6-0.1,0.7c-0.2,2.3-0.3,4.5-0.4,6.8c2.7,0,5.3,0,8,0c0-2.1,0.1-4,0.3-6.1
		c0-0.1,0.1-0.5,0.1-0.7C64.7,123.2,62,122.9,59.4,122.6"/>
	<path class="st1" d="M23,118.6c2.6,0.3,5.3,0.6,7.9,0.9c0,0.2-0.1,0.9-0.1,1c-0.3,3.2-0.5,6.3-0.5,9.5c-2.7,0-5.3,0-8,0
		c0-3.5,0.2-6.8,0.5-10.3C23,119.5,23,118.8,23,118.6"/>
	<path class="st1" d="M43.6,89.4c-1.5,3.1-2.8,6.3-3.9,9.5c2.5,0.9,5,1.7,7.5,2.6c1-3,2.2-5.9,3.6-8.8C48.4,91.6,46,90.5,43.6,89.4"
		/>
	<path class="st1" d="M54.7,94.6c-1.3,2.7-2.4,5.5-3.4,8.3c2.5,0.9,5,1.7,7.5,2.6c0.9-2.6,1.9-5.1,3.1-7.5
		C59.5,96.9,57.1,95.7,54.7,94.6"/>
	<path class="st4" d="M191.6,56.4c-2.7-1.7-5.5-3.3-8.4-4.7c-1.2,2.4-2.4,4.8-3.6,7.1c2.6,1.3,5.2,2.8,7.6,4.3
		C188.8,60.9,190.2,58.6,191.6,56.4"/>
	<path class="st4" d="M185,66.7c-1.4,2.2-2.9,4.5-4.3,6.7c-2.1-1.3-4.3-2.6-6.5-3.7c1.2-2.4,2.4-4.8,3.6-7.1
		C180.3,63.9,182.7,65.2,185,66.7"/>
	<path class="st4" d="M178.4,77.1c-2-1.3-4-2.4-6.1-3.5c-1.2,2.4-2.4,4.8-3.6,7.1c1.8,0.9,3.6,1.9,5.4,3
		C175.5,81.6,177,79.3,178.4,77.1"/>
	<path class="st4" d="M198.3,46c-1.4,2.2-2.9,4.5-4.3,6.7c-2.8-1.8-5.8-3.5-8.8-5c1.2-2.4,2.4-4.8,3.6-7.1
		C192,42.3,195.2,44.1,198.3,46"/>
	<path class="st4" d="M204.9,35.7c-3.4-2.2-7-4.2-10.6-6c-1.2,2.4-2.4,4.8-3.6,7.1c3.4,1.7,6.7,3.6,9.9,5.6
		C202,40.1,203.4,37.9,204.9,35.7"/>
	<path class="st4" d="M181.1,43.7c-3.2-1.4-6.4-2.5-9.7-3.6c-0.8,2.5-1.6,5.1-2.4,7.6c3,0.9,6,2,8.9,3.3
		C179,48.5,180,46.1,181.1,43.7"/>
	<path class="st4" d="M176.2,54.9c-2.8-1.2-5.6-2.2-8.4-3.1c-0.8,2.5-1.6,5.1-2.4,7.6c2.6,0.8,5.1,1.7,7.6,2.8
		C174.1,59.8,175.2,57.4,176.2,54.9"/>
	<path class="st4" d="M171.4,66.2c-1.1,2.4-2.1,4.9-3.2,7.3c-2.1-0.9-4.2-1.7-6.4-2.4c0.8-2.5,1.6-5.1,2.4-7.6
		C166.6,64.3,169,65.2,171.4,66.2"/>
	<path class="st4" d="M185.8,32.7c-1.1,2.4-2.1,4.9-3.2,7.3c-3.3-1.4-6.6-2.6-10.1-3.7c0.8-2.5,1.6-5.1,2.4-7.6
		C178.6,29.8,182.2,31.1,185.8,32.7"/>
	<path class="st4" d="M207.1,59.6c-2.5-2.3-5.2-4.5-7.9-6.6c-1.6,2.1-3.2,4.3-4.8,6.4c2.5,1.9,5,3.9,7.3,6
		C203.5,63.5,205.3,61.5,207.1,59.6"/>
	<path class="st4" d="M198.8,68.6c-2.2-2-4.5-3.9-6.9-5.7c-1.6,2.1-3.2,4.3-4.8,6.4c2.2,1.6,4.3,3.4,6.3,5.2
		C195.2,72.5,197,70.6,198.8,68.6"/>
	<path class="st4" d="M190.4,77.6c-1.8,2-3.6,3.9-5.4,5.9c-1.7-1.5-3.4-3-5.3-4.4c1.6-2.1,3.2-4.3,4.8-6.4
		C186.6,74.3,188.6,75.9,190.4,77.6"/>
	<path class="st4" d="M215.2,50.8c-1.8,2-3.6,3.9-5.4,5.9c-2.6-2.4-5.4-4.7-8.3-6.8c1.6-2.1,3.2-4.3,4.8-6.4
		C209.4,45.7,212.4,48.1,215.2,50.8"/>
	<path class="st5" d="M171.3,211.6c2.9-1.4,5.8-3,8.5-4.7c-1.4-2.3-2.8-4.5-4.2-6.8c-2.5,1.6-5.1,3-7.8,4.3
		C169,206.8,170.1,209.2,171.3,211.6"/>
	<path class="st5" d="M165.9,200.6c-1.2-2.4-2.3-4.8-3.5-7.2c2.3-1.1,4.5-2.3,6.6-3.7c1.4,2.3,2.8,4.5,4.2,6.8
		C170.9,198,168.5,199.3,165.9,200.6"/>
	<path class="st5" d="M160.6,189.5c2.1-1,4.2-2.2,6.2-3.4c-1.4-2.3-2.8-4.5-4.2-6.8c-1.8,1.1-3.6,2.1-5.5,3
		C158.2,184.7,159.4,187.1,160.6,189.5"/>
	<path class="st5" d="M176.7,222.7c-1.2-2.4-2.3-4.8-3.5-7.2c3.1-1.5,6.1-3.1,8.9-5c1.4,2.3,2.8,4.5,4.2,6.8
		C183.2,219.3,180,221.1,176.7,222.7"/>
	<path class="st5" d="M182,233.7c3.7-1.8,7.3-3.8,10.9-6c-1.4-2.3-2.8-4.5-4.2-6.8c-3.3,2-6.6,3.9-10.1,5.6
		C179.7,228.9,180.9,231.3,182,233.7"/>
	<path class="st5" d="M187.6,209.5c2.8-1.9,5.6-3.9,8.2-6c-1.7-2.1-3.4-4.1-5-6.2c-2.4,2-4.9,3.8-7.6,5.5
		C184.7,205.1,186.2,207.3,187.6,209.5"/>
	<path class="st5" d="M180.9,199.2c-1.5-2.2-2.9-4.5-4.4-6.7c2.3-1.5,4.4-3.1,6.5-4.8c1.7,2.1,3.4,4.1,5,6.2
		C185.8,195.8,183.4,197.6,180.9,199.2"/>
	<path class="st5" d="M174.2,188.9c2.1-1.4,4.2-2.9,6.1-4.5c-1.7-2.1-3.4-4.1-5-6.2c-1.7,1.4-3.6,2.8-5.4,4
		C171.3,184.5,172.7,186.7,174.2,188.9"/>
	<path class="st5" d="M194.2,219.5c-1.5-2.2-2.9-4.5-4.4-6.7c3-1.9,5.8-4,8.6-6.3c1.7,2.1,3.4,4.1,5,6.2
		C200.5,215.2,197.4,217.5,194.2,219.5"/>
	<path class="st9" d="M85.9,145.1c0,1.4-0.8,2.1-2.5,2.1c-1.6,0-2.4-0.7-2.4-2.1v-29.4c0-1.4,0.8-2.1,2.4-2.1c1.7,0,2.5,0.7,2.5,2.1
		V145.1z"/>
	<path class="st9" d="M132,123.5c0,3.1-1.7,5.2-5.2,6.4c3.5,1.1,5.2,3.3,5.2,6.7v1.9c0,5.6-4.4,8.5-13.3,8.5H93
		c-1.4,0-2.1-0.7-2.1-2c0-1.3,0.7-2,2.1-2h26.6c5,0,7.5-1.4,7.5-4.2v-3.3c-0.3-2.2-2.7-3.4-7.3-3.4H93c-1.4,0-2.1-0.7-2.1-2
		c0-1.4,0.7-2.1,2.1-2.1h26.8c4.9,0,7.3-1.2,7.3-3.6v-3.2c0-2.3-2.5-3.5-7.4-3.5H93c-1.4,0-2-0.6-2-1.9c0-1.3,0.7-2,2-2h25.3
		c9.1,0,13.7,2.5,13.7,7.6V123.5z"/>
	<path class="st9" d="M141.8,115.7c0.1,0.1,0.1,0.2,0.1,0.2c0,0.1,0,0.2-0.1,0.3s-0.2,0.1-0.3,0.1c-0.1,0-0.2,0-0.3-0.1l-1.8-1.9
		c0,0-0.1-0.1-0.1-0.1c0,0,0-0.1,0-0.2c0-0.1,0-0.2,0.1-0.3c0.1-0.1,0.2-0.1,0.3-0.1c0.1,0,0.1,0,0.2,0c0,0,0.1,0.1,0.2,0.1
		L141.8,115.7z"/>
	<path class="st9" d="M159.2,122.9c0,0.3-0.2,0.5-0.6,0.5c-0.4,0-0.6-0.2-0.6-0.5v-4.1c0-0.6-0.6-0.9-1.9-0.9
		c-1.5,0-2.3,0.4-2.3,1.1v3.9c0,0.3-0.2,0.5-0.6,0.5c-0.4,0-0.6-0.2-0.6-0.5V119c0-0.7-0.8-1.1-2.3-1.1c-1.3,0-1.9,0.3-1.9,0.9v4.1
		c0,0.3-0.2,0.5-0.6,0.5c-0.4,0-0.6-0.2-0.6-0.5v-4c0-1.4,1-2,3.1-2c1.5,0,2.5,0.4,2.9,1.1c0.4-0.7,1.4-1.1,2.8-1.1
		c2.1,0,3.1,0.7,3.1,2V122.9z"/>
	<path class="st9" d="M170.3,120.2c0,0.4-0.2,0.5-0.5,0.5h-6.9v0.8c0,0.6,0.6,0.9,1.8,0.9h4.3c0.3,0,0.5,0.2,0.5,0.5
		c0,0.3-0.2,0.5-0.5,0.5h-4c-2.2,0-3.3-0.7-3.3-2v-2.5c0-1.3,1.1-2,3.3-2h2.7c1.8,0,2.7,0.6,2.7,1.7V120.2z M162.8,119.7h6.3v-1
		c0-0.6-0.5-0.9-1.4-0.9h-3.2c-1.2,0-1.8,0.3-1.8,0.9V119.7z"/>
	<path class="st9" d="M145,120.2c0,0.4-0.2,0.5-0.5,0.5h-6.9v0.8c0,0.6,0.6,0.9,1.8,0.9h4.3c0.3,0,0.5,0.2,0.5,0.5
		c0,0.3-0.2,0.5-0.5,0.5h-4c-2.2,0-3.3-0.7-3.3-2v-2.5c0-1.3,1.1-2,3.3-2h2.7c1.8,0,2.7,0.6,2.7,1.7V120.2z M137.5,119.7h6.3v-1
		c0-0.6-0.5-0.9-1.4-0.9h-3.2c-1.2,0-1.8,0.3-1.8,0.9V119.7z"/>
	<path class="st9" d="M144.8,130.8c0,0.4-0.2,0.5-0.5,0.5h-6.8v0.8c0,0.6,0.6,0.9,1.8,0.9h4.7c0.3,0,0.5,0.2,0.5,0.5
		c0,0.3-0.2,0.5-0.5,0.5h-4.4c-2.2,0-3.2-0.7-3.2-2v-2.4c0-1.3,1.1-2,3.2-2h2.6c1.8,0,2.7,0.6,2.7,1.7V130.8z M137.5,130.4h6.2v-0.9
		c0-0.6-0.4-0.9-1.3-0.9h-3.1c-1.2,0-1.8,0.3-1.8,0.9V130.4z M139.9,126.9c-0.1,0.1-0.2,0.1-0.3,0.1c-0.3,0-0.4-0.1-0.4-0.4
		c0-0.1,0-0.2,0.1-0.3l1.8-1.9c0.1-0.1,0.2-0.1,0.3-0.1c0.3,0,0.4,0.1,0.4,0.4c0,0.1,0,0.2-0.1,0.3L139.9,126.9z"/>
	<path class="st9" d="M155.7,132.1c0,1.2-1.1,1.9-3.3,1.9h-2.2c-2.1,0-3.2-0.6-3.2-1.8v-2.7c0-1.3,1.1-2,3.2-2h4.3v-1.5
		c0-0.3,0.2-0.5,0.6-0.5c0.4,0,0.6,0.2,0.6,0.5V132.1z M154.5,128.6H150c-1.2,0-1.8,0.4-1.8,1.1v2.3c0,0.7,0.6,1,1.7,1h2.7
		c1.3,0,1.9-0.3,1.9-1V128.6z"/>
	<path class="st9" d="M159.2,126.7c0,0.4-0.3,0.6-0.8,0.6c-0.5,0-0.8-0.2-0.8-0.6s0.3-0.6,0.8-0.6
		C158.9,126.1,159.2,126.3,159.2,126.7 M159,133.5c0,0.3-0.2,0.5-0.6,0.5s-0.6-0.2-0.6-0.5v-5c0-0.3,0.2-0.5,0.5-0.5
		c0.4,0,0.6,0.2,0.6,0.5V133.5z"/>
	<path class="st9" d="M162.7,128.6v5c0,0.3-0.2,0.5-0.6,0.5c-0.4,0-0.6-0.2-0.6-0.5v-5H161c-0.3,0-0.5-0.2-0.5-0.5
		c0-0.3,0.2-0.5,0.5-0.5h0.6v-1.5c0-0.3,0.2-0.5,0.6-0.5c0.4,0,0.6,0.2,0.6,0.5v1.5h2.3c0.3,0,0.5,0.2,0.5,0.5
		c0,0.3-0.2,0.5-0.5,0.5H162.7z"/>
	<path class="st9" d="M167.9,126.7c0,0.4-0.3,0.6-0.8,0.6c-0.5,0-0.8-0.2-0.8-0.6s0.3-0.6,0.8-0.6
		C167.6,126.1,167.9,126.3,167.9,126.7 M167.7,133.5c0,0.3-0.2,0.5-0.6,0.5s-0.6-0.2-0.6-0.5v-5c0-0.3,0.2-0.5,0.5-0.5
		c0.4,0,0.6,0.2,0.6,0.5V133.5z"/>
	<path class="st9" d="M178.2,132c0,1.3-1,1.9-3,1.9h-2.3c-2,0-3.1-0.6-3.1-1.9v-2.5c0-1.3,1-2,3.1-2h2.3c2,0,3,0.7,3,2V132z
		 M177.1,129.5c0-0.6-0.5-0.9-1.6-0.9h-2.6c-1.2,0-1.8,0.3-1.8,1v2.5c0,0.6,0.6,1,1.8,1h2.6c1.1,0,1.6-0.3,1.6-1V129.5z"/>
	<path class="st9" d="M189,133.5c0,0.3-0.2,0.5-0.6,0.5c-0.4,0-0.6-0.2-0.6-0.5v-4.2c0-0.5-0.5-0.8-1.6-0.8h-2.9
		c-1.1,0-1.6,0.3-1.6,0.8v4.2c0,0.3-0.2,0.5-0.6,0.5c-0.4,0-0.6-0.2-0.6-0.5v-4.2c0-1.2,1-1.7,3.1-1.7h2.2c2.1,0,3.1,0.6,3.1,1.7
		V133.5z"/>
</g>
</svg>
