<?xml version="1.0" encoding="utf-8"?>
<!-- Generator: Adobe Illustrator 19.0.0, SVG Export Plug-In . SVG Version: 6.00 Build 0)  -->
<svg version="1.1" id="Calque_1" xmlns="http://www.w3.org/2000/svg" xmlns:xlink="http://www.w3.org/1999/xlink" x="0px" y="0px"
	 viewBox="0 0 246.4 58.1" style="enable-background:new 0 0 246.4 58.1;" xml:space="preserve">
<style type="text/css">
	.st0{clip-path:url(#SVGID_2_);fill:#FFFFFF;}
</style>
<g>
	<defs>
		<rect id="SVGID_1_" y="0" width="246.4" height="58.1"/>
	</defs>
	<clipPath id="SVGID_2_">
		<use xlink:href="#SVGID_1_"  style="overflow:visible;"/>
	</clipPath>
	<path class="st0" d="M52.9,34.2c0,2.2-1.1,3.3-3.3,3.3c-1.8,0-3-0.1-3.5-0.3c-1.1-0.4-1.7-1.4-1.7-3V3.7c0-1.6,0.6-2.6,1.7-3
		c0.5-0.2,1.7-0.3,3.5-0.3c2.2,0,3.3,1.1,3.3,3.3V34.2z"/>
	<path class="st0" d="M101,14.7c0,4-2,6.8-5.9,8.6c-2.7,1.2-6.1,1.8-10.2,1.8H63.8v9.1c0,1.6-0.6,2.6-1.7,3
		c-0.6,0.2-1.8,0.3-3.5,0.3c-2.2,0-3.3-1.1-3.3-3.3V3.7c0-2.2,1.1-3.3,3.3-3.3h26.6C88.7,0.4,92,1,95,2.2c4,1.6,6,4,6,7V14.7z
		 M92.5,14.5V9.7c0-1.1-1-1.7-3-1.9c-0.2,0-1.6,0-4.3,0H63.8v9.9h21.5c2.3,0,3.8-0.1,4.6-0.3C91.6,17,92.5,16,92.5,14.5"/>
	<path class="st0" d="M149.2,34.2c0,2.2-1.1,3.3-3.4,3.3c-1.7,0-2.9-0.1-3.5-0.3c-1.1-0.4-1.7-1.4-1.7-3V22.8h-28.8v11.4
		c0,2.2-1.1,3.3-3.3,3.3c-1.8,0-3-0.1-3.5-0.3c-1.1-0.4-1.7-1.4-1.7-3V3.7c0-1.6,0.6-2.6,1.7-3c0.5-0.2,1.7-0.3,3.5-0.3
		c2.2,0,3.3,1.1,3.3,3.3v11.7h28.8V3.7c0-1.6,0.6-2.5,1.7-3c0.6-0.2,1.7-0.3,3.5-0.3c2.2,0,3.4,1.1,3.4,3.3V34.2z"/>
	<path class="st0" d="M203,32.8c0.1,0.4,0.1,0.9,0.1,1.3c0,1.3-0.4,2.3-1.2,3c-0.8,0.8-1.8,1.1-2.9,1.1c-1.6,0-2.9-0.7-3.9-2.1
		l-5.3-7.8H164l-5.3,7.8c-0.8,1.2-1.8,1.8-3,1.8c-1,0-1.9-0.4-2.8-1.2c-0.8-0.8-1.3-1.6-1.3-2.5c0-0.4,0.1-0.7,0.3-1l20.2-30.9
		c1-1.5,2.5-2.2,4.7-2.4c0.8,0,1.7,0.1,2.7,0.5c1.1,0.5,1.8,1.1,2,1.8L203,32.8z M184.5,20.9l-7.6-11.3l-7.7,11.3H184.5z"/>
	<path class="st0" d="M246.4,34.2c0,2.2-1.1,3.3-3.3,3.3H223c-5.3,0-9.3-0.5-11.9-1.4c-4.4-1.6-6.6-4.5-6.6-8.9V3.7
		c0-2.2,1.1-3.3,3.3-3.3c1.8,0,3,0.1,3.5,0.3c1.2,0.4,1.7,1.5,1.7,3v23.6c0,1.4,1.4,2.3,4.1,2.7c1.1,0.2,3,0.2,5.8,0.2h20.1
		C245.3,30.2,246.4,31.5,246.4,34.2"/>
	<path class="st0" d="M36,16.9C33,15.6,29.6,15,25.6,15h-8.5c-5.7,0-8.5-0.7-8.5-2.2v-2.4c0-1.3,1.6-2.2,4.9-2.5
		c0.6-0.1,2.6-0.1,6.1-0.1h20c1.5,0,2.2-1,2.2-2.9c0-1.6-0.1-2.6-0.2-3c-0.3-1-1-1.5-2-1.5H20c-0.1,0-0.2,0-0.3,0
		c-6.1,0-10.3,0.3-12.6,1C2.4,2.8,0,5.8,0,10.4V13c0,4.1,2.5,6.9,7.6,8.3c3,0.8,7.9,1.2,14.7,1.2h0.2c3.2,0,5.4,0.1,6.5,0.2
		c2.8,0.3,4.3,1.1,4.3,2.2v3c0,1.2-1.1,1.9-3.3,2.2c-0.4,0.1-1.9,0.1-4.6,0.1H3.4c-2.2,0-3.3,1.4-3.3,4.1c0,2.2,1.1,3.3,3.3,3.3
		h22.1c8.4,0,13.5-1.6,15.4-4.8c0.7-1.2,1-2.9,1-4.9v-3.1C41.9,21.2,39.9,18.6,36,16.9"/>
	<polygon class="st0" points="1.1,53.3 6.2,53.3 6.2,54.3 0,54.3 0,43.4 1.1,43.4 	"/>
	<path class="st0" d="M8.1,51c0,0.4,0.1,0.7,0.3,1c0.1,0.3,0.3,0.6,0.6,0.8c0.2,0.2,0.5,0.4,0.8,0.5c0.3,0.1,0.6,0.2,1,0.2
		c0.5,0,1-0.1,1.4-0.4c0.4-0.3,0.7-0.5,0.9-0.9l0.8,0.6c-0.4,0.5-0.9,0.9-1.4,1.2c-0.5,0.2-1.1,0.4-1.7,0.4c-0.5,0-1-0.1-1.5-0.3
		c-0.5-0.2-0.9-0.5-1.2-0.8c-0.3-0.3-0.6-0.7-0.8-1.2c-0.2-0.5-0.3-1-0.3-1.5c0-0.5,0.1-1,0.3-1.5C7.4,48.8,7.7,48.3,8,48
		c0.3-0.3,0.7-0.6,1.2-0.8c0.4-0.2,0.9-0.3,1.4-0.3c0.5,0,1,0.1,1.5,0.3c0.4,0.2,0.8,0.5,1.1,0.8c0.3,0.3,0.5,0.7,0.7,1.1
		c0.2,0.4,0.2,0.9,0.2,1.4V51H8.1z M13,50.2c0-0.7-0.2-1.2-0.6-1.7c-0.4-0.4-1-0.6-1.7-0.6c-0.3,0-0.6,0.1-1,0.2
		c-0.3,0.1-0.6,0.3-0.8,0.5c-0.2,0.2-0.4,0.5-0.6,0.7c-0.1,0.3-0.2,0.6-0.2,0.9H13z"/>
	<path class="st0" d="M25.8,45.2c-0.5-0.7-1.2-1.1-2.1-1.1c-0.3,0-0.6,0-0.8,0.1c-0.3,0.1-0.5,0.2-0.7,0.4c-0.2,0.2-0.4,0.4-0.5,0.6
		c-0.1,0.3-0.2,0.5-0.2,0.9c0,0.5,0.1,0.9,0.4,1.2c0.3,0.3,0.6,0.5,1,0.7c0.4,0.2,0.9,0.3,1.4,0.5c0.5,0.1,0.9,0.3,1.4,0.6
		c0.4,0.2,0.8,0.5,1,0.9c0.3,0.4,0.4,0.9,0.4,1.6c0,0.5-0.1,0.9-0.3,1.3c-0.2,0.4-0.5,0.7-0.8,1c-0.3,0.3-0.7,0.5-1.2,0.6
		c-0.4,0.1-0.9,0.2-1.3,0.2c-0.7,0-1.3-0.1-1.9-0.4c-0.6-0.3-1.1-0.7-1.5-1.2l1-0.7c0.2,0.4,0.6,0.7,1,1c0.4,0.2,0.9,0.4,1.5,0.4
		c0.3,0,0.6,0,0.8-0.1c0.3-0.1,0.5-0.2,0.7-0.4c0.2-0.2,0.4-0.4,0.5-0.6c0.1-0.2,0.2-0.5,0.2-0.8c0-0.4-0.1-0.7-0.2-1
		c-0.2-0.3-0.4-0.5-0.6-0.6c-0.3-0.2-0.6-0.3-0.9-0.4c-0.3-0.1-0.7-0.2-1-0.3c-0.4-0.1-0.7-0.2-1-0.4c-0.3-0.1-0.6-0.3-0.9-0.5
		c-0.3-0.2-0.5-0.5-0.6-0.8c-0.2-0.3-0.2-0.8-0.2-1.3c0-0.5,0.1-1,0.3-1.4c0.2-0.4,0.5-0.7,0.8-1c0.3-0.3,0.7-0.4,1.1-0.6
		c0.4-0.1,0.9-0.2,1.3-0.2c0.6,0,1.2,0.1,1.7,0.3c0.5,0.2,1,0.5,1.4,1L25.8,45.2z"/>
	<path class="st0" d="M33.5,49.9v-0.2c0-1.2-0.6-1.9-1.9-1.9c-0.8,0-1.6,0.3-2.2,0.8L28.8,48c0.7-0.7,1.7-1,3.1-1
		c0.3,0,0.7,0.1,1,0.2c0.3,0.1,0.6,0.3,0.8,0.5c0.2,0.2,0.4,0.5,0.6,0.8c0.1,0.3,0.2,0.7,0.2,1.1v3.2c0,0.3,0,0.6,0,0.9
		c0,0.3,0.1,0.6,0.1,0.7h-1c0-0.2-0.1-0.4-0.1-0.6c0-0.2,0-0.4,0-0.6h0c-0.3,0.5-0.7,0.8-1.1,1c-0.4,0.2-0.9,0.3-1.5,0.3
		c-0.3,0-0.6,0-0.9-0.1c-0.3-0.1-0.6-0.2-0.8-0.4c-0.2-0.2-0.4-0.4-0.6-0.7s-0.2-0.6-0.2-0.9c0-0.6,0.2-1,0.5-1.4
		c0.3-0.3,0.7-0.6,1.1-0.7S31,50,31.5,50c0.5,0,1-0.1,1.4-0.1H33.5z M32.9,50.7c-0.3,0-0.6,0-1,0c-0.4,0-0.8,0.1-1.1,0.2
		c-0.4,0.1-0.7,0.3-0.9,0.5c-0.3,0.2-0.4,0.5-0.4,0.8c0,0.2,0,0.4,0.1,0.6c0.1,0.2,0.2,0.3,0.4,0.4c0.2,0.1,0.3,0.2,0.5,0.2
		c0.2,0,0.4,0.1,0.6,0.1c0.4,0,0.7-0.1,1-0.2c0.3-0.1,0.5-0.3,0.7-0.5c0.2-0.2,0.3-0.5,0.4-0.7c0.1-0.3,0.1-0.6,0.1-0.9v-0.5H32.9z"
		/>
	<rect x="37.1" y="42.7" class="st0" width="1" height="11.7"/>
	<path class="st0" d="M47.9,50.7c0,0.5-0.1,1.1-0.3,1.5c-0.2,0.5-0.5,0.9-0.8,1.2s-0.7,0.6-1.2,0.8c-0.5,0.2-1,0.3-1.6,0.3
		c-0.6,0-1.1-0.1-1.5-0.3c-0.5-0.2-0.9-0.5-1.2-0.8s-0.6-0.7-0.8-1.2c-0.2-0.5-0.3-1-0.3-1.5c0-0.5,0.1-1.1,0.3-1.5
		c0.2-0.5,0.5-0.9,0.8-1.2c0.3-0.3,0.7-0.6,1.2-0.8c0.5-0.2,1-0.3,1.5-0.3c0.6,0,1.1,0.1,1.6,0.3c0.5,0.2,0.9,0.5,1.2,0.8
		c0.3,0.3,0.6,0.7,0.8,1.2C47.8,49.7,47.9,50.2,47.9,50.7 M46.7,50.7c0-0.4-0.1-0.8-0.2-1.1c-0.1-0.4-0.3-0.7-0.5-0.9
		c-0.2-0.3-0.5-0.5-0.9-0.6c-0.3-0.1-0.7-0.2-1.1-0.2s-0.8,0.1-1.1,0.2c-0.3,0.1-0.6,0.4-0.8,0.6c-0.2,0.3-0.4,0.6-0.5,0.9
		c-0.1,0.4-0.2,0.7-0.2,1.1c0,0.4,0.1,0.8,0.2,1.1c0.1,0.4,0.3,0.7,0.5,0.9c0.2,0.3,0.5,0.5,0.8,0.6c0.3,0.2,0.7,0.2,1.1,0.2
		s0.8-0.1,1.1-0.2c0.3-0.1,0.6-0.4,0.9-0.6c0.2-0.3,0.4-0.6,0.5-0.9C46.7,51.5,46.7,51.1,46.7,50.7"/>
	<path class="st0" d="M50.7,47.1c0,0.2,0,0.4,0,0.6c0,0.2,0,0.4,0,0.6h0c0.1-0.2,0.3-0.4,0.4-0.5s0.4-0.3,0.6-0.4
		c0.2-0.1,0.4-0.2,0.7-0.3c0.2-0.1,0.5-0.1,0.7-0.1c0.9,0,1.6,0.2,2.1,0.7c0.4,0.5,0.7,1.2,0.7,2.1v4.6h-1v-4c0-0.8-0.1-1.4-0.4-1.8
		c-0.3-0.4-0.8-0.6-1.5-0.6c-0.1,0-0.2,0-0.4,0.1c-0.2,0-0.5,0.2-0.7,0.3c-0.3,0.2-0.5,0.5-0.7,0.8c-0.2,0.4-0.3,0.9-0.3,1.5v3.7h-1
		v-5.6c0-0.2,0-0.4,0-0.7c0-0.3,0-0.6-0.1-0.8H50.7z"/>
	<path class="st0" d="M69.8,54.3h-1v-1.2h0c-0.2,0.2-0.4,0.5-0.6,0.6s-0.5,0.3-0.7,0.4c-0.2,0.1-0.5,0.2-0.8,0.2
		c-0.3,0.1-0.5,0.1-0.7,0.1c-0.6,0-1.1-0.1-1.6-0.3c-0.5-0.2-0.9-0.5-1.2-0.8s-0.6-0.7-0.8-1.2c-0.2-0.5-0.3-1-0.3-1.5
		c0-0.5,0.1-1.1,0.3-1.5c0.2-0.5,0.5-0.9,0.8-1.2c0.3-0.3,0.7-0.6,1.2-0.8c0.5-0.2,1-0.3,1.6-0.3c0.2,0,0.5,0,0.7,0.1
		c0.3,0.1,0.5,0.1,0.8,0.2c0.2,0.1,0.5,0.3,0.7,0.4c0.2,0.2,0.4,0.4,0.6,0.6h0v-5.7h1V54.3z M63.2,50.7c0,0.4,0.1,0.8,0.2,1.1
		c0.1,0.4,0.3,0.7,0.5,0.9c0.2,0.3,0.5,0.5,0.9,0.6c0.3,0.2,0.7,0.2,1.1,0.2c0.4,0,0.8-0.1,1.2-0.2c0.4-0.1,0.7-0.4,0.9-0.6
		c0.3-0.3,0.5-0.6,0.6-0.9c0.1-0.3,0.2-0.7,0.2-1.1c0-0.4-0.1-0.8-0.2-1.1c-0.1-0.4-0.3-0.7-0.6-0.9c-0.3-0.3-0.6-0.5-0.9-0.6
		c-0.4-0.1-0.7-0.2-1.2-0.2c-0.4,0-0.8,0.1-1.1,0.2c-0.3,0.1-0.6,0.4-0.9,0.6c-0.2,0.3-0.4,0.6-0.5,0.9C63.3,50,63.2,50.3,63.2,50.7
		"/>
	<path class="st0" d="M72.7,51c0,0.4,0.1,0.7,0.3,1c0.1,0.3,0.3,0.6,0.6,0.8c0.2,0.2,0.5,0.4,0.8,0.5c0.3,0.1,0.6,0.2,1,0.2
		c0.5,0,1-0.1,1.4-0.4c0.4-0.3,0.7-0.5,0.9-0.9l0.8,0.6c-0.4,0.5-0.9,0.9-1.4,1.2c-0.5,0.2-1.1,0.4-1.7,0.4c-0.5,0-1-0.1-1.5-0.3
		c-0.5-0.2-0.9-0.5-1.2-0.8c-0.3-0.3-0.6-0.7-0.8-1.2c-0.2-0.5-0.3-1-0.3-1.5c0-0.5,0.1-1,0.3-1.5c0.2-0.5,0.4-0.9,0.8-1.2
		c0.3-0.3,0.7-0.6,1.2-0.8c0.4-0.2,0.9-0.3,1.4-0.3c0.5,0,1,0.1,1.5,0.3c0.4,0.2,0.8,0.5,1.1,0.8c0.3,0.3,0.5,0.7,0.7,1.1
		c0.2,0.4,0.2,0.9,0.2,1.4V51H72.7z M77.7,50.2c0-0.7-0.2-1.2-0.6-1.7c-0.4-0.4-1-0.6-1.7-0.6c-0.3,0-0.6,0.1-1,0.2
		c-0.3,0.1-0.6,0.3-0.8,0.5c-0.2,0.2-0.4,0.5-0.6,0.7c-0.1,0.3-0.2,0.6-0.2,0.9H77.7z"/>
	<rect x="85.1" y="42.7" class="st0" width="1" height="11.7"/>
	<path class="st0" d="M93.3,49.9v-0.2c0-1.2-0.6-1.9-1.9-1.9c-0.8,0-1.6,0.3-2.2,0.8L88.6,48c0.7-0.7,1.7-1,3.1-1
		c0.3,0,0.7,0.1,1,0.2c0.3,0.1,0.6,0.3,0.8,0.5c0.2,0.2,0.4,0.5,0.6,0.8c0.1,0.3,0.2,0.7,0.2,1.1v3.2c0,0.3,0,0.6,0,0.9
		c0,0.3,0.1,0.6,0.1,0.7h-1c0-0.2-0.1-0.4-0.1-0.6c0-0.2,0-0.4,0-0.6h0c-0.3,0.5-0.7,0.8-1.1,1c-0.4,0.2-0.9,0.3-1.5,0.3
		c-0.3,0-0.6,0-0.9-0.1c-0.3-0.1-0.6-0.2-0.8-0.4c-0.2-0.2-0.4-0.4-0.6-0.7c-0.1-0.3-0.2-0.6-0.2-0.9c0-0.6,0.2-1,0.5-1.4
		c0.3-0.3,0.7-0.6,1.1-0.7s0.9-0.3,1.5-0.3c0.5,0,1-0.1,1.4-0.1H93.3z M92.7,50.7c-0.3,0-0.6,0-1,0c-0.4,0-0.8,0.1-1.1,0.2
		c-0.4,0.1-0.7,0.3-0.9,0.5c-0.3,0.2-0.4,0.5-0.4,0.8c0,0.2,0,0.4,0.1,0.6c0.1,0.2,0.2,0.3,0.4,0.4c0.2,0.1,0.3,0.2,0.5,0.2
		c0.2,0,0.4,0.1,0.6,0.1c0.4,0,0.7-0.1,1-0.2c0.3-0.1,0.5-0.3,0.7-0.5c0.2-0.2,0.3-0.5,0.4-0.7c0.1-0.3,0.1-0.6,0.1-0.9v-0.5H92.7z"
		/>
	<path class="st0" d="M101.3,43.4h3.2c1.1,0,2,0.2,2.6,0.7c0.6,0.5,1,1.2,1,2.2s-0.3,1.7-1,2.2c-0.6,0.5-1.5,0.7-2.6,0.7h-2.1v5.1
		h-1.1V43.4z M102.4,48.2h1.8c0.5,0,0.9-0.1,1.3-0.2c0.3-0.1,0.6-0.2,0.8-0.4c0.2-0.2,0.4-0.4,0.4-0.6c0.1-0.2,0.1-0.5,0.1-0.8
		c0-0.3,0-0.5-0.1-0.7c-0.1-0.2-0.2-0.4-0.4-0.6c-0.2-0.2-0.5-0.3-0.8-0.4s-0.8-0.1-1.3-0.1h-1.8V48.2z"/>
	<path class="st0" d="M109.8,42.7h1v5.6h0c0.1-0.2,0.3-0.4,0.4-0.5c0.2-0.2,0.4-0.3,0.6-0.4c0.2-0.1,0.4-0.2,0.7-0.3
		c0.2-0.1,0.5-0.1,0.7-0.1c0.9,0,1.6,0.2,2.1,0.7c0.4,0.5,0.7,1.2,0.7,2.1v4.6h-1v-4c0-0.8-0.1-1.4-0.4-1.8
		c-0.3-0.4-0.8-0.6-1.5-0.6c-0.1,0-0.2,0-0.4,0.1c-0.2,0-0.5,0.2-0.7,0.3c-0.3,0.2-0.5,0.5-0.7,0.8c-0.2,0.4-0.3,0.9-0.3,1.5v3.7h-1
		V42.7z"/>
	<path class="st0" d="M123,49.9v-0.2c0-1.2-0.6-1.9-1.9-1.9c-0.8,0-1.6,0.3-2.2,0.8l-0.6-0.7c0.7-0.7,1.7-1,3.1-1
		c0.3,0,0.7,0.1,1,0.2c0.3,0.1,0.6,0.3,0.8,0.5c0.2,0.2,0.4,0.5,0.6,0.8c0.1,0.3,0.2,0.7,0.2,1.1v3.2c0,0.3,0,0.6,0,0.9
		c0,0.3,0.1,0.6,0.1,0.7h-1c0-0.2-0.1-0.4-0.1-0.6c0-0.2,0-0.4,0-0.6h0c-0.3,0.5-0.7,0.8-1.1,1c-0.4,0.2-0.9,0.3-1.5,0.3
		c-0.3,0-0.6,0-0.9-0.1c-0.3-0.1-0.6-0.2-0.8-0.4c-0.2-0.2-0.4-0.4-0.6-0.7c-0.1-0.3-0.2-0.6-0.2-0.9c0-0.6,0.2-1,0.5-1.4
		c0.3-0.3,0.7-0.6,1.1-0.7s0.9-0.3,1.5-0.3c0.5,0,1-0.1,1.4-0.1H123z M122.5,50.7c-0.3,0-0.6,0-1,0c-0.4,0-0.8,0.1-1.1,0.2
		c-0.4,0.1-0.7,0.3-0.9,0.5c-0.3,0.2-0.4,0.5-0.4,0.8c0,0.2,0,0.4,0.1,0.6c0.1,0.2,0.2,0.3,0.4,0.4c0.2,0.1,0.3,0.2,0.5,0.2
		c0.2,0,0.4,0.1,0.6,0.1c0.4,0,0.7-0.1,1-0.2c0.3-0.1,0.5-0.3,0.7-0.5c0.2-0.2,0.3-0.5,0.4-0.7c0.1-0.3,0.1-0.6,0.1-0.9v-0.5H122.5z
		"/>
	<path class="st0" d="M126.5,49.4c0-0.3,0-0.6,0-1c0-0.3,0-0.8,0-1.3h1v1.3h0c0.1-0.2,0.2-0.4,0.3-0.6c0.1-0.2,0.3-0.3,0.5-0.5
		c0.2-0.1,0.4-0.3,0.7-0.3c0.3-0.1,0.5-0.1,0.9-0.1c0.3,0,0.5,0,0.8,0.1l-0.2,1c-0.1-0.1-0.3-0.1-0.6-0.1c-0.4,0-0.7,0.1-1,0.2
		c-0.3,0.1-0.5,0.3-0.7,0.6c-0.2,0.2-0.3,0.5-0.4,0.7c-0.1,0.3-0.1,0.5-0.1,0.8v4.1h-1V49.4z"/>
	<path class="st0" d="M131.8,48.7c0-0.3,0-0.5,0-0.8c0-0.3,0-0.5-0.1-0.8h1.1v1.1h0c0.2-0.4,0.6-0.7,1-1c0.4-0.2,0.9-0.3,1.3-0.3
		c0.2,0,0.4,0,0.6,0.1c0.2,0,0.4,0.1,0.6,0.2c0.2,0.1,0.4,0.3,0.6,0.5c0.2,0.2,0.3,0.4,0.5,0.8c0.2-0.5,0.5-0.8,1-1.1
		c0.4-0.3,0.9-0.4,1.4-0.4c0.9,0,1.6,0.2,2.1,0.7c0.4,0.5,0.7,1.2,0.7,2.1v4.6h-1v-4.2c0-0.7-0.1-1.3-0.4-1.7
		c-0.3-0.4-0.7-0.6-1.4-0.6c-0.4,0-0.7,0.1-1,0.2c-0.3,0.2-0.5,0.3-0.6,0.6c-0.2,0.2-0.3,0.5-0.3,0.8c-0.1,0.3-0.1,0.6-0.1,1v3.8h-1
		v-4.2c0-0.7-0.1-1.3-0.4-1.7c-0.3-0.4-0.7-0.6-1.4-0.6c-0.1,0-0.2,0-0.4,0.1c-0.2,0-0.4,0.2-0.7,0.3c-0.2,0.2-0.5,0.5-0.6,0.8
		c-0.2,0.4-0.3,0.9-0.3,1.5v3.7h-1V48.7z"/>
	<path class="st0" d="M149.6,49.9v-0.2c0-1.2-0.6-1.9-1.9-1.9c-0.8,0-1.6,0.3-2.2,0.8l-0.6-0.7c0.7-0.7,1.7-1,3.1-1
		c0.4,0,0.7,0.1,1,0.2c0.3,0.1,0.6,0.3,0.8,0.5c0.2,0.2,0.4,0.5,0.6,0.8c0.1,0.3,0.2,0.7,0.2,1.1v3.2c0,0.3,0,0.6,0,0.9
		c0,0.3,0.1,0.6,0.1,0.7h-1c0-0.2-0.1-0.4-0.1-0.6c0-0.2,0-0.4,0-0.6h0c-0.3,0.5-0.7,0.8-1.1,1c-0.4,0.2-0.9,0.3-1.5,0.3
		c-0.3,0-0.6,0-0.9-0.1c-0.3-0.1-0.6-0.2-0.8-0.4c-0.2-0.2-0.4-0.4-0.6-0.7c-0.1-0.3-0.2-0.6-0.2-0.9c0-0.6,0.2-1,0.5-1.4
		c0.3-0.3,0.7-0.6,1.1-0.7c0.5-0.2,0.9-0.3,1.5-0.3c0.5,0,1-0.1,1.4-0.1H149.6z M149.1,50.7c-0.3,0-0.6,0-1,0
		c-0.4,0-0.8,0.1-1.1,0.2c-0.4,0.1-0.7,0.3-0.9,0.5c-0.3,0.2-0.4,0.5-0.4,0.8c0,0.2,0,0.4,0.1,0.6c0.1,0.2,0.2,0.3,0.4,0.4
		c0.2,0.1,0.3,0.2,0.5,0.2c0.2,0,0.4,0.1,0.6,0.1c0.4,0,0.7-0.1,1-0.2c0.3-0.1,0.5-0.3,0.7-0.5c0.2-0.2,0.3-0.5,0.4-0.7
		c0.1-0.3,0.1-0.6,0.1-0.9v-0.5H149.1z"/>
	<path class="st0" d="M158.3,48.8c-0.2-0.3-0.4-0.5-0.7-0.7c-0.3-0.2-0.7-0.3-1.1-0.3c-0.4,0-0.8,0.1-1.1,0.2
		c-0.3,0.1-0.6,0.3-0.9,0.6c-0.2,0.3-0.4,0.6-0.5,0.9c-0.1,0.4-0.2,0.7-0.2,1.2c0,0.4,0.1,0.8,0.2,1.2c0.1,0.4,0.3,0.7,0.5,0.9
		c0.2,0.3,0.5,0.5,0.9,0.6c0.3,0.1,0.7,0.2,1.1,0.2c0.4,0,0.8-0.1,1.1-0.3c0.3-0.2,0.6-0.4,0.7-0.7l0.8,0.6
		c-0.4,0.4-0.8,0.7-1.2,0.9c-0.5,0.2-0.9,0.3-1.4,0.3c-0.6,0-1.1-0.1-1.6-0.3c-0.5-0.2-0.9-0.5-1.2-0.8c-0.3-0.3-0.6-0.7-0.8-1.2
		c-0.2-0.5-0.3-1-0.3-1.5c0-0.5,0.1-1.1,0.3-1.5c0.2-0.5,0.4-0.9,0.8-1.2c0.3-0.3,0.7-0.6,1.2-0.8c0.5-0.2,1-0.3,1.6-0.3
		c0.5,0,1,0.1,1.4,0.3c0.5,0.2,0.9,0.5,1.2,0.9L158.3,48.8z"/>
	<path class="st0" d="M161.9,44.3c0,0.2-0.1,0.4-0.2,0.5c-0.2,0.1-0.3,0.2-0.5,0.2c-0.2,0-0.4-0.1-0.5-0.2c-0.2-0.1-0.2-0.3-0.2-0.5
		c0-0.2,0.1-0.4,0.2-0.5c0.2-0.1,0.3-0.2,0.5-0.2c0.2,0,0.4,0.1,0.5,0.2C161.8,43.9,161.9,44.1,161.9,44.3 M161.7,54.3h-1v-7.2h1
		V54.3z"/>
	<path class="st0" d="M164.9,51c0,0.4,0.1,0.7,0.3,1c0.1,0.3,0.3,0.6,0.6,0.8c0.2,0.2,0.5,0.4,0.8,0.5c0.3,0.1,0.6,0.2,1,0.2
		c0.5,0,1-0.1,1.4-0.4c0.4-0.3,0.7-0.5,0.9-0.9l0.8,0.6c-0.4,0.5-0.9,0.9-1.4,1.2c-0.5,0.2-1.1,0.4-1.7,0.4c-0.5,0-1-0.1-1.5-0.3
		c-0.5-0.2-0.9-0.5-1.2-0.8c-0.3-0.3-0.6-0.7-0.8-1.2c-0.2-0.5-0.3-1-0.3-1.5c0-0.5,0.1-1,0.3-1.5c0.2-0.5,0.4-0.9,0.8-1.2
		c0.3-0.3,0.7-0.6,1.2-0.8c0.4-0.2,0.9-0.3,1.4-0.3c0.5,0,1,0.1,1.5,0.3c0.4,0.2,0.8,0.5,1.1,0.8c0.3,0.3,0.5,0.7,0.7,1.1
		c0.2,0.4,0.2,0.9,0.2,1.4V51H164.9z M169.8,50.2c0-0.7-0.2-1.2-0.6-1.7s-1-0.6-1.7-0.6c-0.3,0-0.6,0.1-1,0.2
		c-0.3,0.1-0.6,0.3-0.8,0.5c-0.2,0.2-0.4,0.5-0.6,0.7c-0.1,0.3-0.2,0.6-0.2,0.9H169.8z"/>
	<path class="st0" d="M177.7,51c0,0.4,0.1,0.7,0.3,1c0.1,0.3,0.3,0.6,0.6,0.8c0.2,0.2,0.5,0.4,0.8,0.5c0.3,0.1,0.6,0.2,1,0.2
		c0.5,0,1-0.1,1.4-0.4c0.4-0.3,0.7-0.5,0.9-0.9l0.8,0.6c-0.4,0.5-0.9,0.9-1.4,1.2c-0.5,0.2-1.1,0.4-1.7,0.4c-0.5,0-1-0.1-1.5-0.3
		c-0.5-0.2-0.9-0.5-1.2-0.8c-0.3-0.3-0.6-0.7-0.8-1.2c-0.2-0.5-0.3-1-0.3-1.5c0-0.5,0.1-1,0.3-1.5c0.2-0.5,0.4-0.9,0.8-1.2
		c0.3-0.3,0.7-0.6,1.2-0.8c0.4-0.2,0.9-0.3,1.4-0.3c0.5,0,1,0.1,1.5,0.3c0.4,0.2,0.8,0.5,1.1,0.8c0.3,0.3,0.5,0.7,0.7,1.1
		c0.2,0.4,0.2,0.9,0.2,1.4V51H177.7z M182.7,50.2c0-0.7-0.2-1.2-0.6-1.7s-1-0.6-1.7-0.6c-0.3,0-0.6,0.1-1,0.2
		c-0.3,0.1-0.6,0.3-0.8,0.5c-0.2,0.2-0.4,0.5-0.6,0.7c-0.1,0.3-0.2,0.6-0.2,0.9H182.7z"/>
	<path class="st0" d="M186.6,47.1c0,0.2,0,0.4,0,0.6c0,0.2,0,0.4,0,0.6h0c0.1-0.2,0.3-0.4,0.4-0.5c0.2-0.2,0.4-0.3,0.6-0.4
		c0.2-0.1,0.4-0.2,0.7-0.3c0.2-0.1,0.5-0.1,0.7-0.1c0.9,0,1.6,0.2,2.1,0.7c0.4,0.5,0.7,1.2,0.7,2.1v4.6h-1v-4c0-0.8-0.1-1.4-0.4-1.8
		c-0.3-0.4-0.8-0.6-1.5-0.6c-0.1,0-0.2,0-0.4,0.1c-0.2,0-0.5,0.2-0.7,0.3c-0.3,0.2-0.5,0.5-0.7,0.8c-0.2,0.4-0.3,0.9-0.3,1.5v3.7h-1
		v-5.6c0-0.2,0-0.4,0-0.7c0-0.3,0-0.6-0.1-0.8H186.6z"/>
	<path class="st0" d="M198.7,54.3h-1.3l4.8-10.9h1.1l4.8,10.9h-1.3l-1.2-2.9h-5.6L198.7,54.3z M200.3,50.5h4.7l-2.4-5.7L200.3,50.5z
		"/>
	<rect x="209.3" y="42.7" class="st0" width="1" height="11.7"/>
	<path class="st0" d="M213.4,55.8c0.3,0.4,0.7,0.7,1.2,1c0.5,0.2,1,0.4,1.6,0.4c0.5,0,1-0.1,1.3-0.2c0.4-0.2,0.7-0.4,0.9-0.6
		c0.2-0.3,0.4-0.6,0.5-0.9c0.1-0.3,0.1-0.7,0.1-1.1V53h0c-0.3,0.5-0.7,0.8-1.2,1c-0.5,0.2-1,0.3-1.5,0.3c-0.5,0-1-0.1-1.5-0.3
		c-0.5-0.2-0.9-0.4-1.2-0.8c-0.3-0.3-0.6-0.7-0.8-1.2c-0.2-0.5-0.3-0.9-0.3-1.5c0-0.5,0.1-1,0.3-1.5c0.2-0.5,0.4-0.8,0.8-1.2
		c0.3-0.3,0.7-0.6,1.2-0.8c0.4-0.2,0.9-0.3,1.5-0.3c0.2,0,0.4,0,0.7,0.1c0.2,0,0.5,0.1,0.7,0.2c0.2,0.1,0.5,0.2,0.7,0.4
		s0.5,0.4,0.7,0.7h0v-1.2h1v7.2c0,0.4,0,0.8-0.1,1.3c-0.1,0.4-0.3,0.8-0.6,1.2c-0.3,0.4-0.7,0.7-1.2,0.9c-0.5,0.2-1.2,0.4-2,0.4
		c-0.7,0-1.4-0.1-1.9-0.4c-0.6-0.2-1.1-0.6-1.5-1.1L213.4,55.8z M213.6,50.6c0,0.4,0.1,0.7,0.2,1.1c0.1,0.3,0.3,0.6,0.6,0.9
		c0.2,0.3,0.5,0.5,0.8,0.6c0.3,0.1,0.7,0.2,1.1,0.2c0.4,0,0.7-0.1,1.1-0.2c0.3-0.1,0.6-0.3,0.9-0.6c0.3-0.2,0.5-0.5,0.6-0.9
		c0.1-0.3,0.2-0.7,0.2-1.1c0-0.4-0.1-0.7-0.2-1.1c-0.1-0.3-0.3-0.6-0.5-0.9c-0.2-0.3-0.5-0.5-0.9-0.6c-0.3-0.1-0.7-0.2-1.1-0.2
		c-0.4,0-0.7,0.1-1.1,0.2c-0.3,0.2-0.6,0.4-0.8,0.6c-0.2,0.3-0.4,0.5-0.6,0.9C213.6,49.9,213.6,50.3,213.6,50.6"/>
	<path class="st0" d="M223,51c0,0.4,0.1,0.7,0.3,1c0.1,0.3,0.3,0.6,0.6,0.8c0.2,0.2,0.5,0.4,0.8,0.5c0.3,0.1,0.6,0.2,1,0.2
		c0.5,0,1-0.1,1.4-0.4c0.4-0.3,0.7-0.5,0.9-0.9l0.8,0.6c-0.4,0.5-0.9,0.9-1.4,1.2c-0.5,0.2-1.1,0.4-1.7,0.4c-0.5,0-1-0.1-1.5-0.3
		c-0.5-0.2-0.9-0.5-1.2-0.8c-0.3-0.3-0.6-0.7-0.8-1.2c-0.2-0.5-0.3-1-0.3-1.5c0-0.5,0.1-1,0.3-1.5c0.2-0.5,0.4-0.9,0.8-1.2
		c0.3-0.3,0.7-0.6,1.2-0.8c0.4-0.2,0.9-0.3,1.4-0.3c0.5,0,1,0.1,1.5,0.3c0.4,0.2,0.8,0.5,1.1,0.8c0.3,0.3,0.5,0.7,0.7,1.1
		c0.2,0.4,0.2,0.9,0.2,1.4V51H223z M227.9,50.2c0-0.7-0.2-1.2-0.6-1.7c-0.4-0.4-1-0.6-1.7-0.6c-0.3,0-0.6,0.1-1,0.2
		c-0.3,0.1-0.6,0.3-0.8,0.5c-0.2,0.2-0.4,0.5-0.6,0.7c-0.1,0.3-0.2,0.6-0.2,0.9H227.9z M225.4,45.6h-0.9l1.5-2.2h1.4L225.4,45.6z"/>
	<path class="st0" d="M230.9,49.4c0-0.3,0-0.6,0-1c0-0.3,0-0.8,0-1.3h1v1.3h0c0.1-0.2,0.2-0.4,0.3-0.6c0.1-0.2,0.3-0.3,0.5-0.5
		c0.2-0.1,0.4-0.3,0.7-0.3c0.3-0.1,0.5-0.1,0.9-0.1c0.3,0,0.5,0,0.8,0.1l-0.2,1c-0.1-0.1-0.3-0.1-0.6-0.1c-0.4,0-0.7,0.1-1,0.2
		c-0.3,0.1-0.5,0.3-0.7,0.6c-0.2,0.2-0.3,0.5-0.4,0.7c-0.1,0.3-0.1,0.5-0.1,0.8v4.1h-1V49.4z"/>
	<path class="st0" d="M237.4,44.3c0,0.2-0.1,0.4-0.2,0.5c-0.2,0.1-0.3,0.2-0.5,0.2c-0.2,0-0.4-0.1-0.5-0.2c-0.2-0.1-0.2-0.3-0.2-0.5
		c0-0.2,0.1-0.4,0.2-0.5c0.2-0.1,0.3-0.2,0.5-0.2c0.2,0,0.4,0.1,0.5,0.2C237.4,43.9,237.4,44.1,237.4,44.3 M237.2,54.3h-1v-7.2h1
		V54.3z"/>
	<path class="st0" d="M240.4,51c0,0.4,0.1,0.7,0.3,1c0.1,0.3,0.3,0.6,0.6,0.8c0.2,0.2,0.5,0.4,0.8,0.5c0.3,0.1,0.6,0.2,1,0.2
		c0.5,0,1-0.1,1.4-0.4c0.4-0.3,0.7-0.5,0.9-0.9l0.8,0.6c-0.4,0.5-0.9,0.9-1.4,1.2c-0.5,0.2-1.1,0.4-1.7,0.4c-0.5,0-1-0.1-1.5-0.3
		c-0.5-0.2-0.9-0.5-1.2-0.8c-0.3-0.3-0.6-0.7-0.8-1.2c-0.2-0.5-0.3-1-0.3-1.5c0-0.5,0.1-1,0.3-1.5c0.2-0.5,0.4-0.9,0.8-1.2
		c0.3-0.3,0.7-0.6,1.2-0.8c0.4-0.2,0.9-0.3,1.4-0.3c0.5,0,1,0.1,1.5,0.3c0.4,0.2,0.8,0.5,1.1,0.8c0.3,0.3,0.5,0.7,0.7,1.1
		c0.2,0.4,0.2,0.9,0.2,1.4V51H240.4z M245.3,50.2c0-0.7-0.2-1.2-0.6-1.7s-1-0.6-1.7-0.6c-0.3,0-0.6,0.1-1,0.2
		c-0.3,0.1-0.6,0.3-0.8,0.5c-0.2,0.2-0.4,0.5-0.6,0.7c-0.1,0.3-0.2,0.6-0.2,0.9H245.3z"/>
</g>
</svg>
